<?xml version="1.0" encoding="UTF-8" standalone="no"?>
<svg
   xmlns:dc="http://purl.org/dc/elements/1.1/"
   xmlns:cc="http://creativecommons.org/ns#"
   xmlns:rdf="http://www.w3.org/1999/02/22-rdf-syntax-ns#"
   xmlns:svg="http://www.w3.org/2000/svg"
   xmlns="http://www.w3.org/2000/svg"
   xmlns:sodipodi="http://sodipodi.sourceforge.net/DTD/sodipodi-0.dtd"
   xmlns:inkscape="http://www.inkscape.org/namespaces/inkscape"
   viewBox="0 0 512 512"
   version="1.1"
   id="svg12"
   sodipodi:docname="ad_round.svg"
   inkscape:version="1.0.1 (3bc2e813f5, 2020-09-07)">
  <metadata
     id="metadata18">
    <rdf:RDF>
      <cc:Work
         rdf:about="">
        <dc:format>image/svg+xml</dc:format>
        <dc:type
           rdf:resource="http://purl.org/dc/dcmitype/StillImage" />
      </cc:Work>
    </rdf:RDF>
  </metadata>
  <defs
     id="defs16" />
  <sodipodi:namedview
     pagecolor="#ffffff"
     bordercolor="#666666"
     borderopacity="1"
     objecttolerance="10"
     gridtolerance="10"
     guidetolerance="10"
     inkscape:pageopacity="0"
     inkscape:pageshadow="2"
     inkscape:window-width="640"
     inkscape:window-height="480"
     id="namedview14"
     showgrid="false"
     inkscape:current-layer="svg12" />
  <path
     fill="#ffda44"
     d="M144.696 486.598C178.352 502.872 216.109 512 256 512s77.648-9.128 111.304-25.402L389.565 256 367.304 25.402C333.648 9.128 295.891 0 256 0s-77.648 9.128-111.304 25.402L122.435 256l22.261 230.598z"
     id="path2" />
  <path
     fill="#d80027"
     d="M367.304 486.589C452.935 445.183 512 357.493 512 256S452.935 66.817 367.304 25.411v461.178z"
     id="path4" />
  <path
     fill="#0052b4"
     d="M144.696 486.589V25.411C59.065 66.817 0 154.506 0 256s59.065 189.183 144.696 230.589z"
     id="path6" />
  <path
     fill="#d80027"
     d="M256 345.043V256h66.783v33.391c0 5.801-11.13 27.057-38.603 44.522-10.405 6.616-21.176 8.744-28.18 11.13zm-66.783-155.826H256V256h-66.783z"
     id="path8" />
  <path
     id="path10"
     style="fill:#acabb1;fill-opacity:1"
     d="m 266.21875,148.7207 c -3.24231,0.17459 -6.43588,1.22357 -9.1499,2.99509 -1.05373,0.53019 -2.22205,0.0445 -3.11182,-0.57907 -5.4734,-3.22209 -12.65165,-3.25855 -18.13239,-0.0332 -4.98636,2.78817 -8.46707,8.04614 -9.08495,13.72618 -0.24249,1.48757 -0.0482,2.97625 -0.23774,4.42612 -0.28709,1.26944 -1.66533,1.99749 -2.89492,1.70117 -17.55,0 -35.1,0 -52.65,0 0.003,36.33432 -0.0157,72.66888 0.0239,109.00303 0.0716,4.27909 0.60852,8.70708 1.48392,12.79189 0.54736,2.53024 1.24571,5.05998 2.05286,7.43987 4.2649,12.70763 12.57745,23.74049 22.54558,32.56323 8.80275,7.82582 18.98986,14.15812 29.59316,19.36753 1.54617,0.75144 3.09234,1.50289 4.63848,2.25437 -1.90385,3.17931 -4.00582,6.42122 -4.47194,10.18312 -1.07941,6.54494 1.82256,13.52264 7.17698,17.42431 5.54771,4.18066 13.5644,4.77607 19.61606,1.32242 0.82063,-0.4328 1.62047,-0.9037 2.43281,-1.35172 3.18842,2.11474 6.90211,3.59228 10.76943,3.60556 3.70078,0.0939 7.57722,-1.06146 10.67103,-3.23076 4.93507,-3.32002 7.99069,-9.19472 7.88985,-15.1408 0.009,-3.42351 -1.03979,-6.79622 -2.84203,-9.69494 -0.59648,-1.04904 -1.19178,-2.09875 -1.78711,-3.14844 3.17193,-1.52069 6.34224,-3.0469 9.44531,-4.70508 0.63034,-0.34855 1.52088,-0.81895 2.1678,-1.17904 3.55447,-1.95934 7.02739,-4.06652 10.40251,-6.32096 0.67778,-0.47142 1.6119,-1.08892 2.37354,-1.64012 9.26562,-6.54925 17.7238,-14.42639 24.10693,-23.85597 0.52401,-0.79404 1.19912,-1.81643 1.74892,-2.7202 3.12212,-5.08895 5.62423,-10.56865 7.31163,-16.29933 0.11486,-0.39831 0.30097,-1.04475 0.42164,-1.51832 0.44322,-1.65437 0.88244,-3.54571 1.20829,-5.34475 0.17017,-0.96485 0.32052,-1.87969 0.43814,-2.76204 0.17648,-1.26788 0.28727,-2.33615 0.39925,-3.62683 0.47222,-5.43328 0.19828,-10.89141 0.26901,-16.33673 0,-32.35977 0,-64.71953 0,-97.0793 -18.52539,0 -37.05078,0 -55.57617,0 -0.0433,-3.68422 0.0753,-7.51865 -1.45001,-10.96281 -2.55451,-6.32256 -8.907,-10.92112 -15.73437,-11.25935 -0.68661,-0.0488 -1.37634,-0.0451 -2.06367,-0.0142 z m -67.87109,47.62696 c 39.10156,0 78.20312,0 117.30468,0 -0.009,28.0299 0.0261,56.06019 -0.0254,84.08984 -0.23829,8.88218 -3.78383,17.46444 -9.20593,24.42902 -6.63913,8.64557 -15.56905,15.23195 -24.96704,20.60377 -8.07195,4.60491 -16.6564,8.26678 -25.45593,11.23283 -13.85307,-4.69042 -27.28443,-11.08695 -38.81055,-20.18164 -7.44615,-5.94726 -14.05961,-13.2948 -17.77464,-22.16765 -2.25368,-5.34031 -3.23969,-11.17148 -3.06328,-16.95617 -6.3e-4,-27.01667 -0.001,-54.03334 -0.002,-81.05 0.66666,0 1.33333,0 2,0 z" />
</svg>
