<?xml version="1.0" encoding="UTF-8" standalone="no"?>
<svg
   xmlns:dc="http://purl.org/dc/elements/1.1/"
   xmlns:cc="http://creativecommons.org/ns#"
   xmlns:rdf="http://www.w3.org/1999/02/22-rdf-syntax-ns#"
   xmlns:svg="http://www.w3.org/2000/svg"
   xmlns="http://www.w3.org/2000/svg"
   xmlns:sodipodi="http://sodipodi.sourceforge.net/DTD/sodipodi-0.dtd"
   xmlns:inkscape="http://www.inkscape.org/namespaces/inkscape"
   width="768"
   height="512"
   viewBox="0 0 768 512"
   version="1.1"
   id="svg10"
   sodipodi:docname="ad_rect.svg"
   inkscape:version="1.0.1 (3bc2e813f5, 2020-09-07)">
  <metadata
     id="metadata16">
    <rdf:RDF>
      <cc:Work
         rdf:about="">
        <dc:format>image/svg+xml</dc:format>
        <dc:type
           rdf:resource="http://purl.org/dc/dcmitype/StillImage" />
      </cc:Work>
    </rdf:RDF>
  </metadata>
  <defs
     id="defs14" />
  <sodipodi:namedview
     pagecolor="#ffffff"
     bordercolor="#666666"
     borderopacity="1"
     objecttolerance="10"
     gridtolerance="10"
     guidetolerance="10"
     inkscape:pageopacity="0"
     inkscape:pageshadow="2"
     inkscape:window-width="640"
     inkscape:window-height="480"
     id="namedview12"
     showgrid="false"
     inkscape:current-layer="svg10" />
  <path
     fill="#ffda44"
     d="M 0,0 H 768 V 512 H 0 Z"
     id="path2"
     style="display:inline" />
  <path
     fill="#0052b4"
     d="M0 0h255.994v512H0z"
     id="path4" />
  <path
     fill="#d80027"
     d="M 512.005,0 H 768 V 512 H 512.005 Z M 384,345.034 v -89.042 h 66.783 v 33.39 c 0,5.803 -11.132,27.058 -38.602,44.523 -10.407,6.617 -21.177,8.744 -28.181,11.129 z M 317.217,189.211 H 384 v 66.782 h -66.783 z"
     id="path6"
     style="display:inline" />
  <path
     id="path8"
     style="display:inline;fill:#acabb1;fill-opacity:1"
     d="m 371.875,148.71875 c -6.95953,0.29874 -13.48889,4.99457 -15.98179,11.50088 -1.0979,2.67915 -1.37809,5.67642 -1.3176,8.49377 7e-4,1.44478 -1.46973,2.59722 -2.87053,2.23582 -17.58268,0 -35.16537,0 -52.74805,0 0.003,36.33431 -0.0157,72.66887 0.0239,109.00303 0.0859,4.65288 0.67256,9.29416 1.71437,13.829 0.11396,0.44517 0.25125,1.06276 0.38864,1.57745 2.6545,10.54934 8.107,20.2665 15.18558,28.47919 4.0559,4.73036 8.63163,8.99949 13.51367,12.86523 1.18204,0.93078 2.56377,1.97317 3.85154,2.90811 7.22656,5.21781 14.99732,9.67645 23.05917,13.46111 1.37434,0.3463 2.11562,2.02449 1.43695,3.27336 -1.24619,2.0606 -2.42491,4.20296 -2.98549,6.56774 -1.68657,6.49808 0.63728,13.8173 5.75168,18.16146 5.37301,4.7996 13.71737,5.87553 20.11359,2.54018 1.03291,-0.51732 2.02158,-1.11717 3.03233,-1.67563 3.15733,2.0859 6.81502,3.57385 10.64274,3.60765 5.56033,0.19441 11.0778,-2.39858 14.58313,-6.69726 3.99702,-4.76851 5.17581,-11.6463 3.12093,-17.50231 -0.85185,-2.50862 -2.40264,-4.68969 -3.63782,-7.01355 4.59773,-2.17843 9.15424,-4.45062 13.57032,-6.98046 1.1416,-0.65206 2.48327,-1.44489 3.68593,-2.17672 7.15494,-4.36399 14.069,-9.54168 20.00547,-15.28227 8.96101,-8.64943 16.27531,-19.25699 19.96294,-31.22841 0.38989,-1.24697 0.75236,-2.53852 1.08394,-3.87315 0.17855,-0.74026 0.40552,-1.71266 0.56069,-2.47587 0.59708,-2.84732 1.01649,-5.88991 1.22642,-8.6921 0.13635,-1.82437 0.19333,-3.52574 0.19336,-5.38555 6.5e-4,-35.76341 10e-4,-71.52682 0.002,-107.29023 -18.52474,0 -37.04948,0 -55.57422,0 -0.0187,-1.32215 -0.0295,-2.91573 -0.0684,-4.06836 -0.0587,-3.35688 -0.94232,-6.71337 -2.74951,-9.55891 -3.10062,-5.00101 -8.70408,-8.38279 -14.60684,-8.60503 -3.92088,-0.23299 -7.83309,0.95037 -11.12087,3.0616 -0.54327,0.38666 -1.08598,0.71517 -1.61983,0.12649 -2.79591,-1.78444 -6.00284,-3.01333 -9.33654,-3.18235 -0.54305,-0.0443 -1.42563,-0.0231 -2.0918,-0.004 z m -45.52539,47.625 c 39.10091,0 78.20182,0 117.30273,0 -0.009,28.0299 0.0261,56.06018 -0.0254,84.08984 -0.23598,8.78607 -3.70897,17.28148 -9.0332,24.20313 -6.69454,8.79931 -15.7572,15.48035 -25.29294,20.9161 -8.02739,4.56495 -16.56067,8.19198 -25.30276,11.14445 -13.62613,-4.61771 -26.84148,-10.87687 -38.24417,-19.73614 -7.62047,-5.97958 -14.41414,-13.39016 -18.24503,-22.38812 -2.34603,-5.44512 -3.34425,-11.41703 -3.15924,-17.33082 0,-26.96615 0,-53.93229 0,-80.89844 0.66667,0 1.33333,0 2,0 z" />
</svg>
