<?xml version="1.0" encoding="UTF-8" standalone="no"?>
<svg
   xmlns:dc="http://purl.org/dc/elements/1.1/"
   xmlns:cc="http://creativecommons.org/ns#"
   xmlns:rdf="http://www.w3.org/1999/02/22-rdf-syntax-ns#"
   xmlns:svg="http://www.w3.org/2000/svg"
   xmlns="http://www.w3.org/2000/svg"
   xmlns:sodipodi="http://sodipodi.sourceforge.net/DTD/sodipodi-0.dtd"
   xmlns:inkscape="http://www.inkscape.org/namespaces/inkscape"
   viewBox="0 0 512 512"
   version="1.1"
   id="svg14"
   sodipodi:docname="ad_square.svg"
   inkscape:version="1.0.1 (3bc2e813f5, 2020-09-07)">
  <metadata
     id="metadata20">
    <rdf:RDF>
      <cc:Work
         rdf:about="">
        <dc:format>image/svg+xml</dc:format>
        <dc:type
           rdf:resource="http://purl.org/dc/dcmitype/StillImage" />
      </cc:Work>
    </rdf:RDF>
  </metadata>
  <defs
     id="defs18" />
  <sodipodi:namedview
     pagecolor="#ffffff"
     bordercolor="#666666"
     borderopacity="1"
     objecttolerance="10"
     gridtolerance="10"
     guidetolerance="10"
     inkscape:pageopacity="0"
     inkscape:pageshadow="2"
     inkscape:window-width="640"
     inkscape:window-height="480"
     id="namedview16"
     showgrid="false"
     inkscape:current-layer="svg14" />
  <path
     fill="#ffda44"
     d="M0 0h512v512H0z"
     id="path2" />
  <path
     fill="#0052b4"
     d="M0 0h170.663v512H0z"
     id="path4" />
  <g
     fill="#d80027"
     id="g10">
    <path
       d="M341.337 0H512v512H341.337zM256 321.855v-66.783h50.087v25.043c0 4.351-8.348 20.292-28.951 33.391-7.805 4.964-15.882 6.56-21.136 8.349z"
       id="path6" />
    <path
       d="M205.913 204.989H256v50.087h-50.087z"
       id="path8" />
  </g>
  <path
     id="path12"
     style="fill:#acabb1;fill-opacity:1"
     d="m 263.74805,175.60547 c -2.58435,0.10175 -5.03481,1.13328 -7.18164,2.52539 -0.99284,0.0309 -1.91327,-0.34442 -2.71094,-0.9082 -4.08045,-2.33709 -9.46287,-2.14874 -13.32037,0.56492 -3.31558,2.20747 -5.46714,6.04301 -5.55973,10.03321 -0.0891,1.48762 -0.0633,2.97885 -0.0887,4.46827 -13.88998,0 -27.77995,0 -41.66992,0 0.009,27.05862 -0.028,54.11767 0.0275,81.17602 0.044,1.77008 0.20298,3.61353 0.42952,5.26375 0.4921,3.67218 1.4753,7.44938 2.75395,10.80828 0.23409,0.60684 0.45376,1.17712 0.67226,1.67978 4.10739,9.74961 11.37809,17.86556 19.69821,24.25838 6.20266,4.78759 13.05727,8.65483 20.12563,12.0052 0.64844,0.31836 1.29687,0.63672 1.94531,0.95508 -0.52461,0.88336 -1.14343,1.92926 -1.61009,2.71186 -0.33812,0.58112 -0.50069,0.88992 -0.8196,1.48931 -2.1495,3.89147 -1.92389,8.88903 0.44261,12.63133 2.35934,3.90695 6.96793,6.26035 11.51442,5.9507 2.4163,-0.0839 4.68336,-1.04906 6.70811,-2.31295 0.53188,-0.38708 1.06367,-0.66754 1.59484,-0.11404 2.0246,1.25643 4.25622,2.29559 6.67362,2.41527 4.21471,0.34245 8.52472,-1.5588 11.06836,-4.94531 2.93889,-3.81735 3.47618,-9.35682 1.12794,-13.59711 -0.76258,-1.44342 -1.60095,-2.8453 -2.39747,-4.27008 8.69056,-4.04303 17.15701,-8.74563 24.52999,-14.92059 3.90454,-3.25477 7.49882,-6.8976 10.58133,-10.94464 0.42636,-0.57599 1.03869,-1.3906 1.50819,-2.08272 4.92238,-7.02527 8.02408,-15.32388 8.76806,-23.87873 0.40686,-4.36294 0.15233,-8.74917 0.2218,-13.12332 0,-23.71849 0,-47.43698 0,-71.15547 -13.88997,0 -27.77995,0 -41.66992,0 -0.0567,-3.22582 0.18731,-6.64601 -1.36397,-9.59903 -1.97418,-4.13276 -6.48292,-7.02302 -10.97588,-7.08261 -0.34126,-0.013 -0.68212,-0.0161 -1.02343,-0.002 z m -51.48828,33.72656 c 29.82552,0 59.65104,0 89.47656,0 -0.007,21.44263 0.0216,42.8859 -0.0254,64.32813 -0.251,7.63703 -3.68509,14.90375 -8.67081,20.59471 -6.34424,7.34361 -14.68473,12.64956 -23.33833,16.87277 -4.43705,2.15172 -9.03845,3.94587 -13.70375,5.53642 -11.24977,-3.81488 -22.19848,-9.03797 -31.32814,-16.7396 -5.98265,-5.08998 -11.08588,-11.5731 -13.26988,-19.21871 -1.18408,-3.97271 -1.2013,-8.15407 -1.14026,-12.262 0,-19.70391 0,-39.40781 0,-59.11172 0.66666,0 1.33333,0 2,0 z" />
</svg>
