<svg xmlns="http://www.w3.org/2000/svg" width="768" height="512" viewBox="0 0 768 512">
    <path fill="#d80027" d="M247.5 0h270v512h-270z"/>
    <path fill="#496e2d" d="M513 0h255v512H513z"/>
    <path d="M0 0h255v512H0z"/>
    <g fill="#f0f0f0">
        <path d="M384 149.154c-59.014 0-106.852 47.84-106.852 106.852 0 59.013 47.84 106.852 106.852 106.852s106.852-47.84 106.852-106.852c0-59.013-47.838-106.852-106.852-106.852zm0 173.635c-36.883 0-66.782-29.9-66.782-66.783 0-36.882 29.9-66.783 66.782-66.783s66.782 29.9 66.782 66.783c0 36.882-29.899 66.783-66.782 66.783z"/>
        <path d="M384 215.937c-14.754 0-26.713 11.959-26.713 26.713v40.07h53.426v-40.07c0-14.754-11.959-26.713-26.713-26.713z"/>
    </g>
</svg>
