<svg xmlns="http://www.w3.org/2000/svg" viewBox="0 0 512 512">
    <path fill="#d80027" d="M165 0h180v512H165z"/>
    <g fill="#f0f0f0">
        <path d="M256 184.766c-39.342 0-71.234 31.892-71.234 71.234s31.892 71.234 71.234 71.234 71.234-31.892 71.234-71.234-31.892-71.234-71.234-71.234zm0 115.756c-24.589 0-44.522-19.934-44.522-44.522 0-24.588 19.934-44.522 44.522-44.522 24.588 0 44.522 19.934 44.522 44.522 0 24.588-19.933 44.522-44.522 44.522z"/>
        <path d="M256 229.287c-9.836 0-17.809 7.973-17.809 17.809v26.713h35.618v-26.713c0-9.836-7.973-17.809-17.809-17.809z"/>
    </g>
    <path fill="#496e2d" d="M342 0h170v512H342z"/>
    <path d="M0 0h170v512H0z"/>
</svg>
