<svg xmlns="http://www.w3.org/2000/svg" width="768" height="512" viewBox="0 0 768 512">
    <path d="M0 .003h768v511.994H0z"/>
    <path fill="#0052b4" d="M133.126 204.797a257.145 257.145 0 0 0-5.125 51.202c0 17.535 1.768 34.657 5.125 51.201L384 322.78l250.874-15.583a257.145 257.145 0 0 0 5.125-51.202c0-17.536-1.768-34.657-5.125-51.201"/>
    <path fill="#f0f0f0" d="M634.874 307.197H133.126C156.846 424.048 260.151 512 384 512c123.849 0 227.154-87.952 250.874-204.803z"/>
    <path fill="#ffda44" d="M343.341 148.803l6.261-49.89L384 135.605l34.4-36.694 6.258 49.89 49.385-9.446-24.217 44.05 45.478 21.391H272.696l45.48-21.393-24.22-44.048z"/>
    <path fill="#a2001d" d="M0 0v511.994h383.995zm768 0L384.005 511.994H768z"/>
</svg>
