<svg xmlns="http://www.w3.org/2000/svg" width="768" height="512" viewBox="0 0 768 512">
    <path fill="#0052b4" d="M0 .008h768V512H0z"/>
    <path fill="#f0f0f0" d="M649.163 324.111c7.746-10.658 12.921-23.674 12.921-39.436V167.537a58.301 58.301 0 0 1-35.142 11.715c-19.162 0-36.17-9.202-46.858-23.425-10.687 14.223-27.696 23.425-46.858 23.425a58.321 58.321 0 0 1-35.142-11.71v117.134c0 15.763 5.175 28.781 12.921 39.437h138.158z"/>
    <path fill="#ff9811" d="M624.793 262.943c3.729-9.097 6.63-22.397 6.63-29.018 0-10.635-13.865-19.256-13.865-19.256s-13.865 8.621-13.865 19.256c0 6.621 2.901 19.92 6.63 29.018l-8.004 18.072a40.353 40.353 0 0 0 15.24 2.976 40.353 40.353 0 0 0 15.238-2.976zm-54.189-58.514c-9.742 1.32-22.709 5.46-28.442 8.77-9.212 5.319-9.745 21.634-9.745 21.634s14.398 7.696 23.608 2.379c5.734-3.31 15.8-12.471 21.811-20.25l19.656-2.105a40.44 40.44 0 0 0-5.042-14.684 40.386 40.386 0 0 0-10.197-11.71zm-23.577 76.189c6.013 7.774 16.082 16.935 21.814 20.244 9.211 5.316 23.609-2.38 23.609-2.38s-.536-16.316-9.745-21.634c-5.736-3.31-18.701-7.447-28.446-8.765l-11.647-15.967a40.455 40.455 0 0 0-10.197 11.707 40.415 40.415 0 0 0-5.042 14.687z"/>
    <path fill="#338af3" d="M508.112 319.818c21.878 35.102 71.974 46.851 71.974 46.851s50.095-11.75 71.974-46.851z"/>
    <path fill="#f0f0f0" d="M384 152H216.009v103.994H240v-73.375l110.058 73.375H384l-120.009-80.003h33.942L384 233.373v-11.302l-69.103-46.079H384zM263.991 79.994L384 .007h-33.942L240 73.367V.006h-23.991V104H384V79.994h-69.104L384 33.932V22.63l-86.066 57.364zM144 .007v73.36L33.942.006H0l120.009 79.987H86.066L0 22.628v11.304l69.104 46.062H0v24.009h167.991V.007zM0 152v23.99h69.103L0 222.07v11.303l86.066-57.381h33.941L0 255.995h33.942L144 182.62v73.375h23.991V152z"/>
    <g fill="#d80027">
        <path d="M0 151.997h168v103.998h48V151.997h168v-47.999H216V0h-48v103.998H0z"/>
        <path d="M120 79.999L0 0v22.624l86.066 57.375zm144 0h33.934L384 22.624V0zM86.066 175.997L0 233.373v22.622l120-79.998zm177.934 0l120 79.998v-22.622l-86.066-57.376z"/>
    </g>
</svg>
