<svg xmlns="http://www.w3.org/2000/svg" viewBox="0 0 512 512">
    <path fill="#0052b4" d="M.002.002H512V512H.002z"/>
    <path fill="#f0f0f0" d="M444.296 360.022c6.235-8.58 10.4-19.056 10.4-31.743v-94.286a46.925 46.925 0 0 1-28.285 9.43c-15.424 0-29.114-7.407-37.715-18.856-8.602 11.449-22.292 18.855-37.714 18.855a46.942 46.942 0 0 1-28.286-9.425v94.283c0 12.687 4.166 23.166 10.4 31.743h111.2z"/>
    <path fill="#ff9811" d="M424.681 310.787c3.001-7.323 5.337-18.028 5.337-23.357 0-8.56-11.16-15.5-11.16-15.5s-11.16 6.94-11.16 15.5c0 5.329 2.335 16.034 5.335 23.357l-6.442 14.546a32.479 32.479 0 0 0 12.266 2.395c4.34 0 8.479-.855 12.265-2.395zm-43.616-47.097c-7.841 1.061-18.278 4.394-22.893 7.059-7.415 4.28-7.844 17.413-7.844 17.413s11.59 6.194 19.002 1.915c4.615-2.665 12.717-10.038 17.556-16.3l15.82-1.694a32.551 32.551 0 0 0-4.06-11.82 32.507 32.507 0 0 0-8.206-9.425zm-18.975 61.323c4.839 6.258 12.943 13.63 17.557 16.295 7.414 4.28 19.002-1.915 19.002-1.915s-.43-13.133-7.843-17.414c-4.617-2.665-15.052-5.994-22.896-7.055l-9.375-12.852a32.562 32.562 0 0 0-8.207 9.423 32.531 32.531 0 0 0-4.058 11.822z"/>
    <path fill="#338af3" d="M330.765 356.566c17.611 28.254 57.931 37.711 57.931 37.711s40.322-9.457 57.932-37.711z"/>
    <path fill="#f0f0f0" d="M255.999 0v48.896l-40.147 40.147h40.147v77.913h-52.536l52.536 52.535v36.508H232.28l-65.324-65.335v65.335H89.043v-77.724l-77.712 77.724H0v-48.896l40.147-40.147H0V89.043h52.535L0 36.508V0h23.719l65.324 65.335V0h77.913v77.723L244.668 0z"/>
    <path fill="#d80027" d="M0 152h104v103.999h48V152h103.999v-48H152V0h-48v104H0z"/>
    <path fill="#0052b4" d="M166.956 166.956l89.043 89.043v-25.18l-63.863-63.863z"/>
    <path fill="#f0f0f0" d="M166.956 166.956l89.043 89.043v-25.18l-63.863-63.863z"/>
    <path fill="#d80027" d="M166.956 166.956l89.043 89.043v-25.18l-63.863-63.863zm-103.094.002L0 230.82v25.179l89.041-89.041z"/>
    <path fill="#0052b4" d="M89.043 89.043L0 0v25.18l63.863 63.863z"/>
    <path fill="#f0f0f0" d="M89.043 89.043L0 0v25.18l63.863 63.863z"/>
    <path fill="#d80027" d="M89.043 89.043L0 0v25.18l63.863 63.863zm103.094-.002l63.862-63.862V0l-89.041 89.041z"/>
</svg>
