<svg xmlns="http://www.w3.org/2000/svg" width="768" height="512" viewBox="0 0 768 512">
    <path fill="#d80027" d="M0 0h768v512H0z"/>
    <path d="M528.696 190.001h-92.725c5.725-5.993 9.247-14.107 9.247-23.051 0-18.443-14.949-33.391-33.392-33.391-11.617 0-21.844 5.935-27.826 14.936-5.982-9-16.207-14.936-27.826-14.936-18.443 0-33.392 14.948-33.392 33.39 0 8.945 3.523 17.059 9.248 23.052h-92.726c0 24.59 21.417 44.52 46.005 44.52h-1.482c0 24.59 19.933 44.523 44.523 44.523 0 7.963 2.099 15.43 5.763 21.892l-36.928 36.93 28.332 28.333 40.19-40.191a30.654 30.654 0 0 0 4.886 1.354l-24.286 54.835L384 422.947l37.695-40.75-24.286-54.835a30.454 30.454 0 0 0 4.885-1.354l40.191 40.19 28.332-28.331-36.931-36.931a44.24 44.24 0 0 0 5.762-21.893c24.59 0 44.523-19.933 44.523-44.522h-1.482c24.59.001 46.007-19.93 46.007-44.52z"/>
</svg>
