<svg xmlns="http://www.w3.org/2000/svg" viewBox="0 0 512 512">
    <path fill="#d80027" d="M0 0h512v512H0z"/>
    <path d="M381 179.761h-80.104a28.734 28.734 0 0 0 7.989-19.914c0-15.932-12.914-28.846-28.846-28.846-10.036 0-18.871 5.127-24.039 12.903-5.168-7.774-14.001-12.903-24.039-12.903-15.932 0-28.846 12.914-28.846 28.846a28.739 28.739 0 0 0 7.989 19.914H131c0 21.242 18.502 38.46 39.743 38.46h-1.28c0 21.242 17.22 38.463 38.462 38.463a38.214 38.214 0 0 0 4.979 18.912L181.002 307.5l24.475 24.476 34.72-34.72a26.48 26.48 0 0 0 4.221 1.17l-20.98 47.371L256 381l32.564-35.203-20.98-47.371a26.309 26.309 0 0 0 4.22-1.17l34.72 34.72 24.475-24.476-31.904-31.904a38.219 38.219 0 0 0 4.979-18.913c21.242 0 38.462-17.22 38.462-38.462h-1.28c21.242 0 39.744-17.217 39.744-38.459z"/>
</svg>
