<svg xmlns="http://www.w3.org/2000/svg" width="768" height="512" viewBox="0 0 768 512">
    <path d="M0 0h768v512H0z"/>
    <path fill="#d80027" d="M0 0h768v255.992H0z"/>
    <g fill="#ffda44">
        <path d="M405.72 244.836l-8.304-25.498 21.687-15.777-26.816.018-8.302-25.5-8.272 25.51-26.816.016 21.704 15.75-8.27 25.507 21.684-15.774z"/>
        <path d="M447.999 145.143c-20.174-11.647-42.23-17.145-63.999-17.106v33.382a93.996 93.996 0 0 1 47.304 12.64c45.178 26.084 60.714 84.058 34.629 129.236-26.082 45.178-84.06 60.714-129.237 34.63a93.986 93.986 0 0 1-31.62-29.822L277.2 326.507c10.599 16.109 24.993 30.056 42.8 40.337 61.125 35.288 139.56 14.272 174.85-46.85 35.29-61.125 14.274-139.562-46.851-174.851z"/>
        <path d="M310.188 233.732c-8.85 16.179-2.909 36.47 13.269 45.32l108.449 59.259c-7.374 13.482-3.46 29.89 10.023 37.264l29.296 16.024c13.482 7.376 30.391 2.424 37.767-11.058l16.024-29.293z"/>
    </g>
</svg>
