<svg xmlns="http://www.w3.org/2000/svg" viewBox="0 0 512 512">
    <path d="M0 0h512v512H0z"/>
    <path fill="#d80027" d="M0 0h512v256H0z"/>
    <g fill="#ffda44">
        <path d="M227.65 204.579l19.267 13.98-7.342 22.645 19.25-14.003 19.27 13.982-7.373-22.638 19.253-14.005-23.806.015-7.37-22.636-7.344 22.645z"/>
        <path d="M315.627 152.677a112.89 112.89 0 0 0-56.815-15.186v29.636a83.444 83.444 0 0 1 41.994 11.222c40.108 23.155 53.9 74.624 30.742 114.73-23.154 40.108-74.624 53.9-114.73 30.743a83.436 83.436 0 0 1-28.071-26.475L164 313.687c9.41 14.3 22.188 26.681 37.995 35.808 54.264 31.328 123.895 12.67 155.225-41.592 31.329-54.263 12.671-123.896-41.593-155.226z"/>
        <path d="M193.285 231.325c-7.856 14.363-2.582 32.376 11.78 40.234l96.275 52.607c-6.546 11.969-3.07 26.535 8.898 33.082l26.008 14.226c11.97 6.547 26.98 2.151 33.528-9.817L384 335.65z"/>
    </g>
</svg>
