<svg xmlns="http://www.w3.org/2000/svg" width="768" height="512">
    <path fill="#0052b4" d="M0 0h768v512H0z"/>
    <path fill="#f0f0f0" d="M183.295 238.539c-3.762-22.468-32.132-24.207-37.357-43.477 16.475-19.255-31.831-28.176-24.954-53.473 2.731-26.76 21.654 11.074 34.24 11.961 25.058 8.717 46.233 38.407 73.58 28.922 29.01-.59 50.062-24.23 51.264-52.47.8-26.726 17.486-46.326 37.04-62.33 8.676-9.518 22.025.165 25.16-13.146 16.915 10.178 36.9-1.433 54.6 8.797 17.306 7.328 34.196 19.879 53.974 17.221 18.524 5.781 26.14 26.807 48.711 22.706 30.145 4.64 47.331 31.634 47.851 60.461 7.225 21.851-11.608 53.998 18.849 63.152 30.286 6.688 9.164 42.563 18.602 63.573 7.633 24.683-22.271 43.986-21.052 69.2-20.617 11.436-14.163 37.11-35.715 47.76-.15 20.056-21.793 30.384-39.888 39-22.706 4.272-48.32 10.323-72.148 8.109-16.057-.506-57.998-6.42-32.741-28.425 14.711-17.55 3.029-49.574-21.631-38.71-25.69-3.423-52.517-16.327-78.078-5.263-28.326.981-56.737-10.173-78.818-27.306-11.76-16.301-6.056-42.023-25.152-53.636-28.83-2.171-12.24-27.04-10.802-44.369.968-8.276 6.112-15.983 14.465-18.257z"/>
</svg>
