<svg xmlns="http://www.w3.org/2000/svg" width="512" height="512">
    <circle cx="256" cy="256" r="256" fill="#0052b4"/>
    <path fill="#f0f0f0" d="M121.033 243.122c-2.988-17.848-25.524-19.23-29.675-34.536 13.088-15.295-25.284-22.381-19.822-42.475 2.17-21.258 17.202 8.796 27.2 9.5 19.903 6.925 36.723 30.509 58.446 22.974 23.044-.47 39.767-19.246 40.721-41.678.636-21.23 13.89-36.8 29.423-49.512 6.892-7.56 17.495.131 19.986-10.442 13.436 8.084 29.31-1.14 43.37 6.987 13.747 5.822 27.164 15.791 42.874 13.68 14.714 4.592 20.765 21.293 38.694 18.036 23.945 3.686 37.596 25.128 38.01 48.027 5.738 17.357-9.222 42.892 14.972 50.164 24.057 5.312 7.28 33.81 14.776 50.498 6.064 19.607-17.69 34.94-16.723 54.969-16.376 9.084-11.25 29.478-28.369 37.937-.119 15.932-17.311 24.136-31.685 30.98-18.036 3.393-38.383 8.2-57.31 6.44-12.754-.401-46.07-5.098-26.008-22.578 11.686-13.941 2.406-39.379-17.182-30.75-20.406-2.718-41.716-12.968-62.02-4.18-22.5.78-45.069-8.08-62.609-21.69-9.342-12.949-4.81-33.38-19.98-42.605-22.9-1.725-9.722-21.48-8.58-35.244.77-6.574 4.856-12.696 11.49-14.502z"/>
</svg>
