<svg xmlns="http://www.w3.org/2000/svg" width="512" height="512">
    <path fill="#0052b4" d="M0 0h512v512H0z"/>
    <path fill="#f0f0f0" d="M115.196 242.565c-3.117-18.62-26.627-20.06-30.957-36.029 13.653-15.957-26.378-23.35-20.68-44.313 2.264-22.176 17.946 9.177 28.376 9.912 20.764 7.224 38.312 31.828 60.973 23.967 24.04-.49 41.487-20.078 42.483-43.48.663-22.148 14.49-38.391 30.695-51.653 7.19-7.888 18.252.137 20.85-10.894 14.017 8.434 30.578-1.188 45.246 7.29 14.342 6.073 28.338 16.473 44.728 14.27 15.35 4.792 21.663 22.215 40.367 18.817 24.98 3.845 39.222 26.215 39.653 50.104 5.987 18.107-9.62 44.747 15.62 52.333 25.098 5.542 7.594 35.271 15.415 52.682 6.326 20.455-18.456 36.451-17.446 57.346-17.085 9.476-11.736 30.752-29.596 39.577-.124 16.621-18.06 25.18-33.055 32.32-18.816 3.54-40.043 8.554-59.788 6.72-13.306-.42-48.063-5.32-27.133-23.556 12.192-14.544 2.51-41.081-17.925-32.079-21.289-2.836-43.52-13.53-64.703-4.361-23.473.813-47.017-8.43-65.315-22.629-9.746-13.508-5.018-34.823-20.844-44.447-23.89-1.799-10.143-22.408-8.95-36.768.802-6.858 5.064-13.245 11.986-15.13z"/>
</svg>
