<svg xmlns="http://www.w3.org/2000/svg" width="768" height="512" viewBox="0 0 768 512">
    <path fill="#0052b4" d="M0 0h768v512H0z"/>
    <path fill="#d80027" d="M0 259.411L768 6.821v29.81L89.548 259.412 768 482.188V512z"/>
    <path fill="#f0f0f0" d="M768 431.848v50.34L89.548 259.41 768 36.631v50.342"/>
    <path fill="#a2001d" d="M739.952 252.27h-43.913c11.418-13.596 10.711-33.824-2.148-46.58 13.626-13.511 13.626-35.422 0-48.938l-.819.817c13.623-13.511 14.445-36.24.819-49.75L496.529 303.563c13.626 13.516 35.328 13.354 48.95-.16l3.798-3.443 94.505-8.521v40.312h32.055v-43.203l48.084-4.334z"/>
    <path fill="#ffda44" d="M707.907 345.387H499.545l-32.067-15.896 32.067-15.896h208.362z"/>
</svg>
