<svg xmlns="http://www.w3.org/2000/svg" viewBox="0 0 512 512">
    <circle cx="256" cy="256" r="256" fill="#f0f0f0"/>
    <path fill="#0052b4" d="M380.196 32.112C343.412 11.664 301.07 0 256 0 114.626 0 .018 114.598 0 255.97l178.087-89.013L380.196 32.112zM0 256.03C.018 397.402 114.626 512 256 512c45.07 0 87.412-11.662 124.196-32.112L178.087 345.043 0 256.03z"/>
    <path fill="#d80027" d="M401.53 45.382a256.293 256.293 0 0 0-21.343-13.266L0 255.97v.06l380.188 223.853a256.723 256.723 0 0 0 21.343-13.266L43.822 256 401.53 45.382z"/>
    <path fill="#a2001d" d="M452 247.945h-33.843c8.8-10.565 8.257-26.284-1.657-36.196 10.5-10.5 10.5-27.526 0-38.028l-.633.634c10.5-10.5 11.134-28.16.633-38.66l-152.11 152.11c10.501 10.502 27.229 10.376 37.729-.125l2.928-2.676 72.836-6.621v31.326h24.706v-33.573l37.059-3.368z"/>
    <path fill="#ffda44" d="M427.303 295.6v24.706H266.715L242 307.953l24.715-12.353z"/>
</svg>
