<svg xmlns="http://www.w3.org/2000/svg" viewBox="0 0 512 512">
    <path fill="#0052b4" d="M0 0h512v512H0z"/>
    <path fill="#d80027" d="M512 36.632L59.699 259.41 512 482.189V512L0 259.41 512 6.822z"/>
    <path fill="#f0f0f0" d="M512 431.849v50.34L59.699 259.41 512 36.632v50.341"/>
    <path fill="#a2001d" d="M473.387 254.872h-33.844c8.8-10.565 8.255-26.284-1.656-36.196 10.502-10.5 10.502-27.527 0-38.03l-.63.635c10.499-10.5 11.132-28.16.63-38.66l-152.11 152.11c10.501 10.503 27.228 10.377 37.727-.124l2.927-2.676 72.836-6.622v31.327h24.706v-33.573l37.059-3.367z"/>
    <path fill="#ffda44" d="M448.69 327.232H288.1l-24.714-12.352 24.714-12.353h160.59z"/>
</svg>
