<svg xmlns="http://www.w3.org/2000/svg" width="768" height="512" viewBox="0 0 768 512">
    <path fill="#0052b4" d="M0 .005h768v511.996H0z"/>
    <g fill="#f0f0f0">
        <path d="M335.096 255.994c.409-.456.814-.913 1.219-1.374-.405.462-.819.915-1.23 1.374zm15.512 146.631l-37.164 8.377.104 38.097-29.722-23.835-29.722 23.835.104-38.097-37.164-8.377 29.85-23.67-16.624-34.28 37.118 8.577 16.438-34.369 16.437 34.37 37.12-8.578-16.624 34.28zm261.86-1.104l-17.727 3.995.048 18.17-14.175-11.367-14.175 11.367.048-18.17-17.725-3.995 14.236-11.292-7.927-16.35 17.704 4.093 7.839-16.394 7.84 16.394 17.705-4.092-7.929 16.35zm-72.936-173.903l-17.726 3.994.048 18.172-14.175-11.37-14.176 11.37.05-18.172-17.728-3.994 14.237-11.292-7.926-16.351 17.703 4.093 7.84-16.395 7.841 16.395 17.704-4.093-7.929 16.35zm72.934-99.375l-17.725 3.996.048 18.17-14.175-11.37-14.175 11.37.048-18.17-17.725-3.996 14.236-11.29-7.927-16.353 17.704 4.095 7.839-16.395 7.84 16.395 17.705-4.095-7.929 16.353zm63.709 74.529l-17.727 3.996.049 18.17-14.176-11.366-14.175 11.367.048-18.171-17.726-3.996 14.237-11.29-7.93-16.35 17.705 4.092 7.84-16.393 7.841 16.393 17.703-4.092-7.926 16.35zm-61.262 96.698l-16.145-11.73-16.147 11.73 6.168-18.978-16.145-11.73H592.6l6.168-18.978 6.165 18.978h19.956l-16.144 11.73z"/>
        <path d="M384 172.518h-88.655L384 221.769v34.225h-40.02l-110.241-61.238v61.238h-83.478v-72.858L19.116 255.994H0v-45.829l67.75-37.647H0V83.48h88.655L0 34.213V.004h40.02l110.241 61.24V.004h83.478v72.859L364.884.004H384v45.83L316.25 83.48H384z"/>
    </g>
    <path fill="#d80027" d="M0 151.995h168v103.999h48V151.995h168v-47.999H216V0h-48v103.996H0z"/>
    <path fill="#0052b4" d="M233.739 172.518L384 255.994v-23.605l-107.77-59.871z"/>
    <path fill="#f0f0f0" d="M233.739 172.518L384 255.994v-23.605l-107.77-59.871z"/>
    <path fill="#d80027" d="M233.739 172.518L384 255.994v-23.605l-107.77-59.871zm-83.478 0h-42.492L0 232.389v23.605z"/>
    <path fill="#0052b4" d="M150.261 83.476L0 0v23.605l107.77 59.871z"/>
    <path fill="#f0f0f0" d="M150.261 83.476L0 0v23.605l107.77 59.871z"/>
    <path fill="#d80027" d="M150.261 83.476L0 0v23.605l107.77 59.871zm83.478 0h42.492L384 23.605V0z"/>
</svg>
