<svg xmlns="http://www.w3.org/2000/svg" width="768" height="512" viewBox="0 0 768 512">
    <path fill="#d80027" d="M0 0h768v512H0z"/>
    <path fill="#338af3" d="M0 0h768v170.666H0z"/>
    <path fill="#6da544" d="M0 341.334h768V512H0z"/>
    <g fill="#f0f0f0">
        <path d="M388.8 318.401c-34.463 0-62.4-27.938-62.4-62.401 0-34.463 27.938-62.401 62.4-62.401 10.746 0 20.856 2.716 29.683 7.5-13.848-13.541-32.785-21.9-53.683-21.9-42.416 0-76.8 34.385-76.8 76.801 0 42.416 34.384 76.802 76.8 76.802 20.898 0 39.835-8.36 53.683-21.9-8.827 4.783-18.937 7.5-29.683 7.5z"/>
        <path d="M480 256l-23.246 8.267 10.594 22.281-22.283-10.593L436.8 299.2l-8.265-23.246-22.283 10.593 10.594-22.281L393.6 256l23.246-8.267-10.594-22.281 22.283 10.593L436.8 212.8l8.265 23.246 22.283-10.593-10.594 22.281z"/>
    </g>
</svg>
