<svg xmlns="http://www.w3.org/2000/svg" viewBox="0 0 512 512">
    <path fill="#d80027" d="M512 256c0-31.314-5.632-61.311-15.923-89.043L256 155.826l-240.077 11.13C5.633 194.689 0 224.686 0 256s5.633 61.311 15.923 89.043L256 356.174l240.077-11.13C506.368 317.311 512 287.314 512 256z"/>
    <path fill="#6da544" d="M256 512c110.071 0 203.906-69.472 240.077-166.957H15.923C52.094 442.528 145.929 512 256 512z"/>
    <path fill="#338af3" d="M15.923 166.957h480.155C459.906 69.472 366.071 0 256 0S52.094 69.472 15.923 166.957z"/>
    <g fill="#f0f0f0">
        <path d="M261.25 324.251c-37.693 0-68.25-30.557-68.25-68.25s30.557-68.25 68.25-68.25c11.752 0 22.811 2.971 32.466 8.203C278.569 181.142 257.856 172 235 172c-46.393 0-84 37.608-84 84s37.608 84 84 84c22.857 0 43.57-9.142 58.716-23.954-9.655 5.234-20.714 8.205-32.466 8.205z"/>
        <path d="M335.575 265.042l11.586 24.37-24.37-11.585-9.041 25.424-9.04-25.424-24.371 11.586 11.586-24.37L266.5 256l25.425-9.041-11.586-24.371 24.372 11.586 9.039-25.424 9.04 25.424 24.37-11.586-11.585 24.37L361 256.002z"/>
    </g>
</svg>
