<svg xmlns="http://www.w3.org/2000/svg" viewBox="0 0 512 512">
    <path fill="#d80027" d="M0 .006h512v511.989H0z"/>
    <path fill="#338af3" d="M0 0h512v168H0z"/>
    <path fill="#6da544" d="M0 346h512v166H0z"/>
    <g fill="#f0f0f0">
        <path d="M262.15 323.751c-36.976 0-66.951-29.975-66.951-66.951 0-36.976 29.975-66.951 66.951-66.951 11.53 0 22.376 2.915 31.849 8.046-14.858-14.529-35.176-23.497-57.598-23.497-45.509 0-82.401 36.893-82.401 82.402 0 45.51 36.892 82.402 82.4 82.402 22.423 0 42.74-8.968 57.599-23.497-9.473 5.13-20.32 8.046-31.849 8.046z"/>
        <path d="M304.783 278.21l-23.908 11.366 11.364-23.907-24.94-8.869 24.94-8.87-11.364-23.906 23.908 11.366 8.866-24.94 8.869 24.94 23.908-11.366-11.366 23.907L360 256.8l-24.94 8.87 11.366 23.906-23.908-11.366-8.869 24.94z"/>
    </g>
</svg>
