<svg xmlns="http://www.w3.org/2000/svg" width="768" height="512" viewBox="0 0 768 512">
    <path fill="#0052b4" d="M0 0h768v512H0z"/>
    <path fill="#ffda44" d="M149.858 0h512v512"/>
    <g fill="#f0f0f0">
        <path d="M77.106 6.763l22.3 16.19L91.939.002h-29.65l-7.446 22.972z"/>
        <path d="M123.992 53.648L146.29 69.84l-8.525-26.21 22.28-16.193-27.547.017-8.524-26.208-8.508 26.208-27.548.018 22.3 16.193-8.491 26.191z"/>
        <path d="M170.877 100.53l22.299 16.194-8.527-26.21 22.284-16.19-27.548.016-8.526-26.21-8.51 26.21-27.547.016 22.3 16.192-8.491 26.193z"/>
        <path d="M217.761 147.415l22.299 16.192-8.524-26.21 22.282-16.191-27.549.016-8.524-26.208-8.51 26.208-27.546.017 22.299 16.194-8.492 26.19z"/>
        <path d="M264.647 194.298l22.298 16.193-8.526-26.209 22.283-16.192-27.548.017-8.524-26.21-8.508 26.21-27.549.016 22.299 16.192-8.49 26.193z"/>
        <path d="M311.53 241.183l22.3 16.191-8.525-26.209 22.282-16.192-27.548.017-8.525-26.208-8.508 26.208-27.547.018 22.298 16.192-8.49 26.192z"/>
        <path d="M358.418 288.066l22.299 16.19-8.528-26.207 22.283-16.19-27.548.015-8.524-26.209-8.508 26.209-27.55.018 22.301 16.192-8.491 26.192z"/>
        <path d="M405.302 334.95l22.298 16.193-8.524-26.21 22.28-16.191-27.548.016-8.523-26.209-8.51 26.21-27.547.016 22.3 16.193-8.491 26.191z"/>
        <path d="M452.187 381.833l22.299 16.194-8.526-26.21 22.282-16.191-27.547.016-8.525-26.21-8.51 26.21-27.547.017 22.3 16.192-8.492 26.192z"/>
        <path d="M499.071 428.718l22.299 16.192-8.524-26.208 22.282-16.193-27.549.016-8.525-26.207-8.507 26.207-27.548.018 22.299 16.192-8.492 26.193z"/>
        <path d="M545.957 475.602l22.298 16.192-8.525-26.209 22.282-16.192-27.548.017-8.524-26.21-8.508 26.21-27.549.018 22.299 16.19-8.49 26.194z"/>
        <path d="M601.349 496.292l-8.525-26.207-8.508 26.207-27.548.018 21.591 15.68h28.918l21.62-15.714z"/>
    </g>
</svg>
