<svg xmlns="http://www.w3.org/2000/svg" width="768" height="512" viewBox="0 0 768 512">
    <path fill="#ffda44" d="M0 0h768v512H0z"/>
    <path fill="#0052b4" d="M0 0h255.995v512H0zm512.005 0H768v512H512.005z"/>
    <path d="M461.913 155.82l14.932 7.467-14.932-7.467-14.932-7.467c-.9 1.801-20.399 41.473-23.585 102.074h-22.701v-94.609L384 133.56l-16.695 22.26v94.608h-22.7c-3.185-60.6-22.684-100.272-23.584-102.074l-29.866 14.933c.205.41 20.499 41.716 20.499 103.838v16.694h55.651v94.609h33.392v-94.609h55.651v-16.694c0-32.12 5.558-58.602 10.22-75.163 5.083-18.06 10.246-28.608 10.297-28.711z"/>
</svg>
