<svg xmlns="http://www.w3.org/2000/svg" width="768" height="512" viewBox="0 0 768 512">
    <path fill="#d80027" d="M0 .009h768v511.983H0z"/>
    <path fill="#6da544" d="M0 471.865V40.137L323.796 256.01zm768 0L444.204 256.01 768 40.137z"/>
    <path fill="#0052b4" d="M707.813 512L384 296.128 60.187 512H0v-40.135L323.796 256.01 0 40.137V0h60.188L384 215.873 707.813 0H768v40.137L444.204 256.01 768 471.865V512z"/>
    <g fill="#f0f0f0" transform="matrix(1.5 0 0 1.49998 0 -127.995)">
        <path d="M471.875 426.668L256 282.752 40.125 426.668H0v-26.757l215.864-143.905L0 112.089V85.331h40.125L256 229.248 471.875 85.331H512v26.758L296.136 256.006 512 399.911v26.757z"/>
        <circle cx="256" cy="256" r="74.207"/>
    </g>
    <path fill="#d80027" d="M412.917 228.175h-19.278L384 244.869l-9.639-16.694h-19.278l9.639-16.697-9.639-16.695h19.278L384 178.09l9.639 16.694h19.278l-9.639 16.695zm-48.994 77.912h-19.28l-9.637 16.696-9.641-16.696h-19.278l9.639-16.695-9.639-16.696h19.278l9.64-16.695 9.638 16.695h19.28l-9.64 16.696zm97.99 0h-19.278l-9.64 16.696-9.638-16.696h-19.28l9.64-16.695-9.64-16.696h19.28L432.994 256l9.641 16.695h19.278l-9.639 16.696z"/>
</svg>
