<svg xmlns="http://www.w3.org/2000/svg" viewBox="0 0 512.006 512.006">
    <path fill="#d80027" d="M.003.017h512v511.989h-512z"/>
    <path fill="#6da544" d="M215.866 256.008L.003 471.864V40.136zM512.003 40.136v431.728L296.139 256.008z"/>
    <path fill="#0052b4" d="M512.003 40.136L296.139 256.008l215.864 215.856V512h-40.125L256.003 296.127 40.128 512H.003v-40.136l215.863-215.856L.003 40.136V0h40.125l215.875 215.873L471.878 0h40.125z"/>
    <g fill="#f0f0f0">
        <path d="M512.003 42L300 256.008 512.003 470v42H470L256.003 300 42 512H.003v-42L214 256.008.003 42V0H42l214.003 212L470 0h42.003z"/>
        <circle cx="256.003" cy="256.003" r="105"/>
    </g>
    <path fill="#d80027" d="M228.496 200.59h18.338l9.17-15.88 9.168 15.88h18.34l-9.17 15.882 9.17 15.884h-18.34l-9.168 15.881-9.17-15.881h-18.338l9.168-15.884zm-46.611 74.118h18.34l9.17-15.882 9.17 15.882h18.338l-9.168 15.883 9.168 15.881h-18.339l-9.17 15.883-9.169-15.883h-18.34l9.171-15.881zm93.218 0h18.34l9.168-15.882 9.17 15.882h18.34l-9.171 15.883 9.17 15.881h-18.338l-9.17 15.883-9.169-15.883h-18.34l9.17-15.881z"/>
</svg>
