<?xml version="1.0" encoding="UTF-8" standalone="no"?>
<svg
   xmlns:dc="http://purl.org/dc/elements/1.1/"
   xmlns:cc="http://creativecommons.org/ns#"
   xmlns:rdf="http://www.w3.org/1999/02/22-rdf-syntax-ns#"
   xmlns:svg="http://www.w3.org/2000/svg"
   xmlns="http://www.w3.org/2000/svg"
   xmlns:sodipodi="http://sodipodi.sourceforge.net/DTD/sodipodi-0.dtd"
   xmlns:inkscape="http://www.inkscape.org/namespaces/inkscape"
   viewBox="0 0 512.006 512.006"
   version="1.1"
   id="svg16"
   sodipodi:docname="bi_square.svg"
   inkscape:version="1.0.1 (3bc2e813f5, 2020-09-07)">
  <metadata
     id="metadata22">
    <rdf:RDF>
      <cc:Work
         rdf:about="">
        <dc:format>image/svg+xml</dc:format>
        <dc:type
           rdf:resource="http://purl.org/dc/dcmitype/StillImage" />
      </cc:Work>
    </rdf:RDF>
  </metadata>
  <defs
     id="defs20" />
  <sodipodi:namedview
     pagecolor="#ffffff"
     bordercolor="#666666"
     borderopacity="1"
     objecttolerance="10"
     gridtolerance="10"
     guidetolerance="10"
     inkscape:pageopacity="0"
     inkscape:pageshadow="2"
     inkscape:window-width="640"
     inkscape:window-height="480"
     id="namedview18"
     showgrid="false"
     inkscape:current-layer="svg16" />
  <path
     fill="#d80027"
     d="M.003.017h512v511.989h-512z"
     id="path2" />
  <path
     fill="#6da544"
     d="M215.866 256.008L.003 471.864V40.136zM512.003 40.136v431.728L296.139 256.008z"
     id="path4" />
  <path
     fill="#0052b4"
     d="M512.003 40.136L296.139 256.008l215.864 215.856V512h-40.125L256.003 296.127 40.128 512H.003v-40.136l215.863-215.856L.003 40.136V0h40.125l215.875 215.873L471.878 0h40.125z"
     id="path6" />
  <g
     fill="#f0f0f0"
     id="g12">
    <path
       d="M 512.003,43 300,256.008 512.003,469 v 43 H 468 L 256.003,304 44,512 H 0.003 V 469 L 214,256.008 0.003,43 V 0 H 44 L 256.003,208 468,0 h 44.003 z"
       id="path8"
       sodipodi:nodetypes="ccccccccccccccccc" />
    <circle
       cx="256.00299"
       cy="256.00299"
       r="111"
       id="circle10"
       style="stroke-width:1.05714" />
  </g>
  <path
     fill="#d80027"
     d="m 226.92417,197.42355 h 19.38589 l 9.694,-16.78743 9.69188,16.78743 h 19.388 l -9.69399,16.78953 9.69399,16.79166 h -19.388 l -9.69188,16.78849 -9.694,-16.78849 h -19.38589 l 9.69188,-16.79166 z m -49.27449,78.3533 h 19.38801 l 9.69399,-16.78953 9.69401,16.78953 h 19.38589 l -9.69189,16.79061 9.69189,16.78849 h -19.38695 l -9.69401,16.79059 -9.69293,-16.79059 h -19.38801 l 9.69507,-16.78849 z m 98.54474,0 h 19.38801 l 9.69189,-16.78953 9.694,16.78953 h 19.388 l -9.69507,16.79061 9.69401,16.78849 h -19.38589 l -9.69399,16.79059 -9.69295,-16.79059 h -19.38801 l 9.69401,-16.78849 z"
     id="path14"
     style="stroke-width:1.05714" />
</svg>
