<svg xmlns="http://www.w3.org/2000/svg" width="768" height="512" viewBox="0 0 768 512">
    <path fill="#d80027" d="M0 .008h768V512H0z"/>
    <path fill="#f0f0f0" d="M0 .008h384v255.988H0z"/>
    <g fill="#d80027">
        <path d="M0 151.997h168v103.998h48V151.997h168v-47.999H216V.001h-48v103.997H0z"/>
        <path d="M0 0v22.624l86.066 57.375H120z"/>
    </g>
    <path fill="#0052b4" d="M0 79.999h69.103L0 33.932zm144-6.629L33.942.004H144z"/>
    <path fill="#d80027" d="M384 0v22.624l-86.066 57.375H264z"/>
    <path fill="#0052b4" d="M384 79.999h-69.103L384 33.932zM240 73.37L350.058.004H240z"/>
    <path fill="#d80027" d="M0 0v22.624l86.066 57.375H120z"/>
    <path fill="#0052b4" d="M0 79.999h69.103L0 33.932zm144-6.629L33.942.004H144z"/>
    <path fill="#d80027" d="M384 0v22.624l-86.066 57.375H264z"/>
    <path fill="#0052b4" d="M384 79.999h-69.103L384 33.932zM240 73.37L350.058.004H240z"/>
    <path fill="#d80027" d="M0 255.995v-22.622l86.066-57.376H120z"/>
    <path fill="#0052b4" d="M0 175.997h69.103L0 222.065zm144 6.628L33.942 255.99H144z"/>
    <path fill="#d80027" d="M384 255.995v-22.622l-86.066-57.376H264z"/>
    <path fill="#0052b4" d="M384 175.997h-69.103L384 222.065zm-144 6.628l110.058 73.366H240z"/>
    <path fill="#f0f0f0" d="M492.087 153.824v135.139c0 65.828 172 65.828 172 0v-135.14z"/>
    <path fill="#6da544" d="M492.087 288.963c0 65.828 86 85.998 86 85.998s86-20.17 86-85.998h-172z"/>
    <path fill="#a2001d" d="M578.087 313.534l39.929-24.571v-36.857l-39.929-17.199-39.929 17.2v36.856z"/>
    <path fill="#338af3" d="M538.152 215.245h79.851v36.856h-79.851z"/>
</svg>
