<svg xmlns="http://www.w3.org/2000/svg" viewBox="0 0 512 512">
    <path fill="#d80027" d="M0 0h512v512H0z"/>
    <path fill="#f0f0f0" d="M320 173.714v100.57c0 48.991 128 48.991 128 0v-100.57H320z"/>
    <path fill="#6da544" d="M320 274.286c0 48.989 64 64 64 64s64-15.01 64-64.001v.001H320z"/>
    <path fill="#a2001d" d="M384 234.057l-29.714 12.8v27.429L384 292.571l29.715-18.285v-27.429z"/>
    <path fill="#338af3" d="M354.282 219.425h59.425v27.429h-59.425z"/>
    <path fill="#f0f0f0" d="M0 0h256v256H0z"/>
    <path fill="#d80027" d="M0 152.001h104.001v104h48v-104H256v-48H152.001v-104h-48v104H0z"/>
    <path fill="#0052b4" d="M203.46 166.958l52.54 52.54v-52.54zm-36.503 0L256 256.001v-25.18l-63.863-63.863zm65.325 89.043l-65.325-65.331v65.331z"/>
    <path fill="#f0f0f0" d="M166.957 166.958L256 256.001v-25.18l-63.863-63.863z"/>
    <path fill="#d80027" d="M166.957 166.958L256 256.001v-25.18l-63.863-63.863z"/>
    <path fill="#0052b4" d="M40.151 166.958L0 207.108v-40.15zm48.89 11.323v77.718H11.33z"/>
    <path fill="#d80027" d="M63.862 166.96L0 230.822v25.179l89.041-89.041z"/>
    <path fill="#0052b4" d="M52.54 89.045L0 36.504v52.541zm36.503 0L0 .001v25.18l63.863 63.864zM23.718.001l65.325 65.331V.001z"/>
    <path fill="#f0f0f0" d="M89.043 89.045L0 .001v25.18l63.863 63.864z"/>
    <path fill="#d80027" d="M89.043 89.045L0 .001v25.18l63.863 63.864z"/>
    <path fill="#0052b4" d="M215.849 89.045L256 48.894v40.151zm-48.89-11.323V.002h77.711z"/>
    <path fill="#d80027" d="M192.138 89.042L256 25.18V.001l-89.041 89.041z"/>
</svg>
