<svg xmlns="http://www.w3.org/2000/svg" width="768" height="512" viewBox="0 0 768 512">
    <path fill="#ffda44" d="M0 0h768v512H0z"/>
    <path d="M0 100.615v70l768 310.781V411.39L411.47 266.84z"/>
    <path fill="#f0f0f0" d="M768 411.385v-69.999L0 30.604v70.01"/>
    <g fill="#d80027">
        <path d="M456.336 228.177c0 39.95-32.386 72.338-72.336 72.338-39.95 0-72.336-32.387-72.336-72.338 0-12.456 3.149-24.177 8.694-34.41C304.661 209.82 294.97 231.773 294.97 256c0 49.17 39.86 89.031 89.03 89.031S473.03 305.17 473.03 256c0-24.226-9.69-46.18-25.388-62.233 5.546 10.233 8.694 21.954 8.694 34.41z"/>
        <path d="M367.305 144.705h33.387v166.927h-33.387z"/>
        <path d="M439.643 178.097H328.356c0 7.684 6.692 13.912 14.375 13.912h-.464c0 7.683 6.23 13.91 13.911 13.91 0 7.684 6.23 13.912 13.911 13.912h27.822c7.683 0 13.911-6.228 13.911-13.911 7.683 0 13.911-6.228 13.911-13.911h-.462c7.679 0 14.372-6.227 14.372-13.912zM306.097 322.768h155.804v33.388H306.097z"/>
        <path d="M417.392 333.904h66.77v33.388h-66.77zm-133.548 0h66.77v33.388h-66.77z"/>
    </g>
</svg>
