<svg xmlns="http://www.w3.org/2000/svg" viewBox="0 0 512 512">
    <path fill="#ffda44" d="M0 0h512v512H0z"/>
    <path d="M0 170.615l512 310.781V411.39L276.116 267.874 0 100.616z"/>
    <path fill="#f0f0f0" d="M512 411.384v-69.997L0 30.604v70.012"/>
    <g fill="#d80027">
        <path d="M318.83 231.835c0 34.7-28.132 62.832-62.832 62.832-34.702 0-62.833-28.132-62.833-62.832 0-10.82 2.735-21 7.552-29.89-13.635 13.945-22.052 33.012-22.052 54.056 0 42.71 34.623 77.333 77.333 77.333S333.329 298.71 333.329 256c0-21.043-8.416-40.112-22.05-54.054 4.815 8.887 7.551 19.069 7.551 29.889z"/>
        <path d="M241.496 159.332h29v144.99h-29z"/>
        <path d="M304.33 188.335h-96.665c0 6.673 5.811 12.083 12.485 12.083h-.403c0 6.674 5.412 12.084 12.084 12.084 0 6.674 5.411 12.083 12.083 12.083h24.166c6.674 0 12.084-5.41 12.084-12.083 6.674 0 12.083-5.41 12.083-12.084h-.4c6.669 0 12.483-5.407 12.483-12.082zm-116 125.66h135.333v29.002H188.33z"/>
        <path d="M285.002 323.669H343v29h-57.998zm-116.002 0h57.998v29H169z"/>
    </g>
</svg>
