<svg xmlns="http://www.w3.org/2000/svg" width="768" height="512" viewBox="0 0 768 512">
    <path fill="#6da544" d="M0 0h768v512H0z"/>
    <path fill="#ffda44" d="M384 114.52l192 141.472-192 141.472-192-141.472z"/>
    <ellipse cx="384" cy="255.992" fill="#f0f0f0" rx="80.841" ry="80.84"/>
    <path fill="#0052b4" d="M343.578 250.94c-14.058 0-27.624 2.139-40.395 6.105.566 44.16 36.522 79.788 80.816 79.788 27.388 0 51.578-13.633 66.2-34.47-25.014-31.319-63.511-51.423-106.621-51.423zm119.764 20.54a81.198 81.198 0 0 0 1.5-15.488c0-44.647-36.195-80.842-80.842-80.842-33.315 0-61.912 20.157-74.29 48.934a166.916 166.916 0 0 1 33.868-3.46c46.956.001 89.433 19.517 119.764 50.857z"/>
</svg>
