<?xml version="1.0" encoding="UTF-8" standalone="no"?>
<svg
   xmlns:dc="http://purl.org/dc/elements/1.1/"
   xmlns:cc="http://creativecommons.org/ns#"
   xmlns:rdf="http://www.w3.org/1999/02/22-rdf-syntax-ns#"
   xmlns:svg="http://www.w3.org/2000/svg"
   xmlns="http://www.w3.org/2000/svg"
   xmlns:sodipodi="http://sodipodi.sourceforge.net/DTD/sodipodi-0.dtd"
   xmlns:inkscape="http://www.inkscape.org/namespaces/inkscape"
   viewBox="0 0 512 512"
   version="1.1"
   id="svg8"
   sodipodi:docname="bt_square.svg"
   inkscape:version="1.0.1 (3bc2e813f5, 2020-09-07)">
  <metadata
     id="metadata14">
    <rdf:RDF>
      <cc:Work
         rdf:about="">
        <dc:format>image/svg+xml</dc:format>
        <dc:type
           rdf:resource="http://purl.org/dc/dcmitype/StillImage" />
      </cc:Work>
    </rdf:RDF>
  </metadata>
  <defs
     id="defs12" />
  <sodipodi:namedview
     pagecolor="#ffffff"
     bordercolor="#666666"
     borderopacity="1"
     objecttolerance="10"
     gridtolerance="10"
     guidetolerance="10"
     inkscape:pageopacity="0"
     inkscape:pageshadow="2"
     inkscape:window-width="640"
     inkscape:window-height="480"
     id="namedview10"
     showgrid="false"
     inkscape:current-layer="svg8" />
  <path
     fill="#ff9811"
     d="M0 0h512v512H0z"
     id="path2" />
  <path
     fill="#ffda44"
     d="M512 0H0v512"
     id="path4" />
  <path
     fill="#f0f0f0"
     d="m 388,154.54888 v -40.58236 h -77.78355 l -5.94201,5.94203 c -21.13613,21.13612 -17.58131,45.79425 -14.98493,63.79804 2.40771,16.70218 2.69619,23.09811 -3.51379,29.30948 -6.21,6.20999 -12.61005,5.92152 -29.3095,3.51382 -18.00242,-2.59503 -42.66055,-6.15122 -63.79669,14.98356 -21.13477,21.13613 -17.57859,45.79289 -14.98083,63.7953 2.40909,16.6981 2.69756,23.09677 -3.51106,29.3054 -6.21,6.20726 -12.61004,5.91878 -29.30538,3.51106 -6.51079,-0.93929 -13.24308,-1.91004 -20.42655,-1.98931 L 124,366.71414 c 4.49685,0.0505 9.63766,0.79163 15.07926,1.57506 6.44244,0.92973 13.73391,1.9825 21.41505,1.9825 7.9587,0 16.33166,-1.13483 24.60074,-4.70603 v 32.46781 h 60.87215 v -30.4361 h -30.43608 v -20.28979 h 20.28981 v -30.43612 h -16.21818 c 0.76976,-9.84548 -0.58244,-19.27395 -1.75006,-27.35706 -2.40908,-16.69806 -2.69756,-23.09674 3.51106,-29.30538 6.21,-6.20999 12.60867,-5.92287 29.3095,-3.51379 13.11728,1.89225 29.77024,4.28082 46.01848,-2.73311 v 32.47327 h 60.87219 v -30.43335 h -30.43609 v -20.28981 h 20.2898 v -30.43609 h -16.2168 c 0.76974,-9.84686 -0.58107,-19.27396 -1.74732,-27.3598 -1.6817,-11.66801 -2.32979,-18.30733 -0.44983,-23.36746 z"
     id="path6"
     style="stroke-width:1.36724" />
</svg>
