<svg xmlns="http://www.w3.org/2000/svg" width="768" height="512" viewBox="0 0 768 512">
    <path fill="#496e2d" d="M.834.008H768v511.986H.834z"/>
    <path fill="#a2001d" d="M0 345.043h767.166V.003H0"/>
    <path fill="#f0f0f0" d="M0 512h767.166-617.069V.003H0z"/>
    <g fill="#a2001d">
        <path d="M102.846 237.45l-27.797-50.483 27.797-49.69 27.793 49.69z"/>
        <path d="M47.253 237.45l-27.795-50.483 27.795-49.69 27.797 49.69zm55.593 137.274l-27.797-50.481 27.797-49.692 27.793 49.692z"/>
        <path d="M47.253 374.724l-27.795-50.481 27.795-49.692 27.797 49.692zM102.846 512l-27.797-50.483 27.797-49.692 27.793 49.692z"/>
        <path d="M47.253 512l-27.795-50.483 27.795-49.692 27.797 49.692zm55.593-411.824L75.049 49.693 102.846 0l27.793 49.693z"/>
        <path d="M47.253 100.176L19.458 49.693 47.253 0 75.05 49.693z"/>
    </g>
</svg>
