<svg xmlns="http://www.w3.org/2000/svg" width="768" height="512" viewBox="0 0 768 512">
    <path fill="#6da544" d="M0 0h768v512H0z"/>
    <g fill="#ffda44">
        <path d="M549.525 403.086l-15.882 3.578.043 16.283-12.702-10.186-12.701 10.186.043-16.283-15.882-3.578L505.2 392.97l-7.104-14.65 15.863 3.665 7.026-14.687 7.024 14.687 15.864-3.666-7.104 14.65zm-65.35-155.826l-15.884 3.58.044 16.283-12.702-10.188-12.702 10.188.043-16.282-15.882-3.58 12.756-10.117-7.105-14.651 15.864 3.669 7.026-14.691 7.026 14.69 15.864-3.668-7.106 14.651zm65.35-89.042l-15.882 3.58.043 16.282-12.702-10.187-12.701 10.187.043-16.281-15.882-3.58 12.756-10.117-7.104-14.653 15.863 3.668 7.026-14.688 7.024 14.688 15.864-3.668-7.103 14.653zM606.607 225l-15.881 3.58.043 16.282-12.702-10.187-12.702 10.187.043-16.282-15.883-3.58 12.757-10.115-7.103-14.652 15.863 3.666 7.025-14.688 7.026 14.688 15.864-3.666-7.104 14.652zm-54.891 86.643l-14.467-10.51-14.464 10.51 5.526-17.004-14.468-10.51h17.882l5.524-17.006 5.526 17.007h17.882l-14.466 10.509z"/>
        <path d="M411.827 328.339c-39.957 0-72.35-32.39-72.35-72.347 0-39.957 32.391-72.347 72.35-72.347 12.459 0 24.18 3.15 34.414 8.695-16.054-15.7-38.011-25.39-62.242-25.39-49.177 0-89.044 39.865-89.044 89.042s39.866 89.042 89.043 89.042c24.233 0 46.188-9.69 62.243-25.39-10.235 5.545-21.956 8.695-34.415 8.695z"/>
    </g>
    <path fill="#ffda44" d="M212.346 93.417c-12.97-22.413-37.186-37.497-64.938-37.497-27.752 0-51.971 15.087-64.938 37.497zm.25.432l-65.188 65.188-65.189-65.188a74.65 74.65 0 0 0-9.809 37.065c0 41.42 33.579 74.999 75 74.999 41.422 0 75-33.578 75-75a74.693 74.693 0 0 0-9.814-37.064z"/>
    <path fill="#a2001d" d="M128.656 140.288v63.26a75.192 75.192 0 0 0 18.752 2.362c6.476 0 12.757-.82 18.75-2.362v-63.26z"/>
</svg>
