<svg xmlns="http://www.w3.org/2000/svg" viewBox="0 0 512 512">
    <path fill="#6da544" d="M0 0h512v512H0z"/>
    <g fill="#ffda44">
        <path d="M395.545 397.171l.036 13.585-10.597-8.499-10.597 8.499.036-13.585-13.251-2.985 10.644-8.44-5.927-12.223 13.234 3.057 5.861-12.253 5.86 12.253 13.235-3.057-5.928 12.223 10.644 8.44zm-54.521-130l.037 13.585-10.597-8.499-10.598 8.499.038-13.585-13.25-2.985 10.64-8.44-5.926-12.224 13.235 3.06 5.861-12.255 5.86 12.255 13.234-3.06-5.925 12.224 10.641 8.44zm54.521-74.285l.036 13.584-10.597-8.5-10.597 8.5.036-13.584-13.25-2.986 10.643-8.44-5.927-12.223 13.234 3.06 5.861-12.256 5.86 12.255 13.235-3.06-5.927 12.225 10.643 8.439zm47.622 55.714l.037 13.584-10.598-8.498-10.596 8.498.037-13.584-13.252-2.987 10.643-8.439-5.927-12.223 13.235 3.06 5.86-12.256 5.86 12.255 13.236-3.06-5.927 12.224 10.642 8.44zm-44.613 60.53l-12.069 8.768 4.61-14.186-12.068-8.768h14.917l4.61-14.188 4.61 14.188h14.917l-12.069 8.768 4.61 14.186z"/>
        <path d="M293.918 331.827c-33.335 0-60.358-27.023-60.358-60.358 0-33.335 27.023-60.358 60.358-60.358 10.394 0 20.172 2.628 28.711 7.254-13.394-13.099-31.71-21.182-51.926-21.182-41.027 0-74.286 33.258-74.286 74.286 0 41.027 33.26 74.286 74.286 74.286 20.215 0 38.532-8.084 51.926-21.182-8.539 4.626-18.318 7.254-28.711 7.254z"/>
    </g>
    <path fill="#ffda44" d="M157.521 99.446c-9.51-16.434-27.27-27.5-47.624-27.5-20.352 0-38.113 11.064-47.623 27.5zm.182.318l-47.807 47.807-47.807-47.807a54.716 54.716 0 0 0-7.193 27.182c0 30.377 24.624 55 55 55 30.375 0 55-24.624 55-55a54.698 54.698 0 0 0-7.193-27.182z"/>
    <path fill="#a2001d" d="M96.147 133.821v46.394a55.117 55.117 0 0 0 13.75 1.733c4.75 0 9.356-.603 13.75-1.733V133.82z"/>
</svg>
