<svg xmlns="http://www.w3.org/2000/svg" width="768" height="512" viewBox="0 0 768 512">
    <path fill="#d80027" d="M0 .005h768v511.996H0z"/>
    <path fill="#6da544" d="M0 255.994h317.217v128.003H0zm450.783 0H768v128.003H450.783z"/>
    <path fill="#0052b4" d="M317.217.004h133.566v127.991H768V0H0v127.995h317.217z"/>
    <path fill="#f0f0f0" d="M450.783 127.991H768v128.003H450.783zM0 127.991h317.217v128.003H0z"/>
    <path fill="#ffda44" d="M0 511.983v.005h768V383.993H450.783v127.99H317.217v-127.99H0zM110.526 55.837l8.733-26.883 8.734 26.883h28.268l-22.866 16.615 8.734 26.881-22.87-16.613-22.866 16.613 8.736-26.88L82.26 55.836z"/>
</svg>
