<?xml version="1.0" encoding="UTF-8" standalone="no"?>
<svg
   xmlns:dc="http://purl.org/dc/elements/1.1/"
   xmlns:cc="http://creativecommons.org/ns#"
   xmlns:rdf="http://www.w3.org/1999/02/22-rdf-syntax-ns#"
   xmlns:svg="http://www.w3.org/2000/svg"
   xmlns="http://www.w3.org/2000/svg"
   xmlns:sodipodi="http://sodipodi.sourceforge.net/DTD/sodipodi-0.dtd"
   xmlns:inkscape="http://www.inkscape.org/namespaces/inkscape"
   viewBox="0 0 512 512"
   version="1.1"
   id="svg12"
   sodipodi:docname="cf_square.svg"
   inkscape:version="1.0.1 (3bc2e813f5, 2020-09-07)">
  <metadata
     id="metadata18">
    <rdf:RDF>
      <cc:Work
         rdf:about="">
        <dc:format>image/svg+xml</dc:format>
        <dc:type
           rdf:resource="http://purl.org/dc/dcmitype/StillImage" />
      </cc:Work>
    </rdf:RDF>
  </metadata>
  <defs
     id="defs16" />
  <sodipodi:namedview
     pagecolor="#ffffff"
     bordercolor="#666666"
     borderopacity="1"
     objecttolerance="10"
     gridtolerance="10"
     guidetolerance="10"
     inkscape:pageopacity="0"
     inkscape:pageshadow="2"
     inkscape:window-width="640"
     inkscape:window-height="480"
     id="namedview14"
     showgrid="false"
     inkscape:current-layer="svg12" />
  <path
     fill="#d80027"
     d="M0 0h512v512H0z"
     id="path2" />
  <path
     fill="#6da544"
     d="M 0,256 H 206 V 384 H 0 Z m 305,0 H 512 V 384 H 305 Z"
     id="path4"
     sodipodi:nodetypes="cccccccccc" />
  <path
     fill="#0052b4"
     d="M 0,0 V 128 H 206 V 0.006 h 99 V 128 H 512 V 0 Z"
     id="path6"
     sodipodi:nodetypes="ccccccccc" />
  <path
     fill="#f0f0f0"
     d="M 305,128 H 512 V 256 H 305 Z M 0,128 H 206 V 256 H 0 Z"
     id="path8"
     sodipodi:nodetypes="cccccccccc" />
  <path
     fill="#ffda44"
     d="M 305,511.994 H 206 V 384 H 0 V 512 H 512 V 384 H 305 Z M 128.405,96.238 107.39,80.972 86.377,96.238 94.405,71.536 73.391,56.267 h 25.974 l 8.025,-24.701 8.026,24.701 h 25.975 l -21.012,15.27 z"
     id="path10"
     sodipodi:nodetypes="cccccccccccccccccccc" />
</svg>
