<svg xmlns="http://www.w3.org/2000/svg" viewBox="0 0 512 512">
    <path fill="#d80027" d="M0 0h512v512H0z"/>
    <path fill="#6da544" d="M0 256h211.478v128H0zm300.522 0H512v128H300.522z"/>
    <path fill="#0052b4" d="M0 0v128h211.478V.006h89.044V128H512V0z"/>
    <path fill="#f0f0f0" d="M300.522 128H512v128H300.522zM0 128h211.478v128H0z"/>
    <path fill="#ffda44" d="M300.522 511.994h-89.044V384H0v128h512V384H300.522zM128.405 96.238L107.39 80.972 86.377 96.238l8.028-24.702-21.014-15.269h25.974l8.025-24.701 8.026 24.701h25.975l-21.012 15.27z"/>
</svg>
