<svg xmlns="http://www.w3.org/2000/svg" width="768" height="512" viewBox="0 0 768 512">
    <path fill="#0052b4" d="M0 .002h768V512H0z"/>
    <path fill="#f0f0f0" d="M596.74 170.888L576 155.818l-20.737 15.07 7.92-24.38-20.738-15.068h25.633L576 107.06l7.925 24.38h25.633l-20.739 15.067zm-66.254 10.262l-25.319 4.009-4.011 25.32-11.64-22.84-25.317 4.009 18.129-18.126-11.642-22.842 22.842 11.637 18.126-18.124-4.009 25.318zm-39.592 54.102l-15.069 20.74 15.07 20.74-24.381-7.92-15.067 20.737v-25.635l-24.382-7.921 24.381-7.922.001-25.633 15.067 20.737zm10.262 66.254l4.011 25.319 25.319 4.007-22.841 11.639 4.01 25.322-18.126-18.13-22.843 11.642 11.639-22.844-18.126-18.125 25.322 4.01zm54.107 39.591L576 356.163l20.74-15.066-7.921 24.38 20.739 15.068h-25.633L576 404.924l-7.922-24.38h-25.636l20.74-15.066zm66.251-10.26l25.319-4.012 4.013-25.319 11.634 22.84 25.321-4.01-18.129 18.127 11.641 22.842-22.843-11.637-18.125 18.125 4.01-25.322zm39.592-54.106l15.069-20.738-15.07-20.74 24.381 7.922 15.068-20.737v25.633l24.381 7.922-24.381 7.92v25.636l-15.068-20.74zm-10.26-66.252l-4.013-25.32-25.318-4.012 22.84-11.636-4.01-25.316 18.126 18.122 22.843-11.634-11.636 22.84 18.123 18.125-25.322-4.01zM0 151.999v24h69.103L0 222.066v11.308l86.066-57.377H120l-120 80h168v-104H0zm144 103.995H33.942L144 182.626zM264 80L384 0H216v104h168V80h-69.103L384 33.93V22.62l-86.066 57.376H264zM240 .003h110.058L240 73.371zm-24 255.994h168l-120-80h33.934L384 233.376v-11.309L314.897 176H384v-24H216zm24-73.371l110.058 73.368H240zM168 0H0l120 80H86.066L0 22.623V33.93l69.103 46.067H0v24h168zm-24 73.371L33.942.003H144z"/>
    <g fill="#d80027">
        <path d="M0 151.999h168v103.998h48V151.999h168v-48H216V0h-48v104H0z"/>
        <path d="M120 80L0 0v22.623L86.066 80zm144 0h33.934L384 22.623V0zM86.066 175.999L0 233.376v22.621l120-79.998zm177.934 0l120 79.998v-22.621l-86.066-57.377z"/>
    </g>
</svg>
