<svg xmlns="http://www.w3.org/2000/svg" width="768" height="512" viewBox="0 0 768 512">
    <path fill="#d80027" d="M0 0h768v512H0z"/>
    <path fill="#ffda44" d="M184.629 143.206h71.143l-57.556 41.817 21.985 67.662-57.556-41.818-57.557 41.818 21.984-67.662-57.556-41.817h71.143l21.986-67.66zm77.731 150.733l6.594-20.297-17.267-12.546h21.343l6.595-20.299 6.598 20.3h21.342l-17.267 12.544 6.595 20.3-17.268-12.547zm60.234-52.126l-6.595-20.295-21.345-.002 17.27-12.546-6.598-20.297 17.268 12.543 17.267-12.543-6.595 20.297 17.265 12.546H329.19zM339.86 161.7l-17.266-12.543-17.268 12.546 6.598-20.3-17.27-12.543 21.346-.002 6.594-20.299 6.595 20.299h21.342l-17.265 12.546zm-54.297-73.05l-5.937 18.271-5.936-18.271-19.208.002 15.54-11.292-5.935-18.27 15.539 11.292 15.54-11.29-5.934 18.269 15.54 11.289z"/>
</svg>
