<svg xmlns="http://www.w3.org/2000/svg" viewBox="0 0 512 512">
    <path fill="#d80027" d="M0 0h512v512H0z"/>
    <path fill="#ffda44" d="M133.999 192.744l-51.162-37.171h63.239l19.543-60.143 19.541 60.143h63.239l-51.161 37.171 19.542 60.143-51.161-37.17-51.162 37.17zm163.541 66.924l-17.267 12.545 6.595 20.3-17.268-12.546-17.265 12.545 6.594-20.298-17.267-12.546h21.345l6.593-20.298 6.598 20.298zm27.522-66.633l-6.596 20.298 17.267 12.546H314.39l-6.596 20.299-6.594-20.298h-21.345l17.269-12.547-6.597-20.297 17.269 12.544zm-17.266-71.213l6.594 20.3h21.343l-17.267 12.547 6.595 20.296-17.265-12.543-17.268 12.545 6.596-20.3-17.268-12.544 21.344-.001zm-55.461-46.334L269.6 88.034l17.268-12.546-6.594 20.3 17.266 12.544-21.341.001-6.597 20.3-6.595-20.3-21.343.001 17.267-12.547z"/>
</svg>
