<svg xmlns="http://www.w3.org/2000/svg" viewBox="0 0 512 512">
    <circle cx="256" cy="256" r="256" fill="#f0f0f0"/>
    <path fill="#d80027" d="M496.077 166H15.923C5.633 194.031 0 224.35 0 256s5.633 61.969 15.923 90h480.155C506.368 317.969 512 287.65 512 256s-5.632-61.969-15.923-90z"/>
    <path fill="#0052b4" d="M256 0C178.409 0 108.886 34.524 61.939 89.043H450.06C403.114 34.524 333.591 0 256 0zm194.061 422.957H61.939C108.886 477.476 178.409 512 256 512s147.114-34.524 194.061-89.043z"/>
    <ellipse cx="145.057" cy="256.001" fill="#f0f0f0" rx="60.768" ry="69"/>
    <g transform="translate(8.684 15.325) scale(.94014)">
        <ellipse cx="145.057" cy="256.001" fill="#0052b4" rx="45.206" ry="51.37"/>
        <path fill="#338af3" d="M144.95 204.631a45.206 51.37 0 0 0-45.1 51.37 45.206 51.37 0 0 0 0 .05h90.412a45.206 51.37 0 0 0 0-.05 45.206 51.37 0 0 0-45.206-51.37 45.206 51.37 0 0 0-.105 0z"/>
    </g>
</svg>
