<svg xmlns="http://www.w3.org/2000/svg" width="768" height="512" viewBox="0 0 768 512">
    <path fill="#f0f0f0" d="M0 0h768v511.982H0z"/>
    <path fill="#d80027" d="M0 181h768v150H0z"/>
    <path fill="#0052b4" d="M0 412h768v100H0zM0 0h768v100H0z"/>
    <ellipse cx="229.049" cy="255.999" fill="#f0f0f0" rx="55.043" ry="62.5"/>
    <g transform="translate(10.893 12.174) scale(.95244)">
        <ellipse cx="229.049" cy="255.999" fill="#0052b4" rx="40.947" ry="46.53"/>
        <path fill="#338af3" d="M228.952 209.469a40.947 46.53 0 0 0-40.851 46.53 40.947 46.53 0 0 0 0 .046h81.893a40.947 46.53 0 0 0 0-.046 40.947 46.53 0 0 0-40.946-46.53 40.947 46.53 0 0 0-.096 0z"/>
    </g>
</svg>
