<svg xmlns="http://www.w3.org/2000/svg" viewBox="0 0 512 512">
    <circle cx="256" cy="256" r="256" fill="#f0f0f0"/>
    <path fill="#0052b4" d="M256 512c77.591 0 147.114-34.524 194.061-89.043H61.939C108.886 477.476 178.409 512 256 512zm256-256C512 114.616 397.384 0 256 0S0 114.616 0 256c0 23.107 3.08 45.489 8.819 66.783h494.363C508.92 301.489 512 279.107 512 256z"/>
    <path fill="#d80027" d="M20.348 356.174a254.959 254.959 0 0 0 17.227 33.391h436.852a255.576 255.576 0 0 0 17.227-33.391H20.348z"/>
    <path fill="#ffda44" d="M207.735 295.474l-11.39 8.276 4.35-13.39-11.389-8.275h14.08l4.349-13.389 4.35 13.39h14.079l-11.39 8.275 4.351 13.389zm0 175.272l-11.39 8.275 4.35-13.39-11.389-8.274h14.08l4.349-13.39 4.35 13.39h14.079l-11.39 8.275 4.351 13.389zm-81.587-59.276l-11.39 8.276 4.352-13.391-11.39-8.275h14.078l4.35-13.388 4.35 13.388h14.08l-11.39 8.275 4.35 13.39zm31.164-98.468l-11.39 8.275 4.352-13.39-11.392-8.274h14.08l4.35-13.39 4.35 13.39h14.078l-11.388 8.274 4.35 13.39zm-24.125 36.635l4.352 13.39-11.392-8.276-11.39 8.273 4.351-13.388-11.388-8.274 14.076.001 4.351-13.392 4.352 13.391h14.079zm28.476 87.636h14.078l-11.39 8.275 4.35 13.391-11.39-8.277-11.389 8.274 4.35-13.387-11.39-8.275h14.078l4.352-13.39zM289.29 411.47l11.391 8.276-4.351-13.391 11.39-8.275h-14.079l-4.35-13.388-4.35 13.388h-14.079l11.389 8.275-4.35 13.39zm-31.163-98.468l11.39 8.275-4.35-13.39 11.39-8.274h-14.08l-4.35-13.39-4.349 13.39h-14.079l11.388 8.274-4.35 13.39zm24.125 36.635l-4.352 13.39 11.392-8.276 11.39 8.273-4.351-13.388 11.389-8.274-14.077.001-4.351-13.392-4.35 13.391h-14.08zm-28.475 87.636h-14.079l11.39 8.275-4.35 13.391 11.39-8.277 11.389 8.274-4.35-13.387 11.39-8.275H262.48l-4.352-13.39z"/>
</svg>
