<svg xmlns="http://www.w3.org/2000/svg" width="768" height="512" viewBox="0 0 768 512">
    <path fill="#0052b4" d="M0 0h768v512H0z"/>
    <path fill="#d80027" d="M0 332.165h768v33.391H0z"/>
    <path fill="#f0f0f0" d="M0 298.774h768v33.391H0zm0 66.782h768v33.391H0z"/>
    <path fill="#ffda44" d="M231.973 262.17l-12.87 9.35 4.916-15.13-12.87-9.35h15.91l4.914-15.131 4.915 15.131h15.91l-12.87 9.35 4.916 15.13zm0 198.053l-12.87 9.35 4.916-15.13-12.87-9.35h15.91l4.914-15.128 4.915 15.128h15.91l-12.87 9.35 4.916 15.13zm-92.192-66.98l-12.87 9.35 4.916-15.13-12.871-9.35h15.91l4.915-15.132 4.915 15.132h15.91l-12.869 9.35 4.915 15.13zm35.214-111.269l-12.87 9.351 4.916-15.13-12.871-9.35h15.91l4.915-15.13 4.915 15.13h15.91l-12.869 9.35 4.915 15.13zm-27.26 41.396l4.917 15.133-12.873-9.351-12.869 9.346 4.915-15.128-12.869-9.35 15.907.002 4.916-15.132 4.917 15.13 15.91-.001zm32.176 99.028h15.91l-12.872 9.352 4.915 15.131-12.87-9.351-12.87 9.35 4.917-15.127-12.873-9.353h15.91l4.917-15.13zm144.219-29.155l12.872 9.35-4.917-15.13 12.871-9.35h-15.91l-4.915-15.132-4.915 15.132h-15.908l12.867 9.35-4.915 15.13zm-35.213-111.269l12.87 9.351-4.916-15.13 12.871-9.35h-15.91l-4.915-15.13-4.915 15.13h-15.91l12.869 9.35-4.915 15.13zm27.261 41.396l-4.918 15.133 12.873-9.351 12.869 9.346-4.915-15.128 12.869-9.35-15.906.002-4.917-15.132-4.917 15.13-15.908-.001zM284 422.398h-15.908l12.87 9.352-4.914 15.131 12.87-9.351 12.87 9.35-4.917-15.127 12.871-9.353h-15.909l-4.916-15.13z"/>
</svg>
