<svg xmlns="http://www.w3.org/2000/svg" viewBox="0 0 512 512">
    <path fill="#0052b4" d="M0 0h512v512H0z"/>
    <path fill="#d80027" d="M0 333.856h512v33.334H0z"/>
    <path fill="#f0f0f0" d="M0 300.522h512v33.334H0zm0 66.666h512v33.334H0z"/>
    <path fill="#ffda44" d="M199.902 256.373l-12.812-9.31h15.839L207.822 232l4.893 15.064h15.84l-12.814 9.31 4.894 15.063-12.814-9.31-12.814 9.31zm0 197.179l-12.812-9.31h15.839l4.893-15.062 4.893 15.061h15.84l-12.814 9.31 4.894 15.063-12.814-9.308-12.814 9.31zm-91.784-66.685l-12.814-9.309h15.84l4.894-15.064 4.892 15.063h15.84l-12.812 9.31 4.894 15.063-12.816-9.31-12.813 9.31zm35.058-110.778l-12.814-9.308h15.84l4.894-15.064 4.892 15.064h15.84l-12.811 9.31 4.892 15.063-12.813-9.31-12.814 9.31zm-27.141 52.724l-12.811 9.307 4.892-15.061-12.812-9.31 15.837.001 4.894-15.066 4.894 15.063 15.841-.002-12.814 9.313 4.894 15.065zm42.98 102.146l4.892 15.062-12.814-9.309-12.811 9.31 4.894-15.062-12.816-9.309h15.84l4.894-15.065 4.895 15.06h15.839zm148.475-44.091l12.814-9.31h-15.84l-4.894-15.064-4.892 15.063h-15.839l12.811 9.31-4.894 15.063 12.816-9.31 12.813 9.31zm-35.058-110.78l12.814-9.307h-15.84l-4.894-15.064-4.893 15.064H243.78l12.811 9.31-4.892 15.063 12.813-9.31 12.814 9.31zm27.141 52.725l12.811 9.307-4.892-15.061 12.812-9.31-15.834.001-4.897-15.066-4.894 15.063-15.84-.002 12.814 9.313-4.895 15.065zm-42.98 102.146l-4.893 15.062 12.814-9.309 12.812 9.31-4.894-15.062 12.814-9.309h-15.84l-4.894-15.065-4.895 15.06H243.78z"/>
</svg>
