<svg xmlns="http://www.w3.org/2000/svg" width="768" height="512" viewBox="0 0 768 512">
    <path fill="#0052b4" d="M0 .005h768v511.996H0z"/>
    <path fill="#6da544" d="M0 0h768v511.988"/>
    <ellipse cx="384" cy="255.994" fill="#ffda44" rx="66.783" ry="66.782"/>
    <path fill="#f0f0f0" d="M219.905 436.478l-15.883 3.577.044 16.283-12.702-10.187-12.702 10.187.044-16.283-15.885-3.577 12.759-10.117-7.104-14.65 15.862 3.665 7.026-14.689 7.026 14.69 15.863-3.667-7.104 14.65zm-45.953-122.434l-15.882 3.58.044 16.281-12.702-10.186-12.704 10.186.044-16.282-15.883-3.579 12.758-10.115-7.104-14.652 15.863 3.666 7.026-14.69 7.024 14.69 15.863-3.666-7.103 14.652zm45.953-100.172l-15.883 3.579.044 16.283-12.702-10.187-12.702 10.187.044-16.283-15.884-3.58 12.756-10.115-7.102-14.652 15.862 3.666 7.026-14.687 7.026 14.687 15.863-3.666-7.104 14.652zm57.082 77.911l-15.882 3.58.043 16.281-12.702-10.186-12.7 10.186.043-16.28-15.885-3.58 12.758-10.117-7.104-14.653 15.864 3.67 7.024-14.69 7.026 14.69 15.864-3.67-7.104 14.653zm-54.891 75.513l-14.467-10.508-14.465 10.508 5.526-17.005-14.467-10.51h17.881l5.525-17.005 5.526 17.005h17.881l-14.466 10.51z"/>
    <path fill="#6da544" d="M384 300.516h22.26s9.646-17.064 0-33.39l22.26-22.26-11.13-22.261h-11.132s-5.565 16.694-27.826 16.694c-22.262 0-27.825-16.694-27.825-16.694h-11.13l11.13 22.26-11.132 22.259 11.132 11.131s11.131-22.26 33.391-11.131c.002.002 9.464 13.914.002 33.392z"/>
    <path fill="#ffda44" d="M594.673 173.23a44.57 44.57 0 0 0 .804-8.443c0-19.8-12.927-36.571-30.799-42.356 5.462 11.1 8.54 23.584 8.54 36.79 0 4.454-.359 8.822-1.032 13.088a45.607 45.607 0 0 0-10.366-11.652c-15.901-12.652-37.63-12.986-53.695-2.33 12.402 2.707 24.396 8.212 35.002 16.652 8.304 6.607 15.015 15.546 20.151 24.174l-67.974 21.284c66.783 11.131 122.435-33.39 122.435-33.39-6.165-12.332-15.744-14.41-23.066-13.817z"/>
</svg>
