<svg xmlns="http://www.w3.org/2000/svg" viewBox="0 0 512 512">
    <path fill="#0052b4" d="M0 0h512v512H0z"/>
    <path fill="#6da544" d="M0 0h512v512"/>
    <circle cx="256" cy="256" r="66" fill="#ffda44"/>
    <path fill="#f0f0f0" d="M77.553 372.254l10.834-8.592-6.033-12.445 13.473 3.115 5.968-12.476 5.966 12.476 13.475-3.115-6.035 12.445 10.836 8.592-13.49 3.041.037 13.83-10.79-8.652-10.788 8.652.038-13.83zM38.522 268.262l10.834-8.592-6.033-12.445 13.474 3.115 5.967-12.477 5.966 12.477 13.475-3.115-6.033 12.445 10.834 8.592-13.49 3.041.036 13.828-10.788-8.651-10.789 8.651.038-13.828zm39.031-85.085l10.834-8.593-6.033-12.444 13.473 3.115 5.968-12.477 5.966 12.477 13.475-3.115-6.034 12.444 10.835 8.593-13.49 3.04.037 13.83-10.79-8.652-10.788 8.651.037-13.829zm48.484 66.178l10.835-8.593-6.034-12.445 13.475 3.115 5.966-12.476 5.968 12.476 13.474-3.114-6.034 12.444 10.835 8.593-13.492 3.04.039 13.83-10.79-8.653-10.788 8.652.038-13.83zm-10.427 26.323l4.694 14.445h15.187l-12.288 8.927 4.694 14.443-12.287-8.926-12.287 8.926 4.694-14.443-12.288-8.927h15.187z"/>
    <path fill="#6da544" d="M256 300.001h21.999s9.533-16.864 0-33l21.999-21.999-11-22h-11s-5.5 16.499-27.5 16.499c-22.001 0-27.5-16.5-27.5-16.5H212l11 22L211.998 267l11 11s11.002-21.999 33-11c.002 0 9.353 13.75.002 33.001z"/>
    <path fill="#ffda44" d="M432.798 118.876c.557-2.905.854-5.9.854-8.966 0-21.023-13.727-38.831-32.703-44.974 5.798 11.786 9.066 25.043 9.066 39.066 0 4.729-.381 9.369-1.095 13.898a48.384 48.384 0 0 0-11.006-12.37c-16.883-13.435-39.955-13.79-57.014-2.476 13.169 2.875 25.902 8.72 37.165 17.682 8.817 7.016 15.941 16.506 21.397 25.668l-72.175 22.598c70.909 11.818 130-35.455 130-35.455-6.546-13.096-16.716-15.302-24.489-14.671z"/>
</svg>
