<svg xmlns="http://www.w3.org/2000/svg" width="768" height="512" viewBox="0 0 768 512">
    <path fill="#f0f0f0" d="M0 0h768v512H0z"/>
    <path fill="#6da544" d="M244.097 222.758c.894 15.766 4.467 31.378 10.566 45.946.23.522.588 1.369.867 2.015 9.753 22.365 25.478 42.076 45.09 56.585a483.22 483.22 0 0 0 2.214 1.613c13.589 9.685 28.933 16.874 45.04 21.214 2.114.549 3.585 2.868 3.019 5.005-.333 1.389-1.298 2.507-1.812 3.83-2.256 4.679-3.44 9.889-3.193 15.09.183 4.6 1.369 9.164 3.5 13.247l35.363-28.338 35.367 28.344c4.453-8.485 4.716-19.046.596-27.71-.625-1.477-1.526-2.824-2.173-4.282-.836-2.4.847-5.258 3.345-5.714 1.595-.441 3.25-.933 4.797-1.43 23.401-7.454 44.739-21.228 61.188-39.463 11.655-12.845 20.915-27.863 27.09-44.074a148.9 148.9 0 0 0 2.11-5.925 140.233 140.233 0 0 0 6.237-28.706c.204-1.923.396-4.053.523-6.063.068-.988.126-2.11.169-3.176h-21.573c-1.143 23.095-9.237 45.805-23.044 64.361-14.125 19.116-34.082 33.89-56.572 41.622-23.082 7.996-48.647 8.642-72.09 1.76-19.283-5.615-37.07-16.251-51.144-30.578-14.631-14.823-25.313-33.538-30.441-53.736a118.824 118.824 0 0 1-3.555-23.429H244l.097 1.992z"/>
    <path fill="#d57800" d="M282.46 188.82s0 62.5 62.5 62.5l12.501 12.5h25s12.5-37.5 37.5-37.5c0 0 0-24.999 25-24.999h37.5s-12.5-49.998 50-87.498l-25-12.5s-87.5 62.499-150 49.998v25h-25l-12.5-12.501z"/>
</svg>
