<svg xmlns="http://www.w3.org/2000/svg" viewBox="0 0 512 512">
    <circle cx="256" cy="256" r="256" fill="#f0f0f0"/>
    <path fill="#6da544" d="M100.03 222.82c.172 3.766.519 7.831.97 11.512a148.73 148.73 0 0 0 1.49 9.531c4.546 24.083 15.172 46.972 30.578 66.027a146.637 146.637 0 0 0 4.374 5.172c15.86 17.985 36.067 32.118 58.45 40.738a150.613 150.613 0 0 0 12.192 4.133c1.851.635 4.08.725 5.399 2.373 1.549 1.706 1.333 4.44-.035 6.185-3.05 5.638-4.709 12.085-4.286 18.511a33.679 33.679 0 0 0 3.748 13.676l37.886-30.365 37.892 30.363c4.314-8.188 4.989-18.17 1.844-26.87-.877-2.56-2.216-4.92-3.45-7.311-1.024-2.602.841-5.77 3.573-6.242 6.753-1.85 13.343-4.284 19.765-7.072 21.799-9.567 41.196-24.462 56.202-42.931.668-.849 1.543-1.91 2.263-2.863a148.981 148.981 0 0 0 11.6-17.392c2.626-4.632 5.084-9.493 7.178-14.31a149.452 149.452 0 0 0 5.145-13.543 150.586 150.586 0 0 0 4.76-18.686 147.122 147.122 0 0 0 2.34-19.66c-.103-.535.347-1.467-.138-1.589h-22.955c-1.198 24.371-9.626 48.342-24.017 68.052-15.174 20.925-36.844 37.099-61.305 45.495-25.357 8.775-53.512 9.251-79.133 1.263-21.914-6.773-41.896-19.642-57.131-36.788-14.395-16.118-24.629-35.947-29.235-57.072a127.002 127.002 0 0 1-2.812-20.95H100l.03.612z"/>
    <path fill="#d57800" d="M153.603 203.663s0 60.244 60.243 60.244l12.049 12.048h24.097s12.049-36.146 36.146-36.146c0 0 0-24.098 24.098-24.098h36.146s-12.048-48.195 48.196-84.341l-24.098-12.048s-84.342 60.243-144.585 48.195v24.098h-24.098l-12.048-12.049z"/>
</svg>
