<svg xmlns="http://www.w3.org/2000/svg" viewBox="0 0 512 512">
    <path fill="#f0f0f0" d="M0 0h512v512H0z"/>
    <path fill="#6da544" d="M124.354 223.825l-3.354.012c1.033 20.306 6.718 40.368 16.596 58.147 9.381 16.982 22.437 31.92 38.05 43.44.429.317 1.217.882 1.783 1.294.653.483 1.221.855 1.957 1.368 12.155 8.408 25.714 14.75 39.93 18.784 2.696.795 5.402 1.562 8.104 2.341-2.682 5.384-6.097 10.617-6.977 16.681a29.56 29.56 0 0 0 2.277 16.96l34-27.246 34.01 27.253c3.773-8.205 3.512-18.159-.818-26.103-1.347-2.625-2.728-5.232-4.092-7.848 9.329-2.683 18.666-5.525 27.443-9.726 23.471-10.969 43.798-28.953 57.5-51.027 11.87-19 18.91-40.996 20.163-63.37.223-.804-.052-1.157-.893-.96H372.35c-1.408 24.035-10.525 47.555-25.742 66.22-15 18.536-35.772 32.373-58.749 38.82-23.368 6.63-48.814 5.787-71.643-2.552-21.366-7.72-40.328-21.883-53.844-40.138-12.673-16.997-20.555-37.52-22.451-58.64-.12-1.235-.211-2.472-.287-3.71-5.094-.001-10.187-.003-15.281 0z"/>
    <path fill="#d57800" d="M168.421 205.764s0 54.73 54.731 54.73l10.947 10.947h21.892s10.947-32.839 32.839-32.839c0 0 0-21.892 21.892-21.892h32.838s-10.946-43.784 43.784-76.622l-21.892-10.947S288.83 183.87 234.1 172.925v21.892h-21.892L201.26 183.87z"/>
</svg>
