<svg xmlns="http://www.w3.org/2000/svg" width="768" height="512" viewBox="0 0 768 512">
    <path fill="#496e2d" d="M0 0h768v512H0z"/>
    <path d="M768 304.001V208H0v96.001z"/>
    <path fill="#ffda44" d="M0 207.999h768v32.006H0z"/>
    <path fill="#f0f0f0" d="M0 271.995h768v32.006H0z"/>
    <path d="M336 0h96v512h-96z"/>
    <path fill="#ffda44" d="M336 0h31.989v512H336z"/>
    <path fill="#f0f0f0" d="M400.011 0H432v512h-31.989z"/>
    <ellipse cx="384" cy="256" fill="#d80027" rx="122.428" ry="122.431"/>
    <path fill="#496e2d" d="M411.894 269.66c-9.107-18.213-20.944-36.673-20.944-36.673s.294-8.405.294-13.414c0-7.545-6.116-13.66-13.661-13.66-7.148 0-13.002 5.491-13.6 12.481-5.62.368-10.069 5.028-10.069 10.742 0 4.154 2.354 7.752 5.796 9.552a15.516 15.516 0 0 1 9.212-8.555 13.65 13.65 0 0 0 2.176 1.466l1.75.839s-6.49 18.29-6.49 28.118c0 27.624 18.213 36.143 18.213 36.143v.285l-9.106 9.104h18.213v-18.214l9.107 9.108c.085-.172 17.254-11.03 9.109-27.321zm-17.043-80.444L384 181.334l-10.851 7.882 4.146-12.754-10.85-7.884h13.41L384 155.823l4.144 12.755h13.41l-10.849 7.884zm-41.328 6.376l-13.409.002-4.145 12.754-4.145-12.754-13.41-.002 10.85-7.882-4.145-12.754 10.848 7.881 10.85-7.88-4.143 12.753zm-29.686 29.452l-10.848 7.883 4.146 12.754-10.853-7.88-10.85 7.879 4.145-12.753-10.848-7.883h13.409l4.144-12.753 4.146 12.753zm-6.706 41.275l-4.143 12.755 10.851 7.882-13.411.002-4.146 12.751-4.145-12.753H288.73l10.848-7.881-4.145-12.755 10.85 7.881zm18.838 37.333l4.145 12.754h13.409l-10.85 7.884 4.143 12.754-10.849-7.881-10.848 7.88 4.144-12.751-10.85-7.884h13.411zm37.18 19.132L384 330.666l10.85-7.882-4.145 12.755 10.85 7.883-13.41.001L384 356.177l-4.145-12.754h-13.41l10.85-7.884zm41.327-6.376l13.41-.002 4.144-12.754 4.146 12.756h13.41l-10.85 7.884 4.145 12.752-10.848-7.881-10.85 7.882 4.143-12.755zm29.684-29.45l10.852-7.884-4.146-12.754 10.852 7.881 10.848-7.88-4.143 12.753 10.848 7.882h-13.408l-4.145 12.753-4.146-12.751zm6.707-41.277l4.144-12.754-10.85-7.882 13.411-.001 4.144-12.753 4.147 12.753h13.408l-10.848 7.883 4.145 12.753-10.85-7.881zm-18.834-37.333l-4.147-12.754h-13.41l10.85-7.884-4.143-12.752 10.85 7.88 10.848-7.882-4.144 12.754 10.849 7.882h-13.41z"/>
</svg>
