<svg xmlns="http://www.w3.org/2000/svg" viewBox="0 0 512 512">
    <path fill="#496e2d" d="M0 0h512v512H0z"/>
    <path d="M512 206H0v100h512v-66.666z"/>
    <path fill="#ffda44" d="M0 206h512v33.339H0z"/>
    <path fill="#f0f0f0" d="M0 272.661h512V306H0z"/>
    <path d="M206 0h100v512H206z"/>
    <path fill="#ffda44" d="M206 0h33.322v512H206z"/>
    <path fill="#f0f0f0" d="M272.678 0H306v512h-33.322z"/>
    <circle cx="256" cy="256" r="122" fill="#d80027"/>
    <path fill="#496e2d" d="M283.796 269.613c-9.074-18.15-20.87-36.545-20.87-36.545s.292-8.376.292-13.366c0-7.52-6.094-13.613-13.613-13.613-7.122 0-12.956 5.472-13.552 12.438-5.6.366-10.033 5.01-10.033 10.704 0 4.139 2.345 7.724 5.776 9.518a15.462 15.462 0 0 1 9.179-8.524 13.602 13.602 0 0 0 2.169 1.46l1.743.835s-6.467 18.226-6.467 28.02c0 27.527 18.15 36.016 18.15 36.016v.284l-9.075 9.071h18.15v-18.149l9.074 9.076c.085-.172 17.194-10.992 9.077-27.225zm-10.303-100.727l-10.811 7.856 4.131 12.709L256 181.597l-10.813 7.854 4.131-12.709-10.811-7.856h13.363l4.13-12.71 4.13 12.71zm-54.546 6.356l-4.129 12.708 10.812 7.855-13.362.001-4.131 12.71-4.13-12.71-13.363-.001 10.811-7.855-4.13-12.708 10.81 7.853zm-40.393 37.203l4.132 12.708h13.361l-10.81 7.855 4.132 12.71-10.815-7.854-10.811 7.852 4.13-12.708-10.81-7.855h13.361zm-10.811 53.839l10.811 7.853 10.812-7.855-4.129 12.71 10.813 7.855-13.364.002-4.132 12.707-4.13-12.709h-13.362l10.81-7.853zm22.899 49.911h13.365l4.13-12.711 4.131 12.71h13.362l-10.812 7.856 4.129 12.708-10.812-7.853-10.81 7.853 4.13-12.706zm47.865 26.921l10.811-7.857-4.131-12.71L256 330.403l10.812-7.854-4.13 12.71 10.811 7.855-13.363.002-4.13 12.708-4.13-12.708zm54.546-6.356l4.129-12.71-10.813-7.855 13.363-.001 4.13-12.71 4.131 12.711h13.363l-10.811 7.857 4.13 12.706-10.81-7.853zm40.393-37.204l-4.131-12.707H315.95l10.813-7.857-4.131-12.708 10.814 7.853 10.81-7.853-4.128 12.708 10.81 7.855h-13.362zm10.812-53.84l-10.812-7.853-10.813 7.855 4.13-12.71-10.813-7.854 13.365-.001 4.13-12.708 4.131 12.708h13.362l-10.81 7.855zm-22.902-49.911h-13.363l-4.128 12.711-4.133-12.71h-13.363l10.813-7.856-4.129-12.707 10.812 7.852 10.81-7.853-4.13 12.708z"/>
</svg>
