<svg xmlns="http://www.w3.org/2000/svg" width="768" height="512" viewBox="0 0 768 512">
    <path fill="#f0f0f0" d="M0 0h768v512H0z"/>
    <path fill="#d80027" d="M0 320h317.217v192H0z"/>
    <path fill="#0052b4" d="M0 0h317.217v192H0z"/>
    <path fill="#d80027" d="M450.783 0H768v192H450.783z"/>
    <path fill="#0052b4" d="M450.783 320H768v192H450.783z"/>
    <path fill="#496e2d" d="M450.781 256.009c0 36.883-29.898 66.783-66.781 66.783-36.883 0-66.781-29.899-66.781-66.783S384 189.226 384 189.226s66.781 29.899 66.781 66.783z"/>
    <path fill="#0052b4" d="M317.219 256.009c0-36.883 29.898-66.783 66.781-66.783 36.883 0 66.781 29.899 66.781 66.783"/>
    <path fill="#d80027" d="M346.435 222.617v41.738c0 20.747 16.818 37.564 37.565 37.564 20.748 0 37.565-16.818 37.565-37.564v-41.738z"/>
</svg>
