<?xml version="1.0" encoding="UTF-8" standalone="no"?>
<svg
   xmlns:dc="http://purl.org/dc/elements/1.1/"
   xmlns:cc="http://creativecommons.org/ns#"
   xmlns:rdf="http://www.w3.org/1999/02/22-rdf-syntax-ns#"
   xmlns:svg="http://www.w3.org/2000/svg"
   xmlns="http://www.w3.org/2000/svg"
   xmlns:sodipodi="http://sodipodi.sourceforge.net/DTD/sodipodi-0.dtd"
   xmlns:inkscape="http://www.inkscape.org/namespaces/inkscape"
   viewBox="0 0 512.006 512.006"
   version="1.1"
   id="svg18"
   sodipodi:docname="do_square.svg"
   inkscape:version="1.0.1 (3bc2e813f5, 2020-09-07)">
  <metadata
     id="metadata24">
    <rdf:RDF>
      <cc:Work
         rdf:about="">
        <dc:format>image/svg+xml</dc:format>
        <dc:type
           rdf:resource="http://purl.org/dc/dcmitype/StillImage" />
      </cc:Work>
    </rdf:RDF>
  </metadata>
  <defs
     id="defs22" />
  <sodipodi:namedview
     pagecolor="#ffffff"
     bordercolor="#666666"
     borderopacity="1"
     objecttolerance="10"
     gridtolerance="10"
     guidetolerance="10"
     inkscape:pageopacity="0"
     inkscape:pageshadow="2"
     inkscape:window-width="640"
     inkscape:window-height="480"
     id="namedview20"
     showgrid="false"
     inkscape:current-layer="svg18" />
  <path
     fill="#f0f0f0"
     d="M.003.017h512v511.989h-512z"
     id="path2" />
  <path
     fill="#d80027"
     d="M.003 326.006h186v186h-186z"
     id="path4" />
  <path
     fill="#0052b4"
     d="M.003 0h186v186h-186z"
     id="path6" />
  <path
     fill="#d80027"
     d="M326.006 0h186v186h-186z"
     id="path8" />
  <path
     fill="#0052b4"
     d="M326.006 326.006h186v186h-186z"
     id="path10" />
  <path
     fill="#496e2d"
     d="m 325.00299,256.00299 c 0,38.10849 -30.89151,69 -69,69 -38.1074,0 -69,-30.89151 -69,-69 0,-38.10849 69,-69 69,-69 0,0 69,30.89151 69,69 z"
     id="path12"
     style="stroke-width:1.07813" />
  <path
     fill="#0052b4"
     d="m 187.00299,256.00299 c 0,-38.10849 30.8926,-69 69,-69 38.10849,0 69,30.89151 69,69"
     id="path14"
     style="stroke-width:1.07813" />
  <path
     fill="#d80027"
     d="m 217.19049,221.50299 v 43.12608 c 0,21.43528 17.37722,38.8125 38.8125,38.8125 21.43528,0 38.8125,-17.37722 38.8125,-38.8125 v -43.12608 z"
     id="path16"
     style="stroke-width:1.07813" />
</svg>
