<svg xmlns="http://www.w3.org/2000/svg" width="768" height="512" viewBox="0 0 768 512">
    <path fill="#496e2d" d="M0 0h768v511.983H0z"/>
    <path fill="#f0f0f0" d="M384 0h384v512H384z"/>
    <g fill="#d80027">
        <path d="M484 253.498l-36.84-11.946-.024-38.728-22.748 31.343-36.838-11.944 22.782 31.32-22.746 31.345 36.828-11.99 22.784 31.319-.023-38.729z"/>
        <path d="M410.567 334.35c-43.27 0-78.351-35.078-78.351-78.35 0-43.272 35.079-78.35 78.351-78.35 13.493 0 26.187 3.41 37.27 9.416-17.388-17.003-41.167-27.497-67.405-27.497C327.174 159.57 284 202.742 284 256c0 53.258 43.174 96.43 96.432 96.43 26.238 0 50.017-10.495 67.406-27.496-11.084 6.007-23.78 9.417-37.27 9.417z"/>
    </g>
</svg>
