<svg xmlns="http://www.w3.org/2000/svg" viewBox="0 0 512 512">
    <path fill="#f0f0f0" d="M256 0c141.384 0 256 114.616 256 256S397.384 512 256 512c0-11.13-33.391-256-33.391-256L256 0z"/>
    <path fill="#496e2d" d="M256 512C114.616 512 0 397.384 0 256S114.616 0 256 0"/>
    <g fill="#d80027">
        <path d="M325.449 197.504l-25.022 34.482-40.524-13.142 25.062 34.452-25.019 34.481 40.508-13.188 25.063 34.45-.027-42.601 40.51-13.19-40.523-13.14z"/>
        <path d="M285.224 342.188c-47.599 0-86.187-38.588-86.187-86.187s38.588-86.187 86.187-86.187c14.84 0 28.806 3.753 40.998 10.36-19.127-18.705-45.283-30.25-74.147-30.25C193.49 149.925 146 197.417 146 256c0 58.584 47.492 106.075 106.075 106.075 28.865 0 55.02-11.544 74.147-30.249-12.192 6.61-26.157 10.362-40.998 10.362z"/>
    </g>
</svg>
