<?xml version="1.0" encoding="UTF-8" standalone="no"?>
<svg
   xmlns:dc="http://purl.org/dc/elements/1.1/"
   xmlns:cc="http://creativecommons.org/ns#"
   xmlns:rdf="http://www.w3.org/1999/02/22-rdf-syntax-ns#"
   xmlns:svg="http://www.w3.org/2000/svg"
   xmlns="http://www.w3.org/2000/svg"
   xmlns:sodipodi="http://sodipodi.sourceforge.net/DTD/sodipodi-0.dtd"
   xmlns:inkscape="http://www.inkscape.org/namespaces/inkscape"
   width="768"
   height="512"
   viewBox="0 0 768 512"
   version="1.1"
   id="svg12"
   sodipodi:docname="dz_rect.svg"
   inkscape:version="1.0.1 (3bc2e813f5, 2020-09-07)">
  <metadata
     id="metadata18">
    <rdf:RDF>
      <cc:Work
         rdf:about="">
        <dc:format>image/svg+xml</dc:format>
        <dc:type
           rdf:resource="http://purl.org/dc/dcmitype/StillImage" />
      </cc:Work>
    </rdf:RDF>
  </metadata>
  <defs
     id="defs16" />
  <sodipodi:namedview
     pagecolor="#ffffff"
     bordercolor="#666666"
     borderopacity="1"
     objecttolerance="10"
     gridtolerance="10"
     guidetolerance="10"
     inkscape:pageopacity="0"
     inkscape:pageshadow="2"
     inkscape:window-width="640"
     inkscape:window-height="480"
     id="namedview14"
     showgrid="false"
     inkscape:current-layer="svg12" />
  <path
     fill="#496e2d"
     d="M0 0h768v511.983H0z"
     id="path2" />
  <path
     fill="#f0f0f0"
     d="M384 0h384v512H384z"
     id="path4" />
  <g
     fill="#d80027"
     id="g10"
     transform="matrix(1.3,0,0,1.3,-115.2,-76.79935)">
    <path
       d="m 484,253.498 -36.84,-11.946 -0.024,-38.728 -22.748,31.343 -36.838,-11.944 22.782,31.32 -22.746,31.345 36.828,-11.99 22.784,31.319 -0.023,-38.729 z"
       id="path6" />
    <path
       d="m 410.567,334.35 c -43.27,0 -78.351,-35.078 -78.351,-78.35 0,-43.272 35.079,-78.35 78.351,-78.35 13.493,0 26.187,3.41 37.27,9.416 C 430.449,170.063 406.67,159.569 380.432,159.569 327.174,159.57 284,202.742 284,256 c 0,53.258 43.174,96.43 96.432,96.43 26.238,0 50.017,-10.495 67.406,-27.496 -11.084,6.007 -23.78,9.417 -37.27,9.417 z"
       id="path8" />
  </g>
</svg>
