<svg xmlns="http://www.w3.org/2000/svg" width="768" height="512" viewBox="0 0 768 512">
    <path fill="#ffda44" d="M0 0h768v512H0z"/>
    <path fill="#0052b4" d="M0 256h768v128.008H0z"/>
    <path fill="#d80027" d="M0 384.008h768V512H0z"/>
    <ellipse cx="384" cy="256" fill="#ffda44" rx="89.038" ry="89.04"/>
    <path fill="#338af3" d="M384 314.957c-31.647 0-57.392-25.745-57.392-57.392v-34.437c0-31.647 25.745-57.392 57.392-57.392 31.647 0 57.392 25.745 57.392 57.392v34.437c0 31.647-25.745 57.392-57.392 57.392z"/>
    <path d="M475.825 119.823h-68.869c0-12.677-10.28-22.957-22.956-22.957-12.677 0-22.956 10.28-22.956 22.957h-68.87c0 12.678 11.045 22.956 23.721 22.956h-.765c0 12.678 10.278 22.957 22.956 22.957 0 12.678 10.278 22.956 22.956 22.956h45.914c12.678 0 22.956-10.278 22.956-22.956 12.678 0 22.956-10.279 22.956-22.957h-.765c12.68 0 23.723-10.278 23.723-22.956z"/>
</svg>
