<svg xmlns="http://www.w3.org/2000/svg" width="768" height="512" viewBox="0 0 768 512">
    <path fill="#f0f0f0" d="M0 0h768v512H0z"/>
    <path fill="#d80027" d="M0 0h768v170.666H0z"/>
    <path d="M0 341.334h768V512H0z"/>
    <path fill="#d57800" d="M480 226.434h-72c0-13.254-10.746-24-24-24s-24 10.746-24 24h-72c0 13.255 11.546 24 24.8 24h-.8c0 13.255 10.746 24.001 24 24.001 0 13.255 10.746 24 24 24h48c13.254 0 24-10.745 24-24 13.254 0 24-10.746 24-24h-.8c13.254 0 24.8-10.745 24.8-24z"/>
</svg>
