<svg xmlns="http://www.w3.org/2000/svg" width="768" height="512" viewBox="0 0 768 512">
    <path fill="#f0f0f0" d="M0 .009h768v511.983H0z"/>
    <path d="M0 .009h768V170.67H0z"/>
    <path fill="#496e2d" d="M0 341.332h768v170.661H0z"/>
    <g fill="#d80027">
        <path d="M0 512V0l384 256.01zm458.574-256c0-29.837 20.97-54.764 48.974-60.88a62.49 62.49 0 0 0-13.356-1.448c-34.425 0-62.33 27.904-62.33 62.329 0 34.424 27.905 62.329 62.33 62.329a62.48 62.48 0 0 0 13.356-1.45c-28.004-6.115-48.974-31.042-48.974-60.88z"/>
        <path d="M533.313 287.166l-23.145-16.815-23.147 16.815 8.843-27.208-23.147-16.817h28.608l8.843-27.21 8.841 27.21h28.608l-23.145 16.817z"/>
    </g>
</svg>
