<svg xmlns="http://www.w3.org/2000/svg" width="768" height="512" viewBox="0 0 768 512">
    <path fill="#338af3" d="M0 0h768v512H0z"/>
    <path fill="#6da544" d="M0 0h768v256H0z"/>
    <path fill="#d80027" d="M0 512c-.006.04 768-256.009 768-256.009L0 0z"/>
    <path fill="#ffda44" d="M158.86 164.007c-1.053.016-2.19.038-3.122.093a75.82 75.82 0 0 0-10.638 1.28c-.56.119-1.461.291-2.148.453a76.497 76.497 0 0 0-24.93 10.432c-.577.374-1.412.93-2.073 1.395-13.913 9.613-24.549 23.906-29.6 40.058-2.56 8.03-3.727 16.482-3.56 24.904.009 10.461-.06 20.923.046 31.383.046 1.417.156 3.028.275 4.317a79.75 79.75 0 0 0 .93 6.722c2.607 14.274 9.38 27.745 19.278 38.353a78.433 78.433 0 0 0 10.673 9.548c.434.304 1.126.829 1.678 1.203a77.128 77.128 0 0 0 11.734 6.775c.584.258 1.455.67 2.164.959 18.186 7.825 39.433 8.147 57.86.92 7.093-2.753 13.754-6.595 19.724-11.306.47-.377 1.202-.961 1.758-1.436 12.445-10.369 21.488-24.761 25.324-40.507.593-2.35 1.08-4.926 1.422-7.198.188-1.323.337-2.547.472-3.924.108-1.137.213-2.592.265-3.862.152-5.554.039-11.112.078-16.668-.018-6.792.043-13.587-.073-20.378-.546-13.052-4.516-25.943-11.408-37.041-.218-.345-.622-.991-.872-1.364-9.274-14.34-23.443-25.466-39.614-30.978a75.47 75.47 0 0 0-2.666-.86c-7.433-2.257-15.212-3.342-22.977-3.273zm.752 22.313c13.158-.052 26.247 4.916 36.076 13.66 10.697 9.405 17.54 23.128 18.337 37.373.262 4.832.069 9.673.128 14.51-.019 7.297.053 14.596-.066 21.892-.592 13.839-6.784 27.318-16.836 36.838-6.38 6.104-14.267 10.581-22.732 13.061-.938.468-1.981.422-2.981.224-.888.163-.8-.535-.756-1.195v-38.016l19.793-19.793c-6.593-6.591-13.183-13.185-19.778-19.775l-.011-15.408h-22.319v27.974l-19.777 19.776 19.777 19.777v27.639c-5.447-1.68-10.937-3.433-15.872-6.35-12.938-7.357-22.632-20.212-26.022-34.717-1.255-5.181-1.604-10.535-1.475-15.852.018-9.814-.055-19.63.053-29.443.51-13.234 6.131-26.169 15.386-35.633 9.461-9.777 22.682-15.853 36.29-16.461.927-.062 1.856-.062 2.785-.081z"/>
</svg>
