<svg xmlns="http://www.w3.org/2000/svg" viewBox="0 0 512 512">
    <path fill="#338af3" d="M233.739 233.739S75.13 437.056 74.98 437.019C121.306 483.346 185.307 512 256 512c141.384 0 256-114.616 256-256l-278.261-22.261z"/>
    <path fill="#6da544" d="M233.739 256S75.13 74.945 74.98 74.981C121.306 28.654 185.307 0 256 0c141.384 0 256 114.616 256 256H233.739z"/>
    <path fill="#d80027" d="M74.98 74.98c-99.974 99.974-99.974 262.065 0 362.04C74.973 437.061 512 256 512 256L74.98 74.98z"/>
    <path fill="#ffda44" d="M124.384 159.954a79.881 79.881 0 0 0-20.939 3.372c-.96.29-2.235.705-3.186 1.035-16.125 5.573-30.29 16.52-39.88 30.617a70.562 70.562 0 0 0-2.22 3.448 80.554 80.554 0 0 0-3.188 5.747c-.168.357-.53 1.076-.703 1.44-5.108 10.67-7.744 22.49-7.747 34.314.031 11.812-.07 23.625.07 35.435.46 11.581 3.487 23.055 8.822 33.345a76.867 76.867 0 0 0 2.45 4.396c9.779 16.4 25.607 29.085 43.76 35.017 1.197.392 2.437.769 3.558 1.07 8.08 2.244 16.517 3.166 24.893 2.806.547-.037 1.417-.068 2.09-.124a77.3 77.3 0 0 0 3.17-.283c15.104-1.61 29.659-7.743 41.437-17.32a79.296 79.296 0 0 0 4.196-3.639c10.468-9.694 18.256-22.24 22.28-35.93 2.317-7.757 3.376-15.87 3.256-23.96.014-9.761.017-19.522 0-29.283.016-4.31-.149-8.628-.794-12.895a82.729 82.729 0 0 0-.599-3.586 80.431 80.431 0 0 0-1.666-6.997 79.479 79.479 0 0 0-9.384-20.875 90.675 90.675 0 0 0-3.108-4.536 80.947 80.947 0 0 0-15.052-15.526c-.444-.336-1.132-.883-1.684-1.284-1.72-1.297-3.657-2.6-5.379-3.689-13.121-8.275-28.715-12.494-44.214-12.118l-.239.003zm2.122 20.58c15.428-.067 30.761 6.233 41.693 17.118 10.376 10.204 16.875 24.317 17.598 38.876.243 5.147.047 10.302.114 15.452-.018 7.76.06 15.522-.09 23.28-.75 15.48-7.948 30.502-19.475 40.85-6.813 6.178-15.08 10.7-23.91 13.25-1.871.61-3.743 1.219-5.616 1.827V285.78l20.365-20.365c-6.783-6.782-13.564-13.566-20.35-20.347-.002-5.15-.007-10.299-.01-15.448h-20.61v28.779l-20.349 20.348 20.349 20.348v32.045c-6.677-2.067-13.471-4.07-19.505-7.694-13.708-7.952-24.042-21.564-27.82-36.974-1.48-5.874-1.924-11.961-1.763-18.004.021-10.502-.07-21.006.079-31.507.683-15.163 7.542-29.92 18.634-40.273 10.297-9.727 24.162-15.627 38.337-16.1.776-.038 1.552-.044 2.33-.054z"/>
</svg>
