<svg xmlns="http://www.w3.org/2000/svg" viewBox="0 0 512 512">
    <path fill="#338af3" d="M0 0h512v512H0z"/>
    <path fill="#6da544" d="M0 0h512v256H0z"/>
    <path fill="#d80027" d="M0 512c-.004.041 512-256.008 512-256.008L0 0v512z"/>
    <path fill="#ffda44" d="M134.912 162.899c-16.154.398-32.135 6.033-44.929 15.912-9.293 7.123-16.996 16.336-22.239 26.814a78.997 78.997 0 0 0-1.918 4.096c-4.373 10.088-6.515 21.116-6.308 32.106.002 10.857-.05 21.714.041 32.57.043 1.381.158 3.134.283 4.488.145 1.54.336 3.075.568 4.604.088.531.224 1.403.352 2.062 2.549 14.037 9.084 27.316 18.656 37.895a80.368 80.368 0 0 0 2.047 2.187c10.063 10.38 23.078 17.867 37.129 21.29a74 74 0 0 0 3.178.706c7.394 1.49 15.006 1.844 22.513 1.153.43-.043 1.236-.126 1.809-.197a76.602 76.602 0 0 0 23.25-6.54 76.823 76.823 0 0 0 11.705-6.701 80.238 80.238 0 0 0 10.37-8.619c8.69-8.584 15.339-19.233 19.163-30.838.216-.662.528-1.627.75-2.414a80 80 0 0 0 1.986-8.535 80.39 80.39 0 0 0 .805-6.08c.56-5.606.277-11.16.342-16.831-.012-8.48.057-16.961-.094-25.439a79.664 79.664 0 0 0-.248-3.586c-.071-.653-.166-1.63-.27-2.402a77.228 77.228 0 0 0-3.646-15.562 104.37 104.37 0 0 0-.965-2.63c-5.664-14.723-16-27.565-29.09-36.351-11.128-7.55-24.27-12.063-37.684-12.986a83.183 83.183 0 0 0-7.556-.172zm2.05 19.275c15.207-.074 30.316 6.18 41.042 16.955 10.463 10.378 16.837 24.841 17.111 39.604.131 4.977-.005 9.957.046 14.935-.025 7.14.081 14.282-.104 21.418-.828 15.254-8.046 30.025-19.523 40.1-6.59 5.856-14.536 10.119-22.99 12.583l-5.905 1.935V284.82l19.662-19.662-19.649-19.649c-.002-4.938-.007-9.876-.01-14.814h-19.308v27.789l-19.649 19.646 19.649 19.647v31.855c-6.783-2.111-13.712-4.107-19.819-7.844-14.062-8.228-24.399-22.601-27.554-38.604-1.06-5.188-1.266-10.503-1.149-15.785.021-10.012-.07-20.027.082-30.038.71-15.36 7.907-30.274 19.428-40.448 10.39-9.286 24.2-14.692 38.151-14.731.163-.003.326-.007.49-.009z"/>
</svg>
