<svg xmlns="http://www.w3.org/2000/svg" viewBox="0 0 512 512">
    <path fill="#d80027" d="M15.923 345.043C52.094 442.527 145.929 512 256 512s203.906-69.473 240.077-166.957zm480.154-178.086C459.906 69.473 366.071 0 256 0S52.094 69.473 15.923 166.957z"/>
    <path fill="#ffda44" d="M22.977 150A256 256 0 0 0 0 256a256 256 0 0 0 22.977 106H489.02A256 256 0 0 0 512 256a256 256 0 0 0-22.979-106z"/>
    <path fill="#acabb1" d="M108.341 204.737h128v107.235h-128z"/>
    <path fill="#a2001d" d="M125.003 192.5h94.676v105.142L170.632 319.5l-45.628-21.86z"/>
</svg>
