<svg xmlns="http://www.w3.org/2000/svg" width="768" height="512" viewBox="0 0 768 512">
    <path fill="#ffda44" d="M0 0h768v512H0z"/>
    <path fill="#6da544" d="M0 0h768v170.666H0z"/>
    <path fill="#d80027" d="M0 341.334h768V512H0z"/>
    <ellipse cx="384" cy="256" fill="#0052b4" rx="122.428" ry="122.431"/>
    <g fill="#ffda44">
        <path d="M442.01 339.478l-58.037-42.24-57.945 42.162 22.185-68.145-57.924-42.043h71.583l22.101-68.02 22.102 68.02h71.636l-57.975 42.043z"/>
        <path d="M383.998 237.064l-43.33-59.642-18.009 13.084 43.329 59.644-70.11 22.78 6.878 21.172 70.113-22.782v73.723h22.262V271.32l70.11 22.782 6.881-21.173-70.114-22.782 43.332-59.64-18.008-13.086z"/>
    </g>
</svg>
