<svg xmlns="http://www.w3.org/2000/svg" width="768" height="512" viewBox="0 0 768 512">
    <path fill="#338af3" d="M0 .008h768V512H0z"/>
    <path fill="#f0f0f0" d="M384 175.992h-69.103L384 222.071v33.924h-33.942L240 182.62v73.376h-96V182.62L33.942 255.995H0v-33.924l69.103-46.079H0V79.994h69.103L0 33.932V.007h33.942L144 73.367V.006h96v73.36L350.058.006H384v33.925l-69.103 46.062H384z"/>
    <g fill="#d80027">
        <path d="M0 151.997h168v103.998h48V151.997h168v-47.999H216V0h-48v103.998H0z"/>
        <path d="M0 0v22.624l86.066 57.375H120zm384 0v22.624l-86.066 57.375H264z"/>
        <path d="M0 0v22.624l86.066 57.375H120zm384 0v22.624l-86.066 57.375H264zM0 255.995v-22.622l86.066-57.376H120zm384 0v-22.622l-86.066-57.376H264z"/>
    </g>
    <path fill="#f0f0f0" d="M498.087 190.395v91.423c0 61.235 79.998 79.997 79.998 79.997s79.999-18.762 79.999-79.996v-91.425l-79.999-22.855z"/>
    <path fill="#d80027" d="M658.084 196.108v-34.284H498.088v34.284h68.57v68.57h-68.569v22.854h68.569l-.805 70.49c6.897 2.443 12.232 3.792 12.232 3.792s4.602-1.088 11.5-3.529l-.07-70.752h68.572v-22.855h-68.574v-68.57z"/>
</svg>
