<svg xmlns="http://www.w3.org/2000/svg" width="768" height="512" viewBox="0 0 768 512">
    <path fill="#0052b4" d="M0 .005h768v511.996H0z"/>
    <path fill="#ffda44" d="M498.087 311.644v44.523h22.262v11.128h111.303v-11.128h22.261v-44.523h-33.392v11.132h-89.044v-11.132z"/>
    <path fill="#338af3" d="M498.087 144.692v122.432c0 59.637 77.913 77.911 77.913 77.911s77.913-18.272 77.913-77.911V144.692z"/>
    <path fill="#f0f0f0" d="M575.995 236.013c-19.477 0-19.477 17.809-38.955 17.809-19.477 0-19.477-17.81-38.955-17.81v31.166c19.478 0 19.478 17.809 38.955 17.809 19.478 0 19.478-17.81 38.955-17.81 19.48 0 19.48 17.81 38.96 17.81 19.479 0 19.479-17.81 38.96-17.81v-31.164c-19.48 0-19.48 17.809-38.96 17.809-19.479 0-19.479-17.81-38.96-17.81zm0-62.383c-19.477 0-19.477 17.808-38.955 17.808-19.477 0-19.477-17.809-38.955-17.809v31.165c19.478 0 19.478 17.81 38.955 17.81 19.478 0 19.478-17.81 38.955-17.81 19.48 0 19.48 17.81 38.96 17.81 19.479 0 19.479-17.81 38.96-17.81v-31.165c-19.48 0-19.48 17.81-38.96 17.81-19.479 0-19.479-17.81-38.96-17.81zM384 172.518h-88.655L384 221.769v34.225h-40.02l-110.241-61.24v61.24h-83.478v-72.858L19.116 255.994H0v-45.83l67.75-37.646H0V83.48h88.655L0 34.213V.004h40.02l110.241 61.24V.004h83.478v72.859L364.884.004H384v45.83L316.25 83.48H384z"/>
    <path fill="#d80027" d="M0 151.995h168v103.999h48V151.995h168v-47.999H216V0h-48v103.996H0z"/>
    <path fill="#0052b4" d="M233.739 172.518L384 255.994v-23.605l-107.77-59.871z"/>
    <path fill="#f0f0f0" d="M233.739 172.518L384 255.994v-23.605l-107.77-59.871z"/>
    <path fill="#d80027" d="M233.739 172.518L384 255.994v-23.605l-107.77-59.871zm-83.478 0h-42.492L0 232.389v23.605z"/>
    <path fill="#0052b4" d="M150.261 83.476L0 0v23.605l107.77 59.871z"/>
    <path fill="#f0f0f0" d="M150.261 83.476L0 0v23.605l107.77 59.871z"/>
    <path fill="#d80027" d="M150.261 83.476L0 0v23.605l107.77 59.871zm83.478 0h42.492L384 23.605V0z"/>
</svg>
