<svg xmlns="http://www.w3.org/2000/svg" viewBox="0 0 512 512">
    <path fill="#0052b4" d="M0 0h512v512H0z"/>
    <path fill="#ffda44" d="M334.058 379.794h99.998v-10h20v-40h-30v10h-80v-10h-29.999v40h20z"/>
    <path fill="#338af3" d="M314.058 179.797v109.998c0 53.58 69.999 69.999 69.999 69.999s69.999-16.417 69.999-70V179.797z"/>
    <path fill="#f0f0f0" d="M384.053 261.845c-17.5 0-17.5 16-34.998 16-17.5 0-17.5-16-34.998-16v28c17.5 0 17.5 16 34.998 16 17.5 0 17.5-16.001 34.998-16.001 17.5 0 17.5 16 35.002 16 17.5 0 17.5-16 35.002-16v-28c-17.5 0-17.5 16-35.002 16-17.5 0-17.5-15.999-35.002-15.999zm0-56.048c-17.5 0-17.5 16-34.998 16-17.5 0-17.5-16-34.998-16v28c17.5 0 17.5 16 34.998 16 17.5 0 17.5-16 34.998-16 17.5 0 17.5 16 35.002 16 17.5 0 17.5-16 35.002-16v-28c-17.5 0-17.5 16-35.002 16-17.5 0-17.5-16-35.002-16zM256 0v48.896l-40.147 40.147H256v77.914h-52.536L256 219.492V256h-23.719l-65.324-65.336V256H89.043v-77.724L11.331 256H0v-48.896l40.147-40.147H0V89.043h52.536L0 36.508V0h23.719l65.324 65.336V0h77.914v77.724L244.669 0z"/>
    <path fill="#d80027" d="M0 152.001h103.999V256h48V152.001H256v-48H151.999V0h-48v104.001H0z"/>
    <path fill="#0052b4" d="M166.957 166.957L256 256v-25.18l-63.863-63.863z"/>
    <path fill="#f0f0f0" d="M166.957 166.957L256 256v-25.18l-63.863-63.863z"/>
    <path fill="#d80027" d="M166.957 166.957L256 256v-25.18l-63.863-63.863zm-103.095.002L0 230.821V256l89.041-89.041z"/>
    <path fill="#0052b4" d="M89.043 89.043L0 0v25.18l63.863 63.863z"/>
    <path fill="#f0f0f0" d="M89.043 89.043L0 0v25.18l63.863 63.863z"/>
    <path fill="#d80027" d="M89.043 89.043L0 0v25.18l63.863 63.863zm103.095-.002L256 25.179V0l-89.041 89.041z"/>
</svg>
