<svg xmlns="http://www.w3.org/2000/svg" width="768" height="512" viewBox="0 0 768 512">
    <path fill="#338af3" d="M0 0h768v512H0z"/>
    <path fill="#f0f0f0" d="M412.932 200.34l-28.934-21.018-28.931 21.019 11.052-34.01-28.933-21.023h35.764l11.049-34.01 11.05 34.01h35.765l-28.932 21.024zm-84.583 26.72l-21.02 28.935 21.02 28.928-34.011-11.05-21.023 28.932v-35.761l-34.011-11.05 34.011-11.051V209.18l21.022 28.932zm26.719 84.583l28.933 21.02 28.931-21.02-11.05 34.01 28.931 21.024h-35.762L384 400.687l-11.05-34.01h-35.765l28.933-21.024zm84.583-26.72l21.02-28.933-21.02-28.93 34.011 11.052 21.023-28.932v35.761l34.011 11.05-34.011 11.051v35.763l-21.023-28.932z"/>
</svg>
