<svg xmlns="http://www.w3.org/2000/svg" width="768" height="512" viewBox="0 0 768 512">
    <path fill="#f0f0f0" d="M0 .005h768v511.996H0z"/>
    <path fill="#d80027" d="M0 303.993h336v207.995h96V303.993h336v-95.998H432V0h-96v207.995H0z"/>
    <path fill="#0052b4" d="M768 443.547v-98.512H590.678zm-300.522-98.512L768 511.988v-47.21L552.46 345.035zm0 44.459v122.494h220.473z"/>
    <path fill="#f0f0f0" d="M467.478 345.035L768 511.988v-47.21L552.46 345.035z"/>
    <path fill="#d80027" d="M467.478 345.035L768 511.988v-47.21L552.46 345.035z"/>
    <path fill="#0052b4" d="M0 420.316v-75.284h135.511zm300.522 91.67H38.236l262.286-145.723z"/>
    <path fill="#d80027" d="M300.522 345.035H215.54L0 464.778v47.21z"/>
    <path fill="#0052b4" d="M0 68.44v98.513h177.322zm300.522 98.513L0 0v47.21l215.54 119.743zm0-44.459V0H80.049z"/>
    <path fill="#f0f0f0" d="M300.522 166.953L0 0v47.21l215.54 119.743z"/>
    <path fill="#d80027" d="M300.522 166.953L0 0v47.21l215.54 119.743z"/>
    <path fill="#0052b4" d="M768 91.672v75.284H632.488zM467.478.001h262.286L467.478 145.725z"/>
    <path fill="#d80027" d="M467.478 166.953h84.982L768 47.21V0z"/>
</svg>
