<svg xmlns="http://www.w3.org/2000/svg" viewBox="0 0 512 512">
    <path fill="#f0f0f0" d="M0 0h512v512H0z"/>
    <path fill="#d80027" d="M0 304h208v208h96V304h208v-96H304V0h-96v208H0z"/>
    <path fill="#0052b4" d="M406.92 333.913L512 438.993v-105.08zm-73.007 0L512 512v-50.36L384.273 333.913zM464.564 512L333.913 381.336V512z"/>
    <path fill="#f0f0f0" d="M333.913 333.913L512 512v-50.36L384.273 333.913z"/>
    <path fill="#d80027" d="M333.913 333.913L512 512v-50.36L384.273 333.913z"/>
    <path fill="#0052b4" d="M80.302 333.913L0 414.215v-80.302zm97.782 22.646v155.438H22.658z"/>
    <path fill="#d80027" d="M127.724 333.916L0 461.641V512l178.084-178.084z"/>
    <path fill="#0052b4" d="M105.08 178.087L0 73.007v105.08zm73.007 0L0 0v50.36l127.727 127.727zM47.436 0l130.651 130.663V0z"/>
    <path fill="#f0f0f0" d="M178.087 178.087L0 0v50.36l127.727 127.727z"/>
    <path fill="#d80027" d="M178.087 178.087L0 0v50.36l127.727 127.727z"/>
    <path fill="#0052b4" d="M431.698 178.087L512 97.785v80.302zm-97.782-22.646V.003h155.426z"/>
    <path fill="#d80027" d="M384.276 178.084L512 50.359V0L333.916 178.084z"/>
</svg>
