<svg xmlns="http://www.w3.org/2000/svg" width="768" height="512" viewBox="0 0 768 512">
    <path fill="#a2001d" d="M0 0h768v512H0z"/>
    <path fill="#496e2d" d="M66.783 445.216V66.784L384 256z"/>
    <path fill="#ffda44" d="M701.217 445.216H66.783L384 256zM384 256L66.783 66.784h634.434z"/>
    <path fill="#496e2d" d="M701.217 445.216L384 256 701.217 66.784z"/>
    <path fill="#ffda44" d="M397.021 55.648L384 46.188l-13.02 9.46 4.974-15.306-13.02-9.46h16.092L384 15.579l4.974 15.305h16.092l-13.019 9.459zm-128.858 0l-13.022-9.46-13.018 9.46 4.972-15.306-13.02-9.46h16.092l4.974-15.304 4.974 15.305h16.09l-13.016 9.459zm257.716 0l-13.02-9.46-13.019 9.46 4.975-15.306-13.02-9.46h16.09l4.974-15.304 4.974 15.305h16.092l-13.018 9.459zM397.021 496.422L384 486.963l-13.02 9.46 4.974-15.306-13.02-9.46h16.092L384 456.352l4.974 15.305h16.092l-13.019 9.46zm-128.858 0l-13.022-9.459-13.018 9.46 4.972-15.306-13.02-9.46h16.092l4.974-15.305 4.974 15.305h16.09l-13.016 9.46zm257.716 0l-13.02-9.459-13.019 9.46 4.975-15.306-13.02-9.46h16.09l4.974-15.305 4.974 15.305h16.092l-13.018 9.46z"/>
    <ellipse cx="384" cy="256" fill="#a2001d" rx="56.982" ry="56.983"/>
    <path fill="#ffda44" d="M417.444 301.948L384 277.648l-33.447 24.3 12.775-39.318-33.444-24.303h41.34L384 199.01l12.774 39.316h41.341l-33.444 24.303zm-255.961-50.177c6.574 10.39 3.484 24.139-6.903 30.717-10.388 6.577-24.138 3.486-30.716-6.904-11.905-18.81-5.002-49.525-5.002-49.525s30.712 6.904 42.62 25.712z"/>
    <circle cx="148.625" cy="273.079" r="11.13" fill="#a2001d"/>
</svg>
