<svg xmlns="http://www.w3.org/2000/svg" width="768" height="512" viewBox="0 0 768 512">
    <path fill="#f0f0f0" d="M0 .005h768v511.996H0z"/>
    <g fill="#d80027">
        <path d="M0 303.993h336v207.995h96V303.993h336v-95.998H432V0h-96v207.995H0z"/>
        <path d="M117.913 87.304v33.391h33.392v33.391h33.39v-33.39h33.391V87.303h-33.391v-33.39h-33.39v33.39zm432 0v33.391h33.392v33.391h33.39v-33.39h33.392V87.303h-33.392v-33.39h-33.39v33.39zm-432 303.989v33.39h33.392v33.392h33.39v-33.391h33.391v-33.391h-33.391v-33.391h-33.39v33.39zm432 0v33.39h33.392v33.392h33.39v-33.391h33.392v-33.391h-33.392v-33.391h-33.39v33.39z"/>
    </g>
</svg>
