<svg xmlns="http://www.w3.org/2000/svg" viewBox="0 0 512 512">
    <circle cx="256" cy="256" r="256" fill="#f0f0f0"/>
    <path fill="#d80027" d="M210.348 4.104v206.244H4.104A256 256 0 0 0 0 256a256 256 0 0 0 4.104 45.652h206.242v206.244A256 256 0 0 0 256 512a256 256 0 0 0 45.652-4.104V301.652h206.244A256 256 0 0 0 512 256a256 256 0 0 0-4.104-45.652H301.654V4.104A256 256 0 0 0 256 0a256 256 0 0 0-45.652 4.104z"/>
    <path fill="#ffda44" d="M225.565 134.262l15.218 22.825v83.696h-83.696l-22.825-15.218v60.87l22.825-15.218h83.696v83.696l-15.218 22.825h60.87l-15.218-22.825v-83.696h83.696l22.825 15.218v-60.87l-22.825 15.218h-83.696v-83.696l15.218-22.825z"/>
</svg>
