<svg xmlns="http://www.w3.org/2000/svg" width="768" height="512" viewBox="0 0 768 512">
    <path fill="#f0f0f0" d="M0 0h768v512H0z"/>
    <path fill="#d80027" d="M0 341.323h768v170.66H0zM473.043 155.82v11.128h-22.26V155.82h-22.26v22.26h11.128v33.39h-22.26v-77.908h11.132v-22.263H406.26v11.13h-11.128v-11.13h-22.263v11.13H361.74v-11.13h-22.263v22.263h11.132v77.909h-22.26V178.08h11.128v-22.26h-22.26v11.128h-22.26V155.82h-22.261v22.26h11.13v33.39h-22.26v89.043h244.869V211.47h-22.26v-33.39h11.13v-22.26z"/>
    <path fill="#ffda44" d="M384 289.383c-18.442 0-33.392 14.949-33.392 33.391 0 14.536 9.293 26.9 22.26 31.483v46.43h-33.391v44.522h55.651v-90.95c12.97-4.583 22.262-16.946 22.262-31.483.002-18.444-14.947-33.393-33.39-33.393zm0 44.52c-6.147 0-11.132-4.982-11.132-11.13 0-6.149 4.982-11.132 11.132-11.132 6.147 0 11.132 4.982 11.132 11.132 0 6.146-4.985 11.13-11.132 11.13z"/>
</svg>
