<svg xmlns="http://www.w3.org/2000/svg" viewBox="0 0 512 512">
    <path fill="#f0f0f0" d="M0 0h512v512H0z"/>
    <path fill="#d80027" d="M0 341.337h512V512H0zM296 176.84v20h10v30h-20v-70h10v-20h-20v9.998h-10v-9.998h-20v9.998h-10v-9.998h-20v20h10v69.998h-20v-30h10v-20h-20v10.001h-20v-10h-20v20h10v30h-20v80h220v-80h-20v-30h10v-20h-20v10h-20v-10z"/>
    <path fill="#ffda44" d="M256 296.84c-16.568 0-30 13.432-30 30 0 13.06 8.35 24.169 20 28.285v41.714h-30v40h50v-81.714c11.65-4.118 19.999-15.226 19.999-28.285 0-16.568-13.431-30-29.999-30zm0 40c-5.524 0-10-4.477-10-10a10 10 0 0 1 10-10c5.523 0 10 4.476 10 10 0 5.523-4.477 10-10 10z"/>
</svg>
