<svg xmlns="http://www.w3.org/2000/svg" viewBox="0 0 512 512">
    <circle cx="256" cy="256" r="256" fill="#f0f0f0"/>
    <path fill="#6da544" d="M155.826 166.957h340.25C459.906 69.472 366.07 0 256 0 185.306 0 121.313 28.659 74.989 74.989l80.837 91.968z"/>
    <path fill="#d80027" d="M155.826 345.043h340.25C459.906 442.528 366.07 512 256 512c-70.694 0-134.687-28.659-181.011-74.989l80.837-91.968z"/>
    <path fill="#0052b4" d="M74.98 74.98c-99.974 99.974-99.974 262.065 0 362.04L256 256 74.98 74.98z"/>
    <path fill="none" stroke="#acabb1" stroke-width="12" d="M310.522 196.294v66.25c0 40.57 53 53 53 53s53-12.43 53-53v-66.25z"/>
    <path fill="#acabb1" d="M350.271 250.62h26.5v38.423h-26.5z"/>
    <path fill="#6da544" d="M390.02 236.044c0-14.636-11.863-26.5-26.5-26.5-14.635 0-26.5 11.864-26.5 26.5-7.317 0-13.249 5.932-13.249 13.25 0 7.317 5.932 13.25 13.25 13.25h53c7.317 0 13.25-5.933 13.25-13.25 0-7.318-5.932-13.25-13.25-13.25z"/>
</svg>
