<svg xmlns="http://www.w3.org/2000/svg" width="768" height="512" viewBox="0 0 768 512">
    <path fill="#f0f0f0" d="M0 .009h768v511.983H0z"/>
    <path fill="#6da544" d="M0 .009h768V170.67H0z"/>
    <path fill="#d80027" d="M0 341.332h768v170.661H0z"/>
    <path fill="#0052b4" d="M0 0l300 256.01L0 512z"/>
    <path fill="#f0f0f0" stroke="#acabb1" stroke-width="12" d="M375.71 195.92v66.665c0 40.823 53.333 53.333 53.333 53.333s53.333-12.508 53.333-53.333V195.92z"/>
    <path fill="#acabb1" d="M415.715 250.588h26.667v38.667h-26.667z"/>
    <path fill="#6da544" d="M455.712 235.92c0-14.727-11.939-26.667-26.667-26.667-14.729 0-26.668 11.938-26.668 26.666-7.365 0-13.333 5.97-13.333 13.334 0 7.365 5.968 13.333 13.333 13.333h53.333c7.365 0 13.333-5.968 13.333-13.333s-5.968-13.334-13.332-13.334z"/>
</svg>
