<svg xmlns="http://www.w3.org/2000/svg" viewBox="0 0 512 512">
    <path fill="#f0f0f0" d="M0 .008h512v511.989H0z"/>
    <path fill="#6da544" d="M0 .002h512v170.663H0z"/>
    <path fill="#d80027" d="M0 341.337h512V512H0z"/>
    <path fill="#0052b4" d="M256 256.008L0 512V0z"/>
    <path fill="none" stroke="#acabb1" stroke-width="12" d="M314.492 196.294v66.25c0 40.569 53 53 53 53s53-12.431 53-53v-66.25z"/>
    <path fill="#acabb1" d="M354.238 250.614h26.5v38.423h-26.5z"/>
    <path fill="#6da544" d="M393.992 236.043c0-14.636-11.864-26.5-26.5-26.5s-26.5 11.864-26.5 26.5c-7.318 0-13.25 5.932-13.25 13.25 0 7.317 5.932 13.249 13.25 13.249h53c7.318 0 13.25-5.932 13.25-13.25 0-7.317-5.931-13.25-13.25-13.25z"/>
</svg>
