<svg xmlns="http://www.w3.org/2000/svg" width="768" height="512" viewBox="0 0 768 512">
    <path fill="#f0f0f0" d="M0 0h768v512H0z"/>
    <path fill="#338af3" d="M0 0h254v512H0zm514 0h254v512H514z"/>
    <path fill="#acabb1" d="M439.149 174.83L384 229.98l-55.149-55.148-12.717 12.72-2.013 23.462 44.423 44.424-46.668 46.667 25.455 25.455L384 280.891l46.67 46.668 25.454-25.455-46.668-46.667 44.423-44.424-2.013-23.463z"/>
    <path fill="#6da544" d="M451.882 187.552l-25.456 25.456C437.283 223.867 444 238.866 444 255.435c0 33.138-26.863 60.001-60.002 60.001-33.138 0-60.001-26.863-60.001-60 0-16.568 6.717-31.568 17.574-42.428l-25.457-25.456C298.744 204.925 288 228.925 288 255.435c0 53.019 42.981 96 96 96s96-42.981 96-96c0-26.51-10.746-50.51-28.117-67.883z"/>
</svg>
