<svg xmlns="http://www.w3.org/2000/svg" width="768" height="512" viewBox="0 0 768 512">
    <path fill="#d80027" d="M0 0h768v512H0z"/>
    <path fill="#0052b4" d="M16.695 16.696h734.609v478.609H16.695z"/>
    <path fill="#d80027" d="M369.513 417.588c-3.5-2.998-85.688-74.447-85.688-161.595 0-87.147 82.188-158.596 85.688-161.595L384 81.98l14.487 12.418c3.5 2.999 85.688 74.448 85.688 161.595 0 87.148-82.188 158.597-85.688 161.595L384 430.006z"/>
    <path fill="#338af3" d="M461.913 255.992c0-77.912-77.913-144.695-77.913-144.695s-77.913 66.786-77.913 144.695c0 23.834 7.298 46.624 17.42 66.782h120.986c10.122-20.158 17.42-42.948 17.42-66.782z"/>
    <path fill="#0052b4" d="M461.913 255.992c0 23.834-7.298 46.624-17.42 66.782L384 333.905l-60.493-11.131c-10.123-20.158-17.42-42.948-17.42-66.782z"/>
    <path fill="#ffda44" d="M384 400.688s37.529-32.178 60.493-77.912H323.507C346.47 368.51 384 400.688 384 400.688z"/>
    <path fill="#6da544" d="M434.087 211.47L384 261.558l-50.086-50.086z"/>
    <path fill="#a2001d" d="M367.305 244.856h33.391v100.173h-33.391z"/>
</svg>
