<svg xmlns="http://www.w3.org/2000/svg" width="768" height="512" viewBox="0 0 768 512">
    <path fill="#d80027" d="M0 0h768v512H0z"/>
    <path fill="#f0f0f0" d="M410.431 193.661c-5.817 24.198-16.155 19.584-21.228 40.687-29.881-7.183-48.286-37.234-41.101-67.12 7.182-29.88 37.234-48.285 67.117-41.102-10.147 42.208.416 45.892-4.788 67.535zm-77.545 17.931c21.218 13.011 13.632 21.417 32.134 32.763-16.067 26.2-50.332 34.416-76.534 18.348-26.2-16.067-34.418-50.334-18.35-76.534 37.007 22.693 43.772 13.786 62.75 25.423zm-6.909 79.291c18.932-16.158 24.58-6.348 41.09-20.439 19.954 23.377 17.178 58.504-6.198 78.458-23.38 19.955-58.506 17.177-78.46-6.2 33.017-28.178 26.636-37.367 43.568-51.82zm73.278 31.074c-9.52-22.997 1.555-25.341-6.741-45.394 28.4-11.753 60.951 1.741 72.706 30.14 11.753 28.4-1.743 60.95-30.142 72.704-16.602-40.11-27.31-36.88-35.823-57.45zm52.195-60.088c-24.813 1.947-23.62-9.314-45.256-7.616-2.403-30.64 20.49-57.428 51.132-59.834 30.64-2.399 57.429 20.494 59.832 51.134-43.277 3.393-43.518 14.577-65.708 16.316z"/>
</svg>
