<svg xmlns="http://www.w3.org/2000/svg" viewBox="0 0 512 512">
    <path fill="#0052b4" d="M.002.002H512V512H.002z"/>
    <path fill="#f0f0f0" d="M255.999 0v48.896l-40.147 40.147h40.147v77.913h-52.536l52.536 52.535v36.508H232.28l-65.324-65.335v65.335H89.043v-77.724l-77.712 77.724H0v-48.896l40.147-40.147H0V89.043h52.535L0 36.508V0h23.719l65.324 65.335V0h77.913v77.723L244.668 0z"/>
    <path fill="#d80027" d="M0 152h104v103.999h48V152h103.999v-48H152V0h-48v104H0z"/>
    <path fill="#0052b4" d="M166.956 166.956l89.043 89.043v-25.18l-63.863-63.863z"/>
    <path fill="#f0f0f0" d="M166.956 166.956l89.043 89.043v-25.18l-63.863-63.863z"/>
    <path fill="#d80027" d="M166.956 166.956l89.043 89.043v-25.18l-63.863-63.863zm-103.094.002L0 230.82v25.179l89.041-89.041z"/>
    <path fill="#0052b4" d="M89.043 89.043L0 0v25.18l63.863 63.863z"/>
    <path fill="#f0f0f0" d="M89.043 89.043L0 0v25.18l63.863 63.863z"/>
    <path fill="#d80027" d="M89.043 89.043L0 0v25.18l63.863 63.863zm103.094-.002l63.862-63.862V0l-89.041 89.041z"/>
</svg>
