<svg xmlns="http://www.w3.org/2000/svg" width="768" height="512" viewBox="0 0 768 512">
    <path fill="#f0f0f0" d="M0 0h768v512H0z"/>
    <path fill="#0052b4" d="M0 0h768v170.666H0zm0 341.334h768V512H0zm322.596-103.142l-17.36-12.613-17.357 12.613 6.631-20.407-17.361-12.612h21.458l6.63-20.408 6.631 20.408h21.457l-17.36 12.612zm0 89.043l-17.36-12.612-17.357 12.612 6.631-20.408-17.361-12.61h21.458l6.63-20.409 6.631 20.41h21.457l-17.36 12.61zm157.526-89.043l-17.358-12.613-17.36 12.613 6.632-20.407-17.361-12.612h21.457l6.632-20.408 6.63 20.408h21.457l-17.361 12.612zm0 89.043l-17.358-12.612-17.36 12.612 6.632-20.408-17.361-12.61h21.457l6.632-20.409 6.63 20.41h21.457l-17.361 12.61zm-78.762-44.521L384 270.102l-17.36 12.612 6.632-20.408-17.36-12.612h21.456L384 229.286l6.631 20.408h21.457l-17.36 12.612z"/>
</svg>
