<svg xmlns="http://www.w3.org/2000/svg" viewBox="0 0 512 512">
    <path fill="#f0f0f0" d="M0 .006h512v511.989H0z"/>
    <path fill="#0052b4" d="M0 0h512v166H0zm0 346h512v166H0zm182.158-162.173l7.556 23.25h24.444l-19.776 14.369 7.554 23.249-19.778-14.37-19.777 14.37 7.554-23.249-19.777-14.369h24.445zm0 83.478l7.556 23.251h24.444l-19.776 14.368 7.554 23.249-19.778-14.369-19.777 14.369 7.554-23.249-19.777-14.368h24.445zm147.684-83.478l7.555 23.25h24.445l-19.777 14.369 7.554 23.249-19.777-14.37-19.778 14.37 7.554-23.249-19.776-14.369h24.444zm0 83.478l7.555 23.251h24.445l-19.777 14.368 7.554 23.249-19.777-14.369-19.778 14.369 7.554-23.249-19.776-14.368h24.444zM256 225.566l7.555 23.25H288l-19.777 14.369 7.555 23.249L256 272.065l-19.778 14.369 7.555-23.249L224 248.816h24.445z"/>
</svg>
