<svg xmlns="http://www.w3.org/2000/svg" width="768" height="512" viewBox="0 0 768 512">
    <path fill="#f0f0f0" d="M0 0h768v512H0z"/>
    <path fill="#d80027" d="M0 0h768v170.666H0z"/>
    <path fill="#0052b4" d="M0 341.334h768V512H0z"/>
    <path fill="#338af3" d="M473.043 122.433v44.522l-22.26 11.132H406.26l7.422-55.654 29.68-22.262zm-178.086 0v44.522l22.26 11.132h44.523l-7.422-55.654-29.68-22.262z"/>
    <path fill="#0052b4" d="M413.682 122.433v55.654h-59.364v-55.654L384 100.17z"/>
    <path fill="#f0f0f0" d="M294.957 166.955v122.437c0 29.155 14.084 55.08 35.802 71.334l15.582-3.9 19.663 19.783a89.148 89.148 0 0 0 17.994 1.828c6.131 0 12.116-.622 17.902-1.807l22.446-18.69 12.892 2.752c21.711-16.252 35.802-42.153 35.802-71.298V166.957z"/>
    <g fill="#d80027">
        <path d="M294.962 166.96h35.617v35.618h-35.618zm71.224 0h35.617v35.618h-35.617zm71.24 0h35.617v35.618h-35.617z"/>
        <path d="M330.575 202.573h35.617v35.619h-35.618zm71.239 0h35.617v35.619h-35.617z"/>
        <path d="M294.962 238.186h35.617v35.618h-35.618z"/>
        <path d="M330.575 273.798h35.617v35.618h-35.618z"/>
        <path d="M366.186 238.186h35.617v35.618h-35.617zm71.24 0h35.617v35.618h-35.617z"/>
        <path d="M401.814 273.798h35.617v35.618h-35.617zm-35.628 35.629h35.617v35.618h-35.617zm-35.611-.007h-33.318a88.755 88.755 0 0 0 17.304 35.619h16.014zm106.851 35.617h16.015a88.784 88.784 0 0 0 17.304-35.618h-33.32z"/>
        <path d="M330.575 345.037v15.542c10.359 7.794 22.464 13.385 35.617 16.066v-31.608zm71.235 0v31.608c13.153-2.68 25.258-8.272 35.617-16.066v-15.542z"/>
    </g>
</svg>
