<svg xmlns="http://www.w3.org/2000/svg" viewBox="0 0 512 512">
    <path fill="#f0f0f0" d="M0 .006h512v511.989H0z"/>
    <path fill="#d80027" d="M0 0h512v170.663H0z"/>
    <path fill="#0052b4" d="M0 341.337h512V512H0z"/>
    <path fill="#338af3" d="M317.44 188.55h-40.96l6.826-51.2 27.308-20.48 27.306 20.48v40.96zm-122.88 0h40.96l-6.826-51.2-27.308-20.48-27.306 20.48v40.96z"/>
    <path fill="#0052b4" d="M283.306 188.55h-54.613v-51.2L256 116.87l27.306 20.48z"/>
    <path fill="#f0f0f0" d="M174.08 178.311V290.95c0 26.821 12.956 50.674 32.938 65.625l14.336-3.587 18.091 18.2a81.955 81.955 0 0 0 16.554 1.683c5.64 0 11.147-.573 16.47-1.664l20.65-17.194 11.862 2.531c19.974-14.952 32.938-38.78 32.938-65.593v-112.64H174.08z"/>
    <g fill="#d80027">
        <path d="M174.08 178.31h32.768v32.768H174.08zm65.536 0h32.768v32.768h-32.768zm65.536 0h32.768v32.768h-32.768zm-98.304 32.768h32.768v32.768h-32.768zm65.536 0h32.768v32.768h-32.768zm-98.304 32.756h32.768v32.768H174.08zm32.768 32.768h32.768v32.768h-32.768zm32.768-32.768h32.768v32.768h-32.768z"/>
        <path d="M305.152 243.834h32.768v32.768h-32.768zm-32.768 32.768h32.768v32.768h-32.768zm-32.768 32.768h32.768v32.768h-32.768zm-32.768.005h-30.653a81.656 81.656 0 0 0 15.919 32.768h14.734v-32.768zm98.304 32.768h14.734a81.67 81.67 0 0 0 15.919-32.768h-30.653v32.768z"/>
        <path d="M206.848 342.143v14.298c9.531 7.17 20.667 12.314 32.768 14.78v-29.078h-32.768zm65.536 0v29.078c12.101-2.466 23.237-7.61 32.768-14.78v-14.298h-32.768z"/>
    </g>
</svg>
