<svg xmlns="http://www.w3.org/2000/svg" width="768" height="512" viewBox="0 0 768 512">
    <path fill="#f0f0f0" d="M0 0h768v512H0z"/>
    <path fill="#0052b4" d="M480 200.569h-64l-32-55.426-32 55.424h-64l32.003 55.426L288 311.416h64l32 55.426 32-55.424h64l-32.002-55.426zm-56.686 55.423l-19.657 34.048h-39.313l-19.657-34.048 19.657-34.048h39.314zM384 187.897l7.316 12.672h-14.631zm-58.972 34.047h14.632l-7.316 12.671zm0 68.097l7.315-12.671 7.316 12.671zM384 324.088l-7.314-12.672h14.631zm58.972-34.047H428.34l7.316-12.671zm-14.632-68.097h14.633l-7.316 12.671zM0 31.989h768v63.993H0zm0 383.996h768v63.993H0z"/>
</svg>
