<svg xmlns="http://www.w3.org/2000/svg" width="768" height="512" viewBox="0 0 768 512">
    <path fill="#f0f0f0" d="M0 .008h768V512H0z"/>
    <path fill="#0052b4" d="M692.496 297.01c-6.024 0-20.067-7.972-30.318-13.795-16.437-9.334-31.962-18.15-46.806-18.15-14.844 0-30.369 8.816-46.806 18.15-10.253 5.822-24.294 13.795-30.318 13.795-6.024 0-20.067-7.972-30.317-13.795-16.437-9.334-31.962-18.15-46.806-18.15-14.844 0-30.369 8.816-46.806 18.15-10.252 5.822-24.294 13.795-30.318 13.795-6.024 0-20.067-7.972-30.318-13.795-16.437-9.334-31.962-18.15-46.806-18.15-14.844 0-30.369 8.816-46.806 18.15-10.25 5.822-24.292 13.795-30.316 13.795-6.024 0-20.067-7.972-30.318-13.795-16.437-9.334-31.962-18.15-46.806-18.15-14.844 0-30.369 8.816-46.806 18.15-10.252 5.822-24.294 13.795-30.318 13.795-6.024 0-20.067-7.972-30.316-13.795C29.348 274.22 14.355 265.73 0 265.125v33.496c6.656 1.12 19.27 8.274 28.697 13.63 16.437 9.333 31.962 18.149 46.806 18.149 14.844 0 30.369-8.816 46.806-18.15 10.252-5.821 24.294-13.795 30.318-13.795 6.024 0 20.067 7.972 30.318 13.795 16.437 9.334 31.962 18.15 46.806 18.15 14.844 0 30.369-8.816 46.806-18.15 10.25-5.821 24.292-13.795 30.316-13.795 6.024 0 20.067 7.972 30.318 13.795 16.437 9.334 31.962 18.15 46.806 18.15 14.844 0 30.369-8.816 46.806-18.15 10.253-5.821 24.294-13.795 30.318-13.795 6.024 0 20.067 7.972 30.317 13.795 16.437 9.334 31.962 18.15 46.806 18.15 14.844 0 30.369-8.816 46.806-18.15 10.252-5.821 24.294-13.795 30.318-13.795 6.024 0 20.067 7.972 30.318 13.795 16.437 9.334 31.962 18.15 46.806 18.15 14.844 0 30.369-8.816 46.806-18.15 9.426-5.355 22.04-12.51 28.696-13.629v-33.497c-14.355.606-29.347 9.096-45.187 18.091-10.245 5.822-24.285 13.795-30.311 13.795zM0 48.194c6.655 1.119 19.27 8.274 28.697 13.628 16.437 9.335 31.962 18.15 46.805 18.15 14.845 0 30.37-8.815 46.806-18.15 10.253-5.82 24.294-13.795 30.318-13.795 6.024 0 20.067 7.973 30.318 13.795 16.438 9.335 31.963 18.15 46.807 18.15 14.843 0 30.368-8.815 46.805-18.15 10.251-5.82 24.293-13.795 30.317-13.795 6.024 0 20.067 7.973 30.318 13.795 16.437 9.335 31.962 18.15 46.806 18.15 14.844 0 30.369-8.815 46.806-18.15 10.252-5.82 24.294-13.795 30.318-13.795 6.024 0 20.067 7.973 30.316 13.795 16.437 9.335 31.962 18.15 46.806 18.15 14.844 0 30.37-8.815 46.806-18.15 10.253-5.82 24.294-13.795 30.318-13.795 6.024 0 20.067 7.973 30.318 13.795 16.437 9.335 31.962 18.15 46.806 18.15 14.844 0 30.37-8.815 46.806-18.15 9.426-5.354 22.041-12.51 28.697-13.628V14.695c-14.355.606-29.348 9.096-45.188 18.091-10.25 5.822-24.292 13.795-30.316 13.795-6.024 0-20.067-7.972-30.318-13.795-16.437-9.334-31.962-18.15-46.806-18.15-14.844 0-30.369 8.816-46.806 18.15-10.252 5.822-24.294 13.795-30.318 13.795-6.024 0-20.067-7.972-30.316-13.795-16.438-9.334-31.963-18.15-46.807-18.15-14.844 0-30.369 8.816-46.806 18.15-10.252 5.822-24.294 13.795-30.318 13.795-6.024 0-20.067-7.972-30.318-13.795-16.437-9.334-31.962-18.15-46.806-18.15-14.843 0-30.368 8.816-46.805 18.15-10.251 5.822-24.293 13.795-30.317 13.795-6.024 0-20.067-7.972-30.318-13.795-16.437-9.334-31.962-18.15-46.806-18.15-14.844 0-30.369 8.816-46.806 18.15-10.252 5.822-24.294 13.795-30.318 13.795-6.024 0-20.067-7.972-30.316-13.795C29.348 23.791 14.355 15.301 0 14.696zm692.496 81.863c-6.024 0-20.067-7.972-30.318-13.795-16.437-9.334-31.962-18.15-46.806-18.15-14.844 0-30.369 8.816-46.806 18.15-10.253 5.821-24.294 13.795-30.318 13.795-6.024 0-20.067-7.972-30.317-13.795-16.437-9.334-31.962-18.15-46.806-18.15-14.844 0-30.369 8.816-46.806 18.15-10.252 5.821-24.294 13.795-30.318 13.795-6.024 0-20.067-7.972-30.318-13.795-16.437-9.334-31.962-18.15-46.806-18.15-14.844 0-30.369 8.816-46.806 18.15-10.25 5.821-24.292 13.795-30.316 13.795-6.024 0-20.067-7.972-30.318-13.795-16.437-9.334-31.962-18.15-46.806-18.15-14.844 0-30.369 8.816-46.806 18.15-10.252 5.821-24.294 13.795-30.318 13.795-6.024 0-20.067-7.972-30.316-13.795C29.348 107.267 14.355 98.777 0 98.171v33.497c6.656 1.12 19.27 8.274 28.697 13.629 16.437 9.334 31.962 18.15 46.806 18.15 14.844 0 30.369-8.816 46.806-18.15 10.252-5.822 24.294-13.795 30.318-13.795 6.024 0 20.067 7.972 30.318 13.795 16.437 9.334 31.962 18.15 46.806 18.15 14.844 0 30.369-8.816 46.806-18.15 10.25-5.822 24.292-13.795 30.316-13.795 6.024 0 20.067 7.972 30.318 13.795 16.437 9.334 31.962 18.15 46.806 18.15 14.844 0 30.369-8.816 46.806-18.15 10.253-5.822 24.294-13.795 30.318-13.795 6.024 0 20.067 7.972 30.317 13.795 16.437 9.334 31.962 18.15 46.806 18.15 14.844 0 30.369-8.816 46.806-18.15 10.252-5.822 24.294-13.795 30.318-13.795 6.024 0 20.067 7.972 30.318 13.795 16.437 9.334 31.962 18.15 46.806 18.15 14.844 0 30.369-8.816 46.806-18.15 9.426-5.355 22.04-12.51 28.696-13.629V98.171c-14.355.606-29.347 9.096-45.187 18.091-10.245 5.823-24.285 13.795-30.311 13.795zM768 181.648c-14.355.606-29.348 9.096-45.188 18.091-10.25 5.822-24.292 13.796-30.316 13.796-6.024 0-20.067-7.973-30.318-13.796-16.437-9.334-31.962-18.15-46.806-18.15-14.844 0-30.369 8.816-46.806 18.15-10.253 5.822-24.294 13.796-30.318 13.796-6.024 0-20.067-7.973-30.317-13.796-16.437-9.334-31.962-18.15-46.806-18.15-14.844 0-30.369 8.816-46.806 18.15-10.252 5.822-24.294 13.796-30.318 13.796-6.024 0-20.067-7.973-30.318-13.796-16.437-9.334-31.962-18.15-46.806-18.15-14.844 0-30.369 8.816-46.806 18.15-10.25 5.822-24.292 13.796-30.316 13.796-6.024 0-20.067-7.973-30.318-13.796-16.437-9.334-31.962-18.15-46.806-18.15-14.844 0-30.369 8.816-46.806 18.15-10.252 5.822-24.294 13.796-30.318 13.796-6.024 0-20.067-7.973-30.316-13.796C29.348 190.743 14.355 182.254 0 181.65v33.497c6.656 1.119 19.27 8.273 28.697 13.628 16.437 9.334 31.962 18.15 46.806 18.15 14.844 0 30.369-8.816 46.806-18.15 10.252-5.821 24.294-13.795 30.318-13.795 6.024 0 20.067 7.972 30.318 13.795 16.437 9.334 31.962 18.15 46.806 18.15 14.844 0 30.369-8.816 46.806-18.15 10.25-5.821 24.292-13.795 30.316-13.795 6.024 0 20.067 7.972 30.318 13.795 16.437 9.334 31.962 18.15 46.806 18.15 14.844 0 30.369-8.816 46.806-18.15 10.253-5.821 24.294-13.795 30.318-13.795 6.024 0 20.067 7.972 30.317 13.795 16.437 9.334 31.962 18.15 46.806 18.15 14.844 0 30.369-8.816 46.806-18.15 10.252-5.821 24.294-13.795 30.318-13.795 6.024 0 20.067 7.972 30.318 13.795 16.437 9.334 31.962 18.15 46.806 18.15 14.844 0 30.369-8.816 46.806-18.15 9.426-5.355 22.04-12.51 28.696-13.628v-33.498zm-75.504 198.838c-6.024 0-20.067-7.972-30.318-13.795-16.437-9.334-31.962-18.15-46.806-18.15-14.844 0-30.369 8.816-46.806 18.15-10.253 5.822-24.294 13.795-30.318 13.795-6.024 0-20.067-7.972-30.317-13.795-16.437-9.334-31.962-18.15-46.806-18.15-14.844 0-30.369 8.816-46.806 18.15-10.252 5.822-24.294 13.795-30.318 13.795-6.024 0-20.067-7.972-30.318-13.795-16.437-9.334-31.962-18.15-46.806-18.15-14.844 0-30.369 8.816-46.806 18.15-10.25 5.822-24.292 13.795-30.316 13.795-6.024 0-20.067-7.972-30.318-13.795-16.437-9.334-31.962-18.15-46.806-18.15-14.844 0-30.369 8.816-46.806 18.15-10.252 5.822-24.294 13.795-30.318 13.795-6.024 0-20.067-7.972-30.316-13.795-15.843-8.995-30.836-17.485-45.191-18.09v33.496c6.656 1.12 19.27 8.274 28.697 13.629 16.437 9.334 31.962 18.15 46.806 18.15 14.844 0 30.369-8.816 46.806-18.15 10.252-5.821 24.294-13.795 30.318-13.795 6.024 0 20.067 7.972 30.318 13.795 16.437 9.334 31.962 18.15 46.806 18.15 14.844 0 30.369-8.816 46.806-18.15 10.25-5.821 24.292-13.795 30.316-13.795 6.024 0 20.067 7.972 30.318 13.795 16.437 9.334 31.962 18.15 46.806 18.15 14.844 0 30.369-8.816 46.806-18.15 10.253-5.821 24.294-13.795 30.318-13.795 6.024 0 20.067 7.972 30.317 13.795 16.437 9.334 31.962 18.15 46.806 18.15 14.844 0 30.369-8.816 46.806-18.15 10.252-5.821 24.294-13.795 30.318-13.795 6.024 0 20.067 7.972 30.318 13.795 16.437 9.334 31.962 18.15 46.806 18.15 14.844 0 30.369-8.816 46.806-18.15 9.426-5.355 22.04-12.51 28.696-13.629V348.6c-14.355.606-29.347 9.096-45.187 18.091-10.245 5.822-24.285 13.795-30.311 13.795zM768 432.076c-14.355.606-29.348 9.096-45.188 18.091-10.25 5.821-24.292 13.795-30.316 13.795-6.024 0-20.067-7.972-30.318-13.795-16.437-9.334-31.962-18.15-46.806-18.15-14.844 0-30.369 8.816-46.806 18.15-10.253 5.821-24.294 13.795-30.318 13.795-6.024 0-20.067-7.972-30.317-13.795-16.437-9.334-31.962-18.15-46.806-18.15-14.844 0-30.369 8.816-46.806 18.15-10.252 5.821-24.294 13.795-30.318 13.795-6.024 0-20.067-7.972-30.318-13.795-16.437-9.334-31.962-18.15-46.806-18.15-14.844 0-30.369 8.816-46.806 18.15-10.25 5.821-24.292 13.795-30.316 13.795-6.024 0-20.067-7.972-30.318-13.795-16.437-9.334-31.962-18.15-46.806-18.15-14.844 0-30.369 8.816-46.806 18.15-10.252 5.821-24.294 13.795-30.318 13.795-6.024 0-20.067-7.972-30.316-13.795C29.348 441.172 14.355 432.682 0 432.076v33.497c6.656 1.12 19.27 8.274 28.697 13.629 16.437 9.334 31.962 18.15 46.806 18.15 14.844 0 30.369-8.816 46.806-18.15 10.252-5.822 24.294-13.795 30.318-13.795 6.024 0 20.067 7.972 30.318 13.795 16.437 9.334 31.962 18.15 46.806 18.15 14.844 0 30.369-8.816 46.806-18.15 10.25-5.822 24.292-13.795 30.316-13.795 6.024 0 20.067 7.972 30.318 13.795 16.437 9.334 31.962 18.15 46.806 18.15 14.844 0 30.369-8.816 46.806-18.15 10.253-5.822 24.294-13.795 30.318-13.795 6.024 0 20.067 7.972 30.317 13.795 16.437 9.334 31.962 18.15 46.806 18.15 14.844 0 30.369-8.816 46.806-18.15 10.252-5.822 24.294-13.795 30.318-13.795 6.024 0 20.067 7.972 30.318 13.795 16.437 9.334 31.962 18.15 46.806 18.15 14.844 0 30.369-8.816 46.806-18.15 9.426-5.355 22.04-12.51 28.696-13.629v-33.497z"/>
    <path fill="#f0f0f0" d="M384 0h-.044zm-.684 255.995H384v-.683c-.228.226-.456.454-.684.683z"/>
    <path fill="#496e2d" d="M417.392 255.994v.001z"/>
    <path fill="#6da544" d="M626.087 125.217L576 175.302l-50.087-50.085z"/>
    <path fill="#a2001d" d="M564.864 164.17h22.26v61.217h-22.26zm0 161.394h22.26v61.216h-22.26z"/>
    <path fill="#ffda44" d="M642.783 292.169c0-18.442-14.949-33.391-33.392-33.391-8.554 0-16.351 3.219-22.26 8.508v-19.64h11.132v-22.259h-11.132v-11.13h-22.26v11.13H553.74v22.26h11.132v19.639c-5.909-5.29-13.707-8.508-22.26-8.508-18.443 0-33.392 14.949-33.392 33.39 0 9.887 4.3 18.768 11.131 24.883v19.64h111.305V317.05c6.827-6.114 11.127-14.995 11.127-24.881z"/>
    <path fill="#d80027" d="M609.391 281.037c-3.511 0-5.97 1.54-7.414 2.834l-14.847 13.291h-22.26l-14.847-13.291c-1.443-1.292-3.901-2.834-7.413-2.834-6.138 0-11.132 4.994-11.132 11.132 0 4.322 2.332 7.054 3.72 8.299l7.412 6.636v7.324h66.783v-7.326l7.412-6.636c1.389-1.243 3.72-3.976 3.72-8.299-.003-6.136-4.997-11.13-11.133-11.13z"/>
    <path fill="#f0f0f0" d="M0 .008h384v255.988H0z"/>
    <g fill="#d80027">
        <path d="M0 151.997h168v103.998h48V151.997h168v-47.999H216V0h-48v103.998H0z"/>
        <path d="M0 0v22.622L86.066 80H120z"/>
    </g>
    <path fill="#0052b4" d="M0 79.999h69.103L0 33.932zm144-6.629L33.942.004H144z"/>
    <path fill="#d80027" d="M384 0v22.622L297.934 80H264z"/>
    <path fill="#0052b4" d="M384 79.999h-69.103L384 33.932zM240 73.37L350.058.004H240z"/>
    <path fill="#d80027" d="M0 0v22.622L86.066 80H120z"/>
    <path fill="#0052b4" d="M0 79.999h69.103L0 33.932zm144-6.629L33.942.004H144z"/>
    <path fill="#d80027" d="M384 0v22.622L297.934 80H264z"/>
    <path fill="#0052b4" d="M384 79.999h-69.103L384 33.932zM240 73.37L350.058.004H240z"/>
    <path fill="#d80027" d="M0 255.995v-22.622l86.066-57.376H120z"/>
    <path fill="#0052b4" d="M0 175.997h69.103L0 222.065zm144 6.628L33.942 255.99H144z"/>
    <path fill="#d80027" d="M384 255.995v-22.622l-86.066-57.376H264z"/>
    <path fill="#0052b4" d="M384 175.997h-69.103L384 222.065zm-144 6.628l110.058 73.366H240z"/>
</svg>
