<svg xmlns="http://www.w3.org/2000/svg" width="768" height="512" viewBox="0 0 768 512">
    <path fill="#f0f0f0" d="M0 0h768v512H0z"/>
    <path fill="#a2001d" d="M0 0h768v170.666H0z"/>
    <path d="M0 341.334h768V512H0z"/>
    <path fill="#496e2d" d="M328.779 241.103c-.124 0-.247.01-.372.01v-.01h-43.662c2.214-8.553 9.973-14.897 19.209-14.897v-29.795c-27.381 0-49.654 22.276-49.654 49.656v24.827h74.482a4.97 4.97 0 0 1 4.965 4.965v9.93h-99.312v29.794h129.103V275.86c0-19.164-15.592-34.757-34.759-34.757zm94.346 74.484v-29.793H403.26V196.41h-29.79v119.176zm39.724-29.793V256h-29.795v59.586h89.381v-29.793h-19.863V196.41h-29.793v89.383z"/>
</svg>
