<svg xmlns="http://www.w3.org/2000/svg" width="768" height="512" viewBox="0 0 768 512">
    <path fill="#f0f0f0" d="M0 0h768v512H0z"/>
    <path fill="#6da544" d="M0 0h768v170.666H0z"/>
    <path fill="#d80027" d="M0 341.334h768V512H0zm450.518-138.761h-26.795c.222 2.945.348 5.916.348 8.905 0 19.81-4.951 39.015-13.585 52.684-2.663 4.218-7.139 10.17-13.13 14.184v-75.773h-26.713v75.773c-5.991-4.016-10.466-9.97-13.13-14.184-8.634-13.67-13.584-32.874-13.584-52.684 0-2.989.128-5.962.348-8.905h-26.794c-.173 2.93-.266 5.898-.266 8.905.002 54.926 29.336 97.95 66.785 97.95s66.783-43.024 66.783-97.95a154.07 154.07 0 0 0-.267-8.905z"/>
    <path fill="#f0f0f0" d="M66.783 148.41h33.392v36.632H66.782zM0 148.41h33.392v36.632H0zm133.565 0h33.391v36.632h-33.391zm66.782 0h33.392v36.632h-33.392zm66.783 0h33.392v36.632h-33.391zm66.783 0h33.392v36.632h-33.391zm66.782 0h33.392v36.632h-33.392zm66.783 0h33.391v36.632h-33.391zm66.783 0h33.392v36.632H534.26zm66.783 0h33.392v36.632h-33.392zm66.781 0h33.392v36.632h-33.392zm66.783 0H768v36.632h-33.392zM66.783 325.288h33.392v38.302H66.782zm-66.783 0h33.392v38.302H0zm133.565 0h33.391v38.302h-33.391zm66.782 0h33.392v38.302h-33.392zm66.783 0h33.392v38.302h-33.391zm66.783 0h33.392v38.302h-33.391zm66.782 0h33.392v38.302h-33.392zm66.783 0h33.391v38.302h-33.391zm66.783 0h33.392v38.302H534.26zm66.783 0h33.392v38.302h-33.392zm66.781 0h33.392v38.302h-33.392zm66.783 0H768v38.302h-33.392z"/>
</svg>
