<svg xmlns="http://www.w3.org/2000/svg" width="768" height="512" viewBox="0 0 768 512">
    <path fill="#f0f0f0" d="M0 .008h768V512H0z"/>
    <path fill="#f0f0f0" d="M0 .007h768V512H0z"/>
    <path fill="#d80027" d="M384 210.74L67.882 0H0v45.254l316.118 210.741L0 466.735v45.253h67.883L384 301.249l316.118 210.739H768v-45.252l-316.118-210.74L768 45.253V0h-67.882z"/>
    <path fill="#ffda44" d="M430 100.034v-39.1l-18.4 9.202-27.6-27.6-27.6 27.6-18.4-9.202v39.1l46 11.499z"/>
    <path fill="#d80027" d="M338 100.034v28.75c0 35.211 46 46 46 46s46-10.789 46-46v-28.75z"/>
</svg>
