<svg xmlns="http://www.w3.org/2000/svg" width="768" height="512" viewBox="0 0 768 512">
    <path fill="#6da544" d="M0 .009h768v511.983H0z"/>
    <path d="M0 471.865V40.137L323.796 256.01zm768 0L444.204 256.01 768 40.137z"/>
    <path fill="#0052b4" d="M707.813 512L384 296.128 60.187 512H0v-40.135L323.796 256.01 0 40.137V0h60.188L384 215.873 707.813 0H768v40.137L444.204 256.01 768 471.865V512z"/>
    <path fill="#ffda44" d="M707.813 512L384 296.128 60.187 512H0v-40.135L323.796 256.01 0 40.137V0h60.188L384 215.873 707.813 0H768v40.137L444.204 256.01 768 471.865V512z"/>
</svg>
