<svg xmlns="http://www.w3.org/2000/svg" width="768" height="512" viewBox="0 0 768 512">
    <path fill="#f0f0f0" d="M0 0h768v512H0z"/>
    <path d="M0 0h768v135.867H0z"/>
    <path fill="#496e2d" d="M0 376.133h768v135.851H0z"/>
    <path fill="#a2001d" d="M0 169.911h768v172.197H0z"/>
    <g fill="#f0f0f0">
        <path d="M283.103 81.707l77.623 174.285-77.623 174.286 38.374 17.712L384 306.42l62.523 141.57 38.374-17.712-77.623-174.286 77.623-174.285-38.374-17.713L384 205.565 321.477 63.994z"/>
        <path d="M410.064 98.399C395.208 82.175 384 72.849 384 72.849s-11.208 9.325-26.064 25.548v315.188c14.856 16.223 26.064 25.55 26.064 25.55s11.208-9.324 26.064-25.549z"/>
    </g>
    <path fill="#a2001d" d="M313.56 158.84v194.301c15.697 27.813 34.911 50.613 49.308 65.727V93.114c-14.399 15.114-33.612 37.913-49.308 65.727zm140.88 0c-15.698-27.813-34.911-50.612-49.308-65.726V418.87c14.399-15.115 33.61-37.914 49.308-65.726z"/>
    <path d="M454.44 158.84v194.301c15.891-28.16 28.176-61.459 28.176-97.15 0-35.69-12.285-68.988-28.176-97.15zm-140.88 0v194.301c-15.891-28.16-28.176-61.459-28.176-97.15 0-35.69 12.285-68.988 28.176-97.15z"/>
</svg>
