<svg xmlns="http://www.w3.org/2000/svg" viewBox="0 0 512 512">
    <circle cx="256" cy="256" r="256" fill="#d80027"/>
    <path fill="#ffda44" d="M396 256l-57.203 26.907 30.461 55.405-62.121-11.885-7.868 62.75L256 343.029l-43.267 46.15-7.871-62.751-62.116 11.883 30.46-55.405L116 256l57.206-26.906-30.461-55.406 62.114 11.887 7.875-62.753L256 168.973l43.272-46.15 7.866 62.752 62.124-11.887-30.463 55.41z"/>
    <circle cx="256" cy="256" r="87.125" fill="#d80027"/>
    <path fill="#ffda44" d="M212.437 256c-2.1 0-4.171.107-6.216.31a49.571 49.571 0 0 0 11.65 31.693 87.316 87.316 0 0 1 16.833-27.869A61.902 61.902 0 0 0 212.437 256zm26.817 46.891A49.67 49.67 0 0 0 256 305.786a49.67 49.67 0 0 0 16.746-2.895c-2.853-11.196-8.743-21.19-16.746-29.045-8.003 7.853-13.893 17.85-16.746 29.045zm59.86-71.776c-8.609-14.88-24.685-24.901-43.114-24.901s-34.505 10.02-43.114 24.9A86.554 86.554 0 0 1 256 242.83a86.547 86.547 0 0 1 43.114-11.714zm-21.82 29.02a87.292 87.292 0 0 1 16.832 27.869 49.571 49.571 0 0 0 11.651-31.692 62.433 62.433 0 0 0-6.216-.31 61.872 61.872 0 0 0-22.268 4.133z"/>
</svg>
