<svg xmlns="http://www.w3.org/2000/svg" width="768" height="512" viewBox="0 0 768 512">
    <g fill="#d80027" transform="matrix(1.5 0 0 1.49998 0 -127.995)">
        <path d="M0 85.331h512v341.337H0z"/>
        <circle cx="256" cy="255.994" r="170.663"/>
    </g>
    <path fill="#ffda44" d="M427.268 389.174L384 343.027l-43.266 46.147-7.873-62.747-62.117 11.88 30.462-55.404L244 255.998l57.208-26.903-30.464-55.408 62.113 11.887 7.877-62.748 43.265 46.15 43.272-46.15 7.866 62.748 62.123-11.887-30.463 55.409L524 255.999l-57.204 26.907 30.461 55.404-62.12-11.883z"/>
    <ellipse cx="383.999" cy="255.999" fill="#d80027" rx="87.125" ry="87.124"/>
    <path fill="#ffda44" d="M340.436 256c-2.097 0-4.17.105-6.214.311a49.567 49.567 0 0 0 11.652 31.691 87.328 87.328 0 0 1 16.833-27.866 61.899 61.899 0 0 0-22.27-4.138zm26.818 46.89a49.702 49.702 0 0 0 16.745 2.897 49.66 49.66 0 0 0 16.745-2.897c-2.853-11.195-8.742-21.19-16.745-29.044-8.003 7.855-13.891 17.847-16.745 29.044zm59.857-71.773c-8.608-14.88-24.685-24.901-43.112-24.901-18.425 0-34.505 10.02-43.114 24.9a86.57 86.57 0 0 1 43.114 11.714 86.551 86.551 0 0 1 43.112-11.715zm-21.817 29.018a87.256 87.256 0 0 1 16.832 27.867 49.574 49.574 0 0 0 11.652-31.69 62.925 62.925 0 0 0-6.214-.314 61.892 61.892 0 0 0-22.27 4.138z"/>
</svg>
