<svg xmlns="http://www.w3.org/2000/svg" viewBox="0 0 512 512">
    <path fill="#d80027" d="M0 0h512v512H0z"/>
    <path fill="#ffda44" d="M393.5 256l-56.184 26.427 29.918 54.415-61.01-11.673-7.73 61.63-42.496-45.325-42.495 45.324-7.731-61.63-61.005 11.672 29.915-54.416L118.5 256l56.184-26.425-29.917-54.417 61.004 11.674 7.736-61.63 42.49 45.325 42.5-45.325 7.726 61.63 61.014-11.674-29.92 54.419z"/>
    <circle cx="255.999" cy="256" r="85.568" fill="#d80027"/>
    <path fill="#ffda44" d="M213.214 256a61.319 61.319 0 0 0-6.105.306 48.69 48.69 0 0 0 11.443 31.126 85.774 85.774 0 0 1 16.532-27.372 60.787 60.787 0 0 0-21.87-4.06zm26.339 46.053a48.777 48.777 0 0 0 16.446 2.844 48.772 48.772 0 0 0 16.446-2.844c-2.802-10.996-8.587-20.813-16.446-28.526-7.86 7.714-13.645 17.531-16.446 28.526zm58.79-70.494c-8.455-14.614-24.243-24.456-42.344-24.456-18.099 0-33.889 9.842-42.344 24.456a85.025 85.025 0 0 1 42.344 11.505 85.006 85.006 0 0 1 42.344-11.505zm-21.431 28.502a85.776 85.776 0 0 1 16.533 27.372 48.69 48.69 0 0 0 11.443-31.126c-2.01-.2-4.045-.306-6.105-.306a60.758 60.758 0 0 0-21.871 4.06z"/>
</svg>
