<svg xmlns="http://www.w3.org/2000/svg" width="768" height="512" viewBox="0 0 768 512">
    <path fill="#d80027" d="M0 0h768v275.997H0z"/>
    <path fill="#ffda44" d="M384 312.393l-29.97 31.967-5.45-43.464-43.025 8.23 21.1-38.373-39.623-18.636 39.622-18.639-21.099-38.37 43.024 8.228 5.453-43.462L384 191.84l29.97-31.965 5.45 43.462 43.026-8.229-21.098 38.374 39.62 18.636-39.623 18.636 21.1 38.375-43.025-8.232-5.452 43.464zM456.727 83.76h-54.545c0-10.04-8.141-18.182-18.182-18.182-10.04 0-18.182 8.141-18.182 18.181h-54.545c0 10.041 8.747 18.182 18.788 18.182h-.607c0 10.04 8.14 18.182 18.182 18.182 0 10.04 8.14 18.182 18.182 18.182h36.363c10.04 0 18.182-8.14 18.182-18.182 10.04 0 18.182-8.14 18.182-18.182h-.607c10.042 0 18.789-8.14 18.789-18.182z"/>
    <path fill="#0052b4" d="M0 275h768v237H0z"/>
    <path fill="#f0f0f0" d="M768 238.301c-30.795.595-32.41 23.626-64.005 23.626-32 0-32-23.93-64-23.93s-32 23.93-63.998 23.93c-31.998 0-32-23.93-63.997-23.93-32 0-32 23.93-64.001 23.93-32.001 0-32.002-23.93-64.005-23.93-32 0-32 23.93-63.997 23.93-31.995 0-31.995-23.93-63.995-23.93-32.002 0-32.002 23.93-64.005 23.93-32.002 0-32.002-23.93-64.005-23.93-31.995 0-31.995 23.93-63.994 23.93-31.589 0-33.206-23.029-63.998-23.626v41.709c31.415.288 32.194 23.788 63.999 23.788 32 0 32-23.926 63.995-23.926 32.002 0 32.002 23.926 64.005 23.926 32.002 0 32.002-23.926 64.005-23.926 31.999 0 31.999 23.926 63.994 23.926 32 0 32-23.926 63.998-23.926 32.002 0 32.002 23.926 64.005 23.926 32.002 0 32.002-23.926 64-23.926 32 0 32 23.926 63.998 23.926 31.998 0 31.999-23.926 63.997-23.926 32.003 0 32.003 23.926 64 23.926 31.808 0 32.584-23.5 64.004-23.788v-17.174zm0 87.099c-30.795.595-32.41 23.625-64.005 23.625-32 0-32-23.928-64-23.928s-32 23.928-63.998 23.928c-31.998 0-32-23.928-63.997-23.928-32 0-32 23.928-64.001 23.928-32.001 0-32.002-23.928-64.005-23.928-32 0-32 23.928-63.997 23.928-31.995 0-31.995-23.928-63.995-23.928-32.002 0-32.002 23.928-64.005 23.928-32.002 0-32.002-23.928-64.005-23.928-31.995 0-31.995 23.928-63.994 23.928-31.589 0-33.206-23.028-63.998-23.625v41.709c31.415.288 32.194 23.788 63.999 23.788 32 0 32-23.927 63.995-23.927 32.002 0 32.002 23.927 64.005 23.927 32.002 0 32.002-23.927 64.005-23.927 31.999 0 31.999 23.927 63.994 23.927 32 0 32-23.927 63.998-23.927 32.002 0 32.002 23.927 64.005 23.927 32.002 0 32.002-23.927 64-23.927 32 0 32 23.927 63.998 23.927 31.998 0 31.999-23.927 63.997-23.927 32.003 0 32.003 23.927 64 23.927 31.808 0 32.584-23.5 64.004-23.788v-17.174zm0 87.098c-30.795.595-32.41 23.626-64.005 23.626-32 0-32-23.929-64-23.929s-32 23.93-63.998 23.93c-31.998 0-32-23.93-63.997-23.93-32 0-32 23.93-64.001 23.93-32.001 0-32.002-23.93-64.005-23.93-32 0-32 23.93-63.997 23.93-31.995 0-31.995-23.93-63.995-23.93-32.002 0-32.002 23.93-64.005 23.93-32.002 0-32.002-23.93-64.005-23.93-31.995 0-31.995 23.93-63.994 23.93-31.589 0-33.206-23.03-63.998-23.627v41.71c31.415.288 32.195 23.787 63.999 23.787 32 0 32-23.926 63.995-23.926 32.002 0 32.002 23.926 64.005 23.926 32.002 0 32.002-23.926 64.005-23.926 31.999 0 31.999 23.926 63.994 23.926 32 0 32-23.926 63.998-23.926 32.002 0 32.002 23.926 64.005 23.926 32.002 0 32.002-23.926 64-23.926 32 0 32 23.926 63.998 23.926 31.998 0 31.999-23.926 63.997-23.926 32.003 0 32.003 23.926 64 23.926 31.808 0 32.584-23.5 64.004-23.787v-17.175z"/>
</svg>
