<svg xmlns="http://www.w3.org/2000/svg" viewBox="0 0 512 512">
    <path fill="#d80027" d="M0 0h512v258H0z"/>
    <path fill="#ffda44" d="M345.043 238.078l-36.385 17.113 19.376 35.239-39.509-7.559-5.006 39.912L256 293.428l-27.52 29.355-5.005-39.912-39.509 7.557 19.375-35.237-36.384-17.113 36.384-17.116-19.375-35.235 39.508 7.556 5.007-39.91L256 182.726l27.52-29.353 5.005 39.91 39.51-7.556-19.374 35.238zm-22.26-154.6h-50.087c0-9.219-7.476-16.696-16.696-16.696s-16.696 7.476-16.696 16.696h-50.087c0 9.22 8.032 16.696 17.252 16.696h-.557c0 9.22 7.474 16.696 16.696 16.696 0 9.22 7.474 16.696 16.696 16.696h33.391c9.219 0 16.696-7.475 16.696-16.696 9.219 0 16.696-7.475 16.696-16.696h-.557c9.221 0 17.253-7.475 17.253-16.696z"/>
    <path fill="#0052b4" d="M0 260h512v252H0z"/>
    <path fill="#f0f0f0" d="M512 236.247c-20.53.485-21.607 19.259-42.67 19.259-21.333 0-21.333-19.506-42.667-19.506-21.333 0-21.333 19.506-42.665 19.506S362.665 236 341.333 236C320 236 320 255.506 298.666 255.506c-21.334 0-21.335-19.506-42.67-19.506-21.333 0-21.333 19.506-42.665 19.506-21.33 0-21.33-19.506-42.663-19.506-21.335 0-21.335 19.506-42.67 19.506S106.663 236 85.328 236c-21.33 0-21.33 19.506-42.663 19.506-21.059 0-22.137-18.772-42.665-19.259v34c20.943.235 21.463 19.391 42.666 19.391 21.333 0 21.333-19.504 42.663-19.504 21.335 0 21.335 19.504 42.67 19.504s21.335-19.504 42.67-19.504c21.333 0 21.333 19.504 42.663 19.504 21.333 0 21.333-19.504 42.665-19.504 21.335 0 21.335 19.504 42.67 19.504s21.335-19.504 42.667-19.504c21.333 0 21.333 19.504 42.665 19.504s21.333-19.504 42.665-19.504c21.335 0 21.335 19.504 42.667 19.504 21.205 0 21.722-19.156 42.669-19.391v-14zm0 71c-20.53.485-21.607 19.259-42.67 19.259-21.333 0-21.333-19.506-42.667-19.506-21.333 0-21.333 19.506-42.665 19.506S362.665 307 341.333 307C320 307 320 326.506 298.666 326.506c-21.334 0-21.335-19.506-42.67-19.506-21.333 0-21.333 19.506-42.665 19.506-21.33 0-21.33-19.506-42.663-19.506-21.335 0-21.335 19.506-42.67 19.506S106.663 307 85.328 307c-21.33 0-21.33 19.506-42.663 19.506-21.059 0-22.137-18.772-42.665-19.259v34c20.943.235 21.463 19.391 42.666 19.391 21.333 0 21.333-19.504 42.663-19.504 21.335 0 21.335 19.504 42.67 19.504s21.335-19.504 42.67-19.504c21.333 0 21.333 19.504 42.663 19.504 21.333 0 21.333-19.504 42.665-19.504 21.335 0 21.335 19.504 42.67 19.504s21.335-19.504 42.667-19.504c21.333 0 21.333 19.504 42.665 19.504s21.333-19.504 42.665-19.504c21.335 0 21.335 19.504 42.667 19.504 21.205 0 21.722-19.156 42.669-19.391v-14zm0 71c-20.53.485-21.607 19.259-42.67 19.259-21.333 0-21.333-19.506-42.667-19.506-21.333 0-21.333 19.506-42.665 19.506S362.665 378 341.333 378C320 378 320 397.506 298.666 397.506c-21.334 0-21.335-19.506-42.67-19.506-21.333 0-21.333 19.506-42.665 19.506-21.33 0-21.33-19.506-42.663-19.506-21.335 0-21.335 19.506-42.67 19.506S106.663 378 85.328 378c-21.33 0-21.33 19.506-42.663 19.506-21.059 0-22.137-18.772-42.665-19.259v34c20.943.235 21.463 19.391 42.666 19.391 21.333 0 21.333-19.504 42.663-19.504 21.335 0 21.335 19.504 42.67 19.504s21.335-19.504 42.67-19.504c21.333 0 21.333 19.504 42.663 19.504 21.333 0 21.333-19.504 42.665-19.504 21.335 0 21.335 19.504 42.67 19.504s21.335-19.504 42.667-19.504c21.333 0 21.333 19.504 42.665 19.504s21.333-19.504 42.665-19.504c21.335 0 21.335 19.504 42.667 19.504 21.205 0 21.722-19.156 42.669-19.391v-14zm0 71.247c-20.53.485-21.607 19.259-42.67 19.259-21.333 0-21.333-19.506-42.667-19.506-21.333 0-21.333 19.506-42.665 19.506s-21.333-19.506-42.665-19.506c-21.333 0-21.333 19.506-42.667 19.506-21.334 0-21.335-19.506-42.67-19.506-21.333 0-21.333 19.506-42.665 19.506-21.33 0-21.33-19.506-42.663-19.506-21.335 0-21.335 19.506-42.67 19.506s-21.335-19.506-42.67-19.506c-21.33 0-21.33 19.506-42.663 19.506-21.059 0-22.137-18.772-42.665-19.259v34c20.943.235 21.463 19.391 42.666 19.391 21.333 0 21.333-19.504 42.663-19.504 21.335 0 21.335 19.504 42.67 19.504s21.335-19.504 42.67-19.504c21.333 0 21.333 19.504 42.663 19.504 21.333 0 21.333-19.504 42.665-19.504 21.335 0 21.335 19.504 42.67 19.504s21.335-19.504 42.667-19.504c21.333 0 21.333 19.504 42.665 19.504s21.333-19.504 42.665-19.504c21.335 0 21.335 19.504 42.667 19.504 21.205 0 21.722-19.156 42.669-19.391v-14z"/>
</svg>
