<svg xmlns="http://www.w3.org/2000/svg" width="768" height="512" viewBox="0 0 768 512">
    <path fill="#0052b4" d="M0 .009h768v511.983H0z"/>
    <path fill="#ffda44" d="M0 .009h768v129H0z"/>
    <path fill="#f0f0f0" d="M0 127.997h768v128.004H0z"/>
    <path fill="#d80027" d="M0 256.001h768v128.004H0z"/>
    <path fill="#6da544" d="M0 512V0l384 256.01z"/>
    <g fill="#f0f0f0">
        <path d="M102.957 256c0-37.296 26.214-68.456 61.218-76.1a78.09 78.09 0 0 0-16.695-1.811c-43.032 0-77.913 34.882-77.913 77.912 0 43.03 34.883 77.912 77.913 77.912 5.733 0 11.315-.638 16.695-1.812-35.006-7.644-61.218-38.803-61.218-76.1z"/>
        <path d="M174.163 222.61l-10.848-7.883-10.85 7.883 4.145-12.753-10.85-7.884h13.41l4.145-12.755 4.143 12.755h13.41l-10.848 7.884z"/>
        <path d="M174.163 256l-10.848-7.882-10.85 7.883 4.145-12.755-10.85-7.882h13.41l4.145-12.754 4.143 12.754h13.41l-10.848 7.882zm0 33.392l-10.848-7.883-10.85 7.883 4.145-12.754-10.85-7.883h13.41l4.145-12.754 4.143 12.754h13.41l-10.848 7.883zm0 33.391l-10.848-7.882-10.85 7.882 4.145-12.754-10.85-7.884h13.41l4.145-12.753 4.143 12.753h13.41l-10.848 7.884z"/>
    </g>
</svg>
