<svg xmlns="http://www.w3.org/2000/svg" width="768" height="512" viewBox="0 0 768 512">
    <path fill="#d80027" d="M0 .005h768v511.996H0z"/>
    <path fill="#6da544" d="M768 0H0v511.99"/>
    <path fill="#ffda44" d="M0 511.99h141.248L768 94.16V0H626.751L0 417.827v28.845z"/>
    <path d="M97.98 511.99L768 65.317V0h-97.982L0 446.672v65.317z"/>
    <path fill="#f0f0f0" d="M353.59 327.969l-35.747-.966-11.969 33.7-10.127-34.3-35.749-.966 29.49-20.23-10.126-34.297 28.352 21.794 29.489-20.23-11.965 33.7zm154.412-105.924l-35.75-.967-11.966 33.701-10.129-34.3-35.747-.966 29.49-20.23-10.127-34.297 28.353 21.795 29.488-20.23-11.965 33.7z"/>
</svg>
