<svg xmlns="http://www.w3.org/2000/svg" width="768" height="512" viewBox="0 0 768 512">
    <path fill="#f0f0f0" d="M0 0h768v512H0z"/>
    <path fill="#d80027" d="M477.495 255.992c0 23.374-41.859 81.807-93.495 81.807s-93.495-58.435-93.495-81.807c0-51.636 41.859-93.494 93.495-93.494s93.495 41.858 93.495 93.494z"/>
    <path fill="#0052b4" d="M477.495 255.992c0 51.635-41.859 93.494-93.495 93.494s-93.495-41.859-93.495-93.494"/>
    <path d="M483.17 338.644l24.792-24.791 16.527 16.527-24.79 24.79zm-41.321 41.302l24.791-24.792 16.527 16.528-24.791 24.79zm90.906 8.251l24.791-24.79 16.527 16.527-24.79 24.79zm-41.323 41.336l24.791-24.791 16.528 16.527-24.792 24.79zm16.531-66.112l24.791-24.79 16.527 16.526-24.79 24.791zm-41.322 41.317l24.792-24.791 16.527 16.527-24.791 24.791zm66.124-231.392l-66.11-66.11 16.527-16.527 66.11 66.11zm-66.117-16.522l-24.792-24.79 16.526-16.527 24.792 24.791zm41.304 41.324l-24.791-24.791 16.526-16.526 24.791 24.791zm8.251-90.908L491.41 82.449l16.528-16.527 24.791 24.79zm41.338 41.324l-24.791-24.791 16.527-16.527 24.791 24.79zM210.464 363.416l66.111 66.11-16.527 16.527-66.11-66.11zm66.088 16.535l24.791 24.791-16.526 16.526-24.791-24.791zm-41.305-41.321l24.792 24.791-16.528 16.527-24.791-24.79zm24.797-24.784l66.11 66.11-16.527 16.527-66.11-66.11zm16.533-231.413l-66.11 66.11-16.528-16.527 66.11-66.11zm24.766 24.804l-66.11 66.11-16.528-16.527 66.11-66.11zm24.793 24.793l-66.11 66.11-16.527-16.526 66.11-66.11z"/>
</svg>
