<svg xmlns="http://www.w3.org/2000/svg" viewBox="0 0 512 512">
    <path fill="#f0f0f0" d="M0 0h512v512H0z"/>
    <path fill="#d80027" d="M350.445 256c0 23.611-42.285 82.639-94.445 82.639S161.555 279.611 161.555 256c0-52.161 42.285-94.445 94.445-94.445s94.445 42.284 94.445 94.445z"/>
    <path fill="#0052b4" d="M350.445 256c0 52.161-42.285 94.445-94.445 94.445S161.555 308.161 161.555 256"/>
    <path d="M356.182 339.49l25.043-25.043 16.693 16.693-25.044 25.043zm-41.739 41.735l25.043-25.043 16.692 16.693-25.043 25.043zm91.826 8.33l25.043-25.043 16.693 16.692-25.044 25.044zm-41.739 41.757l25.043-25.043 16.692 16.693-25.042 25.043zm16.696-66.79l25.042-25.043 16.693 16.693-25.043 25.042zm-41.739 41.747l25.043-25.043 16.692 16.693-25.042 25.042zM406.26 172.51l-66.78-66.78 16.693-16.692 66.78 66.779zm-66.767-16.697l-25.043-25.044 16.692-16.692 25.044 25.043zm41.727 41.741l-25.042-25.043 16.693-16.692 25.042 25.042zm8.339-91.818l-25.044-25.043 16.693-16.692 25.043 25.043zm41.748 41.731l-25.042-25.043 16.692-16.692L448 130.774zM80.692 364.53l66.779 66.78-16.693 16.692L64 381.222zm66.772 16.687l25.043 25.043-16.692 16.693-25.044-25.044zm-41.732-41.737l25.044 25.044-16.692 16.693-25.045-25.044zm25.049-25.033l66.78 66.779-16.693 16.693-66.779-66.78zM147.47 80.693l-66.778 66.78-16.693-16.693L130.779 64zm25.04 25.047l-66.779 66.779-16.692-16.693 66.779-66.779zm25.044 25.043l-66.78 66.78-16.692-16.693 66.78-66.779z"/>
</svg>
