<svg xmlns="http://www.w3.org/2000/svg" viewBox="0 0 512 512">
    <path fill="#0052b4" d="M512 256c0 141.384-114.616 256-256 256S0 397.384 0 256C0 256.061 256 .028 256 0c141.384 0 256 114.616 256 256z"/>
    <g fill="#f0f0f0">
        <path d="M256 0h-.043.043zm-.685 256H256v-.685l-.685.685z"/>
        <path d="M256 133.565V0h-.043C114.591.024 0 114.629 0 256h133.565v-75.211L208.776 256h46.54l.685-.685v-46.537l-75.213-75.213H256z"/>
    </g>
    <circle cx="369.391" cy="175.031" r="38.857" fill="#6da544"/>
    <g fill="#d80027">
        <path d="M129.515 33.391a257.215 257.215 0 0 0-96.124 96.124V256h66.783V100.174H256V33.391H129.515z"/>
        <path d="M256 224.519l-90.955-90.953h-31.48v.002L255.998 256H256v-31.481zm45.391-59.203H437.39v58.286H301.391z"/>
    </g>
    <path fill="#496e2d" d="M445.217 256v-.001.001zm-155.826 0v-.001z"/>
    <path fill="#ffda44" d="M301.391 311.03v38.857h20.444c12.258 12.013 29.036 19.429 47.556 19.429 18.519 0 35.298-7.416 47.556-19.429h20.443V311.03z"/>
    <path fill="#338af3" d="M301.391 213.887v58.286c0 52.05 68 68 68 68s68-15.95 68-68v-58.286z"/>
    <path fill="#f0f0f0" d="M369.387 245.02c-16.999 0-16.999 15.544-33.998 15.544-16.998 0-16.998-15.543-33.997-15.543v27.2c16.999 0 16.999 15.542 33.997 15.542 17 0 17-15.543 33.998-15.543 17 0 17 15.543 34.002 15.543 17.001 0 17-15.543 34.002-15.543v-27.2c-17 0-17 15.544-34.002 15.544-17.001 0-17.001-15.543-34.002-15.543zm0-54.447c-16.999 0-16.999 15.543-33.998 15.543-16.998 0-16.998-15.543-33.997-15.543v27.2c16.999 0 16.999 15.543 33.997 15.543 17 0 17-15.543 33.998-15.543 17 0 17 15.543 34.002 15.543 17.001 0 17-15.543 34.002-15.543v-27.2c-17 0-17 15.543-34.002 15.543-17.001 0-17.001-15.543-34.002-15.543z"/>
</svg>
