<svg xmlns="http://www.w3.org/2000/svg" width="768" height="512" viewBox="0 0 768 512">
    <path fill="#0052b4" d="M0 .008h768V512H0z"/>
    <ellipse cx="576" cy="162.688" fill="#6da544" rx="44.523" ry="44.522"/>
    <path fill="#d80027" d="M498.081 151.569h155.82v66.781h-155.82z"/>
    <path fill="#496e2d" d="M653.913 273.995v-.002z"/>
    <path fill="#ffda44" d="M498.087 318.516v44.522h23.424c14.046 13.763 33.27 22.26 54.489 22.26 21.22 0 40.443-8.497 54.489-22.26h23.424v-44.522z"/>
    <path fill="#338af3" d="M498.087 207.214v66.782c0 59.636 77.913 77.91 77.913 77.91s77.913-18.272 77.913-77.91v-66.782z"/>
    <path fill="#f0f0f0" d="M575.995 242.885c-19.477 0-19.477 17.809-38.955 17.809-19.477 0-19.477-17.81-38.955-17.81v31.165c19.478 0 19.478 17.81 38.955 17.81 19.478 0 19.478-17.81 38.955-17.81 19.48 0 19.48 17.81 38.96 17.81 19.479 0 19.479-17.81 38.96-17.81v-31.164c-19.48 0-19.48 17.809-38.96 17.809-19.479-.002-19.479-17.81-38.96-17.81zm0-62.384c-19.477 0-19.477 17.81-38.955 17.81-19.477 0-19.477-17.81-38.955-17.81v31.165c19.478 0 19.478 17.81 38.955 17.81 19.478 0 19.478-17.81 38.955-17.81 19.48 0 19.48 17.81 38.96 17.81 19.479 0 19.479-17.81 38.96-17.81v-31.165c-19.48 0-19.48 17.81-38.96 17.81-19.479 0-19.479-17.81-38.96-17.81zM384 175.992h-69.103L384 222.071v33.924h-33.942L240 182.62v73.376h-96V182.62L33.942 255.995H0v-33.924l69.103-46.079H0V79.994h69.103L0 33.932V.007h33.942L144 73.367V.006h96v73.36L350.058.006H384v33.925l-69.103 46.062H384z"/>
    <g fill="#d80027">
        <path d="M0 151.997h168v103.998h48V151.997h168v-47.999H216V0h-48v103.998H0z"/>
        <path d="M0 0v22.622L86.066 80H120zm384 0v22.622L297.934 80H264z"/>
        <path d="M0 0v22.622L86.066 80H120zm384 0v22.622L297.934 80H264zM0 255.995v-22.622l86.066-57.376H120zm384 0v-22.622l-86.066-57.376H264z"/>
    </g>
</svg>
