<svg xmlns="http://www.w3.org/2000/svg" viewBox="0 0 512 512">
    <path fill="#0052b4" d="M.002.002H512V512H.002z"/>
    <circle cx="383.054" cy="195.539" r="39.427" fill="#6da544"/>
    <path fill="#d80027" d="M314.053 185.692h137.99v59.14h-137.99z"/>
    <path fill="#ffda44" d="M314.058 333.537v39.427H334.8c12.439 12.19 29.463 19.713 48.254 19.713 18.792 0 35.815-7.523 48.253-19.713h20.744v-39.427z"/>
    <path fill="#338af3" d="M314.058 234.97v59.14c0 52.814 68.996 68.997 68.996 68.997s68.998-16.18 68.998-68.996V234.97z"/>
    <path fill="#f0f0f0" d="M383.05 266.56c-17.248 0-17.248 15.772-34.496 15.772-17.249 0-17.249-15.771-34.495-15.771v27.6c17.249 0 17.249 15.77 34.495 15.77 17.249 0 17.249-15.771 34.497-15.771 17.25 0 17.25 15.771 34.5 15.771s17.25-15.771 34.502-15.771v-27.6c-17.25 0-17.25 15.772-34.501 15.772-17.25 0-17.25-15.771-34.501-15.771zm0-55.246c-17.248 0-17.248 15.772-34.496 15.772-17.249 0-17.249-15.772-34.495-15.772v27.6c17.249 0 17.249 15.77 34.495 15.77 17.249 0 17.249-15.77 34.497-15.77 17.25 0 17.25 15.77 34.5 15.77s17.25-15.77 34.502-15.77v-27.6c-17.25 0-17.25 15.772-34.501 15.772-17.25 0-17.25-15.772-34.501-15.772zM255.999 0v48.896l-40.147 40.147h40.147v77.913h-52.536l52.536 52.535v36.508H232.28l-65.324-65.335v65.335H89.043v-77.724l-77.712 77.724H0v-48.896l40.147-40.147H0V89.043h52.535L0 36.508V0h23.719l65.324 65.335V0h77.913v77.723L244.668 0z"/>
    <path fill="#d80027" d="M0 152h104v103.999h48V152h103.999v-48H152V0h-48v104H0z"/>
    <path fill="#0052b4" d="M166.956 166.956l89.043 89.043v-25.18l-63.863-63.863z"/>
    <path fill="#f0f0f0" d="M166.956 166.956l89.043 89.043v-25.18l-63.863-63.863z"/>
    <path fill="#d80027" d="M166.956 166.956l89.043 89.043v-25.18l-63.863-63.863zm-103.094.002L0 230.82v25.179l89.041-89.041z"/>
    <path fill="#0052b4" d="M89.043 89.043L0 0v25.18l63.863 63.863z"/>
    <path fill="#f0f0f0" d="M89.043 89.043L0 0v25.18l63.863 63.863z"/>
    <path fill="#d80027" d="M89.043 89.043L0 0v25.18l63.863 63.863zm103.094-.002l63.862-63.862V0l-89.041 89.041z"/>
</svg>
