<svg xmlns="http://www.w3.org/2000/svg" width="768" height="512" viewBox="0 0 768 512">
    <path fill="#338af3" d="M0 0h768v512H0z"/>
    <path fill="#ffda44" d="M244.27 274.664c1.295 9.878 7.75 18.719 16.372 23.562a33.811 33.811 0 0 0 17.073 4.432l8.056 4.047c-1.884.916-3.767 1.833-5.652 2.748.187 2.484.782 5.14 1.531 7.365 2.826 8.516 9.394 15.703 17.658 19.212 4.531 1.974 9.525 2.827 14.448 2.613 1.3.03 2.37 1.24 2.224 2.536-.095 4.916.7 9.887 2.73 14.389 3.941 8.986 12.208 15.965 21.78 18.2 3.477.86 7.075.966 10.639.884 23.392-.005 46.785.018 70.177-.025 9.557-.32 18.808-5.25 24.448-12.966 4.322-5.814 6.526-13.125 6.25-20.355-.062-.952.47-1.771.82-2.616 3.201-.03 6.437.013 9.58-.682a31.087 31.087 0 0 0 3.447-.893c9.222-2.956 16.92-10.31 20.202-19.433a31.887 31.887 0 0 0 1.83-8.229l-5.67-2.76c2.76-1.316 5.44-2.8 8.236-4.039 11.75.175 23.317-6.358 29.258-16.493 2.08-3.52 3.48-7.453 4.022-11.509H244.268z"/>
    <path fill="#338af3" d="M483.693 223.577c0 55.057-44.634 99.692-99.693 99.692s-99.693-44.633-99.693-99.692"/>
    <path fill="#ffda44" d="M414.541 295.156L384 267.12l-30.543 28.037-5.555-38.122-43.848 7.218 21.501-33.66-40.378-16.346 40.38-16.349-21.503-33.658 43.847 7.22 5.557-38.125L384 161.374l30.543-28.04 5.554 38.125 43.85-7.22-21.503 33.66 40.379 16.347-40.38 16.348 21.502 33.661-43.848-7.22z"/>
</svg>
