<svg xmlns="http://www.w3.org/2000/svg" viewBox="0 0 512 512">
    <circle cx="256" cy="256" r="256" fill="#338af3"/>
    <path fill="#ffda44" d="M115.578 262.838c1.1 8.376 5.904 16.046 12.603 21.114 5.72 4.407 12.87 6.902 20.09 7.014.707-.03 1.366.125 1.96.518l7.019 3.528-5.652 2.75c.673 8.117 4.608 15.907 10.724 21.283.24.213.82.7 1.196 1.01.903.727 1.89 1.442 2.777 2.001 5.61 3.62 12.373 5.36 19.024 5.07 1.375-.053 2.538 1.273 2.314 2.626-.116 5.344.898 10.747 3.292 15.548 4.213 8.612 12.427 15.184 21.816 17.22 3.377.79 6.86.856 10.31.785 23.477-.005 46.954.018 70.43-.026 9.701-.323 19.09-5.375 24.745-13.257 4.237-5.808 6.396-13.062 6.122-20.238-.062-.957.474-1.78.826-2.63 4.528.088 9.138-.175 13.444-1.695 9.726-3.223 17.655-11.376 20.542-21.215a31.944 31.944 0 0 0 1.238-6.484l-5.671-2.76c2.759-1.316 5.439-2.797 8.232-4.04 8.15.099 16.248-2.938 22.405-8.263 5.917-5.017 10.052-12.191 11.064-19.914H115.572z"/>
    <path fill="#338af3" d="M356.174 211.478c0 55.324-44.85 100.174-100.174 100.174-55.325 0-100.174-44.85-100.174-100.174"/>
    <path fill="#ffda44" d="M332.515 211.478l-31.265 14.707 16.649 30.28-33.95-6.495-4.302 34.296L256 259.041l-23.648 25.225-4.301-34.296-33.95 6.493 16.648-30.279-31.264-14.706 31.265-14.706-16.649-30.279 33.949 6.494 4.303-34.296L256 163.916l23.648-25.225 4.301 34.296 33.951-6.494-16.649 30.28z"/>
</svg>
