<svg xmlns="http://www.w3.org/2000/svg" viewBox="0 0 512 512">
    <path fill="#338af3" d="M0 0h512v512H0z"/>
    <path fill="#ffda44" d="M130.162 277.702c2.071 9.196 9.221 16.819 17.961 20.127 3.486 1.355 7.234 1.998 10.972 1.933 3.373 1.691 6.743 3.386 10.115 5.08-2.21 1.083-4.442 2.15-6.637 3.242.617 5.352 2.885 10.477 6.335 14.604.226.275.831.968 1.244 1.388 5.582 5.92 13.862 9.03 21.955 8.537 1.84-.07 3.476 1.65 3.186 3.494-.389 7.17 2.068 14.494 6.851 19.879 5.1 5.848 12.705 9.473 20.49 9.51 4.785.053 9.572-.013 14.359.018 17.802-.014 35.606.04 53.407-.042 6.915-.322 13.62-3.432 18.444-8.376.291-.29.943-1 1.342-1.488 4.633-5.413 6.907-12.65 6.55-19.737-.142-1.784 1.419-3.487 3.24-3.284 4.039.274 8.152-.414 11.935-1.851 9.389-3.6 16.448-12.649 17.504-22.666-2.216-1.083-4.433-2.162-6.65-3.243 3.463-1.653 6.828-3.51 10.334-5.067 11.881.256 23.565-7.471 27.707-18.656a25.897 25.897 0 0 0 1.194-4.182H130l.162.78z"/>
    <path fill="#338af3" d="M347.053 228.9c0 50.286-40.765 91.052-91.052 91.052-50.286 0-91.052-40.765-91.052-91.051"/>
    <path fill="#ffda44" d="M283.895 294.28l-27.894-25.609-27.895 25.609-5.074-34.82-40.047 6.593 19.638-30.743-36.879-14.93 36.88-14.93-19.639-30.742 40.047 6.593 5.075-34.82 27.894 25.609 27.896-25.609 5.073 34.82 40.048-6.593-19.638 30.743 36.878 14.929-36.88 14.932 19.639 30.742-40.047-6.594z"/>
</svg>
