<svg xmlns="http://www.w3.org/2000/svg" width="768" height="512" viewBox="0 0 768 512">
    <path fill="#d80027" d="M0 .009h768V512H0z"/>
    <path fill="#0052b4" d="M768 0v250.036L0 256.263V0z"/>
    <path fill="#ffda44" d="M219.217 170.09c0-18.443-14.949-33.392-33.392-33.392-8.554 0-16.351 3.22-22.26 8.508v-19.64h11.132v-22.26h-11.132V92.175h-22.26v11.131h-11.131v22.26h11.132v19.64c-5.909-5.289-13.708-8.508-22.26-8.508-18.443 0-33.392 14.95-33.392 33.392 0 9.886 4.3 18.768 11.132 24.883v19.64H208.09v-19.64c6.827-6.115 11.127-14.995 11.127-24.883z"/>
</svg>
