<svg xmlns="http://www.w3.org/2000/svg" width="768" height="512" viewBox="0 0 768 512">
    <path fill="#ffda44" d="M0 0v511.992h768V0zm734.609 478.602H333.913V33.39h400.695z"/>
    <path fill="#a2001d" d="M333.913 33.398h400.695v445.211H333.913z"/>
    <path fill="#d80027" d="M33.391 33.398h300.522v445.211H33.391z"/>
    <path fill="#ffda44" d="M300.522.008h33.391V512h-33.391z"/>
    <path fill="#496e2d" d="M33.391 33.398h133.565v445.211H33.391z"/>
    <path fill="#ff9811" d="M166.956 33.398h133.565v445.211H166.956z"/>
    <g fill="#ffda44">
        <path d="M538.013 247.657v-66.781c0-11.136-16.695-22.272-16.695-22.272s-16.695 11.136-16.695 22.272H437.84v66.781h33.391v33.39c0 7.313 1.468 14.309 4.14 20.652l-15.276 12.74h-44.511v-205.92c-18.449 0-33.392 14.96-33.392 33.39v144.698c0 9.883 4.292 18.766 11.12 24.875v53.04h22.272v-27.83h100.174v44.526h-22.273v22.255h44.527v-44.526l20.402-22.255h66.432v44.526h-22.272v22.255h44.527v-44.526l20.402-22.255 18.828-60.387-16.557-28.65h-58.418c-21.253-.182-60.955.136-73.344.002z"/>
        <path d="M669.774 247.657v-26.725h-107.27v-24.486h113.948v-6.678H555.826v37.842h107.27v20.047zM331.914 31.399h33.391v33.39h-33.391zm371.302 0h33.392v33.39h-33.391zM331.914 447.202h33.391v33.39h-33.391zm371.302 0h33.392v33.39h-33.391z"/>
    </g>
</svg>
