<svg xmlns="http://www.w3.org/2000/svg" width="768" height="512" viewBox="0 0 768 512">
    <path fill="#f0f0f0" d="M0 17.806h768v494.178H0z"/>
    <path fill="#d80027" d="M0 0h768v46.544H0zm0 93.09h768v46.545H0zm0 93.092h768v46.545H0zm0 93.091h768v46.544H0zm0 93.09h768v46.545H0zm0 93.092h768V512H0z"/>
    <path fill="#0052b4" d="M0 0h280v233H0z"/>
    <path fill="#f0f0f0" d="M140.453 49.414l16.575 49.239h53.646l-43.398 30.433 16.575 49.242-43.398-30.434-43.4 30.434 16.58-49.242-43.398-30.433h53.643z"/>
</svg>
