<svg xmlns="http://www.w3.org/2000/svg" viewBox="0 0 512 512">
    <path fill="#f0f0f0" d="M0 256c0 39.89 9.127 77.648 25.402 111.304L256 378.435l230.598-11.13C502.873 333.648 512 295.89 512 256s-9.127-77.648-25.402-111.304L256 133.565l-230.598 11.13C9.127 178.352 0 216.11 0 256z"/>
    <path fill="#6da544" d="M256 512c101.493 0 189.19-59.065 230.598-144.696H25.402C66.81 452.935 154.506 512 256 512z"/>
    <path fill="#0052b4" d="M256 0C154.506 0 66.81 59.065 25.402 144.696h461.195C445.19 59.065 357.493 0 256 0z"/>
    <path d="M275.761 249.412v-72.46h-39.524v72.46L188.5 297.151c13.883 22.726 38.92 37.897 67.5 37.897s53.616-15.17 67.5-37.897z"/>
</svg>
