<svg xmlns="http://www.w3.org/2000/svg" viewBox="0 0 512 512">
    <path d="M25.402 144.696C9.128 178.352 0 216.109 0 256s9.128 77.648 25.402 111.304L256 389.565l230.598-22.261C502.872 333.648 512 295.891 512 256s-9.128-77.648-25.402-111.304L256 122.435 25.402 144.696z"/>
    <path fill="#6da544" d="M25.411 367.304C66.817 452.935 154.506 512 256 512c101.493 0 189.183-59.065 230.589-144.696H25.411z"/>
    <path fill="#d80027" d="M25.411 144.696h461.178C445.183 59.065 357.493 0 256 0 154.506 0 66.817 59.065 25.411 144.696z"/>
    <g fill="#f0f0f0">
        <path d="M362.966 283.043l-31.746-10.337-19.642 27 .02-33.387-31.748-10.337 31.76-10.298.021-33.39 19.61 27.024L363 229.02l-19.642 27z"/>
        <path d="M258.111 323.547c-37.303 0-67.545-30.242-67.545-67.546s30.242-67.546 67.545-67.546c11.631 0 22.576 2.941 32.131 8.12-14.99-14.66-35.489-23.707-58.11-23.707C186.22 172.868 149 210.088 149 256c0 45.913 37.22 83.132 83.132 83.132 22.622 0 43.12-9.047 58.11-23.706-9.556 5.18-20.499 8.12-32.13 8.12z"/>
    </g>
</svg>
