<svg xmlns="http://www.w3.org/2000/svg" width="768" height="512" viewBox="0 0 768 512">
    <path d="M0 0h768v512H0z"/>
    <path fill="#d80027" d="M0 0h768v144H0z"/>
    <path fill="#496e2d" d="M0 368h768v144H0z"/>
    <g fill="#f0f0f0">
        <path d="M402.056 255.983l24.042-7.795.016-25.277 14.846 20.458 24.04-7.795-14.867 20.44 14.844 20.456-24.034-7.826-14.869 20.441.017-25.275z"/>
        <path d="M385.598 307.132c-28.24 0-51.132-22.895-51.132-51.134 0-28.238 22.895-51.133 51.132-51.133a50.92 50.92 0 0 1 24.324 6.146c-11.348-11.095-26.865-17.945-43.99-17.945C331.178 193.066 303 221.243 303 256s28.177 62.934 62.933 62.934c17.124 0 32.642-6.85 43.99-17.945-7.233 3.918-15.519 6.143-24.325 6.143z"/>
    </g>
</svg>
