<svg xmlns="http://www.w3.org/2000/svg" viewBox="0 0 512 512">
    <path d="M0 .007h512v511.989H0z"/>
    <path fill="#d80027" d="M0 .001h512v146H0z"/>
    <path fill="#6da544" d="M0 366h512v146H0z"/>
    <g fill="#f0f0f0">
        <path d="M296.53 263.522l-23.143-7.534 23.152-7.508.016-24.34 14.294 19.699L334 236.333l-14.317 19.682 14.294 19.698-23.145-7.534-14.317 19.681z"/>
        <path d="M257.54 305.24c-27.194 0-49.24-22.046-49.24-49.24 0-27.193 22.046-49.238 49.24-49.238 8.479 0 16.456 2.143 23.422 5.918-10.927-10.685-25.87-17.281-42.361-17.281C205.133 195.399 178 222.53 178 256c0 33.469 27.132 60.6 60.602 60.6 16.49 0 31.433-6.596 42.36-17.28a49.014 49.014 0 0 1-23.423 5.919z"/>
    </g>
</svg>
