<svg xmlns="http://www.w3.org/2000/svg" width="768" height="512" viewBox="0 0 768 512">
    <path fill="#d80027" d="M768 256V0H0v512h768z"/>
    <path fill="#496e2d" d="M496 230.85h-85.56L384 149.48l-26.44 81.374H272l69.22 50.293-26.44 81.375L384 312.225l69.22 50.293-26.44-81.376zm-135.407 43.998l8.94-27.517h28.934l8.94 27.517v.002L384 291.855zm32.519-43.997h-18.223L384 202.807zm28.313 33.813l-5.631-17.333h29.486zm-69.219-17.333l-5.631 17.333-23.855-17.333zm-6.08 72.041l9.112-28.042 14.742 10.711zm51.893-17.332l14.742-10.711 9.111 28.042z"/>
</svg>
