<svg xmlns="http://www.w3.org/2000/svg" viewBox="0 0 512 512">
    <circle cx="256" cy="256" r="256" fill="#d80027"/>
    <path fill="#496e2d" d="M388 226.363H287.16L256 130.46l-31.16 95.903H124l81.58 59.27-31.161 95.906L256 322.267l81.581 59.273-31.161-95.905zm-159.587 51.852l10.537-32.43h34.099l10.538 32.43L256 298.259l-27.586-20.042zm38.326-51.852h-21.477L256 193.312zm33.369 39.849l-6.637-20.426h34.75zm-81.58-20.426l-6.637 20.426-28.115-20.426zm-7.165 84.903l10.74-33.05 17.375 12.624zm61.159-20.425l17.376-12.624 10.739 33.05z"/>
</svg>
