<svg xmlns="http://www.w3.org/2000/svg" viewBox="0 0 512 512">
    <path fill="#d80027" d="M0 0v512h512V0z"/>
    <path fill="#496e2d" d="M371 230.18h-87.852L256 146.627l-27.148 83.551H141l71.074 51.64-27.148 83.552L256 313.733l71.074 51.64-27.148-83.554zm-139.034 45.175l9.18-28.253h29.707l9.18 28.253L256 292.816zm33.39-45.176h-18.712L256 201.386zm29.072 34.718l-5.782-17.795h30.276zm-71.074-17.796l-5.782 17.795-24.493-17.795zm-6.242 73.97l9.356-28.793 15.138 10.997zm53.282-17.796l15.138-10.997 9.356 28.793z"/>
</svg>
