<svg xmlns="http://www.w3.org/2000/svg" width="768" height="512" viewBox="0 0 768 512">
    <path fill="#ffda44" d="M0 0h768v511.983H0z"/>
    <path fill="#d80027" d="M512 0h256v512H512z"/>
    <path fill="#0052b4" d="M0 0h256v512H0z"/>
    <path fill="#d57800" d="M473.043 201.412h-61.218c0-15.366-12.459-27.826-27.826-27.826-15.37 0-27.827 12.458-27.827 27.826h-61.218c0 15.132 13.18 27.397 28.311 27.397h-.912c0 15.132 12.264 27.399 27.397 27.399 0 13.396 9.621 24.529 22.33 26.908l-21.59 48.742a88.752 88.752 0 0 0 33.507 6.543 88.758 88.758 0 0 0 33.507-6.543l-21.588-48.742c12.707-2.379 22.329-13.512 22.329-26.908 15.133 0 27.398-12.269 27.398-27.399h-.914c15.135-.002 28.314-12.268 28.314-27.397z"/>
    <path fill="#0052b4" d="M420.174 289.383v-33.391L384 239.297l-36.174 16.695v33.39L384 311.643z"/>
    <path fill="#d80027" d="M347.82 222.602h72.342v33.391H347.82z"/>
</svg>
