<svg xmlns="http://www.w3.org/2000/svg" width="768" height="512" viewBox="0 0 768 512">
    <path fill="#ffda44" d="M0 0h768v512H0z"/>
    <path fill="#a2001d" d="M0 44.512h768v422.976H0z"/>
    <path fill="#ffda44" d="M334 142.433v40h100v-40l-20 10-30-30-30 30zm160 99.344h-61.09a28.002 28.002 0 0 0 3.789-14.072c0-15.579-12.63-28.206-28.206-28.206-10.762 0-20.11 6.03-24.865 14.892-4.756-8.862-14.103-14.892-24.866-14.892-15.575 0-28.205 12.627-28.205 28.206 0 5.13 1.393 9.926 3.788 14.072H274c0 18.694 16.282 33.848 34.972 33.848h-1.128c0 15.335 10.2 28.279 24.18 32.44l-27.471 27.471 25.928 25.929 36.779-36.78c1.441.529 2.932.95 4.47 1.238l-22.223 50.18A91.354 91.354 0 0 0 384 382.837a91.386 91.386 0 0 0 34.493-6.734l-22.223-50.18a28.18 28.18 0 0 0 4.47-1.238l36.78 36.78 25.927-25.929-27.471-27.471c13.98-4.161 24.18-17.106 24.18-32.44h-1.128c18.69 0 34.972-15.154 34.972-33.848z"/>
    <path fill="#6da544" d="M423.721 278.445l-39.723-18.335-39.722 18.335v36.668l39.722 24.444 39.723-24.444z"/>
    <path fill="#0052b4" d="M344.269 241.777h79.439v48.892h-79.439z"/>
</svg>
