<svg xmlns="http://www.w3.org/2000/svg" viewBox="0 0 512 512">
    <circle cx="256" cy="256" r="256" fill="#ffda44"/>
    <path fill="#a2001d" d="M512 256c0-87.861-44.269-165.375-111.713-211.478H111.713C44.27 90.625 0 168.139 0 256c0 87.863 44.27 165.375 111.713 211.478h288.574C467.731 421.375 512 343.863 512 256z"/>
    <path fill="#ffda44" d="M308.708 145.302l-21.083 10.542L256 124.219l-31.625 31.625-21.083-10.542v42.166h105.416zM366 246.726h-61.087a28.012 28.012 0 0 0 3.788-14.07c0-15.578-12.629-28.205-28.205-28.205-10.762 0-20.11 6.03-24.865 14.892-4.756-8.862-14.103-14.892-24.865-14.892-15.576 0-28.205 12.627-28.205 28.205 0 5.132 1.394 9.927 3.788 14.07H146c0 18.693 16.281 33.845 34.973 33.845h-1.127c0 15.333 10.198 28.279 24.18 32.437l-27.47 27.473 25.926 25.927 36.778-36.778c1.44.528 2.93.95 4.471 1.24l-22.223 50.176a91.343 91.343 0 0 0 34.493 6.735 91.351 91.351 0 0 0 34.493-6.735L268.27 330.87a27.905 27.905 0 0 0 4.47-1.24l36.777 36.778 25.926-25.927-27.472-27.472c13.98-4.16 24.18-17.104 24.18-32.437h-1.128c18.694 0 34.976-15.153 34.976-33.846z"/>
    <path fill="#6da544" d="M256.001 344.502l39.722-24.443v-36.667l-39.722-18.332-39.722 18.332v36.667z"/>
    <path fill="#0052b4" d="M216.28 246.726h79.443v48.889h-79.444z"/>
</svg>
