<svg xmlns="http://www.w3.org/2000/svg" width="768" height="512" viewBox="0 0 768 512">
    <path fill="#ffda44" d="M0 .005h768v511.996H0z"/>
    <g fill="#d80027" transform="matrix(1.5 0 0 1.49997 0 -127.993)">
        <path d="M256 252.286l26.827 174.376h101.048zm0 0L230.314 85.33h-96.749zm0 0L128.124 426.662h101.047zM0 85.33V212.9l256 39.386L28.333 85.33zm0 341.332h18.212L256 252.286 0 291.67zm256-174.376L512 212.9V85.33h-28.331zm0 0L378.434 85.33h-96.748zm256 174.376V291.671l-256-39.385 237.787 174.376z"/>
        <circle cx="256" cy="252.29" r="59.359"/>
    </g>
    <ellipse cx="384" cy="250.435" fill="#ffda44" rx="66.783" ry="66.782"/>
</svg>
