<svg xmlns="http://www.w3.org/2000/svg" width="768" height="512" viewBox="0 0 768 512">
    <path fill="#0052b4" d="M0 0h768v511.983H0z"/>
    <path fill="#d80027" d="M510 0h258v512H510zM0 0h258v512H0z"/>
    <g fill="#ffda44" transform="matrix(1.5 0 0 1.49998 0 -127.995)">
        <path d="M113.163 267.125h14.84v59.359h-14.84zm-59.37 0h14.84v59.359h-14.84z"/>
        <circle cx="90.902" cy="289.386" r="14.84"/>
        <circle cx="90.902" cy="237.44" r="7.421"/>
        <path d="M76.054 311.647h29.682v14.84H76.054zm0-59.359h29.682v14.84H76.054zm28.599-24.444l-13.756-9.996-13.756 9.996 5.251-16.173-13.756-9.996h17.005l5.256-16.173 5.255 16.173h17.006l-13.757 9.996z"/>
    </g>
</svg>
