<svg xmlns="http://www.w3.org/2000/svg" width="768" height="512" viewBox="0 0 768 512">
    <path fill="#496e2d" d="M0 0h768v512H0z"/>
    <path fill="#f0f0f0" d="M428.523 245.318c-6.285 0-12.249 1.254-17.791 3.246 3.034-6.764 5.068-14.29 5.068-22.327 0-31.802-31.801-55.651-31.801-55.651s-31.802 23.85-31.802 55.65c0 8.036 2.034 15.563 5.069 22.328-5.54-1.992-11.507-3.246-17.792-3.246-31.801 0-55.651 31.801-55.651 31.801s23.851 31.801 55.651 31.801c18.644 0 34.547-10.929 44.523-19.972 9.975 9.045 25.877 19.972 44.523 19.972 31.802 0 55.652-31.801 55.652-31.801s-23.849-31.801-55.649-31.801z"/>
    <path fill="#ffda44" d="M401.195 153.094L384 140.6l-17.194 12.495 6.564-20.213-17.196-12.498h21.256L384 100.17l6.57 20.214h21.256L394.63 132.88zm-64.943 12.224l-16.911-1.778-6.917 15.533-3.536-16.632-16.913-1.778 14.727-8.503-3.534-16.633 12.637 11.377 14.727-8.5-6.915 15.532zm-48.709 38.639l-15.536 6.915 1.779 16.911-11.38-12.634-15.536 6.915 8.503-14.727-11.38-12.638 16.635 3.537 8.502-14.726 1.779 16.91zm144.205-38.639l16.913-1.778 6.915 15.533 3.538-16.632 16.913-1.778-14.727-8.503 3.534-16.633-12.638 11.377-14.727-8.5 6.917 15.532zm48.711 38.639l15.535 6.915-1.777 16.911 11.379-12.634 15.535 6.915-8.503-14.727 11.379-12.638-16.633 3.537-8.504-14.726-1.779 16.91z"/>
    <path fill="#f0f0f0" d="M384 397.962c25.26 0 48.544-8.428 67.224-22.609H316.779c18.677 14.18 41.961 22.61 67.221 22.61zM281.966 331.18a111.206 111.206 0 0 0 13.275 22.61h177.517a111.194 111.194 0 0 0 13.275-22.61z"/>
</svg>
