<svg xmlns="http://www.w3.org/2000/svg" viewBox="0 0 512 512">
    <path fill="#496e2d" d="M0 0h512v512H0z"/>
    <path fill="#f0f0f0" d="M297.976 252.466c-5.925 0-11.549 1.181-16.773 3.06 2.862-6.377 4.78-13.473 4.78-21.05 0-29.981-29.982-52.47-29.982-52.47s-29.982 22.488-29.982 52.47c0 7.578 1.919 14.673 4.78 21.05-5.224-1.879-10.85-3.06-16.773-3.06-29.981 0-52.469 29.982-52.469 29.982s22.487 29.984 52.47 29.984c17.578 0 32.57-10.303 41.975-18.831 9.405 8.528 24.397 18.831 41.976 18.831 29.982 0 52.47-29.984 52.47-29.984s-22.49-29.982-52.472-29.982z"/>
    <path fill="#ffda44" d="M256 115.616l6.194 19.06h20.04l-16.212 11.781 6.19 19.06L256 153.737l-16.212 11.78 6.19-19.06-16.212-11.78h20.04zm-76.21 33.337l11.914 10.729 13.886-8.018-6.52 14.646 11.913 10.73-15.945-1.676-6.52 14.646-3.335-15.681-15.944-1.676 13.883-8.019zM124 204.743l15.683 3.334 8.017-13.886 1.677 15.944 15.68 3.336-14.645 6.522 1.676 15.942-10.729-11.913-14.646 6.521 8.016-13.884zm208.21-55.79l-11.914 10.729-13.885-8.018 6.52 14.646-11.913 10.73 15.944-1.676 6.52 14.646 3.336-15.681 15.946-1.676-13.886-8.019zm55.79 55.79l-15.682 3.334-8.018-13.886-1.675 15.944-15.682 3.336 14.646 6.522-1.676 15.942 10.729-11.913 14.647 6.521-8.017-13.884z"/>
    <path fill="#f0f0f0" d="M256 396.384c23.816 0 45.768-7.946 63.379-21.317H192.622c17.61 13.37 39.562 21.317 63.378 21.317zm-96.198-62.965a104.874 104.874 0 0 0 12.516 21.317h167.366a104.895 104.895 0 0 0 12.516-21.317z"/>
</svg>
