<svg xmlns="http://www.w3.org/2000/svg" width="768" height="512" viewBox="0 0 768 512">
    <path fill="#338af3" d="M0 0h768v512H0z"/>
    <path fill="#f0f0f0" d="M377.204 394.095c-5.86-.283-10.706-4.09-12.603-9.26-3.354 4.375-9.117 6.577-14.796 5.113-5.688-1.464-9.665-6.171-10.488-11.63-4.176 3.608-10.262 4.592-15.524 2.012a14.181 14.181 0 0 1-7.917-13.512 14.163 14.163 0 0 1-15.609-1.152 14.188 14.188 0 0 1-5.035-14.814 14.144 14.144 0 0 1-15.051-4.261c-3.827-4.442-4.413-10.574-1.976-15.513-5.48.585-11.035-2.079-13.888-7.198-2.864-5.121-2.202-11.253 1.19-15.61-5.49-.529-10.4-4.26-12.159-9.853-1.767-5.593.123-11.47 4.328-15.05a14.16 14.16 0 0 1-9.91-12.105c-.596-5.83 2.426-11.186 7.255-13.851-4.829-2.645-7.87-8.003-7.295-13.823h.01c.575-5.838 4.62-10.497 9.881-12.14-4.204-3.572-6.112-9.44-4.365-15.033 1.748-5.603 6.651-9.345 12.141-9.893-3.393-4.345-4.072-10.477-1.228-15.609 2.844-5.12 8.4-7.795 13.888-7.217a14.177 14.177 0 0 1 1.937-15.534c3.807-4.45 9.778-5.952 15.04-4.289a14.168 14.168 0 0 1 5.008-14.824c4.62-3.6 10.78-3.875 15.588-1.191a14.177 14.177 0 0 1 7.888-13.52c5.253-2.588 11.348-1.624 15.533 1.984.802-5.462 4.782-10.185 10.459-11.658 5.669-1.475 11.433.708 14.796 5.074 1.9-5.167 6.737-8.985 12.596-9.277 5.848-.302 11.044 2.985 13.464 7.927 2.892-4.686 8.389-7.464 14.18-6.585 5.801.87 10.252 5.14 11.63 10.478 3.78-4.026 9.732-5.622 15.23-3.6a14.19 14.19 0 0 1 9.27 12.631c4.506-3.174 10.666-3.543 15.645-.444 4.978 3.088 7.369 8.769 6.519 14.22 5.055-2.202 11.158-1.323 15.409 2.703a14.173 14.173 0 0 1 3.534 15.24c5.394-1.143 11.196.934 14.559 5.745 3.365 4.8 3.336 10.958.415 15.637a14.192 14.192 0 0 1 13.105 8.55c2.323 5.386 1.048 11.422-2.759 15.42 5.415 1.077 9.921 5.281 11.11 11.026 1.181 5.745-1.285 11.385-5.81 14.532 5.065 2.145 8.635 7.162 8.644 13.02v.312c0 5.857-3.554 10.884-8.616 13.047 4.534 3.127 7.02 8.769 5.838 14.512-1.172 5.745-5.669 9.958-11.082 11.053 3.816 3.987 5.112 10.014 2.796 15.41-2.316 5.386-7.578 8.608-13.097 8.578 2.928 4.677 2.978 10.837-.378 15.645a14.17 14.17 0 0 1-14.539 5.773 14.188 14.188 0 0 1-3.504 15.25c-4.253 4.036-10.347 4.922-15.4 2.74.859 5.443-1.522 11.131-6.493 14.237-4.97 3.108-11.13 2.748-15.645-.415-.255 5.518-3.732 10.61-9.23 12.65h-.011c-5.499 2.033-11.451.445-15.24-3.57a14.178 14.178 0 0 1-11.603 10.514c-5.791.878-11.299-1.88-14.199-6.567-2.305 4.754-7.18 7.985-12.735 7.985-.229 0-.465-.01-.702-.02z"/>
    <ellipse cx="384.05" cy="257.261" fill="#338af3" rx="94.48" ry="94.479"/>
    <path fill="#acabb1" d="M404.735 225.197c4.64-3.442 7.663-8.946 7.663-15.17v-9.448c0-10.437-8.46-18.895-18.895-18.895h-18.896c-10.437 0-18.895 8.46-18.895 18.895v9.449c0 6.223 3.022 11.727 7.663 15.17l-17.112 173.79s9.448 9.45 37.792 9.45 37.793-9.45 37.793-9.45z"/>
    <path fill="#f0f0f0" d="M427.032 313.957l-42.981-31.224-42.976 31.224 16.415-50.524-42.977-31.226h53.124l16.414-50.523 16.416 50.523h53.127l-42.978 31.226z"/>
</svg>
