<?xml version="1.0" encoding="UTF-8" standalone="no"?>
<svg
   xmlns:dc="http://purl.org/dc/elements/1.1/"
   xmlns:cc="http://creativecommons.org/ns#"
   xmlns:rdf="http://www.w3.org/1999/02/22-rdf-syntax-ns#"
   xmlns:svg="http://www.w3.org/2000/svg"
   xmlns="http://www.w3.org/2000/svg"
   xmlns:sodipodi="http://sodipodi.sourceforge.net/DTD/sodipodi-0.dtd"
   xmlns:inkscape="http://www.inkscape.org/namespaces/inkscape"
   viewBox="0 0 512 512"
   version="1.1"
   id="svg12"
   sodipodi:docname="mp_round.svg"
   inkscape:version="1.0.1 (3bc2e813f5, 2020-09-07)">
  <metadata
     id="metadata18">
    <rdf:RDF>
      <cc:Work
         rdf:about="">
        <dc:format>image/svg+xml</dc:format>
        <dc:type
           rdf:resource="http://purl.org/dc/dcmitype/StillImage" />
      </cc:Work>
    </rdf:RDF>
  </metadata>
  <defs
     id="defs16" />
  <sodipodi:namedview
     pagecolor="#ffffff"
     bordercolor="#666666"
     borderopacity="1"
     objecttolerance="10"
     gridtolerance="10"
     guidetolerance="10"
     inkscape:pageopacity="0"
     inkscape:pageshadow="2"
     inkscape:window-width="640"
     inkscape:window-height="480"
     id="namedview14"
     showgrid="false"
     inkscape:current-layer="svg12" />
  <circle
     cx="256"
     cy="256"
     r="256"
     fill="#338af3"
     id="circle2" />
  <path
     fill="#f0f0f0"
     d="m 248.4155,393.53303 c -6.21373,-0.30074 -11.35508,-4.33908 -13.3693,-9.82168 -3.55752,4.63982 -9.67131,6.97548 -15.69416,5.42227 -6.03365,-1.5532 -10.25207,-6.54418 -11.12457,-12.33742 -4.43002,3.82764 -10.88417,4.86942 -16.46581,2.13487 -5.59245,-2.74625 -8.71868,-8.48997 -8.39813,-14.33274 -5.10083,2.86601 -11.63511,2.58598 -16.55586,-1.22275 -4.91084,-3.80874 -6.82511,-10.05219 -5.34213,-15.71487 a 15.005345,15.005345 0 0 1 -15.96519,-4.52007 c -4.05905,-4.71004 -4.68123,-11.21461 -2.09435,-16.4559 -5.81305,0.62038 -11.70534,-2.20511 -14.73252,-7.63639 -3.03709,-5.43217 -2.33477,-11.93584 1.26237,-16.55765 -5.82295,-0.56095 -11.03453,-4.52006 -12.89838,-10.45287 -1.87375,-5.9328 0.13056,-12.16635 4.59029,-15.96518 -5.59245,-1.72519 -9.882,-6.65584 -10.51319,-12.83806 -0.63119,-6.18312 2.57608,-11.86561 7.69671,-14.692 -5.12153,-2.80658 -8.34861,-8.48817 -7.73723,-14.66229 h 0.01 c 0.61138,-6.19392 4.90093,-11.13357 10.48258,-12.87857 -4.45974,-3.78803 -6.48385,-10.01167 -4.62992,-15.94537 1.85395,-5.94271 7.05472,-9.91173 12.87858,-10.49339 -3.59804,-4.6101 -4.31927,-11.11557 -1.3029,-16.55585 3.01638,-5.43218 8.90957,-8.26847 14.73253,-7.6571 a 15.030556,15.030556 0 0 1 2.05473,-16.47571 c 4.03924,-4.71995 10.37273,-6.31368 15.95528,-4.54978 a 15.024253,15.024253 0 0 1 5.31152,-15.72387 c 4.90094,-3.81954 11.43522,-4.11037 16.53605,-1.26418 -0.33045,-5.84186 2.78587,-11.58558 8.36841,-14.34174 5.57265,-2.74625 12.03669,-1.72338 16.47572,2.10426 0.85179,-5.79144 5.07111,-10.80223 11.09396,-12.36714 6.01294,-1.56312 12.12673,0.75184 15.69416,5.38176 2.01422,-5.48171 7.14566,-9.53086 13.35939,-9.8415 6.20383,-0.31964 11.71525,3.16675 14.28142,8.40984 3.0668,-4.97117 8.89966,-7.91731 15.04316,-6.98539 6.15341,0.92202 10.87426,5.45109 12.33743,11.11468 4.00863,-4.27065 10.32231,-5.96342 16.15517,-3.81955 5.84276,2.15469 9.55065,7.54635 9.83158,13.39902 4.78028,-3.36664 11.31456,-3.75832 16.59637,-0.47092 5.28181,3.2775 7.81737,9.30034 6.91516,15.08278 5.36194,-2.33476 11.8359,-1.40284 16.34605,2.86601 a 15.035058,15.035058 0 0 1 3.74841,16.16507 c 5.72211,-1.21285 11.87642,0.99225 15.44385,6.09308 3.56743,5.09092 3.53771,11.6252 0.4412,16.58647 a 15.053967,15.053967 0 0 1 13.90054,9.06984 c 2.46532,5.7122 1.11201,12.11682 -2.92633,16.35596 5.74282,1.14262 10.5231,5.60235 11.78547,11.69543 1.25247,6.09308 -1.36322,12.07631 -6.16331,15.41413 5.37185,2.27624 9.15988,7.59677 9.16978,13.8105 v 0.33135 c 0,6.21284 -3.76822,11.54507 -9.14007,13.84022 4.8109,3.31801 7.4464,9.30034 6.19393,15.39342 -1.24257,6.09308 -6.01294,10.56362 -11.75576,11.72605 4.04914,4.22923 5.42227,10.62304 2.96685,16.34605 -2.45542,5.71221 -8.03797,9.13017 -13.89064,9.09955 3.10642,4.96127 3.15684,11.49555 -0.40068,16.59638 a 15.030556,15.030556 0 0 1 -15.42404,6.12369 15.048565,15.048565 0 0 1 -3.71779,16.17588 c -4.51016,4.28055 -10.97421,5.22148 -16.33615,2.90652 0.91211,5.77254 -1.61354,11.80619 -6.88544,15.10349 -5.27191,3.29731 -11.80619,2.91553 -16.59637,-0.4412 -0.27103,5.85267 -3.95911,11.25514 -9.79107,13.41972 h -0.01 c -5.83286,2.15469 -12.14654,0.47182 -16.16507,-3.78712 -1.44336,5.67258 -6.15341,10.21155 -12.30681,11.15428 -6.14351,0.93193 -11.98627,-1.99441 -15.06297,-6.96557 -2.44552,5.0414 -7.61658,8.46836 -13.50977,8.46836 -0.25121,0.004 -0.50153,-0.006 -0.75274,-0.0171 z"
     id="path4"
     style="stroke-width:0.900411" />
  <circle
     cx="255.68182"
     cy="248.39583"
     r="100.21931"
     fill="#338af3"
     id="circle6"
     style="stroke-width:0.900411" />
  <path
     fill="#acabb1"
     d="m 277.61852,214.37741 c 4.92345,-3.65207 8.12891,-9.48943 8.12891,-16.09124 V 188.2646 c 0,-11.07055 -8.97349,-20.04405 -20.04404,-20.04405 h -20.04315 c -11.07055,0 -20.04404,8.9735 -20.04404,20.04405 v 10.02157 c 0,6.60181 3.20546,12.43917 8.12891,16.09124 L 215.59463,398.7248 c 0,0 10.02157,10.02337 40.08808,10.02337 30.06652,0 40.08809,-10.02337 40.08809,-10.02337 z"
     id="path8"
     style="stroke-width:0.900411" />
  <path
     fill="#f0f0f0"
     d="m 255.68091,168.22055 17.41215,53.59065 h 56.3522 l -45.58779,33.12431 17.41124,53.59245 -45.5878,-33.12161 -45.58959,33.12161 17.41484,-53.59245 -45.58869,-33.12431 h 56.3504 z"
     id="path10"
     style="stroke-width:0.900411" />
</svg>
