<svg xmlns="http://www.w3.org/2000/svg" viewBox="0 0 512 512">
    <path fill="#338af3" d="M0 0h512v512H0z"/>
    <path fill="#f0f0f0" d="M249.202 379.307c-5.571-.27-10.18-3.89-11.987-8.805-3.19 4.16-8.67 6.254-14.072 4.86-5.408-1.392-9.192-5.867-9.973-11.06-3.972 3.432-9.758 4.367-14.763 1.914a13.49 13.49 0 0 1-7.53-12.85 13.469 13.469 0 0 1-14.843-1.095 13.497 13.497 0 0 1-4.79-14.089 13.454 13.454 0 0 1-14.314-4.052 13.468 13.468 0 0 1-1.878-14.753 13.483 13.483 0 0 1-13.209-6.848c-2.722-4.87-2.094-10.702 1.133-14.843-5.221-.503-9.892-4.053-11.564-9.372-1.68-5.32.116-10.908 4.115-14.315a13.469 13.469 0 0 1-9.425-11.51c-.567-5.545 2.309-10.64 6.9-13.173-4.591-2.517-7.483-7.61-6.936-13.146h.008c.548-5.553 4.394-9.982 9.4-11.546-3.998-3.396-5.814-8.977-4.152-14.296 1.663-5.328 6.325-8.887 11.547-9.408-3.226-4.133-3.873-9.965-1.169-14.843 2.705-4.87 7.988-7.414 13.21-6.865a13.474 13.474 0 0 1 1.841-14.772c3.622-4.232 9.301-5.66 14.305-4.08a13.47 13.47 0 0 1 4.762-14.096c4.394-3.424 10.252-3.685 14.826-1.133a13.487 13.487 0 0 1 7.503-12.858c4.995-2.463 10.79-1.546 14.772 1.886.763-5.193 4.547-9.685 9.947-11.089 5.39-1.401 10.872.674 14.07 4.826 1.807-4.915 6.407-8.545 11.978-8.825 5.563-.287 10.505 2.84 12.804 7.54 2.75-4.457 7.98-7.099 13.487-6.263 5.517.825 9.749 4.887 11.06 9.965 3.594-3.829 9.256-5.348 14.485-3.424a13.491 13.491 0 0 1 8.815 12.013c4.286-3.02 10.144-3.37 14.879-.422 4.736 2.938 7.008 8.339 6.199 13.524 4.807-2.094 10.61-1.259 14.655 2.57a13.479 13.479 0 0 1 3.36 14.493c5.13-1.087 10.648.89 13.846 5.464 3.199 4.564 3.172 10.422.396 14.87a13.499 13.499 0 0 1 12.462 8.133c2.21 5.122.998 10.863-2.623 14.664a13.472 13.472 0 0 1 10.567 10.485c1.123 5.464-1.223 10.827-5.527 13.82 4.817 2.04 8.213 6.812 8.22 12.382v.296c0 5.571-3.378 10.351-8.193 12.409 4.312 2.974 6.676 8.338 5.552 13.801-1.114 5.464-5.39 9.471-10.54 10.513 3.63 3.792 4.86 9.524 2.66 14.654-2.201 5.122-7.205 8.186-12.453 8.158 2.785 4.448 2.831 10.306-.36 14.88a13.48 13.48 0 0 1-13.829 5.49 13.49 13.49 0 0 1-3.333 14.503c-4.043 3.836-9.838 4.68-14.645 2.605.818 5.175-1.447 10.585-6.174 13.54-4.727 2.958-10.584 2.614-14.879-.396-.243 5.247-3.549 10.092-8.778 12.031h-.008a13.491 13.491 0 0 1-14.494-3.395 13.485 13.485 0 0 1-11.034 10c-5.508.835-10.746-1.789-13.505-6.245-2.192 4.52-6.83 7.593-12.112 7.593a10.06 10.06 0 0 1-.672-.015z"/>
    <circle cx="255.714" cy="249.178" r="89.849" fill="#338af3"/>
    <path fill="#acabb1" d="M275.384 218.682c4.414-3.274 7.288-8.51 7.288-14.428v-8.985c0-9.925-8.045-17.971-17.97-17.971H246.73c-9.924 0-17.97 8.046-17.97 17.971v8.985c0 5.919 2.873 11.153 7.287 14.428L219.774 383.96s8.986 8.986 35.942 8.986 35.942-8.986 35.942-8.986z"/>
    <path fill="#f0f0f0" d="M255.715 177.3l15.611 48.047h50.525l-40.873 29.698 15.61 48.048-40.873-29.695-40.874 29.695 15.614-48.048-40.873-29.698h50.521z"/>
</svg>
