<svg xmlns="http://www.w3.org/2000/svg" viewBox="0 0 512 512">
    <circle cx="256" cy="256" r="256" fill="#496e2d"/>
    <g fill="#ffda44">
        <path d="M256 316.268c-64.626 0-118.616-45.42-131.862-106.072A135.5 135.5 0 0 0 121 239.125c0 74.562 60.44 135 135 135s135-60.44 135-135a135.61 135.61 0 0 0-3.138-28.93C374.615 270.85 320.626 316.268 256 316.268z"/>
        <path d="M288.898 239.126l-32.9-23.903-32.897 23.903 12.567-38.675-32.898-23.901h40.663L256 137.875l12.565 38.675h40.667l-32.899 23.901z"/>
    </g>
    <path fill="#a2001d" d="M256 0a256 256 0 0 0-151.986 50h303.972A256 256 0 0 0 256 0zm0 512a256 256 0 0 0 151.986-50H104.014A256 256 0 0 0 256 512z"/>
</svg>
