<svg xmlns="http://www.w3.org/2000/svg" width="768" height="512" viewBox="0 0 768 512">
    <path fill="#496e2d" d="M0 0h768v512H0z"/>
    <g fill="#ffda44">
        <path d="M384 320.277c-68.934 0-126.522-48.447-140.65-113.143a144.43 144.43 0 0 0-3.35 30.858c0 79.53 64.469 143.998 144 143.998s144-64.469 144-143.998c0-10.599-1.177-20.913-3.35-30.858C510.522 271.83 452.934 320.277 384 320.277z"/>
        <path d="M419.091 237.993l-35.093-25.496-35.09 25.496 13.405-41.254-35.091-25.493h43.372l13.404-41.253 13.403 41.253h43.377l-35.091 25.493z"/>
    </g>
    <path fill="#a2001d" d="M0 0h768v50H0zm0 462h768v50H0z"/>
</svg>
