<svg xmlns="http://www.w3.org/2000/svg" viewBox="0 0 512 512">
    <path fill="#496e2d" d="M0 0h512v512H0z"/>
    <g fill="#ffda44">
        <path d="M256 322.964c-71.807 0-131.794-50.465-146.512-117.859A150.508 150.508 0 0 0 106 237.25c0 82.845 67.154 150 150 150s150-67.155 150-150a150.52 150.52 0 0 0-3.488-32.145C387.794 272.498 327.807 322.964 256 322.964z"/>
        <path d="M255.999 210.692l-36.554 26.558 13.964-42.971-36.554-26.558h45.182L256 124.75l13.96 42.971h45.186L278.59 194.28l13.961 42.971z"/>
    </g>
    <path fill="#a2001d" d="M0 0h512v50H0zm0 462h512v50H0z"/>
</svg>
