<svg xmlns="http://www.w3.org/2000/svg" width="768" height="512" viewBox="0 0 768 512">
    <path fill="#0052b4" d="M0 .005h768v511.996H0z"/>
    <path fill="#338af3" d="M501.333 159.996v117.33c0 57.152 74.665 74.666 74.665 74.666s74.667-17.512 74.667-74.667v-117.33z"/>
    <path fill="#a2001d" d="M501.333 277.325c0 57.153 74.665 74.667 74.665 74.667s74.667-17.512 74.667-74.667z"/>
    <path d="M565.332 213.329h-21.333v21.334h21.333v63.996h21.333v-63.996h21.336v-21.334h-21.336v-21.334h-21.333z"/>
    <path fill="#f0f0f0" d="M384 172.518h-88.655L384 221.769v34.225h-40.02l-110.241-61.238v61.238h-83.478v-72.858L19.116 255.994H0v-45.83l67.75-37.646H0V83.48h88.655L0 34.213V.004h40.02l110.241 61.237V.004h83.478v72.857L364.884.004H384v45.83L316.25 83.48H384z"/>
    <path fill="#d80027" d="M0 151.995h168v103.999h48V151.995h168v-47.999H216V0h-48v103.996H0z"/>
    <path fill="#0052b4" d="M233.739 172.518L384 255.994v-23.605l-107.77-59.871z"/>
    <path fill="#f0f0f0" d="M233.739 172.518L384 255.994v-23.605l-107.77-59.871z"/>
    <path fill="#d80027" d="M233.739 172.518L384 255.994v-23.605l-107.77-59.871zm-83.478 0h-42.492L0 232.389v23.605z"/>
    <path fill="#0052b4" d="M150.261 83.476L0 0v23.605l107.77 59.871z"/>
    <path fill="#f0f0f0" d="M150.261 83.476L0 0v23.605l107.77 59.871z"/>
    <path fill="#d80027" d="M150.261 83.476L0 0v23.605l107.77 59.871zm83.478 0h42.492L384 23.605V0z"/>
</svg>
