<svg xmlns="http://www.w3.org/2000/svg" viewBox="0 0 512 512">
    <path fill="#0052b4" d="M0 0h512v512H0z"/>
    <path fill="#338af3" d="M311.334 168v116.286c0 56.645 74 74.001 74 74.001s74-17.356 74-74V168z"/>
    <path fill="#a2001d" d="M311.334 284.286c0 56.645 74 74.001 74 74.001s74-17.356 74-74z"/>
    <path d="M417.049 220.86h-21.145v-21.145h-21.142v21.144H353.62v21.142h21.143v63.428h21.142v-63.428h21.145z"/>
    <path fill="#f0f0f0" d="M256 0v48.896l-40.147 40.147H256v77.914h-52.536L256 219.492V256h-23.719l-65.324-65.336V256H89.043v-77.724L11.331 256H0v-48.896l40.147-40.147H0V89.043h52.536L0 36.508V0h23.719l65.324 65.336V0h77.914v77.724L244.669 0z"/>
    <path fill="#d80027" d="M0 152.001h104.001V256h48V152.001H256v-48H152.001V0h-48v104.001H0z"/>
    <path fill="#0052b4" d="M166.957 166.957L256 256v-25.18l-63.863-63.863z"/>
    <path fill="#f0f0f0" d="M166.957 166.957L256 256v-25.18l-63.863-63.863z"/>
    <path fill="#d80027" d="M166.957 166.957L256 256v-25.18l-63.863-63.863zm-103.095.002L0 230.821V256l89.041-89.041z"/>
    <path fill="#0052b4" d="M89.043 89.043L0 0v25.18l63.863 63.863z"/>
    <path fill="#f0f0f0" d="M89.043 89.043L0 0v25.18l63.863 63.863z"/>
    <path fill="#d80027" d="M89.043 89.043L0 0v25.18l63.863 63.863zm103.095-.002L256 25.179V0l-89.041 89.041z"/>
</svg>
