<svg xmlns="http://www.w3.org/2000/svg" width="768" height="512" viewBox="0 0 768 512">
    <path fill="#d80027" d="M0 0h768v512H0z"/>
    <path fill="#496e2d" d="M184 133.565h400v244.872H184z"/>
    <path fill="#f0f0f0" d="M425.226 328.339c-39.956 0-72.348-32.39-72.348-72.347 0-39.957 32.391-72.347 72.348-72.347 12.459 0 24.18 3.15 34.414 8.695-16.054-15.7-38.011-25.39-62.24-25.39-49.176 0-89.043 39.865-89.043 89.042s39.866 89.042 89.042 89.042c24.231 0 46.187-9.692 62.241-25.39-10.233 5.547-21.954 8.695-34.414 8.695z"/>
</svg>
