<svg xmlns="http://www.w3.org/2000/svg" viewBox="0 0 512 512">
    <path fill="#d80027" d="M0 256c0 31.314 5.633 61.31 15.923 89.043L256 356.174l240.077-11.13C506.368 317.31 512 287.314 512 256s-5.632-61.31-15.923-89.043L256 155.826l-240.077 11.13C5.633 194.69 0 224.686 0 256z"/>
    <path d="M256 0C145.929 0 52.094 69.472 15.923 166.957h480.155C459.906 69.472 366.071 0 256 0z"/>
    <path fill="#6da544" d="M496.077 345.043H15.923C52.094 442.527 145.929 512 256 512s203.906-69.473 240.077-166.957z"/>
    <path fill="#d80027" d="M183.192 91.703l19.583 35.615L166 144.616h180l-36.774-17.298 19.583-35.615-39.933 7.64L283.816 59 256 88.67 228.185 59l-5.06 40.343z"/>
</svg>
