<svg xmlns="http://www.w3.org/2000/svg" width="768" height="512" viewBox="0 0 768 512">
    <path fill="#d80027" d="M255.999 511.988H768V0H0v511.988z"/>
    <path fill="#6da544" d="M0 .005h255.994v511.996H0z"/>
    <path fill="#f0f0f0" d="M255.994.005h255.994v511.996H255.994z"/>
    <path fill="#6da544" d="M312 255.994c0 39.763 32.236 71.999 72 71.999s72-32.236 72-71.999v-24H312z"/>
    <path fill="#d57800" d="M480 207.995h-72c0-13.254-10.746-24-24-24s-24 10.746-24 24h-72c0 13.254 11.546 24 24.8 24h-.8c0 13.253 10.746 23.999 24 23.999 0 13.254 10.746 24 24 24h48c13.254 0 24-10.746 24-24 13.254 0 24-10.746 24-24h-.8c13.254 0 24.8-10.744 24.8-24z"/>
</svg>
