<svg xmlns="http://www.w3.org/2000/svg" width="768" height="512" viewBox="0 0 768 512">
    <path fill="#f0f0f0" d="M0 0h768v512H0z"/>
    <path fill="#d80027" d="M0 113h768v60H0zm0 113h768v59.999H0zm0 113h768v59.999H0zm0 113h768v60H0zM0 0h768v60H0z"/>
    <path fill="#0052b4" d="M0 0h377.873v286H0z"/>
    <g fill="#ffda44">
        <path d="M207.226 208.458c-36.278 0-65.685-29.409-65.685-65.684 0-36.276 29.409-65.684 65.685-65.684 11.31 0 21.952 2.86 31.245 7.894-14.576-14.254-34.51-23.052-56.51-23.052-44.647 0-80.842 36.194-80.842 80.842 0 44.647 36.196 80.842 80.843 80.842 21.997 0 41.933-8.799 56.51-23.052-9.293 5.033-19.936 7.894-31.246 7.894z"/>
        <path d="M199.53 139.197l-11.797-24.32 26.338 6.085 11.664-24.386 11.662 24.386 26.335-6.085-11.793 24.32 21.18 16.797-26.37 5.944.074 27.03-21.088-16.912-21.088 16.912.073-27.03-26.37-5.944z"/>
    </g>
</svg>
