<svg xmlns="http://www.w3.org/2000/svg" viewBox="0 0 512 512">
    <path fill="#f0f0f0" d="M0 0h512v512H0z"/>
    <path fill="#d80027" d="M0 113h512v60H0zm0 113h512v60H0zm0 113h512v60H0zm0 113h512v60H0zM0 0h512v60H0z"/>
    <path fill="#0052b4" d="M0 0h270v286H0z"/>
    <g fill="#ffda44">
        <path d="M152.367 195.106c-29.528 0-53.466-23.938-53.466-53.466 0-29.528 23.938-53.466 53.466-53.466 9.207 0 17.868 2.328 25.433 6.427C165.935 83 149.71 75.838 131.804 75.838 95.462 75.838 66 105.298 66 141.64c0 36.342 29.462 65.802 65.802 65.802 17.906 0 34.132-7.161 45.996-18.763a53.226 53.226 0 0 1-25.431 6.427z"/>
        <path d="M167.432 104.038l9.492 19.85 21.437-4.953-9.6 19.796L206 152.4l-21.464 4.84.061 22.001-17.165-13.765-17.165 13.765.059-22.002-21.464-4.838 17.24-13.671-9.6-19.796 21.436 4.954z"/>
    </g>
</svg>
