<?xml version="1.0" encoding="UTF-8" standalone="no"?>
<svg
   xmlns:dc="http://purl.org/dc/elements/1.1/"
   xmlns:cc="http://creativecommons.org/ns#"
   xmlns:rdf="http://www.w3.org/1999/02/22-rdf-syntax-ns#"
   xmlns:svg="http://www.w3.org/2000/svg"
   xmlns="http://www.w3.org/2000/svg"
   xmlns:sodipodi="http://sodipodi.sourceforge.net/DTD/sodipodi-0.dtd"
   xmlns:inkscape="http://www.inkscape.org/namespaces/inkscape"
   viewBox="0 0 512 512"
   version="1.1"
   id="svg14"
   sodipodi:docname="my_square.svg"
   inkscape:version="1.0.1 (3bc2e813f5, 2020-09-07)">
  <metadata
     id="metadata20">
    <rdf:RDF>
      <cc:Work
         rdf:about="">
        <dc:format>image/svg+xml</dc:format>
        <dc:type
           rdf:resource="http://purl.org/dc/dcmitype/StillImage" />
      </cc:Work>
    </rdf:RDF>
  </metadata>
  <defs
     id="defs18" />
  <sodipodi:namedview
     pagecolor="#ffffff"
     bordercolor="#666666"
     borderopacity="1"
     objecttolerance="10"
     gridtolerance="10"
     guidetolerance="10"
     inkscape:pageopacity="0"
     inkscape:pageshadow="2"
     inkscape:window-width="640"
     inkscape:window-height="480"
     id="namedview16"
     showgrid="false"
     inkscape:current-layer="svg14" />
  <path
     fill="#f0f0f0"
     d="M0 0h512v512H0z"
     id="path2" />
  <path
     fill="#d80027"
     d="M0 113h512v60H0zm0 113h512v60H0zm0 113h512v60H0zm0 113h512v60H0zM0 0h512v60H0z"
     id="path4" />
  <path
     fill="#0052b4"
     d="M0 0h270v286H0z"
     id="path6" />
  <g
     fill="#ffda44"
     id="g12"
     transform="matrix(1.0857143,0,0,1.0857143,-11.657143,-10.5004)">
    <path
       d="m 152.367,195.106 c -29.528,0 -53.466,-23.938 -53.466,-53.466 0,-29.528 23.938,-53.466 53.466,-53.466 9.207,0 17.868,2.328 25.433,6.427 C 165.935,83 149.71,75.838 131.804,75.838 95.462,75.838 66,105.298 66,141.64 c 0,36.342 29.462,65.802 65.802,65.802 17.906,0 34.132,-7.161 45.996,-18.763 a 53.226,53.226 0 0 1 -25.431,6.427 z"
       id="path8" />
    <path
       d="m 167.432,104.038 9.492,19.85 21.437,-4.953 -9.6,19.796 17.239,13.669 -21.464,4.84 0.061,22.001 -17.165,-13.765 -17.165,13.765 0.059,-22.002 -21.464,-4.838 17.24,-13.671 -9.6,-19.796 21.436,4.954 z"
       id="path10" />
  </g>
</svg>
