<svg xmlns="http://www.w3.org/2000/svg" width="768" height="512" viewBox="0 0 768 512">
    <path fill="#f0f0f0" d="M0 .009h768v511.983H0z"/>
    <path fill="#ffda44" d="M0 356.174h768v155.818H0z"/>
    <path fill="#496e2d" d="M0 .009h768V156.78H0z"/>
    <path d="M0 188.317h768V322.8H0z"/>
    <path fill="#a2001d" d="M0 512V0l384 256.01z"/>
    <path fill="#ffda44" d="M184.547 347.302l-59.331-43.107-59.333 43.107 22.665-69.748-59.331-43.108h73.338l22.66-69.746 22.661 69.746h73.341l-59.331 43.108z"/>
    <path fill="#f0f0f0" d="M58.902 256.001h132.63v60.866H58.902z"/>
    <path d="M39.432 186.217c23.329 23.289 46.656 46.58 69.986 69.867l-69.97 69.969 15.827 15.615c23.314-23.274 46.629-46.546 69.942-69.82l69.943 69.82 15.828-15.615-69.972-69.969c23.33-23.288 46.658-46.578 69.988-69.867l-15.861-15.858-69.926 69.922L55.29 170.36l-15.86 15.858z"/>
</svg>
