<svg xmlns="http://www.w3.org/2000/svg" width="768" height="512" viewBox="0 0 768 512">
    <path fill="#f0f0f0" d="M0 0h768v512H0z"/>
    <path fill="#338af3" d="M0 0h768v170.666H0zm0 341.334h768V512H0z"/>
    <path fill="#ffda44" d="M384 193.67c-34.423 0-62.33 27.904-62.33 62.33s27.905 62.33 62.33 62.33c34.423 0 62.33-27.904 62.33-62.33s-27.906-62.33-62.33-62.33zm0 97.948c-19.671 0-35.617-15.947-35.617-35.618 0-19.671 15.946-35.618 35.617-35.618s35.617 15.947 35.617 35.618c0 19.671-15.946 35.618-35.617 35.618z"/>
    <path fill="#0052b4" d="M425.127 282.714l-10.283-17.81L384 256l-30.844 8.904-10.283 17.81z"/>
    <path fill="#338af3" d="M384 211.479l-20.564 35.617L384 256l20.564-8.904z"/>
    <path fill="#6da544" d="M353.156 264.904h61.688l-10.28-17.808h-41.128z"/>
</svg>
