<svg xmlns="http://www.w3.org/2000/svg" viewBox="0 0 512 512">
    <circle cx="256" cy="256" r="256" fill="#f0f0f0"/>
    <path fill="#338af3" d="M256 0C154.506 0 66.81 59.065 25.402 144.696h461.195C445.19 59.065 357.493 0 256 0zm0 512c101.493 0 189.19-59.065 230.598-144.696H25.402C66.81 452.935 154.506 512 256 512z"/>
    <path fill="#ffda44" d="M256 166c-49.705 0-90 40.295-90 90s40.295 90 90 90 90-40.295 90-90-40.295-90-90-90zm0 141.429c-28.402 0-51.429-23.024-51.429-51.429s23.025-51.429 51.429-51.429c28.404 0 51.429 23.024 51.429 51.429S284.402 307.429 256 307.429z"/>
    <path fill="#0052b4" d="M300.54 268.857L256 256l-44.54 12.857-14.845 25.714h118.77z"/>
    <path fill="#338af3" d="M256 191.714l-29.693 51.43L256 256l29.693-12.857z"/>
    <path fill="#6da544" d="M211.46 268.857h89.08l-14.847-25.714h-59.386z"/>
</svg>
