<svg xmlns="http://www.w3.org/2000/svg" viewBox="0 0 512 512">
    <circle cx="256" cy="256" r="256" fill="#f0f0f0"/>
    <path fill="#0052b4" d="M510.497 283.826l-.006-.008-.001.008zm-.007 0l.001-.008L229.746 1.331a255.168 255.168 0 0 0-37.109 6.574C81.898 36.1 0 256 0 256s358.398 239.835 399.285 212.164a256.89 256.89 0 0 0 23.493-17.953L256.395 283.826H510.49z"/>
    <path fill="#d80027" d="M445.217 256L196.245 7.029C83.688 33.946 0 135.192 0 256c0 141.384 114.616 256 256 256 53.629 0 103.397-16.502 144.529-44.689L189.217 256h256z"/>
    <path fill="#f0f0f0" d="M243.472 377.993l-31.265-14.706 16.649-30.279-33.95 6.495-4.302-34.298-23.647 25.225-23.647-25.225-4.303 34.298-33.949-6.496 16.649 30.28-31.266 14.706 31.266 14.705-16.649 30.28 33.951-6.494 4.3 34.296 23.648-25.225 23.647 25.225 4.302-34.296 33.949 6.495-16.649-30.279zm-70.195-162.355c46.965 0 85.035-38.07 85.035-85.036a91.097 91.097 0 0 1-38.212 44.973l-7.259-5.408 14.232-10.674-17.22-4.412 9.108-15.442-17.79 2.562 2.633-17.647-15.441 9.25-4.412-17.434-10.674 14.232-10.674-14.232-4.483 17.363-15.37-9.108 2.632 17.79-17.79-2.633 9.251 15.441-17.363 4.412 14.232 10.674-7.116 5.48c-16.865-9.963-30.598-25.333-38.284-44.973 0 46.965 38.07 85.035 85.036 85.035z"/>
</svg>
