<svg xmlns="http://www.w3.org/2000/svg" width="768" height="512" viewBox="0 0 768 512">
    <path fill="#f0f0f0" d="M0 0h768v512H0z"/>
    <path fill="#0052b4" d="M406.779 512H0V0l420.628 262.13H131.415z"/>
    <path fill="#d80027" d="M367.154 496.701L91.788 246.831h275.365L15.298 27.562V496.7z"/>
    <path fill="#f0f0f0" d="M65.454 368.798l-24.518 11.533 24.518 11.53-13.056 23.744 26.623-5.09 3.373 26.893 18.544-19.781 18.542 19.781 3.375-26.892 26.621 5.091-13.054-23.744 24.514-11.532-24.514-11.533 13.056-23.743-26.623 5.091-3.375-26.894-18.542 19.781-18.544-19.781-3.374 26.894-26.622-5.093zm37.041-149.802c36.467 0 66.028-29.56 66.028-66.027a70.734 70.734 0 0 1-29.671 34.92l-5.636-4.2 11.05-8.287-13.37-3.426 7.072-11.99-13.814 1.989 2.045-13.703-11.99 7.183-3.426-13.537-8.288 11.05-8.288-11.05-3.481 13.482-11.935-7.073 2.045 13.814-13.814-2.045 7.183 11.99-13.482 3.426 11.051 8.288-5.525 4.255c-13.095-7.736-23.76-19.67-29.726-34.92 0 36.467 29.56 66.027 66.027 66.027z"/>
</svg>
