<svg xmlns="http://www.w3.org/2000/svg" width="768" height="512" viewBox="0 0 768 512">
    <path fill="#ffda44" d="M0 .007h768v511.992H0z"/>
    <path fill="#f0f0f0" d="M0 .007h384v255.988H0z"/>
    <g fill="#d80027">
        <path d="M0 151.997h168v103.998h48V151.997h168v-47.999H216V.001h-48v103.997H0z"/>
        <path d="M0 0v22.624l86.066 57.375H120z"/>
    </g>
    <path fill="#0052b4" d="M0 79.999h69.103L0 33.932zm144-6.629L33.942.004H144z"/>
    <path fill="#d80027" d="M384 0v22.624l-86.066 57.375H264z"/>
    <path fill="#0052b4" d="M384 79.999h-69.103L384 33.932zM240 73.37L350.058.004H240z"/>
    <path fill="#d80027" d="M0 0v22.624l86.066 57.375H120z"/>
    <path fill="#0052b4" d="M0 79.999h69.103L0 33.932zm144-6.629L33.942.004H144z"/>
    <path fill="#d80027" d="M384 0v22.624l-86.066 57.375H264z"/>
    <path fill="#0052b4" d="M384 79.999h-69.103L384 33.932zM240 73.37L350.058.004H240z"/>
    <path fill="#d80027" d="M0 255.995v-22.622l86.066-57.376H120z"/>
    <path fill="#0052b4" d="M0 175.997h69.103L0 222.065zm144 6.628L33.942 255.99H144z"/>
    <path fill="#d80027" d="M384 255.995v-22.622l-86.066-57.376H264z"/>
    <g fill="#0052b4" transform="matrix(1.5 0 0 1.49996 0 -127.99)">
        <path d="M256 202.663h-46.069L256 233.376zm-96 4.419l73.372 48.912H160z"/>
        <circle cx="128" cy="170.66" r="22.627"/>
    </g>
    <path fill="#ffda44" d="M207.595 151.997L192 140.667l-15.597 11.33 5.958-18.332-15.597-11.334h19.28L192 103.998l5.955 18.333h19.281l-15.597 11.334zm-6.309 78.289L192 223.54l-9.287 6.747 3.547-10.917-9.285-6.746h11.478L192 201.706l3.546 10.917h11.48l-9.286 6.746zm0-175.996L192 47.543l-9.287 6.747 3.547-10.917-9.285-6.747h11.478L192 25.71l3.546 10.917h11.48l-9.286 6.747zm104.897 88l-9.287-6.747-9.286 6.746 3.547-10.918-9.286-6.748h11.478l3.548-10.915 3.547 10.915h11.48l-9.288 6.748zm-209.795 0l-9.285-6.747-9.286 6.746 3.548-10.918-9.289-6.748h11.48l3.548-10.915 3.545 10.915h11.48l-9.287 6.748z"/>
</svg>
