<svg xmlns="http://www.w3.org/2000/svg" viewBox="0 0 512 512">
    <path fill="#ffda44" d="M0 0h512v512H0z"/>
    <path fill="#f0f0f0" d="M0 0h256v256H0z"/>
    <path fill="#d80027" d="M0 152.001h104.001v104h48v-104H256v-48H152.001v-104h-48v104H0z"/>
    <path fill="#0052b4" d="M203.46 166.958l52.54 52.54v-52.54zm-36.503 0L256 256.001v-25.18l-63.863-63.863zm65.325 89.043l-65.325-65.331v65.331z"/>
    <path fill="#f0f0f0" d="M166.957 166.958L256 256.001v-25.18l-63.863-63.863z"/>
    <path fill="#d80027" d="M166.957 166.958L256 256.001v-25.18l-63.863-63.863z"/>
    <path fill="#0052b4" d="M40.151 166.958L0 207.108v-40.15zm48.89 11.323v77.718H11.33z"/>
    <path fill="#d80027" d="M63.862 166.96L0 230.822v25.179l89.041-89.041z"/>
    <path fill="#0052b4" d="M52.54 89.045L0 36.504v52.541zm36.503 0L0 .001v25.18l63.863 63.864zM23.718.001l65.325 65.331V.001z"/>
    <path fill="#f0f0f0" d="M89.043 89.045L0 .001v25.18l63.863 63.864z"/>
    <path fill="#d80027" d="M89.043 89.045L0 .001v25.18l63.863 63.864z"/>
    <path fill="#0052b4" d="M215.849 89.045L256 48.894v40.151zm-48.89-11.323V.002h77.711z"/>
    <path fill="#d80027" d="M192.138 89.042L256 25.18V.001l-89.041 89.041z"/>
    <circle cx="128" cy="128" r="31.499" fill="#0052b4"/>
    <path fill="#ffda44" d="M128 105.726l5.528 17.016h17.894l-14.475 10.517 5.528 17.017L128 139.759l-14.476 10.517 5.529-17.017-14.475-10.517h17.892zm0 75.795l3.291 10.132h10.655l-8.619 6.262 3.291 10.132-8.618-6.262-8.619 6.262 3.292-10.132-8.619-6.262h10.654zm0-133.566l3.291 10.133h10.655l-8.619 6.261 3.291 10.133L128 68.22l-8.619 6.262 3.292-10.133-8.619-6.261h10.654zm81.545 66.783l3.291 10.132h10.655l-8.619 6.262 3.292 10.132-8.619-6.262-8.62 6.262 3.293-10.132-8.62-6.262h10.655zm-163.09 0l3.291 10.132h10.656l-8.62 6.262 3.291 10.132-8.618-6.262-8.619 6.262 3.292-10.132-8.619-6.262h10.654z"/>
</svg>
