<svg xmlns="http://www.w3.org/2000/svg" viewBox="0 0 512 512">
    <path fill="#0052b4" d="M0 0h512v512H0z"/>
    <path fill="#d80027" d="M445.95 216.686l5.083 15.642h16.445l-13.305 9.665 5.082 15.642-13.305-9.667-13.306 9.667 5.084-15.642-13.306-9.665h16.446zm-58.789 112.609l7.624 23.463h24.669l-19.959 14.498 7.624 23.462-19.958-14.499-19.958 14.499 7.624-23.462-19.959-14.498h24.669zm2.221-184.27l6.353 19.553h20.557l-16.631 12.082 6.353 19.552-16.632-12.085-16.632 12.085 6.354-19.552-16.633-12.082h20.557zm-56.568 70.979l7.624 23.463h24.668l-19.958 14.498 7.624 23.462-19.958-14.499-19.959 14.499 7.625-23.462-19.958-14.498h24.668z"/>
    <path fill="#f0f0f0" d="M256 .002v48.896l-40.147 40.148H256v77.913h-52.536L256 219.494v36.508h-23.719l-65.324-65.335v65.335H89.043v-77.724l-77.712 77.724H0v-48.896l40.147-40.147H0V89.046h52.536L0 36.51V.002h23.719l65.324 65.336V.002h77.914v77.724L244.669.002z"/>
    <path fill="#d80027" d="M0 152.002h104.001v104h48v-104H256v-48H152.001v-104h-48v104H0z"/>
    <path fill="#0052b4" d="M166.957 166.959L256 256.002v-25.18l-63.863-63.863z"/>
    <path fill="#f0f0f0" d="M166.957 166.959L256 256.002v-25.18l-63.863-63.863z"/>
    <path fill="#d80027" d="M166.957 166.959L256 256.002v-25.18l-63.863-63.863zm-103.095.002L0 230.823v25.179l89.041-89.041z"/>
    <path fill="#0052b4" d="M89.043 89.046L0 .002v25.181l63.863 63.863z"/>
    <path fill="#f0f0f0" d="M89.043 89.046L0 .002v25.181l63.863 63.863z"/>
    <path fill="#d80027" d="M89.043 89.046L0 .002v25.181l63.863 63.863zm103.095-.003L256 25.181V.002l-89.041 89.041z"/>
</svg>
