<svg xmlns="http://www.w3.org/2000/svg" width="768" height="512" viewBox="0 0 768 512">
    <g fill="#d80027">
        <path d="M0 0h768v511.984H0z"/>
        <path d="M0 0h768v512H0z"/>
    </g>
    <path fill="#f0f0f0" d="M195.952 30.45c-17.364 17.34-34.714 34.697-52.087 52.027-.663 1.026-1.204.49-1.84-.301-17.73-17.713-35.46-35.424-53.188-53.139-2.847 2.86-5.7 5.713-8.549 8.57l54.273 54.263c-18.094 18.093-36.191 36.182-54.282 54.277 2.852 2.853 5.703 5.706 8.55 8.564 18.09-18.07 36.177-36.145 54.266-54.216 18.09 18.073 36.18 36.15 54.272 54.222a6922.03 6922.03 0 0 0 8.567-8.57c-18.078-18.09-36.153-36.183-54.229-54.274 18.073-18.09 36.148-36.178 54.22-54.27-2.853-2.854-5.706-5.71-8.555-8.569l-1.418 1.415zM280 0h488v166.97H280z"/>
    <path fill="#6da544" d="M280 345.029h488v166.954H280z"/>
</svg>
