<?xml version="1.0" encoding="UTF-8" standalone="no"?>
<svg
   xmlns:dc="http://purl.org/dc/elements/1.1/"
   xmlns:cc="http://creativecommons.org/ns#"
   xmlns:rdf="http://www.w3.org/1999/02/22-rdf-syntax-ns#"
   xmlns:svg="http://www.w3.org/2000/svg"
   xmlns="http://www.w3.org/2000/svg"
   xmlns:sodipodi="http://sodipodi.sourceforge.net/DTD/sodipodi-0.dtd"
   xmlns:inkscape="http://www.inkscape.org/namespaces/inkscape"
   width="768"
   height="512"
   viewBox="0 0 768 512"
   version="1.1"
   id="svg12"
   sodipodi:docname="pf_rect.svg"
   inkscape:version="1.0.1 (3bc2e813f5, 2020-09-07)">
  <metadata
     id="metadata18">
    <rdf:RDF>
      <cc:Work
         rdf:about="">
        <dc:format>image/svg+xml</dc:format>
        <dc:type
           rdf:resource="http://purl.org/dc/dcmitype/StillImage" />
      </cc:Work>
    </rdf:RDF>
  </metadata>
  <defs
     id="defs16" />
  <sodipodi:namedview
     pagecolor="#ffffff"
     bordercolor="#666666"
     borderopacity="1"
     objecttolerance="10"
     gridtolerance="10"
     guidetolerance="10"
     inkscape:pageopacity="0"
     inkscape:pageshadow="2"
     inkscape:window-width="640"
     inkscape:window-height="480"
     id="namedview14"
     showgrid="false"
     inkscape:current-layer="svg12" />
  <path
     fill="#f0f0f0"
     d="M0 0h768v512H0z"
     id="path2" />
  <path
     fill="#d80027"
     d="M 0,0 H 768 V 138 H 0 Z M 0,374 H 768 V 512 H 0 Z"
     id="path4"
     sodipodi:nodetypes="cccccccccc" />
  <path
     fill="#ff9811"
     d="m 479.99895,256 c 0,53.01954 -42.98152,84.00185 -96,84.00185 -53.01849,0 -95.9979,-30.98231 -95.9979,-84.00185 0,-53.01954 42.98152,-96.00211 96,-96.00211 53.01849,0 95.9979,42.98257 95.9979,96.00211 z"
     id="path6"
     style="stroke-width:1.05497" />
  <path
     fill="#0052b4"
     d="m 480,256 c 0,53.01954 -42.98152,96.00211 -96,96.00211 -53.01848,0 -96,-42.98257 -96,-96.00211"
     id="path8"
     style="stroke-width:1.05497" />
  <path
     fill="#d80027"
     d="m 324.00501,232.01002 h 24.00053 v 48.01161 h -24.00053 z m 95.99051,0 h 23.99947 v 48.01161 h -24.00053 z m -48.01161,-36.00079 h 24.00053 v 84.00185 h -24.00053 z"
     id="path10"
     style="stroke-width:1.05497" />
</svg>
