<svg xmlns="http://www.w3.org/2000/svg" width="768" height="512" viewBox="0 0 768 512">
    <path fill="#f0f0f0" d="M0 0h768v512H0z"/>
    <path fill="#d80027" d="M0 0h768v142H0zm0 370h768v142H0z"/>
    <path fill="#ff9811" d="M474.997 256c0 50.257-40.742 79.625-90.998 79.625-50.256 0-90.996-29.368-90.996-79.625 0-50.257 40.742-91 90.998-91 50.256 0 90.996 40.743 90.996 91z"/>
    <path fill="#0052b4" d="M474.998 256c0 50.257-40.742 91-90.998 91-50.256 0-90.998-40.743-90.998-91"/>
    <path fill="#d80027" d="M327.131 233.26h22.75v45.51h-22.75zm90.989 0h22.749v45.51h-22.75zm-45.51-34.125h22.75v79.625h-22.75z"/>
</svg>
