<svg xmlns="http://www.w3.org/2000/svg" viewBox="0 0 512 512">
    <path fill="#f0f0f0" d="M0 .007h512v511.989H0z"/>
    <path fill="#d80027" d="M0 .001h512v140H0zM0 372h512v140H0z"/>
    <path fill="#ff9811" d="M346 256c0 49.705-40.295 78.75-90 78.75s-90-29.045-90-78.75 40.295-90 90-90 90 40.295 90 90z"/>
    <path fill="#0052b4" d="M346 256c0 49.705-40.295 90-90 90s-90-40.295-90-90"/>
    <path fill="#d80027" d="M199.75 233.5h22.5v44.999h-22.5zm90 0h22.5v44.999h-22.5zm-45-33.75h22.5v78.75h-22.5z"/>
</svg>
