<svg xmlns="http://www.w3.org/2000/svg" width="768" height="512" viewBox="0 0 768 512">
    <path d="M0 .005h768v511.996H0z"/>
    <path fill="#a2001d" d="M0 0h768v511.988"/>
    <path fill="#f0f0f0" d="M276.524 394.469l-12.615-9.162-12.614 9.162 4.817-14.827-12.615-9.164h15.591l4.82-14.83 4.818 14.83h15.594l-12.615 9.164zM245.11 278.003l-21.025-15.276-21.024 15.276 8.033-24.716-21.026-15.272h25.989l8.029-24.716 8.03 24.716h25.989l-21.026 15.272zm0 181.174L224.086 443.9l-21.024 15.276 8.03-24.718-21.023-15.271h25.985l8.033-24.719 8.03 24.719h25.989l-21.028 15.271zm75.982-116.468l-21.027-15.277-21.021 15.277 8.033-24.716-21.026-15.275h25.987l8.028-24.715 8.032 24.715h25.988l-21.026 15.275zm-151.966 0l-21.022-15.277-21.025 15.277 8.032-24.716-21.025-15.275h25.986l8.032-24.715 8.033 24.715h25.984L161.1 317.993z"/>
    <path fill="#ffda44" d="M608.789 178.246c-11.442-11.442-26.307-18.2-42.283-19.362l47.82-37.191c-19.048-19.047-44.572-27.646-69.479-25.827A66.464 66.464 0 0 0 527.753 66.6l-18.89 37.778a27.705 27.705 0 0 0-4.722-6.295c-10.867-10.867-28.486-10.866-39.35 0-10.865 10.866-10.868 28.485 0 39.35a27.804 27.804 0 0 0 6.295 4.722l-37.779 18.89a66.454 66.454 0 0 0 29.279 17.098c-1.826 24.908 6.766 50.427 25.813 69.474L530.18 193.9a16.58 16.58 0 0 1 11.71-4.803c4.46 0 8.653 1.737 11.806 4.89a16.582 16.582 0 0 1 4.89 11.805c0 4.46-1.737 8.652-4.89 11.805l15.74 15.74c7.358-7.357 11.411-17.141 11.411-27.545 0-8.512-2.715-16.606-7.73-23.3a44.239 44.239 0 0 1 19.932 11.492c17.36 17.358 17.36 45.604 0 62.961l15.741 15.741c12.614-12.613 19.559-29.384 19.559-47.22-.002-17.838-6.948-34.608-19.56-47.221z"/>
</svg>
