<svg xmlns="http://www.w3.org/2000/svg" viewBox="0 0 512 512">
    <path d="M0 0h512v512H0z"/>
    <path fill="#a2001d" d="M0 0h512v511.996"/>
    <path fill="#f0f0f0" d="M197.035 360.692l3.92 12.066h12.687l-10.265 7.455 3.922 12.066-10.264-7.458-10.264 7.458 3.92-12.066-10.263-7.455h12.686zm-32.401-115.825l6.535 20.112h21.143l-17.107 12.426 6.535 20.11-17.106-12.428-17.106 12.427 6.536-20.11-17.11-12.425H158.1zm0 147.412l6.533 20.11h21.145l-17.108 12.428 6.536 20.109-17.106-12.428-17.106 12.428 6.533-20.109-17.106-12.428h21.144zm61.82-94.765l6.536 20.111h21.144l-17.107 12.427 6.533 20.109-17.105-12.428-17.106 12.428 6.535-20.109-17.106-12.427h21.142zm-123.643 0l6.537 20.111h21.142l-17.106 12.427 6.534 20.109-17.107-12.428-17.107 12.428 6.537-20.109-17.107-12.427h21.143z"/>
    <path fill="#ffda44" d="M424.763 170.586c-9.62-9.62-22.118-15.303-35.552-16.28l40.209-31.273c-16.016-16.015-37.477-23.246-58.42-21.716a55.886 55.886 0 0 0-14.374-24.609l-15.883 31.766a23.295 23.295 0 0 0-3.97-5.293c-9.138-9.138-23.953-9.137-33.088 0-9.135 9.136-9.138 23.951 0 33.088a23.379 23.379 0 0 0 5.294 3.97l-31.766 15.883A55.877 55.877 0 0 0 301.83 170.5c-1.535 20.943 5.69 42.402 21.705 58.418l35.131-45.168a13.94 13.94 0 0 1 9.847-4.039c3.75 0 7.275 1.46 9.926 4.112a13.943 13.943 0 0 1 4.111 9.926c0 3.751-1.46 7.275-4.111 9.926l13.235 13.236c6.187-6.187 9.595-14.414 9.595-23.162 0-7.158-2.283-13.963-6.5-19.592a37.188 37.188 0 0 1 16.76 9.665c14.597 14.595 14.597 38.346 0 52.94l13.236 13.237c10.606-10.606 16.447-24.708 16.447-39.707-.002-14.997-5.844-29.099-16.45-39.705z"/>
</svg>
