<svg xmlns="http://www.w3.org/2000/svg" width="768" height="512" viewBox="0 0 768 512">
    <path fill="#f0f0f0" d="M0 0h768v512H0z"/>
    <path fill="#0052b4" d="M768 0v256H384L0 0z"/>
    <path fill="#d80027" d="M768 256v256H0l384-256z"/>
    <path fill="#ffda44" d="M173.648 160.706l-30.96 33.023-30.959-33.023-5.633 44.9-44.446-8.503 21.797 39.643L42.514 256l40.932 19.253-21.796 39.643 44.45-8.502 5.629 44.9 30.959-33.023 30.96 33.023 5.632-44.9 44.447 8.503-21.799-39.641L242.862 256l-40.932-19.253 21.798-39.643-44.448 8.502zM68.343 98.261l-22.214-7.398-13.902 18.839.176-23.413-22.214-7.4 22.32-7.069.174-23.414L46.305 67.45l22.318-7.07-13.902 18.84zm0 353.894l-22.214-7.4-13.902 18.837.176-23.41-22.214-7.402 22.32-7.068.174-23.414 13.622 19.045 22.318-7.072-13.902 18.84zm211.59-176.945l22.213-7.4 13.902 18.837-.175-23.41 22.213-7.402-22.32-7.07-.174-23.412-13.621 19.043-22.319-7.07 13.902 18.839z"/>
</svg>
