<svg xmlns="http://www.w3.org/2000/svg" width="768" height="512" viewBox="0 0 768 512">
    <g fill="#f0f0f0">
        <path d="M659.033 201.9l-37.895-7.467-18.809 33.732-4.609-38.346-37.895-7.467 35.045-16.23-4.608-38.346 26.268 28.312 35.044-16.231-18.811 33.73z"/>
        <path d="M0 .018h768V512H0z"/>
    </g>
    <path fill="#496e2d" d="M192 0h576v511.999H192z"/>
    <path fill="#f0f0f0" d="M542.863 320.189c-46.555 33.638-111.567 23.168-145.206-23.388-33.64-46.556-23.169-111.567 23.39-145.204 14.515-10.488 30.825-16.687 47.42-18.844-31.925-4.775-65.666 2.42-93.898 22.816-57.3 41.402-70.188 121.414-28.786 178.715 41.401 57.298 121.416 70.187 178.717 28.783 28.23-20.397 45.654-50.171 51.144-81.981-7.258 15.074-18.264 28.613-32.78 39.103zm66.662-114.859l-37.828-7.451-18.779 33.674-4.6-38.28-37.83-7.454 34.984-16.203-4.602-38.28 26.226 28.262 34.983-16.203-18.779 33.67z"/>
</svg>
