<svg xmlns="http://www.w3.org/2000/svg" width="768" height="512" viewBox="0 0 768 512">
    <path fill="#0052b4" d="M0 .005h768v511.996H0z"/>
    <path fill="#acabb1" d="M605.565 207.994l-30 10-30-10-10-24.999 10-25h60l-10.002 25z"/>
    <path fill="#338af3" d="M505.565 207.994V317.99c0 53.583 70 69.999 70 69.999s70-16.418 70-70V207.995z"/>
    <path fill="#6da544" d="M511.875 344.047c17.207 33.037 63.69 43.942 63.69 43.942s46.482-10.905 63.689-43.942l-63.69-106.053z"/>
    <path fill="#ffda44" d="M645.564 316.88l-70-108.886-70 108.885v1.11c0 9.916 2.403 18.558 6.311 26.06l63.69-99.071 63.689 99.071c3.908-7.502 6.31-16.14 6.31-26.06z"/>
    <path fill="#f0f0f0" d="M384 172.518h-88.655L384 221.769v34.225h-40.02l-110.241-61.238v61.238h-83.478v-72.858L19.116 255.994H0v-45.83l67.75-37.646H0V83.48h88.655L0 34.213V.004h40.02l110.241 61.237V.004h83.478v72.857L364.884.004H384v45.83L316.25 83.48H384z"/>
    <path fill="#d80027" d="M0 151.995h168v103.999h48V151.995h168v-47.999H216V0h-48v103.996H0z"/>
    <path fill="#0052b4" d="M233.739 172.518L384 255.994v-23.605l-107.77-59.871z"/>
    <path fill="#f0f0f0" d="M233.739 172.518L384 255.994v-23.605l-107.77-59.871z"/>
    <path fill="#d80027" d="M233.739 172.518L384 255.994v-23.605l-107.77-59.871zm-83.478 0h-42.492L0 232.389v23.605z"/>
    <path fill="#0052b4" d="M150.261 83.476L0 0v23.605l107.77 59.871z"/>
    <path fill="#f0f0f0" d="M150.261 83.476L0 0v23.605l107.77 59.871z"/>
    <path fill="#d80027" d="M150.261 83.476L0 0v23.605l107.77 59.871zm83.478 0h42.492L384 23.605V0z"/>
</svg>
