<svg xmlns="http://www.w3.org/2000/svg" viewBox="0 0 512 512">
    <path fill="#0052b4" d="M0 0h512v512H0z"/>
    <path fill="#acabb1" d="M385.565 216.286l-29.142-9.715-9.715-24.285L356.423 158h58.284l-9.713 24.286 9.713 24.285z"/>
    <path fill="#338af3" d="M317.565 206.571v106.856c0 52.051 68 68 68 68s68-15.949 68-68V206.57z"/>
    <path fill="#6da544" d="M323.694 338.743c16.715 32.09 61.871 42.685 61.871 42.685s45.156-10.596 61.87-42.685l-61.87-103.029z"/>
    <path fill="#ffda44" d="M453.565 312.348l-68-105.777-68 105.778v1.079c0 9.634 2.334 18.026 6.13 25.315l61.87-96.244 61.87 96.244c3.797-7.289 6.13-15.682 6.13-25.315z"/>
    <path fill="#f0f0f0" d="M256 0v48.896l-40.147 40.147H256v77.914h-52.536L256 219.492V256h-23.719l-65.324-65.336V256H89.043v-77.724L11.331 256H0v-48.896l40.147-40.147H0V89.043h52.536L0 36.508V0h23.719l65.324 65.336V0h77.914v77.724L244.669 0z"/>
    <path fill="#d80027" d="M0 152.001h104.001V256h48V152.001H256v-48H152.001V0h-48v104.001H0z"/>
    <path fill="#0052b4" d="M166.957 166.957L256 256v-25.18l-63.863-63.863z"/>
    <path fill="#f0f0f0" d="M166.957 166.957L256 256v-25.18l-63.863-63.863z"/>
    <path fill="#d80027" d="M166.957 166.957L256 256v-25.18l-63.863-63.863zm-103.095.002L0 230.821V256l89.041-89.041z"/>
    <path fill="#0052b4" d="M89.043 89.043L0 0v25.18l63.863 63.863z"/>
    <path fill="#f0f0f0" d="M89.043 89.043L0 0v25.18l63.863 63.863z"/>
    <path fill="#d80027" d="M89.043 89.043L0 0v25.18l63.863 63.863zm103.095-.002L256 25.179V0l-89.041 89.041z"/>
</svg>
