<svg xmlns="http://www.w3.org/2000/svg" width="768" height="512" viewBox="0 0 768 512">
    <path fill="#f0f0f0" d="M0 0h768v512H0z"/>
    <path fill="#d80027" d="M0 0h768v170.666H0z"/>
    <path fill="#0052b4" d="M0 341.334h768V512H0z"/>
    <path fill="#6da544" d="M434.368 197.106l-18.888 18.888c8.055 8.058 13.04 19.189 13.04 31.483 0 24.588-19.933 44.52-44.52 44.52-24.588 0-44.52-19.933-44.52-44.52 0-12.293 4.983-23.425 13.04-31.483l-18.888-18.888c-12.891 12.891-20.865 30.7-20.865 50.37 0 39.342 31.891 71.234 71.233 71.234 39.342 0 71.234-31.892 71.234-71.235 0-19.668-7.974-37.478-20.865-50.37z"/>
    <path fill="#ffda44" d="M401.36 274.19L384 261.58l-17.36 12.612 6.632-20.407-17.36-12.612h21.456L384 220.764l6.631 20.408h21.457l-17.36 12.612z"/>
</svg>
