<svg xmlns="http://www.w3.org/2000/svg" width="768" height="512" viewBox="0 0 768 512">
    <path fill="#0052b4" d="M0 0h768v512H0z"/>
    <path fill="#d80027" d="M0 0h768v170.661H0z"/>
    <path fill="#f0f0f0" d="M0 341.323h768v170.661H0z"/>
    <path fill="#d80027" d="M194.202 144.691v127.703c0 72.643 94.9 94.9 94.9 94.9S384 345.034 384 272.394V144.691z"/>
    <path fill="#ffda44" d="M289.1 100.172l-33.389 33.39-22.26-11.13v44.52h111.302v-44.52l-22.262 11.13zm.294 164.877l48.735 48.734 23.611-23.61-72.346-72.345-72.347 72.345 23.612 23.61z"/>
    <path fill="#f0f0f0" d="M361.74 222.602h-33.756a22.11 22.11 0 0 0 3.002-11.127c0-12.294-9.968-22.26-22.26-22.26-8.495 0-15.872 4.758-19.625 11.754-3.753-6.994-11.131-11.754-19.624-11.754-12.293 0-22.26 9.966-22.26 22.26 0 4.06 1.104 7.853 3.001 11.127h-33.171c0 12.294 10.709 22.26 23.001 22.26h-.741c0 12.294 9.966 22.26 22.26 22.26 0 10.885 7.817 19.928 18.141 21.863l-17.541 39.601a72.113 72.113 0 0 0 27.224 5.316 72.119 72.119 0 0 0 27.223-5.316l-17.541-39.6c10.325-1.936 18.141-10.979 18.141-21.864 12.294 0 22.26-9.966 22.26-22.26h-.741c12.299 0 23.007-9.966 23.007-22.26z"/>
</svg>
