<svg xmlns="http://www.w3.org/2000/svg" viewBox="0 0 512 512">
    <path fill="#ffda44" d="M0 256c0 44.35 11.283 86.064 31.127 122.435L256 400.696l224.873-22.261C500.717 342.064 512 300.35 512 256l-256-22.261L0 256z"/>
    <path fill="#338af3" d="M480.873 133.565C437.454 53.989 353.035 0 256 0S74.546 53.989 31.127 133.565C11.283 169.936 0 211.65 0 256h512c0-44.35-11.283-86.064-31.127-122.435z"/>
    <path fill="#496e2d" d="M256 512c97.035 0 181.454-53.989 224.873-133.565H31.127C74.546 458.011 158.965 512 256 512z"/>
    <path fill="#ffda44" d="M338.416 215.926l21.014-22.417 21.017 22.417 3.822-30.479 30.172 5.77-14.795-26.91 27.784-13.069-27.785-13.069 14.796-26.91-30.171 5.772-3.824-30.479-21.016 22.417-21.015-22.417-3.822 30.479-30.173-5.772 14.796 26.911-27.786 13.068 27.787 13.07-14.796 26.91 30.172-5.77z"/>
</svg>
