<svg xmlns="http://www.w3.org/2000/svg" width="768" height="512" viewBox="0 0 768 512">
    <path fill="#6da544" d="M0 0h768v512H0z"/>
    <g fill="#f0f0f0">
        <path d="M275.322 306.08c0 18.442 14.596 33.39 32.604 33.39h97.812c0 15.366 12.165 27.827 27.171 27.827h32.604c15.006 0 27.171-12.46 27.171-27.827v-33.39zm220.074-161.392v77.913c0 12.274-9.75 22.26-21.736 22.26v33.39c29.964 0 54.339-24.964 54.339-55.65v-77.913zm-233.659 77.914c0 12.274-9.75 22.26-21.737 22.26v33.391c29.964 0 54.339-24.964 54.339-55.65V144.69h-32.604v77.912z"/>
        <path d="M446.491 144.684h32.604v77.912h-32.604zm-48.905 44.527c0 3.069-2.438 5.565-5.435 5.565-2.997 0-5.434-2.496-5.434-5.565v-44.523h-32.604v44.523c0 3.069-2.438 5.565-5.435 5.565-2.997 0-5.434-2.496-5.434-5.565v-44.523h-32.605v44.523c0 21.48 17.064 38.956 38.037 38.956 8.078 0 15.57-2.6 21.737-7.015 6.165 4.416 13.659 7.015 21.736 7.015 1.626 0 3.225-.117 4.8-.322-2.31 9.748-10.882 17.017-21.102 17.017v33.391c29.964 0 54.34-24.964 54.34-55.65v-77.915h-32.605z"/>
        <path d="M310.64 244.856h48.901v33.391H310.64z"/>
    </g>
</svg>
