<svg xmlns="http://www.w3.org/2000/svg" width="768" height="512" viewBox="0 0 768 512">
    <path fill="#496e2d" d="M0 .007h768v511.992H0z"/>
    <path fill="#0052b4" d="M0 511.988V0h768"/>
    <path fill="#ffda44" d="M40 512L768 40V0h-48L0 468v43.988z"/>
    <path fill="#f0f0f0" d="M98.532 37.186l7.68 23.634h24.849l-20.104 14.605 7.68 23.635-20.105-14.607L78.425 99.06l7.68-23.635L66 60.82h24.85zm126.936 0l7.681 23.634H258l-20.104 14.605 7.68 23.635-20.108-14.607-20.105 14.607 7.68-23.635L192.94 60.82h24.849zM98.532 160.936l7.68 23.633h24.849l-20.104 14.607 7.68 23.635-20.105-14.608-20.107 14.608 7.68-23.635L66 184.569h24.85zm126.936 0l7.681 23.633H258l-20.104 14.607 7.68 23.635-20.108-14.608-20.105 14.608 7.68-23.635-20.104-14.607h24.849zM162 99.06l7.68 23.633h24.852L174.424 137.3l7.68 23.636L162 146.328l-20.105 14.608 7.68-23.636-20.107-14.607h24.852z"/>
</svg>
