<svg xmlns="http://www.w3.org/2000/svg" viewBox="0 0 512.001 512.001">
    <circle cx="256" cy="256" r="256" fill="#ffda44" paint-order="fill markers stroke"/>
    <path fill="#496e2d" d="M474.332 122.334L81.164 442.996A256 256 0 0 0 256 512a256 256 0 0 0 256-256 256 256 0 0 0-37.668-133.666z" paint-order="fill markers stroke"/>
    <path fill="#0052b4" d="M256 0A256 256 0 0 0 0 256a256 256 0 0 0 42.648 141.479L437.49 75.453A256 256 0 0 0 256 0z" paint-order="fill markers stroke"/>
    <path fill="#f0f0f0" d="M122.132 79.955l5.527 17.007h17.88l-14.465 10.509 5.525 17.007-14.467-10.511-14.467 10.51 5.527-17.006-14.467-10.51h17.882zm91.339 0l5.527 17.007h17.88l-14.466 10.509 5.526 17.007-14.467-10.511-14.467 10.51 5.527-17.006-14.467-10.51h17.88zm-91.34 89.047l5.528 17.007h17.88l-14.465 10.51 5.525 17.007-14.467-10.511-14.467 10.51 5.527-17.006-14.467-10.51h17.882zm91.34 0l5.527 17.007h17.88l-14.466 10.51 5.526 17.007-14.467-10.511-14.467 10.51 5.527-17.006-14.467-10.51h17.88zm-45.67-44.524l5.528 17.007h17.88l-14.466 10.51 5.526 17.007-14.467-10.511L153.335 169l5.526-17.006-14.467-10.51h17.882z"/>
</svg>
