<svg xmlns="http://www.w3.org/2000/svg" width="768" height="512" viewBox="0 0 768 512">
    <path fill="#f0f0f0" d="M0 0h768v512H0z"/>
    <path fill="#d80027" d="M0 0h768v256H0z"/>
    <g fill="#f0f0f0">
        <path d="M125.217 127.996c0-37.298 26.214-68.457 61.218-76.102a78.087 78.087 0 0 0-16.695-1.812c-43.032 0-77.913 34.881-77.913 77.913 0 43.031 34.882 77.914 77.913 77.914 5.733 0 11.314-.637 16.695-1.812-35.004-7.642-61.218-38.8-61.218-76.1zm114.641-27.826l-14.466-10.509-14.468 10.51 5.527-17.006-14.467-10.51h17.882l5.526-17.007 5.526 17.006h17.881l-14.467 10.51z"/>
        <path d="M196.48 133.563l-14.464-10.51-14.467 10.51 5.527-17.006-14.467-10.51h17.881l5.526-17.007 5.525 17.006h17.881l-14.467 10.511zm86.753 0l-14.466-10.51-14.466 10.51 5.528-17.006-14.468-10.51h17.881l5.525-17.007 5.526 17.006h17.881l-14.467 10.511zm-16.695 50.087l-14.468-10.509-14.464 10.51 5.526-17.006-14.466-10.511h17.88l5.525-17.006 5.526 17.006h17.881l-14.466 10.51zm-53.361 0l-14.466-10.509-14.466 10.51 5.526-17.006-14.466-10.511h17.88l5.526-17.006 5.525 17.006h17.881l-14.466 10.51z"/>
    </g>
</svg>
