<svg xmlns="http://www.w3.org/2000/svg" width="768" height="512" viewBox="0 0 768 512">
    <path fill="#f0f0f0" d="M0 0h768v512H0z"/>
    <path fill="#0052b4" d="M0 170.666h768v170.666H0z"/>
    <path fill="#d80027" d="M0 341.334h768V512H0z"/>
    <path fill="#f0f0f0" d="M350.409 166.957v22.256c0 51.122-66.783 66.784-66.783 66.784s-66.783-15.66-66.783-66.784v-22.256l-.218-66.284 133.565-.399z"/>
    <path fill="#0052b4" d="M351 181.563v22.458c0 51.587-67.39 67.391-67.39 67.391s-67.39-15.802-67.39-67.39v-22.459l-.22-66.886 134.779-.403z"/>
    <path fill="#f0f0f0" d="M350.409 180.957v22.256c0 51.122-66.783 66.784-66.783 66.784s-66.783-15.66-66.783-66.784v-22.256l22.272 22.256 44.511-33.393 44.528 33.393z"/>
</svg>
