<svg xmlns="http://www.w3.org/2000/svg" width="768" height="512" viewBox="0 0 768 512">
    <path fill="#f0f0f0" d="M0 0h768v512H0z"/>
    <path fill="#0052b4" d="M0 166.96h768v178.079H0z"/>
    <path fill="#d80027" d="M0 345.04h768V512H0z"/>
    <path fill="#f0f0f0" d="M174.202 140.696v141.3C174.202 362.373 279.203 387 279.203 387s104.999-24.629 104.999-105.003v-141.3z"/>
    <path fill="#d80027" d="M201.849 144.837v135.997c0 9.082 2.017 17.66 6.012 25.7h142.683c3.995-8.039 6.013-16.616 6.013-25.7V144.837z"/>
    <path fill="#f0f0f0" d="M314.762 192.25h-23.707v-23.707H267.35v23.706h-23.702v23.706h23.702v23.705h-35.56v23.707h35.559v23.705h23.705v-23.705h35.558V239.66h-35.558v-23.705h23.707z"/>
    <path fill="#0052b4" d="M240.197 339.625c15.275 9.598 30.969 15.175 39.005 17.653 8.036-2.48 23.73-8.052 39.005-17.653 15.405-9.681 26.206-20.756 32.337-33.093a41.288 41.288 0 0 0-23.929-7.605 41.569 41.569 0 0 0-9.43 1.09c-6.425-14.599-21.008-24.796-37.98-24.796-16.972 0-31.555 10.197-37.98 24.796a41.57 41.57 0 0 0-9.43-1.09 41.292 41.292 0 0 0-23.928 7.605c6.125 12.337 16.925 23.413 32.33 33.094z"/>
</svg>
