<svg xmlns="http://www.w3.org/2000/svg" width="768" height="512" viewBox="0 0 768 512">
    <path fill="#338af3" d="M0 .009h768V512H0z"/>
    <path fill="#f0f0f0" d="M0 0h768v256H0z"/>
    <path fill="#6da544" d="M485.616 176.648L384 278.265 282.384 176.648c-13.14 19.508-20.819 42.987-20.819 68.225v33.392c0 53.616 34.646 99.29 82.723 115.82-6.416 12.577-5.334 28.272 4.068 40.006 12.489-10.01 25.417-20.37 36.387-29.158 10.969 8.788 23.898 19.15 36.387 29.158 9.513-11.872 10.516-27.8 3.846-40.452 47.42-16.892 81.462-62.228 81.462-115.374v-33.392c-.003-25.24-7.682-48.716-20.822-68.225z"/>
    <path fill="#ffda44" d="M384 367.31c-49.098 0-89.043-39.946-89.043-89.044v-33.392c0-49.1 39.945-89.044 89.043-89.044 49.098 0 89.043 39.945 89.043 89.043v33.392c0 49.1-39.945 89.044-89.043 89.044z"/>
    <path fill="#338af3" d="M439.651 278.265v-33.392c0-30.687-24.964-55.652-55.651-55.652-30.687 0-55.651 24.965-55.651 55.652v33.392L384 289.396z"/>
    <path fill="#6da544" d="M328.349 278.265c0 30.687 24.964 55.651 55.651 55.651 30.687 0 55.651-24.964 55.651-55.651z"/>
    <path fill="#ffda44" d="M450.783 155.83c0-18.443-14.949-33.392-33.392-33.392-8.554 0-16.351 3.219-22.26 8.508v-19.64h11.132v-22.26h-11.131V77.915h-22.26v11.131H361.74v22.26h11.132v19.64c-5.91-5.289-13.707-8.508-22.262-8.508-18.442 0-33.392 14.949-33.392 33.392 0 9.886 4.301 18.768 11.132 24.883v19.64h111.305v-19.64c6.828-6.115 11.128-14.995 11.128-24.883z"/>
</svg>
