<svg xmlns="http://www.w3.org/2000/svg" viewBox="0 0 512.006 512.006">
    <path fill="#338af3" d="M.003.017h512v511.989h-512z"/>
    <path fill="#f0f0f0" d="M512.003 0v250.031l-512 6.227V0z"/>
    <path fill="#6da544" d="M353.521 179.847l-97.52 97.52-97.519-97.52c-12.61 18.721-19.979 41.253-19.979 65.475v32.045c0 51.454 33.248 95.286 79.388 111.15-6.159 12.069-5.12 27.132 3.905 38.393 11.984-9.605 24.394-19.55 34.92-27.983l34.919 27.983c9.13-11.393 10.093-26.681 3.691-38.82 45.509-16.211 78.177-59.72 78.177-110.725v-32.044c-.002-24.221-7.372-46.754-19.982-65.474z"/>
    <path fill="#ffda44" d="M256.002 362.82c-47.12 0-85.454-38.334-85.454-85.453v-32.045c0-47.12 38.334-85.454 85.454-85.454 47.12 0 85.454 38.334 85.454 85.454v32.045c0 47.12-38.336 85.454-85.454 85.454z"/>
    <path fill="#338af3" d="M309.41 277.367v-32.045c0-29.45-23.958-53.408-53.408-53.408-29.45 0-53.408 23.958-53.408 53.408v32.045l53.408 10.68z"/>
    <path fill="#6da544" d="M202.592 277.367c0 29.45 23.959 53.408 53.409 53.408s53.408-23.959 53.408-53.408z"/>
    <path fill="#ffda44" d="M320.092 159.868c0-17.699-14.347-32.045-32.044-32.045a31.922 31.922 0 0 0-21.364 8.165v-18.847h10.681V95.777h-10.68V85.096H245.32v10.681h-10.682v21.364h10.682v18.847a31.922 31.922 0 0 0-21.364-8.165c-17.698 0-32.045 14.347-32.045 32.045 0 9.488 4.129 18.011 10.682 23.88v18.847H309.41v-18.848c6.553-5.87 10.681-14.391 10.681-23.88z"/>
</svg>
