<svg xmlns="http://www.w3.org/2000/svg" viewBox="0 0 512 512">
    <circle cx="256" cy="256" r="256" fill="#f0f0f0"/>
    <path fill="#a2001d" d="M496.076 166.957H15.922C5.633 194.691 0 224.686 0 256s5.633 61.311 15.922 89.043h480.155C506.368 317.311 512 287.314 512 256s-5.632-61.309-15.924-89.043z"/>
    <path fill="#6da544" d="M256.741 512c87.682 0 165.058-44.092 211.196-111.304H45.546C91.684 467.908 169.058 512 256.741 512zm0-511.998c87.682 0 165.058 44.092 211.196 111.304H45.546C91.684 44.094 169.058.002 256.741.002z"/>
    <path fill="#ffda44" d="M311.006 340.643L256 300.682l-55.006 39.961 21.012-64.66L167 236.015h67.991L256 171.356l21.009 64.66H345l-55.005 39.966z"/>
</svg>
