<?xml version="1.0" encoding="UTF-8" standalone="no"?>
<svg
   xmlns:dc="http://purl.org/dc/elements/1.1/"
   xmlns:cc="http://creativecommons.org/ns#"
   xmlns:rdf="http://www.w3.org/1999/02/22-rdf-syntax-ns#"
   xmlns:svg="http://www.w3.org/2000/svg"
   xmlns="http://www.w3.org/2000/svg"
   xmlns:sodipodi="http://sodipodi.sourceforge.net/DTD/sodipodi-0.dtd"
   xmlns:inkscape="http://www.inkscape.org/namespaces/inkscape"
   viewBox="0 0 512 512"
   version="1.1"
   id="svg14"
   sodipodi:docname="ss_round.svg"
   inkscape:version="1.0.1 (3bc2e813f5, 2020-09-07)">
  <metadata
     id="metadata20">
    <rdf:RDF>
      <cc:Work
         rdf:about="">
        <dc:format>image/svg+xml</dc:format>
        <dc:type
           rdf:resource="http://purl.org/dc/dcmitype/StillImage" />
      </cc:Work>
    </rdf:RDF>
  </metadata>
  <defs
     id="defs18" />
  <sodipodi:namedview
     pagecolor="#ffffff"
     bordercolor="#666666"
     borderopacity="1"
     objecttolerance="10"
     gridtolerance="10"
     guidetolerance="10"
     inkscape:pageopacity="0"
     inkscape:pageshadow="2"
     inkscape:window-width="640"
     inkscape:window-height="480"
     id="namedview16"
     showgrid="false"
     inkscape:current-layer="svg14" />
  <circle
     cx="256"
     cy="256"
     r="256"
     fill="#f0f0f0"
     id="circle2" />
  <path
     d="M492.029 156.753C453.26 64.662 362.188 0 256 0 185.306 0 121.313 28.659 74.989 74.989l64.11 81.764h352.93z"
     id="path4" />
  <path
     fill="#496e2d"
     d="M139.826 354.32l-64.837 82.691C121.313 483.341 185.306 512 256 512c106.546 0 197.878-65.094 236.424-157.68H139.826z"
     id="path6"
     style="fill:#6da544;fill-opacity:1" />
  <path
     fill="#d80027"
     d="M55.652 188.29v134.492h447.53C508.924 301.491 512 279.107 512 256c0-23.442-3.158-46.142-9.061-67.71H55.652z"
     id="path8" />
  <path
     fill="#0052b4"
     d="M74.98 74.98c-99.974 99.974-99.974 262.065 0 362.04L256 256 74.98 74.98z"
     id="path10" />
  <path
     fill="#ffda44"
     d="M83.386 192.352l31.245 43.601 51.128-16.245-31.811 43.193 31.245 43.603-50.908-16.907-31.812 43.192.35-53.643-50.91-16.909 51.124-16.244z"
     id="path12" />
</svg>
