<svg xmlns="http://www.w3.org/2000/svg" width="768" height="512" viewBox="0 0 768 512">
    <path fill="#f0f0f0" d="M0 0h768v512H0z"/>
    <path fill="#0052b4" d="M0 0h768v170.666H0zm0 341.334h768V512H0z"/>
    <path fill="#ffda44" d="M384 193.67l41.127 71.234h-82.254z"/>
    <path fill="#6da544" d="M437.424 252.808v35.617L384 315.139l-53.424-26.714v-35.617z"/>
    <path fill="#ffda44" d="M434.368 196.726l-18.888 18.889c8.055 8.058 13.04 19.187 13.04 31.482 0 24.589-19.933 44.521-44.52 44.521-24.588 0-44.52-19.934-44.52-44.52 0-12.293 4.983-23.425 13.04-31.483l-18.888-18.889c-12.891 12.891-20.865 30.7-20.865 50.37 0 39.343 31.891 71.235 71.233 71.235 39.342 0 71.234-31.892 71.234-71.235 0-19.672-7.974-37.482-20.865-50.37z"/>
</svg>
