<svg xmlns="http://www.w3.org/2000/svg" viewBox="0 0 512 512">
    <path fill="#f0f0f0" d="M0 0h512v512H0z"/>
    <path fill="#0052b4" d="M0 0h512v170.663H0zm0 341.337h512V512H0z"/>
    <path fill="#ffda44" d="M216.162 264.625l39.838-69 39.838 69z"/>
    <path fill="#6da544" d="M307.75 287.407L256 313.282l-51.75-25.875v-34.5h103.5z"/>
    <path fill="#ffda44" d="M304.79 198.583l-18.296 18.297c7.803 7.805 12.631 18.586 12.631 30.495 0 23.818-19.308 43.126-43.126 43.126-23.818 0-43.126-19.308-43.126-43.126 0-11.908 4.828-22.69 12.631-30.495l-18.297-18.297C194.722 211.07 187 228.32 187 247.375c0 38.107 30.893 69 69 69s69-30.893 69-69c0-19.055-7.724-36.305-20.21-48.792z"/>
</svg>
