<svg xmlns="http://www.w3.org/2000/svg" width="768" height="512" viewBox="0 0 768 512">
    <path fill="#0052b4" d="M0 .009h768v511.983H0z"/>
    <path fill="#d80027" d="M0 0h768v256H0z"/>
    <path fill="#f0f0f0" d="M0 0l384 256.01L0 512z"/>
    <g fill="#ffda44" transform="matrix(1.5 0 0 1.49998 -36 -127.995)">
        <path d="M59.621 256a59.546 59.546 0 0 0-.193 4.57c0 32.821 26.607 59.429 59.429 59.429s59.429-26.607 59.429-59.429c0-1.539-.078-3.061-.193-4.57z"/>
        <circle cx="118.862" cy="210.287" r="18.286"/>
    </g>
    <path fill="#d80027" d="M80.573 180.573v89.142c0 47.24 61.716 61.714 61.716 61.714s61.716-14.473 61.716-61.714v-89.142z"/>
    <path fill="#338af3" d="M142.315 302.722c-11.448-4.119-34.314-14.65-34.314-33.008v-61.716h68.573v61.716c-.002 18.42-22.866 28.924-34.258 33.008z"/>
    <path fill="#f0f0f0" d="M128.572 242.285l-6.856 6.86v27.427h41.142v-27.428l-6.856-6.86v-13.712l-13.716-6.856-13.713 6.856z"/>
</svg>
