<svg xmlns="http://www.w3.org/2000/svg" width="768" height="512" viewBox="0 0 768 512">
    <path fill="#0052b4" d="M0 0h768v145H0zm0 367h768v145H0z"/>
    <path fill="#ffda44" d="M0 106.005h768v300.001H0z"/>
    <path fill="#a2001d" d="M0 139.136h768v233.74H0z"/>
    <path fill="#ffda44" d="M158.608 240.98h450.783v30.053H158.608zm60.105-60.104h330.574v30.052H218.713z"/>
    <path fill="#f0f0f0" d="M551.434 256.006S474.156 346.163 384 346.163c-90.156 0-90.157-90.157-90.157-90.157s0-90.157 90.157-90.157 167.434 90.157 167.434 90.157z"/>
    <path d="M384 346.163c-90.157 0-167.434-90.157-167.434-90.157S293.843 165.849 384 165.849"/>
    <path fill="#f0f0f0" d="M323.895 225.954h30.053v60.104h-30.053z"/>
    <path d="M414.052 225.954h30.053v60.104h-30.053z"/>
    <g fill="#0052b4" transform="matrix(1.35 0 0 1.35 38.4 -89.595)">
        <circle cx="89.043" cy="256" r="22.261"/>
        <circle cx="422.957" cy="256" r="22.261"/>
    </g>
</svg>
