<svg xmlns="http://www.w3.org/2000/svg" viewBox="0 0 512 512">
    <path fill="#ffda44" d="M0 130h512v245H0z"/>
    <path fill="#a2001d" d="M0 178.087h512v155.826H0z"/>
    <path fill="#ffda44" d="M89.043 244.87h333.913v22.261H89.043zm44.522-44.522h244.87v22.261h-244.87z"/>
    <path fill="#f0f0f0" d="M380.025 256S322.782 322.783 256 322.783 189.217 256 189.217 256s0-66.783 66.783-66.783S380.025 256 380.025 256z"/>
    <path d="M256 322.783c-66.783 0-124.025-66.783-124.025-66.783S189.217 189.217 256 189.217"/>
    <path fill="#f0f0f0" d="M211.478 233.739h22.261v44.522h-22.261z"/>
    <path d="M278.261 233.739h22.261v44.522h-22.261z"/>
    <g fill="#0052b4">
        <circle cx="89.043" cy="256" r="22.261"/>
        <circle cx="422.957" cy="256" r="22.261"/>
    </g>
    <path fill="#0052b4" d="M0 0h512v145H0zm0 367h512v145H0z"/>
</svg>
