<svg xmlns="http://www.w3.org/2000/svg" viewBox="0 0 512 512">
    <path fill="#0052b4" d="M512 256c0 141.384-114.616 256-256 256S0 397.384 0 256C0 256.061 256 .028 256 0c141.384 0 256 114.616 256 256z"/>
    <g fill="#f0f0f0">
        <path d="M256 0h-.043.043zm-.685 256H256v-.685l-.685.685z"/>
        <path d="M256 133.565V0h-.043C114.591.024 0 114.629 0 256h133.565v-75.211L208.776 256h46.54l.685-.685v-46.537l-75.213-75.213H256z"/>
    </g>
    <g fill="#d80027">
        <path d="M129.515 33.391a257.215 257.215 0 0 0-96.124 96.124V256h66.783V100.174H256V33.391H129.515z"/>
        <path d="M256 224.519l-90.955-90.953h-31.48v.002L255.998 256H256v-31.481z"/>
    </g>
    <path fill="#ffda44" d="M299.391 157.565V273.85c0 56.645 74 74.001 74 74.001s74-17.356 74-74.001V157.565z"/>
    <path fill="#ff9811" d="M362.82 199.851c0 11.677-9.466 42.286-21.143 42.286-11.678 0-21.143-30.609-21.143-42.286 0-11.678 21.143-21.143 21.143-21.143s21.143 9.465 21.143 21.143z"/>
    <path fill="#a2001d" d="M418.924 222.878c3.412-8.324 6.066-20.493 6.066-26.55 0-9.732-12.687-17.62-12.687-17.62s-12.686 7.889-12.686 17.62c0 6.057 2.654 18.226 6.065 26.55l-7.323 16.536a36.946 36.946 0 0 0 13.943 2.722c4.935 0 9.64-.973 13.944-2.722z"/>
    <path fill="#6da544" d="M357.534 273.851s-10.57 21.143-10.57 42.286h52.856c0-21.143-10.572-42.286-10.572-42.286l-15.857-10.571z"/>
    <path fill="#d80027" d="M389.248 273.851v-5.286c0-8.756-7.1-15.857-15.857-15.857s-15.857 7.1-15.857 15.857v5.286z"/>
</svg>
