<svg xmlns="http://www.w3.org/2000/svg" width="768" height="512" viewBox="0 0 768 512">
    <path fill="#0052b4" d="M0 .005h768v511.996H0z"/>
    <path fill="#ffda44" d="M498.087 159.996v117.33c0 57.152 77.913 74.666 77.913 74.666s77.913-17.512 77.913-74.667v-117.33z"/>
    <path fill="#ff9811" d="M564.869 202.661c0 11.782-9.966 42.667-22.26 42.667-12.294 0-22.26-30.883-22.26-42.667 0-11.784 22.26-21.333 22.26-21.333s22.26 9.55 22.26 21.333z"/>
    <path fill="#a2001d" d="M623.942 225.896c3.59-8.4 6.385-20.678 6.385-26.79 0-9.819-13.356-17.778-13.356-17.778s-13.356 7.96-13.356 17.778c0 6.112 2.793 18.39 6.386 26.79l-7.712 16.684a40.348 40.348 0 0 0 14.682 2.746c5.194 0 10.149-.98 14.682-2.746z"/>
    <path fill="#6da544" d="M559.305 277.325s-11.132 21.333-11.132 42.667h55.652c0-21.333-11.132-42.667-11.132-42.667L576 266.66z"/>
    <path fill="#d80027" d="M592.695 277.325v-5.332c0-8.837-7.474-15.999-16.695-15.999-9.22 0-16.695 7.164-16.695 15.999v5.332z"/>
    <path fill="#f0f0f0" d="M384 172.518h-88.655L384 221.769v34.225h-40.02l-110.241-61.238v61.238h-83.478v-72.858L19.116 255.994H0v-45.83l67.75-37.646H0V83.48h88.655L0 34.213V.004h40.02l110.241 61.237V.004h83.478v72.857L364.884.004H384v45.83L316.25 83.48H384z"/>
    <path fill="#d80027" d="M0 151.995h168v103.999h48V151.995h168v-47.999H216V0h-48v103.996H0z"/>
    <path fill="#0052b4" d="M233.739 172.518L384 255.994v-23.605l-107.77-59.871z"/>
    <path fill="#f0f0f0" d="M233.739 172.518L384 255.994v-23.605l-107.77-59.871z"/>
    <path fill="#d80027" d="M233.739 172.518L384 255.994v-23.605l-107.77-59.871zm-83.478 0h-42.492L0 232.389v23.605z"/>
    <path fill="#0052b4" d="M150.261 83.476L0 0v23.605l107.77 59.871z"/>
    <path fill="#f0f0f0" d="M150.261 83.476L0 0v23.605l107.77 59.871z"/>
    <path fill="#d80027" d="M150.261 83.476L0 0v23.605l107.77 59.871zm83.478 0h42.492L384 23.605V0z"/>
</svg>
