<svg xmlns="http://www.w3.org/2000/svg" viewBox="0 0 512 512">
    <path fill="#0052b4" d="M0 0h512v512H0z"/>
    <path fill="#ffda44" d="M314.058 189.217V302.36c0 55.114 72 72 72 72s72-16.886 72-72V189.217z"/>
    <path fill="#ff9811" d="M375.771 230.36c0 11.362-9.21 41.145-20.57 41.145-11.361 0-20.571-29.781-20.571-41.144 0-11.36 20.57-20.57 20.57-20.57s20.571 9.208 20.571 20.57z"/>
    <path fill="#a2001d" d="M430.362 252.767c3.318-8.1 5.9-19.94 5.9-25.834 0-9.468-12.343-17.143-12.343-17.143s-12.342 7.676-12.342 17.143c0 5.894 2.581 17.733 5.901 25.834l-7.125 16.09a35.926 35.926 0 0 0 13.568 2.648c4.8 0 9.378-.945 13.567-2.649z"/>
    <path fill="#6da544" d="M370.63 302.36s-10.287 20.57-10.287 41.144h51.427c0-20.571-10.285-41.144-10.285-41.144l-15.428-10.287z"/>
    <path fill="#d80027" d="M401.486 302.36v-5.143c0-8.52-6.907-15.427-15.428-15.427-8.52 0-15.427 6.906-15.427 15.427v5.143z"/>
    <path fill="#f0f0f0" d="M256 0v48.896l-40.147 40.147H256v77.914h-52.536L256 219.492V256h-23.719l-65.324-65.336V256H89.043v-77.724L11.331 256H0v-48.896l40.147-40.147H0V89.043h52.536L0 36.508V0h23.719l65.324 65.336V0h77.914v77.724L244.669 0z"/>
    <path fill="#d80027" d="M0 152.001h103.999V256h48V152.001H256v-48H151.999V0h-48v104.001H0z"/>
    <path fill="#0052b4" d="M166.957 166.957L256 256v-25.18l-63.863-63.863z"/>
    <path fill="#f0f0f0" d="M166.957 166.957L256 256v-25.18l-63.863-63.863z"/>
    <path fill="#d80027" d="M166.957 166.957L256 256v-25.18l-63.863-63.863zm-103.095.002L0 230.821V256l89.041-89.041z"/>
    <path fill="#0052b4" d="M89.043 89.043L0 0v25.18l63.863 63.863z"/>
    <path fill="#f0f0f0" d="M89.043 89.043L0 0v25.18l63.863 63.863z"/>
    <path fill="#d80027" d="M89.043 89.043L0 0v25.18l63.863 63.863zm103.095-.002L256 25.179V0l-89.041 89.041z"/>
</svg>
