<?xml version="1.0" encoding="UTF-8" standalone="no"?>
<svg
   xmlns:dc="http://purl.org/dc/elements/1.1/"
   xmlns:cc="http://creativecommons.org/ns#"
   xmlns:rdf="http://www.w3.org/1999/02/22-rdf-syntax-ns#"
   xmlns:svg="http://www.w3.org/2000/svg"
   xmlns="http://www.w3.org/2000/svg"
   xmlns:sodipodi="http://sodipodi.sourceforge.net/DTD/sodipodi-0.dtd"
   xmlns:inkscape="http://www.inkscape.org/namespaces/inkscape"
   width="768"
   height="512"
   viewBox="0 0 768 512"
   version="1.1"
   id="svg10"
   sodipodi:docname="tj_rect.svg"
   inkscape:version="1.0.1 (3bc2e813f5, 2020-09-07)">
  <metadata
     id="metadata16">
    <rdf:RDF>
      <cc:Work
         rdf:about="">
        <dc:format>image/svg+xml</dc:format>
        <dc:type
           rdf:resource="http://purl.org/dc/dcmitype/StillImage" />
      </cc:Work>
    </rdf:RDF>
  </metadata>
  <defs
     id="defs14" />
  <sodipodi:namedview
     pagecolor="#ffffff"
     bordercolor="#666666"
     borderopacity="1"
     objecttolerance="10"
     gridtolerance="10"
     guidetolerance="10"
     inkscape:pageopacity="0"
     inkscape:pageshadow="2"
     inkscape:window-width="640"
     inkscape:window-height="480"
     id="namedview12"
     showgrid="false"
     inkscape:current-layer="svg10" />
  <path
     fill="#f0f0f0"
     d="M0 0h768v512H0z"
     id="path2" />
  <path
     fill="#d80027"
     d="M 0,0 H 768 V 152 H 0 Z"
     id="path4"
     style="stroke-width:0.97468" />
  <path
     fill="#6da544"
     d="M 0,360 H 768 V 512 H 0 Z"
     id="path6"
     style="stroke-width:0.974679" />
  <path
     fill="#ffda44"
     d="m 334.75938,291.08229 v 41.8573 h 98.48124 v -41.8573 L 413.54375,300.93125 384,271.38958 354.45625,300.93229 Z m -68.34376,29.54583 4.58334,-14.10417 L 259,297.80521 h 14.83125 L 278.41667,283.69688 283,297.80521 h 14.83125 l -12,8.71875 4.58333,14.10417 -11.99791,-8.71875 z m 14.21042,-49.23854 4.58333,-14.10833 -11.99895,-8.71875 h 14.83125 l 4.58541,-14.10417 4.58334,14.10417 h 14.83125 l -12,8.71875 4.58437,14.10833 -12,-8.7198 z m 40.62396,-36.93125 4.58333,-14.1073 -11.99896,-8.71875 h 14.83125 l 4.58542,-14.10416 4.58333,14.10416 h 14.83125 l -11.99895,8.71875 4.58333,14.1073 -11.99896,-8.71875 z M 501.58438,320.62812 497.00104,306.52396 509,297.80521 H 494.16875 L 489.58333,283.69688 485,297.80521 h -14.83125 l 12,8.71875 -4.58333,14.10417 11.99791,-8.71875 z m -14.21042,-49.23854 -4.58333,-14.10833 11.99895,-8.71875 h -14.83125 l -4.58541,-14.10417 -4.58334,14.10417 h -14.83125 l 12,8.71875 -4.58437,14.10833 12,-8.7198 z M 446.75,234.45834 l -4.58333,-14.1073 11.99896,-8.71875 h -14.8323 l -4.58541,-14.10416 -4.58334,14.10416 h -14.83125 l 11.99896,8.71875 -4.58333,14.1073 11.99896,-8.71875 z M 372,215.99063 l 4.58438,-14.10418 -12,-8.71978 h 14.83229 L 384,179.06042 l 4.58333,14.10625 h 14.83334 l -12.00105,8.71875 4.58334,14.10521 L 384,207.275 Z"
     id="path8"
     style="stroke-width:1.04167" />
</svg>
