<svg xmlns="http://www.w3.org/2000/svg" viewBox="0 0 512 512">
    <path fill="#f0f0f0" d="M25.402 144.696C9.128 178.352 0 216.11 0 256s9.128 77.648 25.402 111.304L256 389.565l230.598-22.261C502.872 333.648 512 295.89 512 256s-9.128-77.648-25.402-111.304L256 122.435 25.402 144.696z"/>
    <path fill="#6da544" d="M25.411 367.304C66.818 452.934 154.507 512 256 512s189.183-59.066 230.589-144.696H25.411z"/>
    <path fill="#d80027" d="M25.411 144.696h461.178C445.183 59.066 357.493 0 256 0S66.818 59.066 25.411 144.696z"/>
    <path fill="#ffda44" d="M289.09 306.323L256 273.233l-33.09 33.09-22.059-11.03v46.878H311.15v-46.877zm-143.04 6.262l5.135 15.798-13.44-9.763-13.44 9.763 5.135-15.798-13.44-9.766h16.61l5.135-15.797 5.135 15.798h16.61zm15.916-55.15l5.134 15.798-13.439-9.763-13.44 9.763 5.134-15.798-13.439-9.764h16.611l5.134-15.799 5.134 15.799h16.61zm45.501-41.36l5.132 15.797-13.438-9.763-13.439 9.763 5.133-15.798-13.44-9.764h16.612l5.133-15.798 5.135 15.798h16.61zm158.482 96.51l-5.134 15.798 13.44-9.763 13.438 9.763-5.133-15.798 13.44-9.766h-16.61l-5.135-15.797-5.135 15.798h-16.61zm-15.915-55.15l-5.135 15.798 13.44-9.763 13.44 9.763-5.134-15.798 13.439-9.764h-16.611l-5.134-15.799-5.134 15.799h-16.61zm-45.501-41.36l-5.133 15.797 13.44-9.763 13.438 9.763-5.133-15.798 13.437-9.764h-16.609l-5.133-15.798-5.135 15.798h-16.61zm-40.227-20.683l5.134 15.798-13.44-9.763-13.44 9.763 5.134-15.798-13.439-9.764h16.61L256 169.829l5.134 15.799h16.61z"/>
</svg>
