<svg xmlns="http://www.w3.org/2000/svg" width="768" height="512" viewBox="0 0 768 512">
    <path fill="#f0f0f0" d="M0 0h768v512H0z"/>
    <path fill="#d80027" d="M0 0h768v160H0z"/>
    <path fill="#6da544" d="M0 352h768v160H0z"/>
    <path fill="#ffda44" d="M336.729 291.19v40.183h94.542V291.19l-18.909 9.455L384 272.285l-28.362 28.361zm-65.61 28.364l4.4-13.54-11.519-8.37h14.238l4.402-13.544 4.4 13.544h14.238l-11.52 8.37 4.4 13.54-11.518-8.37zm13.642-47.269l4.4-13.544-11.519-8.37h14.238l4.402-13.54 4.4 13.54h14.238l-11.52 8.37 4.401 13.544-11.52-8.371zm38.999-35.454l4.4-13.543-11.519-8.37h14.238l4.402-13.54 4.4 13.54h14.238l-11.519 8.37 4.4 13.543-11.519-8.37zm173.121 82.723l-4.4-13.54 11.519-8.37h-14.238L485.36 284.1l-4.4 13.544h-14.238l11.52 8.37-4.4 13.54 11.518-8.37zm-13.642-47.269l-4.4-13.544 11.519-8.37H476.12l-4.402-13.54-4.4 13.54H453.08l11.52 8.37-4.401 13.544 11.52-8.371zm-38.999-35.454l-4.4-13.543 11.519-8.37H437.12l-4.402-13.54-4.4 13.54H414.08l11.519 8.37-4.4 13.543 11.519-8.37zm-71.76-17.729l4.401-13.54-11.52-8.371H379.6l4.4-13.542 4.4 13.542h14.24l-11.521 8.37 4.4 13.541L384 210.735z"/>
</svg>
