<svg xmlns="http://www.w3.org/2000/svg" viewBox="0 0 512 512">
    <path fill="#f0f0f0" d="M0 .007h512v511.989H0z"/>
    <path fill="#d80027" d="M0 .001h512v160H0z"/>
    <path fill="#6da544" d="M0 352h512v160H0z"/>
    <path fill="#ffda44" d="M256 271.993l-28.363 28.362-18.908-9.454v40.18h94.542v-40.18l-18.908 9.454zm-89.842 47.271l-11.52-8.37-11.519 8.37 4.4-13.542L136 297.353h14.238l4.4-13.542 4.4 13.542h14.238l-11.518 8.37zm13.641-47.271l-11.518-8.368-11.52 8.368 4.4-13.541-11.519-8.37h14.239l4.4-13.541 4.4 13.542h14.238l-11.52 8.369zm39.001-35.452l-11.52-8.369-11.52 8.369 4.4-13.542-11.519-8.37h14.239l4.4-13.54 4.4 13.54h14.24L214.4 223zm127.042 82.723l11.519-8.37 11.52 8.37-4.4-13.542L376 297.353h-14.238l-4.401-13.542-4.4 13.542h-14.24l11.52 8.37zM332.2 271.993l11.519-8.368 11.52 8.368-4.4-13.541 11.519-8.37h-14.239l-4.4-13.541-4.4 13.542h-14.238l11.52 8.369zm-39-35.452l11.52-8.369 11.52 8.369-4.4-13.542 11.518-8.37H309.12l-4.4-13.54-4.401 13.54H286.08L297.6 223zm-25.68-17.728L256 210.444l-11.52 8.37 4.4-13.542-11.52-8.37h14.24l4.4-13.541 4.4 13.542h14.24l-11.52 8.369z"/>
</svg>
