<?xml version="1.0" encoding="UTF-8" standalone="no"?>
<svg
   xmlns:dc="http://purl.org/dc/elements/1.1/"
   xmlns:cc="http://creativecommons.org/ns#"
   xmlns:rdf="http://www.w3.org/1999/02/22-rdf-syntax-ns#"
   xmlns:svg="http://www.w3.org/2000/svg"
   xmlns="http://www.w3.org/2000/svg"
   xmlns:sodipodi="http://sodipodi.sourceforge.net/DTD/sodipodi-0.dtd"
   xmlns:inkscape="http://www.inkscape.org/namespaces/inkscape"
   viewBox="0 0 512 512"
   version="1.1"
   id="svg10"
   sodipodi:docname="tj_square.svg"
   inkscape:version="1.0.1 (3bc2e813f5, 2020-09-07)">
  <metadata
     id="metadata16">
    <rdf:RDF>
      <cc:Work
         rdf:about="">
        <dc:format>image/svg+xml</dc:format>
        <dc:type
           rdf:resource="http://purl.org/dc/dcmitype/StillImage" />
      </cc:Work>
    </rdf:RDF>
  </metadata>
  <defs
     id="defs14" />
  <sodipodi:namedview
     pagecolor="#ffffff"
     bordercolor="#666666"
     borderopacity="1"
     objecttolerance="10"
     gridtolerance="10"
     guidetolerance="10"
     inkscape:pageopacity="0"
     inkscape:pageshadow="2"
     inkscape:window-width="640"
     inkscape:window-height="480"
     id="namedview12"
     showgrid="false"
     inkscape:current-layer="svg10" />
  <path
     fill="#f0f0f0"
     d="M0 .007h512v511.989H0z"
     id="path2" />
  <path
     fill="#d80027"
     d="m 0,0.001 h 512 v 152 H 0 Z"
     id="path4"
     style="stroke-width:0.974679" />
  <path
     fill="#6da544"
     d="M 0,360 H 512 V 512 H 0 Z"
     id="path6"
     style="stroke-width:0.974679" />
  <path
     fill="#ffda44"
     d="m 256,271.3875 -29.54479,29.54375 -19.69584,-9.84792 v 41.85417 h 98.48125 v -41.85417 l -19.69583,9.84792 z m -93.58542,49.24062 -12,-8.71875 -11.99896,8.71875 4.58334,-14.10624 L 131,297.80417 h 14.83125 l 4.58333,-14.10625 4.58334,14.10625 h 14.83125 l -11.99792,8.71875 z m 14.20938,-49.24062 -11.99792,-8.71667 -12,8.71667 4.58333,-14.10521 -11.99895,-8.71875 h 14.83229 l 4.58333,-14.10521 4.58333,14.10625 h 14.83125 l -12,8.71771 z m 40.62604,-36.92917 -12,-8.71771 -12,8.71771 4.58333,-14.10625 -11.99896,-8.71875 h 14.8323 l 4.58333,-14.10416 4.58333,14.10416 h 14.83334 l -12,8.71979 z m 132.33542,86.16979 11.99896,-8.71875 11.99999,8.71875 -4.58333,-14.10624 L 381,297.80417 h -14.83125 l -4.58437,-14.10625 -4.58334,14.10625 h -14.83333 l 12,8.71875 z M 335.375,271.3875 l 11.99896,-8.71667 12,8.71667 -4.58334,-14.10521 11.99896,-8.71875 h -14.83229 l -4.58333,-14.10521 -4.58333,14.10625 h -14.83125 l 12,8.71771 z m -40.625,-36.92917 12,-8.71771 12,8.71771 -4.58333,-14.10625 11.99791,-8.71875 h -14.83125 l -4.58333,-14.10416 -4.58437,14.10416 h -14.8323 l 12,8.71979 z M 268,215.99167 l -12,-8.71771 -12,8.71875 4.58333,-14.10625 -12,-8.71875 h 14.83334 L 256,179.0625 l 4.58333,14.10625 h 14.83334 l -12,8.71771 z"
     id="path8"
     style="stroke-width:1.04167" />
</svg>
