<svg xmlns="http://www.w3.org/2000/svg" width="768" height="512" viewBox="0 0 768 512">
    <path fill="#0052b4" d="M0 0h768v512H0z"/>
    <path fill="#f0f0f0" d="M330.538 178.085l-14.466-10.51-14.466 10.51 5.526-17.006-14.467-10.509h17.881l5.527-17.007 5.526 17.007h17.878l-14.464 10.51zm-137.23 172.527l-18.084-13.14-18.083 13.14 6.906-21.26-18.08-13.136h22.348l6.909-21.259 6.908 21.259h22.35l-18.083 13.136zm41.819-243.445l-18.083-13.139-18.084 13.139 6.909-21.257-18.082-13.137h22.35l6.907-21.259 6.906 21.259h22.351L228.218 85.91zm-112.736 83.48l-18.083-13.138-18.084 13.138 6.91-21.257-18.083-13.138h22.35l6.908-21.258 6.906 21.258h22.35l-18.083 13.138z"/>
    <path fill="#ffda44" d="M725.079 403.758H176.702S340.552 270.912 642.59 72.344c.002 0-132.665 193.406 82.488 331.414zm-548.377 17.379c-16.766 0-16.793 26.056 0 26.056h548.377c16.765 0 16.793-26.056 0-26.056z"/>
</svg>
