<svg xmlns="http://www.w3.org/2000/svg" viewBox="0 0 512 512">
    <path fill="#0052b4" d="M0 0h512v512H0z"/>
    <path fill="#f0f0f0" d="M222.602 138.924l4.18 12.863h13.522l-10.94 7.949 4.18 12.862-10.942-7.95-10.941 7.95 4.18-12.862-10.943-7.949h13.524zM116.07 260.993l5.225 16.079H138.2l-13.677 9.935 5.225 16.08-13.678-9.94-13.676 9.94 5.223-16.08-13.676-9.935h16.904zm31.631-184.126l5.224 16.079h16.905l-13.678 9.936 5.226 16.078-13.677-9.938-13.678 9.938 5.226-16.078-13.677-9.936h16.905zm-85.268 63.14l5.224 16.078H84.56l-13.677 9.936L76.11 182.1l-13.677-9.937-13.678 9.937 5.226-16.078-13.677-9.936H57.21z"/>
    <path fill="#ffda44" d="M487.386 354.503H121.801s109.234-88.562 310.593-220.938c.001 0-88.443 128.935 54.992 220.938zm-365.585 11.586c-11.177 0-11.195 17.37 0 17.37h365.585c11.177 0 11.195-17.37 0-17.37z"/>
</svg>
