<svg xmlns="http://www.w3.org/2000/svg" width="768" height="512" viewBox="0 0 768 512">
    <path fill="#496e2d" d="M0 0h768v512H0z"/>
    <g fill="#f0f0f0">
        <path d="M482.312 147.516c12.596-35.107-1.554-73.288-31.921-92.306a78.196 78.196 0 0 1 16.326 3.932c40.503 14.532 61.557 59.143 47.025 99.648-14.532 40.506-59.142 61.559-99.647 47.026a78.273 78.273 0 0 1-15.103-7.342c35.529 4.626 70.725-15.85 83.32-50.958zm-87.564-79.047l-10.944 14.14 17.164-5.006 10.068 14.778.542-17.871 17.166-5.009-16.832-6.038.543-17.874-10.945 14.14-16.83-6.038z"/>
        <path d="M424.3 114.548l-10.944 14.141 17.164-5.008 10.068 14.78.54-17.873 17.167-5.01-16.831-6.037.543-17.873-10.944 14.141-16.832-6.039zm-81.656-29.297L331.7 99.391l17.165-5.007 10.067 14.778.542-17.873 17.166-5.006-16.832-6.04.542-17.873-10.944 14.14-16.829-6.035zm-1.2 52.783L330.5 152.175l17.166-5.007 10.066 14.778.543-17.872 17.165-5.007-16.83-6.04.541-17.873-10.944 14.141-16.831-6.039zm50.228 18.022l-10.946 14.14 17.166-5.008 10.068 14.778.54-17.873 17.165-5.007-16.829-6.037.541-17.875-10.944 14.141-16.83-6.039z"/>
    </g>
    <path fill="#d80027" d="M125.217 0h133.565v512H125.217z"/>
    <path fill="#f0f0f0" d="M207.813 77.91l22.362 16.658v23.558l-22.362 16.658h-31.626l-22.362-16.658V94.568l22.362-16.658z"/>
    <path fill="#ff9811" d="M192 106.085V77.91h-15.813l-22.362 16.658v11.517zm0 .023v28.676h15.813l22.362-16.658v-12.018z"/>
    <path fill="#f0f0f0" d="M207.813 377.218l22.362 16.657v23.557l-22.362 16.66h-31.626l-22.362-16.66v-23.557l22.362-16.657z"/>
    <path fill="#ff9811" d="M192 405.393v-28.175h-15.813l-22.362 16.657v11.518zm0 .022v28.676h15.813l22.362-16.659v-12.017z"/>
    <path fill="#496e2d" d="M207.813 227.564l22.362 16.66v23.554l-22.362 16.658h-31.626l-22.362-16.658v-23.555l22.362-16.66zm-15.815 71.682l-12.1 12.102h-17.115v9.74h-9.74v19.48h9.74v9.738h17.115L192 362.409l12.102-12.103h17.115v-9.739h9.74v-19.48h-9.74v-9.739h-17.116zm0-149.656l-12.1 12.104h-17.115v9.739h-9.74v19.48h9.74v9.737h17.115L192 212.756l12.102-12.106h17.115v-9.738h9.74v-19.48h-9.74v-9.738h-17.116z"/>
    <g fill="#d80027" transform="matrix(1.5 0 0 1.50003 0 -128.008)">
        <path d="M120.576 248.576h14.84v14.84h-14.84z"/>
        <circle cx="128" cy="206.113" r="7.421"/>
        <circle cx="128" cy="305.887" r="7.421"/>
    </g>
</svg>
