<svg xmlns="http://www.w3.org/2000/svg" width="768" height="512" viewBox="0 0 768 512">
    <path fill="#d80027" d="M0 0h768v512H0z"/>
    <ellipse cx="384" cy="255.992" fill="#f0f0f0" rx="144" ry="143.998"/>
    <g fill="#d80027">
        <path d="M466.411 290.062l-39.996-13.021-24.742 34.014.025-42.06-39.995-13.023L401.712 243l.026-42.062 24.705 34.042 40.01-12.973-24.745 34.013z"/>
        <path d="M416.727 341.086c-46.995 0-85.09-38.095-85.09-85.09 0-46.994 38.095-85.09 85.09-85.09 14.654 0 28.44 3.706 40.477 10.23C438.322 162.67 412.5 151.271 384 151.271c-57.837 0-104.727 46.888-104.727 104.726S326.163 360.724 384 360.724c28.498 0 54.323-11.399 73.204-29.864-12.039 6.52-25.824 10.226-40.477 10.226z"/>
    </g>
</svg>
