<svg xmlns="http://www.w3.org/2000/svg" viewBox="0 0 512 512">
    <circle cx="256" cy="256" r="256" fill="#d80027"/>
    <g fill="#f0f0f0">
        <path d="M274.913 202.9l23.826 32.832 38.586-12.511-23.864 32.804 23.823 32.831-38.572-12.559-23.862 32.804.025-40.564-38.574-12.559 38.587-12.51z"/>
        <path d="M209.89 338.066c-45.322 0-82.065-36.743-82.065-82.065 0-45.322 36.743-82.065 82.065-82.065 14.131 0 27.428 3.575 39.036 9.864-18.211-17.81-43.117-28.802-70.599-28.802-55.783 0-101.002 45.22-101.002 101.002s45.22 101.002 101.002 101.002c27.484 0 52.39-10.993 70.6-28.802-11.61 6.292-24.906 9.866-39.037 9.866z"/>
    </g>
</svg>
