<svg xmlns="http://www.w3.org/2000/svg" width="768" height="512" viewBox="0 0 768 512">
    <path fill="#d80027" d="M0 0h768v512H0z"/>
    <g fill="#f0f0f0">
        <path d="M439.907 292.394l-42.726-13.911-26.432 36.338.027-44.934-42.726-13.912 42.741-13.86.029-44.936 26.39 36.37 42.74-13.859-26.431 36.337z"/>
        <path d="M298.803 346.905c-50.204 0-90.903-40.7-90.903-90.905s40.7-90.905 90.903-90.905c15.654 0 30.381 3.959 43.24 10.926-20.172-19.728-47.76-31.904-78.202-31.904-61.79 0-111.879 50.092-111.879 111.882 0 61.789 50.091 111.88 111.879 111.88 30.443 0 58.03-12.175 78.203-31.903-12.858 6.97-27.587 10.929-43.241 10.929z"/>
    </g>
</svg>
