<svg xmlns="http://www.w3.org/2000/svg" viewBox="0 0 512 512">
    <path fill="#d80027" d="M0 0h512v512H0z"/>
    <g fill="#f0f0f0">
        <path d="M280.007 198.817l25.658 35.357 41.553-13.474-25.698 35.327 25.655 35.357-41.54-13.523-25.697 35.326.026-43.684-41.54-13.525 41.555-13.474z"/>
        <path d="M209.981 344.38c-48.81 0-88.378-39.568-88.378-88.379 0-48.81 39.567-88.379 88.378-88.379 15.219 0 29.538 3.848 42.041 10.622-19.612-19.18-46.434-31.017-76.031-31.017-60.074 0-108.773 48.7-108.773 108.773 0 60.073 48.7 108.773 108.773 108.773 29.597 0 56.419-11.838 76.031-31.017-12.503 6.775-26.822 10.624-42.04 10.624z"/>
    </g>
</svg>
