<svg xmlns="http://www.w3.org/2000/svg" width="768" height="512" viewBox="0 0 768 512">
    <path fill="#338af3" d="M0 .005h768v511.996H0z"/>
    <path fill="#ffda44" d="M519.004 417.383l-14.468-10.51-14.465 10.51 5.525-17.006-14.466-10.51h17.882l5.524-17.006 5.526 17.007h17.882l-14.466 10.509zM661.408 306.08l-14.466-10.51-14.466 10.51 5.526-17.006-14.467-10.508h17.881l5.526-17.007 5.526 17.007h17.88l-14.466 10.508zm35.683-166.953l-14.467-10.51-14.466 10.51 5.526-17.005-14.466-10.51h17.88l5.526-17.006 5.526 17.005h17.882l-14.466 10.51zm8.84 122.432l-14.467-10.51-14.466 10.51 5.525-17.005-14.467-10.51h17.881l5.527-17.006 5.524 17.007h17.881l-14.464 10.509zM571.89 354.118l-17.663 2.797-2.796 17.66-8.118-15.932-17.661 2.799 12.645-12.643-8.12-15.933 15.935 8.118 12.642-12.643L555.957 346zm0-66.782l-17.663 2.799-2.796 17.659-8.118-15.931-17.661 2.797 12.645-12.643-8.12-15.933 15.935 8.118 12.642-12.643-2.797 17.66zm55.651 42.808l-17.663 2.797-2.795 17.66-8.117-15.932-17.661 2.799 12.644-12.643-8.12-15.933 15.935 8.116 12.643-12.643-2.796 17.66zm0-142.979l-17.663 2.797-2.795 17.66-8.117-15.932-17.661 2.8 12.644-12.646-8.12-15.93 15.935 8.116 12.643-12.644-2.796 17.661zm53.937-1.715l-17.662 2.798-2.797 17.66-8.116-15.932-17.661 2.797 12.644-12.643-8.12-15.931 15.934 8.116 12.644-12.642-2.798 17.66z"/>
    <path fill="#f0f0f0" d="M0 .005h384v255.989H0z"/>
    <path fill="#d80027" d="M0 151.997h168v103.997h48V151.997h168v-48H216V0h-48v103.997H0z"/>
    <path fill="#0052b4" d="M384 221.774v-49.256h-88.662zm-150.261-49.256L384 255.994v-23.605l-107.77-59.871zm0 22.229v61.247h110.236z"/>
    <path fill="#f0f0f0" d="M233.739 172.518L384 255.994v-23.605l-107.77-59.871z"/>
    <path fill="#d80027" d="M233.739 172.518L384 255.994v-23.605l-107.77-59.871z"/>
    <path fill="#0052b4" d="M0 210.16v-37.644h67.757zm150.261 45.834H19.118l131.143-72.861z"/>
    <path fill="#d80027" d="M150.261 172.518h-42.492L0 232.389v23.605z"/>
    <path fill="#0052b4" d="M0 34.22v49.256h88.662zm150.261 49.256L0 0v23.605l107.77 59.871zm0-22.229V0H40.025z"/>
    <path fill="#f0f0f0" d="M150.261 83.476L0 0v23.605l107.77 59.871z"/>
    <path fill="#d80027" d="M150.261 83.476L0 0v23.605l107.77 59.871z"/>
    <path fill="#0052b4" d="M384 45.836v37.642h-67.756zM233.739.001h131.143L233.74 72.863z"/>
    <path fill="#d80027" d="M233.739 83.476h42.492L384 23.605V0z"/>
</svg>
