<svg xmlns="http://www.w3.org/2000/svg" width="768" height="512" viewBox="0 0 768 512">
    <path fill="#d80027" d="M0 0h768v512H0z"/>
    <path fill="#0052b4" d="M0 0h384v256H0z"/>
    <path fill="#f0f0f0" d="M219.089 211.383L192 182.488l-27.09 28.895-4.927-39.289-38.891 7.44 19.071-34.688-35.815-16.845 35.815-16.847-19.071-34.688 38.89 7.44 4.93-39.289L192 73.512l27.09-28.895 4.927 39.289 38.892-7.44-19.072 34.688L279.653 128l-35.816 16.847 19.071 34.688-38.89-7.442z"/>
    <ellipse cx="192" cy="128.008" fill="#0052b4" rx="43.509" ry="43.51"/>
    <path fill="#f0f0f0" d="M192 157.088c-16.038 0-29.087-13.05-29.087-29.087 0-16.039 13.05-29.087 29.087-29.087 16.038 0 29.087 13.05 29.087 29.087s-13.05 29.087-29.087 29.087z"/>
</svg>
