<svg xmlns="http://www.w3.org/2000/svg" width="768" height="512" viewBox="0 0 768 512">
    <path d="M0 0h768v512H0z"/>
    <path fill="#ffda44" d="M0 85.334h768v85.334H0z"/>
    <path fill="#d80027" d="M0 170.666h768V256H0z"/>
    <path fill="#ffda44" d="M0 341.334h768v85.334H0z"/>
    <path fill="#d80027" d="M0 426.666h768V512H0z"/>
    <ellipse cx="384" cy="256" fill="#f0f0f0" rx="85.431" ry="85.433"/>
    <path d="M415.295 260.355L384 246.793s7.322-24.302 7.712-25.966a16.56 16.56 0 0 0 .438-3.784c0-4.611-1.868-8.786-4.89-11.806l7.87-7.87a27.736 27.736 0 0 0-19.675-8.15 27.736 27.736 0 0 0-19.676 8.15l7.87 7.87a16.636 16.636 0 0 0-4.89 11.806c0 1.686.255 3.31.72 4.845l-11.85 11.85h21.536s-8.904 13.373-13.764 24.356c-4.86 10.983.068 24.39 11.301 29.383l6.495 2.886L384 300.519v11.132l-11.132 11.132h22.26v-22.26l10.157-10.157h21.006c.102-.209.207-.413.301-.626 4.997-11.241-.063-24.393-11.298-29.385z"/>
</svg>
