<svg xmlns="http://www.w3.org/2000/svg" width="768" height="512" viewBox="0 0 768 512">
    <path fill="#f0f0f0" d="M0 0h768v512H0z"/>
    <path fill="#d80027" d="M0 113.5h768v58H0zM0 227h768v58H0zm0 113.5h768v58H0zM0 454h768v58H0zM2.078 0h768v58h-768z"/>
    <path fill="#0052b4" d="M0 0h382.521v285H0z"/>
    <path fill="#f0f0f0" d="M155.907 137.964l-6.174-19.026-6.185 19.026h-20.004l16.187 11.752-6.184 19.025 16.186-11.753 16.176 11.753-6.183-19.025 16.187-11.752zm20.006 68.657h-20.006l-6.174-19.024-6.185 19.024h-20.004l16.187 11.754-6.184 19.025 16.186-11.754 16.176 11.754-6.183-19.025zm-84.545 0H71.365l-6.175-19.024-6.184 19.024H39l16.187 11.754-6.185 19.025 16.187-11.754L81.367 237.4l-6.183-19.025zm-20.003-68.657l-6.175-19.026-6.184 19.026H39l16.187 11.752-6.185 19.025 16.187-11.753 16.177 11.753-6.183-19.025 16.184-11.752zm84.542-68.659l-6.174-19.027-6.185 19.027h-20.004l16.187 11.754-6.184 19.024 16.186-11.753 16.176 11.753-6.183-19.024 16.187-11.754zm-84.542 0L65.19 50.278l-6.184 19.027H39L55.188 81.06l-6.185 19.024L65.19 88.33l16.177 11.753-6.183-19.024 16.184-11.754zm169.086 68.659l-6.177-19.026-6.182 19.026h-20.005l16.185 11.752-6.181 19.025 16.183-11.753 16.18 11.753-6.185-19.025 16.186-11.752zm20.005 68.657H240.45l-6.176-19.024-6.183 19.024h-20.004l16.185 11.754-6.182 19.025 16.184-11.754 16.179 11.754-6.185-19.025zm84.542 0h-20.003l-6.176-19.024-6.185 19.024h-20.002l16.184 11.754-6.183 19.025 16.186-11.754 16.178 11.754-6.185-19.025zm-20.003-68.657l-6.176-19.026-6.185 19.026h-20.002l16.184 11.752-6.183 19.025 16.186-11.753 16.178 11.753-6.185-19.025 16.187-11.752zm-84.544-68.659l-6.177-19.027-6.182 19.027h-20.005l16.185 11.754-6.181 19.024 16.183-11.753 16.18 11.753-6.185-19.024 16.186-11.754zm84.544 0l-6.176-19.027-6.185 19.027h-20.002l16.184 11.754-6.183 19.024 16.186-11.753 16.178 11.753-6.185-19.024 16.187-11.754z"/>
</svg>
