<svg xmlns="http://www.w3.org/2000/svg" viewBox="0 0 512 512">
    <path fill="#f0f0f0" d="M0 0h512v512H0z"/>
    <path fill="#d80027" d="M0 113.5h512v58H0zM0 227h512v58H0zm0 113.5h512v58H0zM0 454h512v58H0zM0 0h512v58H0z"/>
    <path fill="#0052b4" d="M0 0h259.32v285H0z"/>
    <path fill="#f0f0f0" d="M44.469 143.163l-5.594 17.212 14.643-10.634 14.637 10.634-5.595-17.212 14.643-10.634H59.106l-5.588-17.211-5.594 17.211H29.826zm-14.643 51.482l14.643 10.634-5.594 17.211 14.643-10.633 14.637 10.633-5.595-17.211 14.643-10.634H59.106l-5.588-17.211-5.594 17.211zM44.469 81.047l-5.594 17.212 14.643-10.634 14.637 10.634-5.595-17.212 14.643-10.633H59.106l-5.588-17.212-5.594 17.212H29.826zm76.485 62.116l-5.594 17.212 14.643-10.634 14.637 10.634-5.595-17.212 14.644-10.634h-18.098l-5.588-17.211-5.594 17.211h-18.098zm-14.643 51.482l14.643 10.634-5.594 17.211 14.643-10.633 14.637 10.633-5.595-17.211 14.644-10.634h-18.098l-5.588-17.211-5.594 17.211zm76.486 0l14.643 10.634-5.595 17.211 14.644-10.633 14.636 10.633-5.594-17.211 14.643-10.634h-18.098l-5.587-17.211-5.595 17.211zm14.643-51.482l-5.595 17.212 14.644-10.634 14.636 10.634-5.594-17.212 14.643-10.634h-18.098l-5.587-17.211-5.595 17.211h-18.097zm-76.486-62.116l-5.594 17.212 14.643-10.634 14.637 10.634-5.595-17.212 14.644-10.633h-18.098l-5.588-17.212-5.594 17.212h-18.098zm76.486 0l-5.595 17.212 14.644-10.634 14.636 10.634-5.594-17.212 14.643-10.633h-18.098l-5.587-17.212-5.595 17.212h-18.097z"/>
</svg>
