<svg xmlns="http://www.w3.org/2000/svg" width="768" height="512" viewBox="0 0 768 512">
    <path fill="#f0f0f0" d="M0 0h768v512H0z"/>
    <path fill="#0052b4" d="M0 0h768v73.145H0zm0 146.29h768v73.145H0zm0 146.291h768v73.145H0zm0 146.273h768v73.145H0z"/>
    <path fill="#f0f0f0" d="M0 0h384v292.581H0z"/>
    <path fill="#ffda44" d="M221.668 237.608L192 205.96l-29.67 31.648-5.396-43.031-42.595 8.148 20.887-37.99L96 146.283l39.226-18.452-20.887-37.99 42.594 8.149 5.398-43.032L192 86.608l29.67-31.65 5.395 43.032 42.597-8.149-20.889 37.992L288 146.283l-39.227 18.452 20.888 37.991-42.595-8.15z"/>
</svg>
