<svg xmlns="http://www.w3.org/2000/svg" width="768" height="512" viewBox="0 0 768 512">
    <path fill="#d80027" d="M0 0h768v512H0z"/>
    <path fill="#6da544" d="M0 352h768v160H0z"/>
    <path fill="#338af3" d="M0 0h768v156.776H0z"/>
    <path fill="#f0f0f0" d="M0 181h768v150H0z"/>
    <path fill="#338af3" d="M0 0h768v160H0z"/>
    <path fill="#f0f0f0" d="M97.032 80.38c0-23.977 16.851-44.01 39.354-48.922a50.296 50.296 0 0 0-10.733-1.166c-27.663 0-50.086 22.424-50.086 50.088 0 27.663 22.423 50.087 50.086 50.087 3.687 0 7.275-.41 10.733-1.165-22.503-4.913-39.354-24.946-39.354-48.922zm54.593 33.201h10.972l3.39-10.435 3.392 10.435h10.972l-8.877 6.452 3.392 10.434-8.879-6.45-8.877 6.45 3.391-10.434zm35.022 0h10.97l3.392-10.435 3.39 10.435h10.973l-8.877 6.452 3.391 10.434-8.877-6.45-8.877 6.45 3.39-10.434zm35.018 0h10.973l3.391-10.435 3.39 10.435h10.973l-8.875 6.452 3.39 10.434-8.878-6.45-8.877 6.45 3.39-10.434zm35.023 0h10.97l3.392-10.435 3.393 10.435h10.972l-8.878 6.452 3.392 10.434-8.879-6.45-8.877 6.45 3.393-10.434zm35.022 0h10.97l3.392-10.435 3.39 10.435h10.972l-8.877 6.452 3.392 10.434-8.877-6.45-8.877 6.45 3.39-10.434zM186.647 77.153h10.97l3.392-10.434 3.39 10.434h10.973l-8.877 6.45 3.391 10.436-8.877-6.449-8.877 6.449 3.39-10.436zm35.018 0h10.973l3.391-10.434 3.39 10.434h10.973l-8.875 6.45 3.39 10.436-8.878-6.449-8.877 6.449 3.39-10.436zm35.023 0h10.97l3.392-10.434 3.393 10.434h10.972l-8.878 6.45 3.392 10.436-8.879-6.449-8.877 6.449 3.393-10.436zm35.022 0h10.97l3.392-10.434 3.39 10.434h10.972l-8.877 6.45 3.392 10.436-8.877-6.449-8.877 6.449 3.39-10.436zm-70.045-36.427h10.973l3.391-10.434 3.39 10.434h10.973l-8.875 6.45 3.39 10.436-8.878-6.45-8.877 6.45 3.39-10.436zm35.023 0h10.97l3.392-10.434 3.393 10.434h10.972l-8.878 6.45 3.392 10.436-8.879-6.45-8.877 6.45 3.393-10.436zm35.022 0h10.97l3.392-10.434 3.39 10.434h10.972l-8.877 6.45 3.392 10.436-8.877-6.45-8.877 6.45 3.39-10.436z"/>
</svg>
