<svg xmlns="http://www.w3.org/2000/svg" viewBox="0 0 512 512">
    <path fill="#d80027" d="M0 0h512v512H0z"/>
    <path fill="#338af3" d="M0 .007h512V181.8H0z"/>
    <path fill="#6da544" d="M0 330.207h512V512H0z"/>
    <path fill="#f0f0f0" d="M87.112 111.342c0-21.541 15.14-39.538 35.356-43.953a45.134 45.134 0 0 0-9.642-1.048c-24.854.001-45 20.147-45 45 0 24.855 20.146 45 45 45 3.312 0 6.534-.367 9.642-1.047-20.217-4.414-35.356-22.41-35.356-43.952zm61.953 20.455l3.047 9.374h9.858l-7.976 5.796 3.047 9.374-7.976-5.792-7.976 5.792 3.048-9.374-7.977-5.796h9.859zm31.465 0l3.046 9.374h9.858l-7.975 5.796 3.046 9.374-7.976-5.792-7.976 5.792 3.047-9.374-7.974-5.796h9.856zm31.463 0l3.047 9.374h9.858l-7.976 5.796 3.048 9.374-7.977-5.792-7.974 5.792 3.045-9.374-7.975-5.796h9.858zm31.464 0l3.047 9.374h9.858l-7.976 5.796 3.047 9.374-7.976-5.792-7.975 5.792 3.046-9.374-7.975-5.796h9.858zm31.464 0l3.046 9.374h9.859l-7.975 5.796 3.046 9.374-7.976-5.792-7.975 5.792 3.046-9.374-7.974-5.796h9.857zM180.53 99.07l3.046 9.374h9.858l-7.975 5.795 3.046 9.375-7.976-5.793-7.976 5.793 3.047-9.375-7.974-5.795h9.856zm31.463 0l3.047 9.374h9.858l-7.976 5.795 3.048 9.375-7.977-5.793-7.974 5.793 3.045-9.375-7.975-5.795h9.858zm31.464 0l3.047 9.374h9.858l-7.976 5.795 3.047 9.375-7.976-5.793-7.975 5.793 3.046-9.375-7.975-5.795h9.858zm31.464 0l3.046 9.374h9.859l-7.975 5.795 3.046 9.375-7.976-5.793-7.975 5.793 3.046-9.375-7.974-5.795h9.857zm-62.928-32.728l3.047 9.377h9.858l-7.976 5.792 3.048 9.378-7.977-5.796-7.974 5.796 3.045-9.378-7.975-5.792h9.858zm31.464 0l3.047 9.377h9.858l-7.976 5.792 3.047 9.378-7.976-5.796-7.975 5.796 3.046-9.378-7.975-5.792h9.858zm31.464 0l3.046 9.377h9.859l-7.975 5.792 3.046 9.378-7.976-5.796-7.975 5.796 3.046-9.378-7.974-5.792h9.857zM0 200.348h512v111.304H0z"/>
</svg>
