<svg xmlns="http://www.w3.org/2000/svg" width="768" height="512" viewBox="0 0 768 512">
    <path fill="#ffda44" d="M0 0h768v511.983H0z"/>
    <path fill="#f0f0f0" d="M384 0h384v512H384z"/>
    <path fill="#acabb1" d="M482.03 222.757l48.109 63.644c-7.58 11.476-7.539 26.941 1.226 38.537 11.12 14.71 32.06 17.622 46.773 6.503 14.71-11.12 17.622-32.06 6.5-46.773-8.764-11.596-23.634-15.851-36.742-11.692l-74.982-99.192-17.757 13.423-26.638 20.136 26.848 35.515zm69.262 73.169c4.905-3.708 11.884-2.736 15.592 2.167 3.707 4.904 2.736 11.885-2.167 15.593-4.904 3.705-11.884 2.736-15.591-2.17-3.707-4.901-2.737-11.884 2.166-15.59z"/>
    <path fill="#ffda44" d="M564.55 242.86l26.849-35.514-26.638-20.136-17.757-13.423-74.982 99.192c-13.11-4.162-27.977.095-36.743 11.692-11.121 14.712-8.21 35.652 6.501 46.773 14.712 11.12 35.652 8.21 46.773-6.503 8.768-11.596 8.807-27.06 1.226-38.537l48.109-63.644zm-93.755 68.657c-3.707 4.905-10.688 5.874-15.591 2.169-4.905-3.708-5.874-10.69-2.168-15.593 3.707-4.902 10.688-5.874 15.593-2.167 4.902 3.706 5.872 10.689 2.166 15.59z"/>
</svg>
