<svg xmlns="http://www.w3.org/2000/svg" width="768" height="512" viewBox="0 0 768 512">
    <path fill="#d80027" d="M0 0h768v512H0z"/>
    <path fill="#0052b4" d="M0 144.687h768v204H0z"/>
    <path fill="#f0f0f0" d="M519.411 325.423l4.214-14.697-12.677-8.552 15.282-.533 4.216-14.697 5.231 14.369 15.279-.534-12.05 9.414 5.233 14.366-12.68-8.549zm-20.52-44.133l-1.068-15.255-14.837-3.699 14.178-5.728-1.064-15.256 9.829 11.715 14.174-5.727-8.1 12.968 9.828 11.712-14.837-3.696zm-34.38-34.457l-6.219-13.966-15.205 1.596 11.362-10.232-6.219-13.967 13.243 7.644 11.361-10.232-3.177 14.957 13.241 7.644-15.206 1.604zm-44.088-20.618l-10.621-10.998-13.745 6.7 7.179-13.501-10.622-10.995 15.06 2.652 7.178-13.5 2.129 15.14 15.058 2.656-13.743 6.705zm-48.483-4.295l-13.742-6.703-10.623 10.997 2.13-15.14-13.744-6.702 15.06-2.658 2.127-15.141 7.18 13.5 15.056-2.655-10.622 11.001zm-47.027 12.546l-15.205-1.6-6.22 13.967-3.176-14.955-15.209-1.596 13.244-7.647-3.183-14.959 11.367 10.232 13.237-7.644-6.215 13.971zm-39.9 27.874l-14.836 3.698-1.068 15.251-8.099-12.965-14.838 3.698L256 260.308l-8.103-12.968 14.18 5.727 9.825-11.712-1.063 15.257zm-27.96 39.84l-12.678 8.55 4.215 14.698-12.048-9.415-12.675 8.549 5.23-14.369-12.053-9.414 15.285.534 5.226-14.367 4.22 14.698z"/>
    <path fill="#ffda44" d="M0 0h768v160H0z"/>
</svg>
