<svg xmlns="http://www.w3.org/2000/svg" width="768" height="512" viewBox="0 0 768 512">
    <path fill="#0052b4" d="M0 .008h768V512H0z"/>
    <path fill="#f0f0f0" d="M350.058 255.995L240 182.62v73.376h-96V182.62L33.942 255.995H0v-33.924l69.103-46.079H0V79.994h69.103L0 33.932V.007h33.942L144 73.367V.006h96v73.36L350.058.006H384v175.985h-69.103L384 222.071v33.924z"/>
    <g fill="#d80027">
        <path d="M168 151.997v103.998h48V151.997h168v-47.999H216V.001h-48v103.997H0v48z"/>
        <path d="M0 22.624l86.066 57.375H120L0 0zm384 0l-86.066 57.375H264L384 0z"/>
    </g>
    <path fill="#0052b4" d="M314.897 79.999L384 33.932V80z"/>
    <path fill="#d80027" d="M0 22.624l86.066 57.375H120L0 0zm384 0l-86.066 57.375H264L384 0z"/>
    <path fill="#0052b4" d="M314.897 79.999L384 33.932V80z"/>
    <path fill="#d80027" d="M0 233.373l86.066-57.376H120L0 255.995zm384 0l-86.066-57.376H264l120 79.998z"/>
    <path fill="#ffda44" d="M576 261.559l-69.193 69.192c12.967 25.011 39.076 42.11 69.193 42.11 30.117 0 56.226-17.1 69.194-42.11z"/>
    <path fill="#6da544" d="M498.087 139.129v122.433c.002 59.637 77.913 77.91 77.913 77.91s77.912-18.273 77.913-77.911V139.13z"/>
    <path fill="#f0f0f0" d="M559.305 194.773h33.391v89.036h-33.391z"/>
    <circle cx="576" cy="194.773" r="16.695" fill="#a2001d"/>
    <path fill="#ffda44" d="M520.353 161.382h22.26v22.26h-22.26zm0 50.088h22.26v22.259h-22.26zm0 50.084h22.26v22.26h-22.26zm89.039-100.172h22.26v22.26h-22.26zm0 50.088h22.26v22.259h-22.26zm0 50.084h22.26v22.26h-22.26z"/>
</svg>
