<svg xmlns="http://www.w3.org/2000/svg" viewBox="0 0 512 512">
    <path fill="#0052b4" d="M.002.002H512V512H.002z"/>
    <path fill="#ffda44" d="M388.056 300.657l-56.838 56.838c10.652 20.545 32.099 34.591 56.838 34.591 24.739 0 46.186-14.046 56.838-34.591z"/>
    <path fill="#6da544" d="M324.056 200.086v100.571c.001 48.989 64 63.999 64 63.999s63.999-15.01 64-64v-100.57z"/>
    <path fill="#f0f0f0" d="M374.342 245.796h27.429v73.138h-27.429z"/>
    <circle cx="388.056" cy="245.796" r="13.714" fill="#a2001d"/>
    <path fill="#ffda44" d="M342.347 218.367h18.285v18.285h-18.285zm0 41.143h18.285v18.285h-18.285zm0 41.142h18.285v18.285h-18.285zm73.138-82.285h18.285v18.285h-18.285zm0 41.143h18.285v18.285h-18.285zm0 41.142h18.285v18.285h-18.285z"/>
    <path fill="#f0f0f0" d="M255.999 0v48.896l-40.147 40.147h40.147v77.913h-52.536l52.536 52.535v36.508H232.28l-65.324-65.335v65.335H89.043v-77.724l-77.712 77.724H0v-48.896l40.147-40.147H0V89.043h52.535L0 36.508V0h23.719l65.324 65.335V0h77.913v77.723L244.668 0z"/>
    <path fill="#d80027" d="M0 152h104v103.999h48V152h103.999v-48H152V0h-48v104H0z"/>
    <path fill="#0052b4" d="M166.956 166.956l89.043 89.043v-25.18l-63.863-63.863z"/>
    <path fill="#f0f0f0" d="M166.956 166.956l89.043 89.043v-25.18l-63.863-63.863z"/>
    <path fill="#d80027" d="M166.956 166.956l89.043 89.043v-25.18l-63.863-63.863zm-103.094.002L0 230.82v25.179l89.041-89.041z"/>
    <path fill="#0052b4" d="M89.043 89.043L0 0v25.18l63.863 63.863z"/>
    <path fill="#f0f0f0" d="M89.043 89.043L0 0v25.18l63.863 63.863z"/>
    <path fill="#d80027" d="M89.043 89.043L0 0v25.18l63.863 63.863zm103.094-.002l63.862-63.862V0l-89.041 89.041z"/>
</svg>
