<svg xmlns="http://www.w3.org/2000/svg" width="768" height="512" viewBox="0 0 768 512">
    <path fill="#f0f0f0" d="M0 0h768v512H0z"/>
    <g fill="#ffda44">
        <path d="M427.479 178.837c0-24.012-19.465-43.478-43.479-43.478-24.012 0-43.479 19.466-43.479 43.478h-95.652c0 23.641 20.594 42.807 44.235 42.807h-1.423c0 23.642 19.165 42.81 42.81 42.81 0 20.933 15.034 38.327 34.888 42.047l-.112.25h37.465l-.11-.25c19.856-3.72 34.89-21.114 34.89-42.046 23.645 0 42.81-19.167 42.81-42.811h-1.426c23.642 0 44.235-19.167 44.235-42.807z"/>
        <path d="M364.887 302.316l-26.958 60.862A122.024 122.024 0 0 0 384 372.173c16.3 0 31.848-3.213 46.07-8.995l-26.957-60.862z"/>
    </g>
    <path fill="#f0f0f0" d="M328.349 200.218v74.891c0 42.598 55.651 55.65 55.651 55.65s55.651-13.052 55.651-55.65v-74.891z"/>
    <path fill="#338af3" d="M227.728 257.793l24.337 68.07 24.085-68.07h18.38l-35.113 89.999h-14.704l-35.365-89.999zm282.802 90v-89.999h17.494v90z"/>
    <path fill="#d80027" d="M350.608 224.404v90.753c7.652 5.63 15.882 9.506 22.26 11.983V224.404zm66.784 0v90.753c-7.652 5.63-15.882 9.506-22.26 11.983V224.404z"/>
    <path fill="#0052b4" d="M328.353 200.213h111.311v35.311H328.353z"/>
</svg>
