<svg xmlns="http://www.w3.org/2000/svg" viewBox="0 0 512 512">
    <path fill="#f0f0f0" d="M0 0h512v512H0z"/>
    <g fill="#ffda44">
        <path d="M307.319 183.227c0-23.32-18.905-42.227-42.227-42.227-23.323 0-42.228 18.907-42.228 42.227h-92.898c0 22.961 20 41.575 42.961 41.575h-1.382c0 22.963 18.614 41.58 41.577 41.58 0 20.33 14.602 37.223 33.886 40.835l-.11.244h36.388l-.107-.244c19.284-3.612 33.885-20.506 33.885-40.836 22.964 0 41.577-18.615 41.577-41.579h-1.385c22.96 0 42.962-18.615 42.962-41.575z"/>
        <path d="M246.529 303.153l-26.182 59.11A118.51 118.51 0 0 0 265.092 371a118.52 118.52 0 0 0 44.743-8.737l-26.18-59.11z"/>
    </g>
    <path fill="#f0f0f0" d="M211.042 203.993v72.736c0 41.372 54.05 54.05 54.05 54.05s54.05-12.678 54.05-54.05v-72.736z"/>
    <path fill="#338af3" d="M114.915 259.912l23.324 65.234 23.08-65.234h17.615l-33.65 86.25h-14.091L97.3 259.912zm271.02 86.25v-86.25h16.764v86.25z"/>
    <path fill="#d80027" d="M232.661 227.481v88.142c7.432 5.468 15.425 9.232 21.62 11.639v-99.78zm64.861 0v88.142c-7.431 5.468-15.425 9.232-21.62 11.639v-99.78z"/>
    <path fill="#0052b4" d="M211.046 203.987h108.106v34.295H211.046z"/>
</svg>
