<svg xmlns="http://www.w3.org/2000/svg" width="768" height="512" viewBox="0 0 768 512">
    <path d="M0 0h768v512H0z"/>
    <path fill="#6da544" d="M768 256v256H0l322.778-256z"/>
    <path fill="#d80027" d="M768 0v256H322.778L0 0z"/>
    <path d="M768 247.652v-16.697H331.501L40.302 0H13.434l312.252 247.652zm0 16.696H325.686L13.434 512h26.868l291.2-230.955H768zM0 501.344L309.344 256 0 10.655v21.31L282.476 256 0 480.036z"/>
    <g fill="#ffda44">
        <path d="M0 501.344V512h13.434l312.252-247.652H768v-16.696H325.686L13.434 0H0v10.655L309.344 256z"/>
        <path d="M99.767 326.455v-24.563c24.511 0 44.45-19.943 44.45-44.45 0-17.34-14.108-31.45-31.45-31.45-11.812 0-21.424 9.611-21.424 21.426 0 7.554 6.145 13.7 13.7 13.7a7.756 7.756 0 0 0 7.747-7.745h24.562c0 17.815-14.493 32.31-32.307 32.31-21.098-.004-38.263-17.17-38.263-38.268 0-25.358 20.63-45.988 45.987-45.988 30.885 0 56.013 25.127 56.013 56.015 0 38.051-30.96 69.013-69.015 69.013z"/>
    </g>
</svg>
