<svg xmlns="http://www.w3.org/2000/svg" viewBox="0 0 512 512">
    <path d="M0 0h512v512H0z"/>
    <path fill="#6da544" d="M512 256v256H0l215.185-256z"/>
    <path fill="#d80027" d="M512 0v256H215.185L0 0z"/>
    <path d="M221.001 230.957L26.868 0H8.956l208.168 247.652H512v-16.695zM8.956 512h17.912l194.133-230.957H512v-16.695H217.124zM0 10.655v21.309L188.317 256 0 480.036v21.309L206.229 256z"/>
    <g fill="#ffda44">
        <path d="M8.956 0H0v10.655L206.229 256 0 501.345V512h8.956l208.168-247.652H512v-16.696H217.124z"/>
        <path d="M55.095 311.16v-21.674c21.628 0 39.222-17.596 39.222-39.222 0-15.301-12.449-27.75-27.75-27.75-10.423 0-18.905 8.48-18.905 18.906 0 6.664 5.423 12.089 12.09 12.089 3.768 0 6.834-3.068 6.834-6.835h21.672c0 15.72-12.788 28.508-28.506 28.508-18.617 0-33.762-15.146-33.762-33.762 0-22.376 18.203-40.58 40.577-40.58 27.25 0 49.423 22.172 49.423 49.424 0 33.577-27.317 60.895-60.895 60.895z"/>
    </g>
</svg>
