<svg xmlns="http://www.w3.org/2000/svg" width="768" height="512" viewBox="0 0 768 512">
    <path fill="#d80027" d="M0 0h768v512H0z"/>
    <path fill="#0052b4" d="M0 0h384v255.992H0z"/>
    <path fill="#f0f0f0" d="M259.076 178.078l-10.852-7.882-10.849 7.882 4.145-12.754-10.85-7.881h13.41l4.145-12.756 4.146 12.756h13.408l-10.848 7.88zm-60.124-77.914l-18.084-13.136-18.08 13.136 6.907-21.256-18.084-13.135h22.351l6.906-21.26 6.91 21.26h22.35l-18.083 13.135zm66.782 22.263l-18.082-13.14-18.081 13.14 6.906-21.26-18.083-13.134h22.35l6.908-21.258 6.909 21.258h22.35l-18.083 13.135zm-52.788 89.043l-18.083-13.14-18.08 13.14 6.906-21.257-18.083-13.137h22.35l6.908-21.258 6.908 21.258h22.35l-18.082 13.137zm-58.516-55.652l-18.081-13.14-18.083 13.14 6.906-21.259-18.082-13.135h22.35l6.909-21.26 6.907 21.26h22.35l-18.082 13.135z"/>
</svg>
