<svg xmlns="http://www.w3.org/2000/svg" width="768" height="512" viewBox="0 0 768 512">
    <path fill="#0052b4" d="M0 0h768v512H0z"/>
    <path fill="#f0f0f0" d="M248.697 203.501l-15.164-11.016-15.163 11.016 5.792-17.823L209 174.662h18.74l5.793-17.826 5.793 17.825h18.74l-15.162 11.016zm58.332-17.499l-15.164-11.016-15.163 11.016 5.792-17.825-15.162-11.016h18.74l5.793-17.825 5.794 17.825h18.74l-15.161 11.017zm58.333-17.501L350.2 157.485l-15.164 11.017 5.793-17.825-15.161-11.016h18.74l5.793-17.824 5.79 17.824h18.741l-15.162 11.016zm153.941 35l15.165-11.016 15.163 11.016-5.793-17.823L559 174.662h-18.74l-5.793-17.826-5.793 17.825h-18.74l15.162 11.016zm-58.332-17.499l15.164-11.016 15.163 11.016-5.792-17.825 15.162-11.016h-18.74l-5.793-17.825-5.793 17.825h-18.74l15.161 11.017zm-58.333-17.501l15.16-11.016 15.166 11.017-5.793-17.825 15.161-11.016h-18.741l-5.792-17.824-5.79 17.824h-18.741l15.162 11.016z"/>
    <path fill="#ffda44" d="M430.668 273.5L384 215.168l-23.332 11.668v23.332L325.667 273.5h-23.333v30.142c34.2 13.849 58.334 47.357 58.334 86.521H384v-23.332l23.332-23.333 23.333 23.333L454 343.5v-23.333l23.332-35z"/>
</svg>
