<svg xmlns="http://www.w3.org/2000/svg" viewBox="0 0 512 512">
    <circle cx="256" cy="256" r="256" fill="#0052b4"/>
    <path fill="#f0f0f0" d="M112.449 155.827l5.526 17.008h17.88l-14.465 10.509 5.525 17.005-14.466-10.509-14.467 10.509 5.527-17.005-14.466-10.509h17.879zm55.652-16.695l5.526 17.007h17.88l-14.465 10.509 5.525 17.005-14.466-10.509-14.466 10.509 5.526-17.005-14.465-10.509h17.88zm55.652-16.696l5.526 17.007h17.88l-14.465 10.51 5.525 17.005-14.466-10.51-14.466 10.51 5.526-17.005-14.465-10.51h17.88zm175.798 33.391l-5.526 17.008h-17.88l14.466 10.509-5.526 17.005 14.466-10.509 14.467 10.509-5.527-17.005 14.466-10.509h-17.88zm-55.652-16.695l-5.526 17.007h-17.88l14.466 10.509-5.526 17.005 14.466-10.509 14.466 10.509-5.526-17.005 14.465-10.509h-17.88zm-55.652-16.696l-5.526 17.007h-17.88l14.465 10.51-5.525 17.005 14.466-10.51 14.466 10.51-5.526-17.005 14.465-10.51h-17.88z"/>
    <path fill="#ffda44" d="M298.467 272.144l-48.534-60.666-24.267 12.133v24.267l-36.4 24.266H165v31.35c35.568 14.403 60.666 49.252 60.666 89.984h24.267v-24.267l24.267-24.266 24.267 24.266 24.266-24.266v-24.267l24.267-36.4z"/>
</svg>
