<svg xmlns="http://www.w3.org/2000/svg" viewBox="0 0 512 512">
    <path fill="#0052b4" d="M0 0h512v512H0z"/>
    <path fill="#f0f0f0" d="M109.832 159.668l5.627 17.318h18.205l-14.728 10.7L124.562 205l-14.73-10.7-14.73 10.7 5.627-17.315L86 176.985h18.205zm56.667-17l5.627 17.318h18.205l-14.73 10.7L181.229 188 166.5 177.3 151.77 188l5.627-17.315-14.73-10.7h18.207zm56.666-17l5.627 17.318h18.206l-14.73 10.7L237.896 171l-14.731-10.7-14.73 10.7 5.627-17.315-14.728-10.7h18.205zm179.002 34l-5.626 17.318h-18.205l14.728 10.7L387.438 205l14.729-10.7 14.731 10.7-5.627-17.315 14.729-10.7h-18.205zm-56.666-17l-5.627 17.318h-18.205l14.73 10.7L330.771 188l14.729-10.7 14.73 10.7-5.627-17.315 14.73-10.7h-18.207zm-56.666-17l-5.627 17.318h-18.206l14.73 10.7L274.104 171l14.731-10.7 14.73 10.7-5.627-17.315 14.728-10.7H294.46z"/>
    <path fill="#ffda44" d="M301.334 273L256 216.333l-22.666 11.334v22.666l-34 22.666h-22.666v29.282c33.223 13.453 56.666 46.004 56.666 84.05H256v-22.665L278.666 341l22.666 22.666L323.999 341v-22.666l22.665-34z"/>
</svg>
