<svg xmlns="http://www.w3.org/2000/svg" width="768" height="512" viewBox="0 0 768 512">
    <path fill="#496e2d" d="M0 0h768v512H0z"/>
    <path fill="#ff9811" d="M736.002 133.216h-72c0-13.254-10.746-24-24-24s-24 10.746-24 24h-72c0 13.254 11.546 24 24.8 24h-.8c0 13.253 10.743 24 24 24 0 13.253 10.743 23.999 24 23.999h48c13.254 0 24-10.746 24-24 13.254 0 24-10.746 24-24h-.8c13.256 0 24.8-10.745 24.8-24z"/>
    <path fill="#d80027" d="M512.005 255.992h85.332v255.992h-85.332z"/>
    <path fill="#ff9811" d="M682.668 255.992H768v255.992h-85.332z"/>
    <path d="M597.338 255.992h85.332v255.992h-85.332z"/>
</svg>
