<svg xmlns="http://www.w3.org/2000/svg" viewBox="0 0 512 512">
    <path fill="#496e2d" d="M0 0h512v512H0z"/>
    <path fill="#ff9811" d="M484 132.979h-70.5c0-12.978-10.522-23.5-23.5-23.5s-23.5 10.522-23.5 23.5H296c0 12.978 11.305 23.5 24.283 23.5h-.783c0 12.978 10.52 23.5 23.5 23.5 0 12.978 10.52 23.5 23.5 23.5h47c12.978 0 23.5-10.522 23.5-23.5 12.978 0 23.5-10.522 23.5-23.5h-.783c12.98 0 24.283-10.52 24.283-23.5z"/>
    <path fill="#d80027" d="M270 256h80.667v256H270z"/>
    <path fill="#ff9811" d="M431.333 256H512v256h-80.667z"/>
    <path d="M350.667 256h80.667v256h-80.667z"/>
</svg>
