<svg xmlns="http://www.w3.org/2000/svg" width="768" height="512" viewBox="0 0 768 512">
    <path d="M0 .005h768v511.996H0z"/>
    <path fill="#6da544" d="M0 .005h768v75H0zM0 437h768v75H0z"/>
    <path fill="#ffda44" d="M0 73.298h768v73.3H0zM0 366.5h768v73.3H0z"/>
    <path fill="#d80027" d="M0 146h768v73.906H0zm0 147.208h768V367H0z"/>
    <path fill="#f0f0f0" d="M159.493.004l255.995 255.99-255.995 255.99H0V.003z"/>
    <path d="M159.481 0h-31.48L384 255.994 128.001 511.988h31.48l256.81-256.129z"/>
    <path fill="#d80027" d="M205.774 336.131l-52.076-37.835-52.08 37.835 19.892-61.22-52.077-37.838h64.373l19.891-61.216 19.889 61.216h64.375l-52.077 37.839z"/>
    <path fill="#ffda44" d="M137.885 203.239c-5.55.23-10.625 4.594-11.635 10.066-.478 2.327-.228 4.757.516 6.998.362 1.715-.697 3.33-1.966 4.38l-3.651 3.677h15.682c.075 6.092.084 12.33-1.867 18.175-1.779 5.775-5.302 10.786-8.948 15.525-.573.788-1.298 1.754-1.892 2.64-2.32 3.355-4.165 7.11-4.802 11.17-.27 1.677-.5 3.396-.447 5.086l8.137 19.572h52.861c3.104-7.496 6.296-14.958 9.293-22.496.748-2.25.896-4.634 1.18-6.972 2.896-1.069 5.902-2.333 7.894-4.804.127-.275.888-.76.535-.923l-43.805-15.516c-1.327-12.215-2.578-24.452-4.017-36.642-1.087-5.443-6.174-9.803-11.743-9.935a16.692 16.692 0 0 0-1.325-.002z"/>
</svg>
