<svg xmlns="http://www.w3.org/2000/svg" viewBox="0 0 512 512">
    <circle cx="256" cy="256" r="256" fill="#f0f0f0"/>
    <path fill="#ffda44" d="M487.497 146.603c-13.006-27.474-30.757-52.257-52.197-73.302L256 55.652 76.7 73.302c-.572.561-1.13 1.135-1.696 1.702l71.6 71.6L256 149.945l231.497-3.342zM75.001 436.999c.942.942 1.882 1.885 2.838 2.813L256 456.348l178.159-16.536c21.661-21 39.629-45.785 52.818-73.302l-331.152-10.336c-28.493 28.494-61.357 61.356-80.824 80.825z"/>
    <path d="M509.454 219.905l-297.976-8.427L256 256l-44.522 44.522 297.82-7.314A257.933 257.933 0 0 0 512 256c0-12.254-.88-24.3-2.546-36.095z"/>
    <path fill="#6da544" d="M256 0C186.172 0 122.886 27.97 76.7 73.302h358.6C389.114 27.97 325.828 0 256 0z"/>
    <path fill="#d80027" d="M219.905 219.905h289.549a254.194 254.194 0 0 0-21.957-73.302H146.603l73.302 73.302zM145.49 366.51h341.488a254.215 254.215 0 0 0 22.321-73.302H218.792L145.49 366.51z"/>
    <path fill="#6da544" d="M256 512c69.255 0 132.075-27.512 178.159-72.189H77.841C123.925 484.488 186.745 512 256 512z"/>
    <path d="M91.415 59.934A258.029 258.029 0 0 0 74.98 74.98L256 256 74.98 437.02a257.463 257.463 0 0 0 16.435 15.046L287.481 256 91.415 59.934z"/>
    <path fill="#d80027" d="M102.925 189.217l16.575 51.016h53.645l-43.398 31.532 16.576 51.018-43.398-31.531-43.399 31.531 16.578-51.018-43.397-31.532h53.642z"/>
    <path fill="#ffda44" d="M86.936 206.363c-5.129.193-9.74 4.592-10.053 9.739-.175 1.823.28 3.616.716 5.365.245 1.808-.87 3.457-2.227 4.534-.538.551-1.077 1.1-1.622 1.645h13.133c.073 6.36.156 12.909-2.055 18.97-2.001 6.029-6.074 11.012-9.77 16.068-2.387 3.399-4.184 7.297-4.617 11.464-.103 1.066-.342 2.185-.114 3.236l7.122 17.137h47.645c2.798-6.81 5.747-13.563 8.416-20.425.641-2.148.755-4.403 1.053-6.614 2.58-.955 5.303-1.95 7.193-4.048l-39.996-14.17c-1.256-11.512-2.419-23.036-3.792-34.534-.993-4.997-5.953-8.744-11.032-8.367z"/>
</svg>
