<svg xmlns="http://www.w3.org/2000/svg" viewBox="0 0 512 512">
    <path d="M0 0h512v512H0z"/>
    <path fill="#ffda44" d="M0 73.302h512v73.301H0zm0 293.21h512v73.302H0z"/>
    <path fill="#6da544" d="M0 439h512v73H0z"/>
    <path fill="#d80027" d="M0 146h512v73.909H0zm0 147.207h512V367H0z"/>
    <path fill="#6da544" d="M0 0h512v74H0z"/>
    <path fill="#f0f0f0" d="M276.992 255.998L106.329 511.989H0V.006h106.329z"/>
    <path d="M256 255.998L85.334 511.994h20.987L278.19 256.359 106.32 0H85.334z"/>
    <path fill="#d80027" d="M102.463 171.313l21.019 64.69h68.027l-55.032 39.986 21.019 64.694-55.033-39.983-55.032 39.983 21.022-64.694-55.031-39.986h68.022z"/>
    <path fill="#ffda44" d="M85.408 197.452c-5.87.243-11.276 4.717-12.563 10.459-.643 2.634-.443 5.432.42 7.99.38 1.784-.762 3.442-2.07 4.534l-4.334 4.362h17.127c.072 6.276.059 12.695-1.91 18.726-1.857 6.151-5.58 11.498-9.458 16.536-2.853 3.779-5.527 7.839-6.723 12.477a28.323 28.323 0 0 0-.42 1.775c-.394 2.048-.664 4.159-.587 6.237l8.745 21.043h56.655c3.312-8.019 6.746-16.008 9.949-24.051.808-2.382.985-4.907 1.275-7.388 3.013-1.13 6.13-2.453 8.233-5 .403-.445.775-.917 1.13-1.401l-47.002-16.652c-1.406-12.934-2.73-25.879-4.255-38.798-1.147-5.85-6.544-10.563-12.513-10.833a17.802 17.802 0 0 0-1.7-.016z"/>
</svg>
