<?xml version="1.0" encoding="iso-8859-1"?>
<!-- Generator: Adobe Illustrator 19.0.0, SVG Export Plug-In . SVG Version: 6.00 Build 0)  -->
<svg xmlns="http://www.w3.org/2000/svg" xmlns:xlink="http://www.w3.org/1999/xlink" version="1.1" id="Capa_1" x="0px" y="0px" viewBox="0 0 512 512" style="enable-background:new 0 0 512 512;" xml:space="preserve">
<rect style="fill:#F0F0F0;" width="512" height="512"/>
<g>
	<path style="fill:#ACABB1;" d="M428.364,213.069h-72.19c0-13.172-10.679-23.851-23.851-23.851l-19.081,38.162   c0,0,20.353,57.243,19.718,57.243h23.85c13.173,0,23.851-10.677,23.851-23.851c13.173,0,23.851-10.679,23.851-23.851h-0.795   C416.889,236.919,428.364,226.242,428.364,213.069z"/>
	<path style="fill:#ACABB1;" d="M83.637,213.069h72.189c0-13.172,10.679-23.851,23.851-23.851l19.081,38.162   c0,0-20.353,57.243-19.718,57.243h-23.85c-13.173,0-23.851-10.677-23.851-23.851c-13.173,0-23.851-10.679-23.851-23.851h0.795   C95.111,236.919,83.637,226.242,83.637,213.069z"/>
</g>
<polygon style="fill:#FFDA44;" points="332.324,341.863 332.324,351.403 179.676,351.403 179.676,341.863 141.516,341.863   141.516,380.025 179.676,380.025 179.676,389.565 332.324,389.565 332.324,380.025 370.484,380.025 370.484,341.863 "/>
<path style="fill:#0052B4;" d="M179.676,189.217v95.403c0,58.423,76.324,76.324,76.324,76.324s76.324-17.901,76.324-76.324v-95.403  L256,179.676L179.676,189.217z"/>
<rect x="179.679" y="227.384" style="fill:#D80027;" width="152.643" height="57.244"/>
<polygon style="fill:#FFDA44;" points="294.162,141.516 294.162,155.826 284.621,160.597 275.081,151.056 275.081,122.435   236.919,122.435 236.919,151.056 227.379,160.597 217.838,155.826 217.838,141.516 179.676,141.516 179.676,189.217   332.324,189.217 332.324,141.516 "/>
<g>
</g>
<g>
</g>
<g>
</g>
<g>
</g>
<g>
</g>
<g>
</g>
<g>
</g>
<g>
</g>
<g>
</g>
<g>
</g>
<g>
</g>
<g>
</g>
<g>
</g>
<g>
</g>
<g>
</g>
</svg>
