<?xml version="1.0" encoding="UTF-8" standalone="no"?>
<svg
   xmlns:dc="http://purl.org/dc/elements/1.1/"
   xmlns:cc="http://creativecommons.org/ns#"
   xmlns:rdf="http://www.w3.org/1999/02/22-rdf-syntax-ns#"
   xmlns:svg="http://www.w3.org/2000/svg"
   xmlns="http://www.w3.org/2000/svg"
   xmlns:sodipodi="http://sodipodi.sourceforge.net/DTD/sodipodi-0.dtd"
   xmlns:inkscape="http://www.inkscape.org/namespaces/inkscape"
   version="1.1"
   id="Capa_1"
   x="0px"
   y="0px"
   viewBox="0 0 768 512"
   xml:space="preserve"
   sodipodi:docname="mq_rect.svg"
   width="768"
   height="512"
   inkscape:version="1.0.1 (3bc2e813f5, 2020-09-07)"><metadata
   id="metadata51"><rdf:RDF><cc:Work
       rdf:about=""><dc:format>image/svg+xml</dc:format><dc:type
         rdf:resource="http://purl.org/dc/dcmitype/StillImage" /><dc:title></dc:title></cc:Work></rdf:RDF></metadata><defs
   id="defs49" /><sodipodi:namedview
   pagecolor="#ffffff"
   bordercolor="#666666"
   borderopacity="1"
   objecttolerance="10"
   gridtolerance="10"
   guidetolerance="10"
   inkscape:pageopacity="0"
   inkscape:pageshadow="2"
   inkscape:window-width="640"
   inkscape:window-height="480"
   id="namedview47"
   showgrid="false"
   inkscape:current-layer="Capa_1" />
<rect
   y="1.9225868e-06"
   style="fill:#0052b4;stroke-width:1.49999"
   width="768"
   height="512"
   id="rect2"
   x="0" />
<g
   id="g14"
   transform="matrix(1.5,0,0,1.4999839,0,-127.99512)">
	<polygon
   style="fill:#f0f0f0"
   points="233.739,426.657 233.739,278.255 0,278.255 0,233.734 233.739,233.734 233.739,85.331 278.261,85.331 278.261,233.734 512,233.734 512,278.255 278.261,278.255 278.261,426.657 "
   id="polygon4" />
	<path
   style="fill:#f0f0f0"
   d="m 386.607,175.885 c 0,-2.268 1.845,-4.114 4.115,-4.114 h 8.816 c 13.936,0 25.274,-11.337 25.274,-25.273 0,-13.935 -11.337,-25.273 -25.274,-25.273 h -8.372 c -2.733,-2.052 -6.399,-3.318 -10.443,-3.318 -8.436,0 -15.273,5.471 -15.273,12.219 0,6.683 6.707,12.104 15.029,12.209 l -0.003,0.049 h 19.062 c 2.27,0 4.115,1.845 4.115,4.115 0,2.27 -1.845,4.114 -4.115,4.114 h -8.816 c -13.936,0 -25.273,11.337 -25.273,25.273 0,13.935 11.336,25.273 25.273,25.273 h 34.09 V 180 h -34.09 c -2.27,-0.001 -4.115,-1.846 -4.115,-4.115 z"
   id="path6" />
	<path
   style="fill:#f0f0f0"
   d="m 108.346,175.885 c 0,-2.268 1.845,-4.114 4.115,-4.114 h 8.816 c 13.936,0 25.274,-11.337 25.274,-25.273 0,-13.935 -11.337,-25.273 -25.274,-25.273 h -8.372 c -2.733,-2.052 -6.399,-3.318 -10.443,-3.318 -8.436,0 -15.273,5.471 -15.273,12.219 0,6.683 6.707,12.104 15.029,12.209 l -0.003,0.049 h 19.062 c 2.27,0 4.115,1.845 4.115,4.115 0,2.27 -1.845,4.114 -4.115,4.114 h -8.816 c -13.936,0 -25.273,11.337 -25.273,25.273 0,13.935 11.336,25.273 25.273,25.273 h 34.09 V 180 h -34.09 c -2.27,-0.001 -4.115,-1.846 -4.115,-4.115 z"
   id="path8" />
	<path
   style="fill:#f0f0f0"
   d="m 386.607,368.809 c 0,-2.268 1.845,-4.114 4.115,-4.114 h 8.816 c 13.936,0 25.274,-11.337 25.274,-25.273 0,-13.935 -11.337,-25.273 -25.274,-25.273 h -8.372 c -2.733,-2.052 -6.399,-3.318 -10.443,-3.318 -8.436,0 -15.273,5.471 -15.273,12.219 0,6.683 6.707,12.104 15.029,12.209 l -0.003,0.049 h 19.062 c 2.27,0 4.115,1.845 4.115,4.115 0,2.27 -1.845,4.114 -4.115,4.114 h -8.816 c -13.936,0 -25.273,11.337 -25.273,25.273 0,13.935 11.336,25.273 25.273,25.273 h 34.09 v -21.159 h -34.09 c -2.27,-10e-4 -4.115,-1.845 -4.115,-4.115 z"
   id="path10" />
	<path
   style="fill:#f0f0f0"
   d="m 108.346,368.809 c 0,-2.268 1.845,-4.114 4.115,-4.114 h 8.816 c 13.936,0 25.274,-11.337 25.274,-25.273 0,-13.935 -11.337,-25.273 -25.274,-25.273 h -8.372 c -2.733,-2.052 -6.399,-3.318 -10.443,-3.318 -8.436,0 -15.273,5.471 -15.273,12.219 0,6.683 6.707,12.104 15.029,12.209 l -0.003,0.049 h 19.062 c 2.27,0 4.115,1.845 4.115,4.115 0,2.27 -1.845,4.114 -4.115,4.114 h -8.816 c -13.936,0 -25.273,11.337 -25.273,25.273 0,13.935 11.336,25.273 25.273,25.273 h 34.09 v -21.159 h -34.09 c -2.27,-10e-4 -4.115,-1.845 -4.115,-4.115 z"
   id="path12" />
</g>
<g
   id="g16">
</g>
<g
   id="g18">
</g>
<g
   id="g20">
</g>
<g
   id="g22">
</g>
<g
   id="g24">
</g>
<g
   id="g26">
</g>
<g
   id="g28">
</g>
<g
   id="g30">
</g>
<g
   id="g32">
</g>
<g
   id="g34">
</g>
<g
   id="g36">
</g>
<g
   id="g38">
</g>
<g
   id="g40">
</g>
<g
   id="g42">
</g>
<g
   id="g44">
</g>
</svg>
