<?xml version="1.0" encoding="iso-8859-1"?>
<!-- Generator: Adobe Illustrator 19.0.0, SVG Export Plug-In . SVG Version: 6.00 Build 0)  -->
<svg xmlns="http://www.w3.org/2000/svg" xmlns:xlink="http://www.w3.org/1999/xlink" version="1.1" id="Capa_1" x="0px" y="0px" viewBox="0 0 512 512" style="enable-background:new 0 0 512 512;" xml:space="preserve">
<rect style="fill:#0052B4;" width="512" height="512"/>
<g>
	<polygon style="fill:#F0F0F0;" points="512,233.739 512,278.261 278.261,278.261 278.261,426.663 233.739,426.663 233.739,278.261    0,278.261 0,233.739 233.739,233.739 233.739,85.337 278.261,85.337 278.261,233.739  "/>
	<polygon style="fill:#F0F0F0;" points="278.261,0 233.739,0 233.739,233.739 0,233.739 0,278.261 233.739,278.261 233.739,512    278.261,512 278.261,278.261 512,278.261 512,233.739 278.261,233.739  "/>
	<path style="fill:#F0F0F0;" d="M383.943,138.332c0-2.977,2.422-5.399,5.4-5.399h11.571c18.292,0,33.172-14.88,33.172-33.171   s-14.88-33.171-33.172-33.171h-10.989c-3.586-2.694-8.398-4.355-13.706-4.355c-11.071,0-20.046,7.18-20.046,16.037   c0,8.771,8.803,15.886,19.726,16.024l-0.004,0.065h25.019c2.979,0,5.4,2.422,5.4,5.4c0,2.979-2.422,5.399-5.4,5.399h-11.571   c-18.292,0-33.17,14.88-33.17,33.17c0,18.291,14.879,33.171,33.17,33.171h44.743v-27.77h-44.743   C386.365,143.733,383.943,141.311,383.943,138.332z"/>
	<path style="fill:#F0F0F0;" d="M105.682,138.332c0-2.977,2.422-5.399,5.4-5.399h11.571c18.292,0,33.172-14.88,33.172-33.171   s-14.88-33.171-33.172-33.171h-10.989c-3.586-2.694-8.398-4.355-13.706-4.355c-11.071,0-20.046,7.18-20.046,16.037   c0,8.771,8.803,15.886,19.726,16.024l-0.004,0.065h25.019c2.979,0,5.4,2.422,5.4,5.4c0,2.979-2.422,5.399-5.4,5.399h-11.571   c-18.291,0.001-33.17,14.881-33.17,33.171c0,18.291,14.879,33.171,33.17,33.171h44.743v-27.77h-44.743   C108.104,143.733,105.682,141.311,105.682,138.332z"/>
	<path style="fill:#F0F0F0;" d="M383.943,416.593c0-2.979,2.422-5.399,5.4-5.399h11.571c18.292,0,33.172-14.88,33.172-33.171   c0-18.291-14.88-33.171-33.172-33.171h-10.989c-3.586-2.694-8.398-4.355-13.706-4.355c-11.071,0-20.046,7.18-20.046,16.037   c0,8.771,8.803,15.886,19.726,16.024l-0.004,0.065h25.019c2.979,0,5.4,2.422,5.4,5.4c0,2.978-2.422,5.399-5.4,5.399h-11.571   c-18.292,0-33.17,14.88-33.17,33.17c0,18.291,14.879,33.171,33.17,33.171h44.743v-27.77h-44.743   C386.365,421.994,383.943,419.572,383.943,416.593z"/>
	<path style="fill:#F0F0F0;" d="M105.682,416.593c0-2.979,2.422-5.399,5.4-5.399h11.571c18.292,0,33.172-14.88,33.172-33.171   c0-18.291-14.88-33.171-33.172-33.171h-10.989c-3.586-2.694-8.398-4.355-13.706-4.355c-11.071,0-20.046,7.18-20.046,16.037   c0,8.771,8.803,15.886,19.726,16.024l-0.004,0.065h25.019c2.979,0,5.4,2.422,5.4,5.4c0,2.978-2.422,5.399-5.4,5.399h-11.571   c-18.291,0.001-33.17,14.881-33.17,33.171c0,18.291,14.879,33.171,33.17,33.171h44.743v-27.77h-44.743   C108.104,421.994,105.682,419.572,105.682,416.593z"/>
</g>
<g>
</g>
<g>
</g>
<g>
</g>
<g>
</g>
<g>
</g>
<g>
</g>
<g>
</g>
<g>
</g>
<g>
</g>
<g>
</g>
<g>
</g>
<g>
</g>
<g>
</g>
<g>
</g>
<g>
</g>
</svg>
