<?xml version="1.0" encoding="iso-8859-1"?>
<!-- Generator: Adobe Illustrator 19.0.0, SVG Export Plug-In . SVG Version: 6.00 Build 0)  -->
<svg xmlns="http://www.w3.org/2000/svg" xmlns:xlink="http://www.w3.org/1999/xlink" version="1.1" id="Capa_1" x="0px" y="0px" viewBox="0 0 512 512" style="enable-background:new 0 0 512 512;" xml:space="preserve">
<rect style="fill:#F0F0F0;" width="512" height="512"/>
<rect style="fill:#0052B4;" width="236.31" height="512"/>
<path style="fill:#D80027;" d="M134.491,98.318v43.637c0,21.69,17.583,39.273,39.273,39.273s39.273-17.583,39.273-39.273V98.318  H134.491z"/>
<path style="fill:#F0F0F0;" d="M173.764,157.955c-8.823,0-16-7.177-16-16v-20.363h32v20.363  C189.764,150.777,182.586,157.955,173.764,157.955z"/>
<g>
	<path style="fill:#FFDA44;" d="M329.4,284.501h-69.818c0-12.852-10.42-23.273-23.273-23.273s-23.273,10.42-23.273,23.273h-69.818   c0,12.853,11.195,23.273,24.047,23.273h-0.775c0,12.853,10.418,23.273,23.273,23.273c0,12.853,10.418,23.273,23.273,23.273h46.545   c12.852,0,23.273-10.419,23.273-23.273c12.852,0,23.273-10.419,23.273-23.273h-0.775C318.205,307.773,329.4,297.354,329.4,284.501z   "/>
	<polygon style="fill:#FFDA44;" points="338.964,247.258 332.855,257.041 340.266,265.873 329.075,263.086 322.964,272.865    322.159,261.359 310.968,258.569 321.664,254.248 320.859,242.744 328.273,251.58  "/>
	<polygon style="fill:#FFDA44;" points="303.311,217.343 300.916,228.625 310.902,234.39 299.432,235.599 297.033,246.877    292.343,236.343 280.873,237.547 289.446,229.829 284.754,219.295 294.741,225.061  "/>
	<polygon style="fill:#FFDA44;" points="259.58,201.426 261.185,212.847 272.541,214.85 262.177,219.906 263.782,231.327    255.771,223.031 245.405,228.086 250.818,217.902 242.807,209.607 254.166,211.61  "/>
	<polygon style="fill:#FFDA44;" points="213.039,201.426 218.455,211.61 229.811,209.606 221.799,217.904 227.213,228.087    216.85,223.031 208.836,231.325 210.443,219.906 200.077,214.852 211.434,212.847  "/>
	<polygon style="fill:#FFDA44;" points="169.307,217.343 177.878,225.061 187.864,219.295 183.175,229.833 191.743,237.548    180.275,236.343 175.581,246.877 173.188,235.597 161.719,234.392 171.705,228.626  "/>
	<polygon style="fill:#FFDA44;" points="133.654,247.258 144.349,251.58 151.759,242.745 150.959,254.251 161.65,258.572    150.459,261.36 149.652,272.865 143.546,263.086 132.354,265.875 139.768,257.041  "/>
</g>
<g>
</g>
<g>
</g>
<g>
</g>
<g>
</g>
<g>
</g>
<g>
</g>
<g>
</g>
<g>
</g>
<g>
</g>
<g>
</g>
<g>
</g>
<g>
</g>
<g>
</g>
<g>
</g>
<g>
</g>
</svg>
