<?xml version="1.0" encoding="iso-8859-1"?>
<!-- Generator: Adobe Illustrator 19.0.0, SVG Export Plug-In . SVG Version: 6.00 Build 0)  -->
<svg xmlns="http://www.w3.org/2000/svg" xmlns:xlink="http://www.w3.org/1999/xlink" version="1.1" id="Capa_1" x="0px" y="0px" viewBox="0 0 512.011 512.011" style="enable-background:new 0 0 512.011 512.011;" xml:space="preserve">
<rect x="0.006" style="fill:#F0F0F0;" width="512" height="512"/>
<g>
	<rect x="0.006" style="fill:#6DA544;" width="512" height="73.149"/>
	<rect x="0.006" y="146.287" style="fill:#6DA544;" width="512" height="73.138"/>
	<rect x="0.006" y="292.575" style="fill:#6DA544;" width="512" height="73.149"/>
	<rect x="0.006" y="438.862" style="fill:#6DA544;" width="512" height="73.149"/>
</g>
<rect x="0.006" style="fill:#D80027;" width="256" height="219.425"/>
<g>
	<polygon style="fill:#F0F0F0;" points="112.354,167.801 101.919,146.932 101.919,105.193 128.006,84.323 154.092,105.193    154.092,136.497 164.527,126.062 164.527,146.932 143.657,167.801  "/>
	<polygon style="fill:#F0F0F0;" points="56.23,103.801 58.992,112.305 67.932,112.305 60.7,117.56 63.464,126.062 56.23,120.808    48.996,126.062 51.76,117.56 44.527,112.305 53.467,112.305  "/>
	<polygon style="fill:#F0F0F0;" points="77.099,82.932 79.863,91.435 88.803,91.435 81.569,96.69 84.333,105.193 77.099,99.938    69.867,105.193 72.629,96.69 65.397,91.435 74.337,91.435  "/>
	<polygon style="fill:#F0F0F0;" points="97.969,62.062 100.732,70.566 109.672,70.566 102.439,75.821 105.202,84.323 97.969,79.068    90.735,84.323 93.499,75.821 86.266,70.566 95.205,70.566  "/>
	<polygon style="fill:#F0F0F0;" points="199.781,103.801 197.019,112.305 188.079,112.305 195.311,117.56 192.548,126.062    199.781,120.808 207.014,126.062 204.251,117.56 211.484,112.305 202.545,112.305  "/>
	<polygon style="fill:#F0F0F0;" points="178.912,82.932 176.148,91.435 167.209,91.435 174.442,96.69 171.678,105.193    178.912,99.938 186.144,105.193 183.382,96.69 190.614,91.435 181.674,91.435  "/>
	<polygon style="fill:#F0F0F0;" points="158.042,62.062 155.28,70.566 146.34,70.566 153.572,75.821 150.81,84.323 158.042,79.068    165.275,84.323 162.512,75.821 169.745,70.566 160.806,70.566  "/>
	<polygon style="fill:#F0F0F0;" points="128.006,51.627 125.243,60.131 116.303,60.131 123.536,65.386 120.773,73.888    128.006,68.634 135.238,73.888 132.476,65.386 139.708,60.131 130.769,60.131  "/>
</g>
<g>
</g>
<g>
</g>
<g>
</g>
<g>
</g>
<g>
</g>
<g>
</g>
<g>
</g>
<g>
</g>
<g>
</g>
<g>
</g>
<g>
</g>
<g>
</g>
<g>
</g>
<g>
</g>
<g>
</g>
</svg>
