<?xml version="1.0" encoding="iso-8859-1"?>
<!-- Generator: Adobe Illustrator 19.0.0, SVG Export Plug-In . SVG Version: 6.00 Build 0)  -->
<svg xmlns="http://www.w3.org/2000/svg" xmlns:xlink="http://www.w3.org/1999/xlink" version="1.1" id="Capa_1" x="0px" y="0px" viewBox="0 0 512 512" style="enable-background:new 0 0 512 512;" xml:space="preserve">
<g>
	<path style="fill:#0052B4;" d="M512,268.21V512H0V268.21c4.441,0.746,12.845,5.51,19.133,9.082   c10.952,6.222,21.304,12.099,31.199,12.099c9.906,0,20.246-5.877,31.21-12.099c6.834-3.885,16.195-9.194,20.213-9.194   c4.018,0,13.379,5.309,20.213,9.194c10.952,6.222,21.304,12.099,31.199,12.099s20.246-5.877,31.21-12.099   c6.834-3.885,16.195-9.194,20.213-9.194c4.007,0,13.368,5.309,20.202,9.194c10.963,6.222,21.315,12.099,31.21,12.099   c9.895,0,20.246-5.877,31.21-12.099c6.834-3.885,16.195-9.194,20.202-9.194c4.018,0,13.379,5.309,20.213,9.194   c10.964,6.222,21.315,12.099,31.21,12.099c9.895,0,20.246-5.877,31.199-12.099c6.834-3.885,16.195-9.194,20.213-9.194   c4.018,0,13.379,5.309,20.213,9.194c10.964,6.222,21.304,12.099,31.21,12.099c9.895,0,20.246-5.877,31.199-12.099   C499.155,273.72,507.559,268.956,512,268.21z"/>
	<path style="fill:#0052B4;" d="M461.664,199.866c-4.016,0-13.378-5.315-20.212-9.197c-10.958-6.223-21.308-12.1-31.204-12.1   s-20.246,5.877-31.204,12.1c-6.835,3.881-16.196,9.197-20.212,9.197s-13.378-5.315-20.211-9.197   c-10.958-6.223-21.308-12.1-31.204-12.1c-9.896,0-20.246,5.877-31.204,12.1c-6.835,3.881-16.196,9.197-20.212,9.197   c-4.016,0-13.378-5.315-20.212-9.197c-10.958-6.223-21.308-12.1-31.204-12.1c-9.896,0-20.246,5.877-31.204,12.1   c-6.834,3.881-16.195,9.197-20.211,9.197c-4.016,0-13.378-5.315-20.212-9.197c-10.958-6.223-21.308-12.1-31.204-12.1   s-20.246,5.877-31.204,12.1c-6.835,3.881-16.196,9.197-20.212,9.197s-13.378-5.315-20.211-9.197   C19.565,184.672,9.57,179.012,0,178.608v22.332c4.437,0.746,12.847,5.516,19.131,9.086c10.958,6.223,21.308,12.1,31.204,12.1   s20.246-5.877,31.204-12.1c6.835-3.881,16.196-9.197,20.212-9.197s13.378,5.315,20.212,9.197c10.958,6.223,21.308,12.1,31.204,12.1   s20.246-5.877,31.204-12.1c6.834-3.881,16.195-9.197,20.211-9.197c4.016,0,13.378,5.315,20.212,9.197   c10.958,6.223,21.308,12.1,31.204,12.1s20.246-5.877,31.204-12.1c6.835-3.881,16.196-9.197,20.212-9.197   c4.016,0,13.378,5.315,20.211,9.197c10.958,6.223,21.308,12.1,31.204,12.1s20.246-5.877,31.204-12.1   c6.835-3.881,16.196-9.197,20.212-9.197s13.378,5.315,20.212,9.197c10.958,6.223,21.308,12.1,31.204,12.1s20.246-5.877,31.204-12.1   c6.284-3.57,14.694-8.34,19.131-9.086v-22.332c-9.57,0.404-19.565,6.064-30.125,12.061   C475.041,194.551,465.681,199.866,461.664,199.866z"/>
	<path style="fill:#0052B4;" d="M0,33.985c4.437,0.746,12.847,5.516,19.131,9.086c10.958,6.223,21.308,12.1,31.204,12.1   s20.246-5.877,31.204-12.1c6.835-3.881,16.196-9.197,20.212-9.197s13.378,5.315,20.212,9.197c10.958,6.223,21.308,12.1,31.204,12.1   s20.246-5.877,31.204-12.1c6.834-3.881,16.195-9.197,20.211-9.197c4.016,0,13.378,5.315,20.212,9.197   c10.958,6.223,21.308,12.1,31.204,12.1s20.246-5.877,31.204-12.1c6.835-3.881,16.196-9.197,20.212-9.197   c4.016,0,13.378,5.315,20.211,9.197c10.958,6.223,21.308,12.1,31.204,12.1s20.246-5.877,31.204-12.1   c6.835-3.881,16.196-9.197,20.212-9.197s13.378,5.315,20.212,9.197c10.958,6.223,21.308,12.1,31.204,12.1s20.246-5.877,31.204-12.1   c6.284-3.57,14.694-8.34,19.131-9.086V11.651c-9.57,0.404-19.565,6.064-30.125,12.061c-6.834,3.881-16.195,9.197-20.211,9.197   s-13.378-5.315-20.212-9.197c-10.958-6.223-21.308-12.1-31.204-12.1s-20.246,5.877-31.204,12.1   c-6.835,3.881-16.196,9.197-20.212,9.197c-4.016,0-13.378-5.315-20.211-9.197c-10.958-6.223-21.308-12.1-31.204-12.1   s-20.246,5.877-31.204,12.1c-6.835,3.881-16.196,9.197-20.212,9.197c-4.016,0-13.378-5.315-20.212-9.197   c-10.958-6.223-21.308-12.1-31.204-12.1s-20.246,5.877-31.204,12.1c-6.834,3.881-16.195,9.197-20.211,9.197   c-4.016,0-13.378-5.315-20.212-9.197c-10.958-6.223-21.308-12.1-31.204-12.1s-20.246,5.877-31.204,12.1   c-6.835,3.881-16.196,9.197-20.212,9.197s-13.378-5.315-20.211-9.197C19.565,17.715,9.57,12.055,0,11.651V33.985z"/>
	<path style="fill:#0052B4;" d="M461.664,88.562c-4.016,0-13.378-5.315-20.212-9.197c-10.958-6.223-21.308-12.1-31.204-12.1   s-20.246,5.877-31.204,12.1c-6.835,3.881-16.196,9.197-20.212,9.197s-13.378-5.315-20.211-9.197   c-10.958-6.223-21.308-12.1-31.204-12.1c-9.896,0-20.246,5.877-31.204,12.1c-6.835,3.881-16.196,9.197-20.212,9.197   c-4.016,0-13.378-5.315-20.212-9.197c-10.958-6.223-21.308-12.1-31.204-12.1c-9.896,0-20.246,5.877-31.204,12.1   c-6.834,3.881-16.195,9.197-20.211,9.197c-4.016,0-13.378-5.315-20.212-9.197c-10.958-6.223-21.308-12.1-31.204-12.1   s-20.246,5.877-31.204,12.1c-6.835,3.881-16.196,9.197-20.212,9.197s-13.378-5.315-20.211-9.197   C19.565,73.367,9.57,67.708,0,67.304v22.332c4.437,0.746,12.847,5.516,19.131,9.086c10.958,6.223,21.308,12.1,31.204,12.1   s20.246-5.877,31.204-12.1c6.835-3.881,16.196-9.197,20.212-9.197s13.378,5.315,20.212,9.197c10.958,6.223,21.308,12.1,31.204,12.1   s20.246-5.877,31.204-12.1c6.834-3.881,16.195-9.197,20.211-9.197c4.016,0,13.378,5.315,20.212,9.197   c10.958,6.223,21.308,12.1,31.204,12.1s20.246-5.877,31.204-12.1c6.835-3.881,16.196-9.197,20.212-9.197   c4.016,0,13.378,5.315,20.211,9.197c10.958,6.223,21.308,12.1,31.204,12.1s20.246-5.877,31.204-12.1   c6.835-3.881,16.196-9.197,20.212-9.197s13.378,5.315,20.212,9.197c10.958,6.223,21.308,12.1,31.204,12.1s20.246-5.877,31.204-12.1   c6.284-3.57,14.694-8.34,19.131-9.086V67.304c-9.57,0.404-19.565,6.064-30.125,12.061   C475.041,83.247,465.681,88.562,461.664,88.562z"/>
	<path style="fill:#0052B4;" d="M512,122.956c-9.57,0.404-19.565,6.064-30.125,12.061c-6.834,3.881-16.195,9.197-20.211,9.197   s-13.378-5.315-20.212-9.197c-10.958-6.223-21.308-12.1-31.204-12.1s-20.246,5.877-31.204,12.1   c-6.835,3.881-16.196,9.197-20.212,9.197c-4.016,0-13.378-5.315-20.211-9.197c-10.958-6.223-21.308-12.1-31.204-12.1   s-20.246,5.877-31.204,12.1c-6.835,3.881-16.196,9.197-20.212,9.197c-4.016,0-13.378-5.315-20.212-9.197   c-10.958-6.223-21.308-12.1-31.204-12.1s-20.246,5.877-31.204,12.1c-6.834,3.881-16.195,9.197-20.211,9.197   s-13.378-5.315-20.212-9.197c-10.958-6.223-21.308-12.1-31.204-12.1s-20.246,5.877-31.204,12.1   c-6.835,3.881-16.196,9.197-20.212,9.197s-13.378-5.315-20.211-9.197C19.565,129.02,9.57,123.36,0,122.956v22.332   c4.437,0.746,12.847,5.516,19.131,9.086c10.958,6.223,21.308,12.1,31.204,12.1s20.246-5.877,31.204-12.1   c6.835-3.881,16.196-9.197,20.212-9.197s13.378,5.315,20.212,9.197c10.958,6.223,21.308,12.1,31.204,12.1s20.246-5.877,31.204-12.1   c6.834-3.881,16.195-9.197,20.211-9.197c4.016,0,13.378,5.315,20.212,9.197c10.958,6.223,21.308,12.1,31.204,12.1   s20.246-5.877,31.204-12.1c6.835-3.881,16.196-9.197,20.212-9.197c4.016,0,13.378,5.315,20.211,9.197   c10.958,6.223,21.308,12.1,31.204,12.1s20.246-5.877,31.204-12.1c6.835-3.881,16.196-9.197,20.212-9.197s13.378,5.315,20.212,9.197   c10.958,6.223,21.308,12.1,31.204,12.1s20.246-5.877,31.204-12.1c6.284-3.57,14.694-8.34,19.131-9.086v-22.332H512z"/>
</g>
<g>
	<path style="fill:#F0F0F0;" d="M512,0v268.21c-4.441,0.746-12.845,5.51-19.133,9.082c-10.952,6.222-21.304,12.099-31.199,12.099   c-9.906,0-20.246-5.877-31.21-12.099c-6.834-3.885-16.195-9.194-20.213-9.194s-13.379,5.309-20.213,9.194   c-10.952,6.222-21.304,12.099-31.199,12.099c-9.895,0-20.246-5.877-31.21-12.099c-6.834-3.885-16.195-9.194-20.213-9.194   c-4.007,0-13.368,5.309-20.202,9.194c-10.963,6.222-21.315,12.099-31.21,12.099c-9.895,0-20.246-5.877-31.21-12.099   c-6.834-3.885-16.195-9.194-20.202-9.194c-4.018,0-13.379,5.309-20.213,9.194c-10.963,6.222-21.315,12.099-31.21,12.099   s-20.246-5.877-31.199-12.099c-6.834-3.885-16.195-9.194-20.213-9.194c-4.018,0-13.379,5.309-20.213,9.194   c-10.963,6.222-21.304,12.099-31.21,12.099c-9.895,0-20.246-5.877-31.199-12.099C12.845,273.72,4.441,268.956,0,268.21V0H512z"/>
	<path style="fill:#F0F0F0;" d="M512,301.525c-9.57,0.404-19.565,6.064-30.125,12.061c-6.834,3.881-16.195,9.197-20.211,9.197   s-13.378-5.315-20.212-9.197c-10.958-6.223-21.308-12.1-31.204-12.1s-20.246,5.877-31.204,12.1   c-6.835,3.881-16.196,9.197-20.212,9.197c-4.016,0-13.378-5.315-20.211-9.197c-10.958-6.223-21.308-12.1-31.204-12.1   s-20.246,5.877-31.204,12.1c-6.836,3.882-16.198,9.197-20.214,9.197s-13.378-5.315-20.212-9.197   c-10.958-6.223-21.308-12.1-31.204-12.1s-20.246,5.877-31.204,12.1c-6.834,3.881-16.195,9.197-20.211,9.197   s-13.378-5.315-20.212-9.197c-10.958-6.223-21.308-12.1-31.204-12.1s-20.246,5.877-31.204,12.1   c-6.836,3.882-16.197,9.197-20.213,9.197s-13.378-5.315-20.211-9.197C19.565,307.588,9.57,301.929,0,301.525v22.332   c4.437,0.746,12.847,5.516,19.131,9.086c10.958,6.224,21.308,12.101,31.205,12.101s20.246-5.877,31.204-12.1   c6.835-3.881,16.196-9.197,20.212-9.197s13.378,5.315,20.212,9.197c10.958,6.223,21.308,12.1,31.204,12.1   c9.896,0,20.246-5.877,31.204-12.1c6.834-3.881,16.195-9.197,20.211-9.197c4.016,0,13.378,5.315,20.212,9.197   c10.959,6.223,21.308,12.1,31.205,12.1s20.246-5.877,31.204-12.1c6.835-3.881,16.196-9.197,20.212-9.197s13.378,5.315,20.211,9.197   c10.958,6.223,21.308,12.1,31.205,12.1s20.246-5.877,31.204-12.1c6.835-3.881,16.196-9.197,20.212-9.197s13.378,5.315,20.212,9.197   c10.958,6.223,21.308,12.1,31.204,12.1s20.246-5.877,31.204-12.1c6.284-3.57,14.694-8.34,19.131-9.086v-22.333H512z"/>
	<path style="fill:#F0F0F0;" d="M512,357.177c-9.57,0.404-19.565,6.064-30.125,12.061c-6.834,3.881-16.195,9.197-20.211,9.197   s-13.378-5.315-20.212-9.197c-10.958-6.223-21.308-12.1-31.204-12.1s-20.246,5.877-31.204,12.1   c-6.835,3.881-16.196,9.197-20.212,9.197c-4.016,0-13.378-5.315-20.211-9.197c-10.958-6.223-21.308-12.1-31.204-12.1   s-20.246,5.877-31.204,12.1c-6.836,3.882-16.198,9.197-20.214,9.197s-13.378-5.315-20.212-9.197   c-10.958-6.223-21.308-12.1-31.204-12.1s-20.246,5.877-31.204,12.1c-6.834,3.881-16.195,9.197-20.211,9.197   s-13.378-5.315-20.212-9.197c-10.958-6.223-21.308-12.1-31.204-12.1s-20.246,5.877-31.204,12.1   c-6.836,3.882-16.197,9.197-20.213,9.197s-13.378-5.315-20.211-9.197C19.565,363.241,9.57,357.581,0,357.177v22.332   c4.437,0.746,12.847,5.516,19.131,9.086c10.958,6.224,21.308,12.101,31.205,12.101s20.246-5.877,31.204-12.1   c6.835-3.881,16.196-9.197,20.212-9.197s13.378,5.315,20.212,9.197c10.958,6.223,21.308,12.1,31.204,12.1   c9.896,0,20.246-5.877,31.204-12.1c6.834-3.881,16.195-9.197,20.211-9.197c4.016,0,13.378,5.315,20.212,9.197   c10.959,6.223,21.308,12.1,31.205,12.1s20.246-5.877,31.204-12.1c6.835-3.881,16.196-9.197,20.212-9.197s13.378,5.315,20.211,9.197   c10.958,6.223,21.308,12.1,31.205,12.1s20.246-5.877,31.204-12.1c6.835-3.881,16.196-9.197,20.212-9.197s13.378,5.315,20.212,9.197   c10.958,6.223,21.308,12.1,31.204,12.1s20.246-5.877,31.204-12.1c6.284-3.57,14.694-8.34,19.131-9.086v-22.333H512z"/>
	<path style="fill:#F0F0F0;" d="M512,412.829c-9.57,0.404-19.565,6.064-30.125,12.061c-6.834,3.881-16.195,9.197-20.211,9.197   s-13.378-5.315-20.212-9.197c-10.958-6.223-21.308-12.1-31.204-12.1s-20.246,5.877-31.204,12.1   c-6.835,3.881-16.196,9.197-20.212,9.197c-4.016,0-13.378-5.315-20.211-9.197c-10.958-6.223-21.308-12.1-31.204-12.1   s-20.246,5.877-31.204,12.1c-6.836,3.882-16.198,9.197-20.214,9.197s-13.378-5.315-20.212-9.197   c-10.958-6.223-21.308-12.1-31.204-12.1s-20.246,5.877-31.204,12.1c-6.834,3.881-16.195,9.197-20.211,9.197   s-13.378-5.315-20.212-9.197c-10.958-6.223-21.308-12.1-31.204-12.1s-20.246,5.877-31.204,12.1   c-6.836,3.882-16.197,9.197-20.213,9.197s-13.378-5.315-20.211-9.197C19.565,418.893,9.57,413.233,0,412.829v22.332   c4.437,0.746,12.847,5.516,19.131,9.086c10.958,6.224,21.308,12.101,31.205,12.101s20.246-5.877,31.204-12.1   c6.835-3.881,16.196-9.197,20.212-9.197s13.378,5.315,20.212,9.197c10.958,6.223,21.308,12.1,31.204,12.1   c9.896,0,20.246-5.877,31.204-12.1c6.834-3.881,16.195-9.197,20.211-9.197c4.016,0,13.378,5.315,20.212,9.197   c10.959,6.223,21.308,12.1,31.205,12.1s20.246-5.877,31.204-12.1c6.835-3.881,16.196-9.197,20.212-9.197s13.378,5.315,20.211,9.197   c10.958,6.223,21.308,12.1,31.205,12.1s20.246-5.877,31.204-12.1c6.835-3.881,16.196-9.197,20.212-9.197s13.378,5.315,20.212,9.197   c10.958,6.223,21.308,12.1,31.204,12.1s20.246-5.877,31.204-12.1c6.284-3.57,14.694-8.34,19.131-9.086v-22.333H512z"/>
	<path style="fill:#F0F0F0;" d="M512,468.481c-9.57,0.404-19.565,6.064-30.125,12.061c-6.834,3.881-16.195,9.197-20.211,9.197   s-13.378-5.315-20.212-9.197c-10.958-6.223-21.308-12.1-31.204-12.1s-20.246,5.877-31.204,12.1   c-6.835,3.881-16.196,9.197-20.212,9.197c-4.016,0-13.378-5.315-20.211-9.197c-10.958-6.223-21.308-12.1-31.204-12.1   s-20.246,5.877-31.204,12.1c-6.836,3.882-16.198,9.197-20.214,9.197s-13.378-5.315-20.212-9.197   c-10.958-6.223-21.308-12.1-31.204-12.1s-20.246,5.877-31.204,12.1c-6.834,3.881-16.195,9.197-20.211,9.197   s-13.378-5.315-20.212-9.197c-10.958-6.223-21.308-12.1-31.204-12.1s-20.246,5.877-31.204,12.1   c-6.836,3.882-16.197,9.197-20.213,9.197s-13.378-5.315-20.211-9.197C19.565,474.545,9.57,468.885,0,468.481v22.332   c4.437,0.746,12.847,5.516,19.131,9.086C30.089,506.123,40.439,512,50.336,512s20.246-5.877,31.204-12.1   c6.835-3.881,16.196-9.197,20.212-9.197s13.378,5.315,20.212,9.197c10.958,6.223,21.308,12.1,31.204,12.1   c9.896,0,20.246-5.877,31.204-12.1c6.834-3.881,16.195-9.197,20.211-9.197c4.016,0,13.378,5.315,20.212,9.197   C235.754,506.123,246.103,512,256,512s20.246-5.877,31.204-12.1c6.835-3.881,16.196-9.197,20.212-9.197s13.378,5.315,20.211,9.197   c10.958,6.223,21.308,12.1,31.205,12.1s20.246-5.877,31.204-12.1c6.835-3.881,16.196-9.197,20.212-9.197s13.378,5.315,20.212,9.197   c10.958,6.223,21.308,12.1,31.204,12.1s20.246-5.877,31.204-12.1c6.284-3.57,14.694-8.34,19.131-9.086v-22.333H512z"/>
	<rect style="fill:#F0F0F0;" width="512" height="256"/>
</g>
<polygon style="fill:#FFDA44;" points="339.326,452.477 369.981,396.721 307.465,408.677 299.544,345.525 256,391.972   212.458,345.525 204.534,408.677 142.02,396.721 172.678,452.474 115.105,479.555 172.675,506.633 169.725,512 342.273,512   339.322,506.634 396.895,479.555 "/>
<g>
	<polygon style="fill:#F0F0F0;" points="0,153.052 0,178.093 8.812,178.093 141.986,178.093 52.913,244.9 38.112,256 85.334,256    189.208,178.093 189.211,178.093 189.211,201.702 116.816,256 132.557,256 189.211,213.51 189.211,256 222.609,256    222.609,153.052  "/>
	<polygon style="fill:#F0F0F0;" points="369.998,178.096 512,178.096 512,153.052 289.391,153.052 289.391,256 322.776,256    322.776,213.51 379.428,256 426.652,256 322.783,178.096 354.259,178.096 458.129,256 473.889,256 459.064,244.897  "/>
</g>
<g>
	<polygon style="fill:#0052B4;" points="141.99,77.916 52.913,11.107 38.105,0.001 0,0.001 0,77.916 8.812,77.916  "/>
	<polygon style="fill:#0052B4;" points="322.776,0.001 322.776,42.498 379.439,0.001  "/>
	<polygon style="fill:#0052B4;" points="189.211,42.497 189.211,0.001 132.55,0.001  "/>
	<polygon style="fill:#0052B4;" points="459.074,11.108 369.999,77.916 503.175,77.916 512,77.916 512,0.001 473.883,0.001  "/>
	<polygon style="fill:#0052B4;" points="141.986,178.093 8.812,178.093 0,178.093 0,256 38.112,256 52.913,244.9  "/>
	<polygon style="fill:#0052B4;" points="132.557,256 189.211,256 189.211,213.51  "/>
	<polygon style="fill:#0052B4;" points="322.776,256 379.428,256 322.776,213.51  "/>
	<polygon style="fill:#0052B4;" points="369.998,178.096 459.064,244.897 473.889,256 512,256 512,178.096  "/>
</g>
<g>
	<polygon style="fill:#D80027;" points="289.391,102.964 289.391,0 222.609,0 222.609,102.964 0,102.964 0,120.378 0,153.052    222.609,153.052 222.609,256 289.391,256 289.391,153.052 512,153.052 512,120.378 512,102.964  "/>
	<polygon style="fill:#D80027;" points="322.783,178.096 426.652,256 458.129,256 354.259,178.096  "/>
	<polygon style="fill:#D80027;" points="189.211,178.093 189.208,178.093 85.334,256 116.816,256 189.211,201.702  "/>
	<polygon style="fill:#D80027;" points="53.846,0.001 59.927,4.562 157.73,77.916 189.211,77.916 189.211,77.915 85.328,0.001  "/>
	<polygon style="fill:#D80027;" points="426.661,0.001 395.179,0.001 322.776,54.304 322.776,77.916 322.776,77.916  "/>
</g>
<g>
</g>
<g>
</g>
<g>
</g>
<g>
</g>
<g>
</g>
<g>
</g>
<g>
</g>
<g>
</g>
<g>
</g>
<g>
</g>
<g>
</g>
<g>
</g>
<g>
</g>
<g>
</g>
<g>
</g>
</svg>
