<?xml version="1.0" encoding="iso-8859-1"?>
<!-- Generator: Adobe Illustrator 19.0.0, SVG Export Plug-In . SVG Version: 6.00 Build 0)  -->
<svg xmlns="http://www.w3.org/2000/svg" xmlns:xlink="http://www.w3.org/1999/xlink" version="1.1" id="Capa_1" x="0px" y="0px" viewBox="0 0 512 512" style="enable-background:new 0 0 512 512;" xml:space="preserve">
<rect x="0.002" y="0.001" style="fill:#D80027;" width="511.998" height="511.998"/>
<g>
	<rect x="0.002" y="113.776" style="fill:#FFDA44;" width="511.998" height="56.887"/>
	<rect x="0.002" y="227.562" style="fill:#FFDA44;" width="511.998" height="56.887"/>
	<rect x="0.002" y="341.337" style="fill:#FFDA44;" width="511.998" height="56.887"/>
	<rect x="0.002" y="455.111" style="fill:#FFDA44;" width="511.998" height="56.887"/>
	<rect x="0.002" y="0.001" style="fill:#FFDA44;" width="511.998" height="56.887"/>
</g>
<rect y="0.001" style="fill:#4A1F63;" width="255.999" height="255.999"/>
<polygon style="fill:#F0F0F0;" points="175.999,112.002 175.999,128.002 168,128.002 168,112.002 152,112.002 152,128.002   143.999,128.002 143.999,96.002 112,96.002 112,128.002 103.999,128.002 103.999,112.002 87.999,112.002 87.999,128.002 80,128.002   80,112.002 64,112.002 64,160.001 191.999,160.001 191.999,112.002 "/>
<g>
</g>
<g>
</g>
<g>
</g>
<g>
</g>
<g>
</g>
<g>
</g>
<g>
</g>
<g>
</g>
<g>
</g>
<g>
</g>
<g>
</g>
<g>
</g>
<g>
</g>
<g>
</g>
<g>
</g>
</svg>
