<?xml version="1.0" encoding="iso-8859-1"?>
<!-- Generator: Adobe Illustrator 19.0.0, SVG Export Plug-In . SVG Version: 6.00 Build 0)  -->
<svg xmlns="http://www.w3.org/2000/svg" xmlns:xlink="http://www.w3.org/1999/xlink" version="1.1" id="Capa_1" x="0px" y="0px" viewBox="0 0 512 512" style="enable-background:new 0 0 512 512;" xml:space="preserve">
<g>
	<polygon style="fill:#F0F0F0;" points="0,0 0,0 0,256 256,256  "/>
	<polygon style="fill:#F0F0F0;" points="511.999,0 256,0 256,256  "/>
	<polygon style="fill:#F0F0F0;" points="0,512 256,512 256,256  "/>
	<polygon style="fill:#F0F0F0;" points="511.999,512 512,512 512,256 256,256  "/>
</g>
<polygon points="256,0 256,0 0,0 0,0 256,256 "/>
<polygon points="0,256 0,512 0,512 0,512 256,256 "/>
<polygon points="256,256 256,512 256,512 512,512 511.999,512 "/>
<polygon points="512,256 512,0 512,0 511.999,0 256,256 "/>
<polygon style="fill:#FFDA44;" points="196.638,204.058 256,211.479 315.362,204.058 315.362,168.44 291.617,180.313 256,144.696   220.383,180.313 196.638,168.44 "/>
<path style="fill:#D80027;" d="M256,345.043c-32.732,0-59.362-26.63-59.362-59.362v-59.36l22.261-22.262h74.203l22.261,22.262v59.36  C315.362,318.414,288.732,345.043,256,345.043z"/>
<path style="fill:#F0F0F0;" d="M256,322.783c-20.458,0-37.101-16.643-37.101-37.101v-59.361h74.203v59.361  C293.101,306.139,276.458,322.783,256,322.783z"/>
<g>
	<rect x="196.641" y="204.054" style="fill:#FFDA44;" width="22.261" height="22.261"/>
	<rect x="293.098" y="204.054" style="fill:#FFDA44;" width="22.261" height="22.261"/>
	<rect x="293.098" y="252.294" style="fill:#FFDA44;" width="22.261" height="22.261"/>
	<rect x="196.641" y="252.294" style="fill:#FFDA44;" width="22.261" height="22.261"/>
	<path style="fill:#FFDA44;" d="M256,322.783c-3.877,0-7.615-0.6-11.13-1.709v22.908c3.608,0.688,7.325,1.062,11.13,1.062   s7.522-0.374,11.13-1.062v-22.908C263.615,322.183,259.877,322.783,256,322.783z"/>
	<path style="fill:#FFDA44;" d="M219.395,291.704l-17.766,17.766c3.081,7.013,7.474,13.319,12.876,18.606l15.733-15.733   C224.624,306.917,220.713,299.744,219.395,291.704z"/>
	<path style="fill:#FFDA44;" d="M310.371,309.471l-17.766-17.766c-1.319,8.038-5.229,15.212-10.843,20.638l15.733,15.733   C302.896,322.789,307.29,316.484,310.371,309.471z"/>
</g>
<g>
	<path style="fill:#0052B4;" d="M248.579,238.687v12.367c0,4.098,3.322,7.421,7.421,7.421c4.098,0,7.421-3.322,7.421-7.421v-12.367   H248.579z"/>
	<path style="fill:#0052B4;" d="M248.579,288.155v12.367c0,4.098,3.322,7.421,7.421,7.421c4.098,0,7.421-3.322,7.421-7.421v-12.367   H248.579z"/>
	<path style="fill:#0052B4;" d="M270.84,263.421v12.368c0,4.097,3.322,7.421,7.421,7.421s7.421-3.324,7.421-7.421v-12.368   L270.84,263.421L270.84,263.421z"/>
	<path style="fill:#0052B4;" d="M248.579,263.421v12.368c0,4.097,3.322,7.421,7.421,7.421c4.098,0,7.421-3.324,7.421-7.421v-12.368   L248.579,263.421L248.579,263.421z"/>
	<path style="fill:#0052B4;" d="M226.318,263.421v12.368c0,4.097,3.322,7.421,7.421,7.421s7.421-3.324,7.421-7.421v-12.368   L226.318,263.421L226.318,263.421z"/>
</g>
<g>
</g>
<g>
</g>
<g>
</g>
<g>
</g>
<g>
</g>
<g>
</g>
<g>
</g>
<g>
</g>
<g>
</g>
<g>
</g>
<g>
</g>
<g>
</g>
<g>
</g>
<g>
</g>
<g>
</g>
</svg>
