<?xml version="1.0" encoding="iso-8859-1"?>
<!-- Generator: Adobe Illustrator 19.0.0, SVG Export Plug-In . SVG Version: 6.00 Build 0)  -->
<svg xmlns="http://www.w3.org/2000/svg" xmlns:xlink="http://www.w3.org/1999/xlink" version="1.1" id="Capa_1" x="0px" y="0px" viewBox="0 0 512 512" style="enable-background:new 0 0 512 512;" xml:space="preserve">
<rect style="fill:#0052B4;" width="512" height="512"/>
<g>
	<polygon style="fill:#FFDA44;" points="256,105.739 263.993,130.337 289.855,130.337 268.931,145.539 276.924,170.136 256,154.935    235.076,170.136 243.069,145.539 222.145,130.337 248.007,130.337  "/>
	<polygon style="fill:#FFDA44;" points="149.749,149.75 172.794,161.49 191.083,143.204 187.036,168.749 210.081,180.49    184.536,184.536 180.49,210.081 168.747,187.036 143.204,191.083 161.491,172.794  "/>
	<polygon style="fill:#FFDA44;" points="105.739,256 130.336,248.007 130.337,222.145 145.539,243.069 170.136,235.076 154.935,256    170.136,276.924 145.539,268.932 130.337,289.855 130.337,263.993  "/>
	<polygon style="fill:#FFDA44;" points="149.749,362.251 161.49,339.206 143.204,320.917 168.749,324.964 180.489,301.92    184.536,327.464 210.08,331.51 187.037,343.253 191.083,368.797 172.794,350.509  "/>
	<polygon style="fill:#FFDA44;" points="256,406.261 248.007,381.664 222.145,381.663 243.069,366.461 235.076,341.865 256,357.065    276.924,341.865 268.931,366.461 289.855,381.663 263.992,381.663  "/>
	<polygon style="fill:#FFDA44;" points="362.25,362.251 339.206,350.51 320.917,368.797 324.964,343.251 301.92,331.511    327.464,327.464 331.511,301.92 343.251,324.964 368.796,320.917 350.509,339.207  "/>
	<polygon style="fill:#FFDA44;" points="406.261,256 381.663,263.993 381.663,289.855 366.461,268.931 341.865,276.924 357.065,256    341.865,235.076 366.462,243.069 381.663,222.145 381.663,248.008  "/>
	<polygon style="fill:#FFDA44;" points="362.25,149.75 350.51,172.794 368.797,191.083 343.251,187.036 331.511,210.08    327.464,184.536 301.92,180.489 324.964,168.749 320.917,143.205 339.207,161.491  "/>
</g>
<g>
</g>
<g>
</g>
<g>
</g>
<g>
</g>
<g>
</g>
<g>
</g>
<g>
</g>
<g>
</g>
<g>
</g>
<g>
</g>
<g>
</g>
<g>
</g>
<g>
</g>
<g>
</g>
<g>
</g>
</svg>
