<?xml version="1.0" encoding="iso-8859-1"?>
<!-- Generator: Adobe Illustrator 19.0.0, SVG Export Plug-In . SVG Version: 6.00 Build 0)  -->
<svg xmlns="http://www.w3.org/2000/svg" xmlns:xlink="http://www.w3.org/1999/xlink" version="1.1" id="Capa_1" x="0px" y="0px" viewBox="0 0 512 512" style="enable-background:new 0 0 512 512;" xml:space="preserve">
<rect style="fill:#F0F0F0;" width="512" height="512"/>
<rect y="64" style="fill:#D80027;" width="512" height="64"/>
<rect y="128" style="fill:#0052B4;" width="512" height="64"/>
<rect y="256" style="fill:#D80027;" width="512" height="64"/>
<rect y="320" style="fill:#0052B4;" width="512" height="64"/>
<rect y="448" style="fill:#D80027;" width="512" height="64"/>
<rect style="fill:#F0F0F0;" width="256" height="256"/>
<polygon style="fill:#D80027;" points="0,152.001 104.001,152.001 104.001,256 152.001,256 152.001,152.001 256,152.001   256,104.001 152.001,104.001 152.001,0 104.001,0 104.001,104.001 0,104.001 "/>
<g>
	<polygon style="fill:#0052B4;" points="203.46,166.957 256,219.497 256,166.957  "/>
	<polygon style="fill:#0052B4;" points="166.957,166.957 256,256 256,230.82 192.137,166.957  "/>
	<polygon style="fill:#0052B4;" points="232.282,256 166.957,190.669 166.957,256  "/>
</g>
<polygon style="fill:#F0F0F0;" points="166.957,166.957 256,256 256,230.82 192.137,166.957 "/>
<polygon style="fill:#D80027;" points="166.957,166.957 256,256 256,230.82 192.137,166.957 "/>
<g>
	<polygon style="fill:#0052B4;" points="40.151,166.957 0,207.107 0,166.957  "/>
	<polygon style="fill:#0052B4;" points="89.041,178.28 89.041,255.999 11.33,255.999  "/>
</g>
<polygon style="fill:#D80027;" points="63.862,166.959 0,230.821 0,256 0,256 89.041,166.959 "/>
<g>
	<polygon style="fill:#0052B4;" points="52.54,89.043 0,36.503 0,89.043  "/>
	<polygon style="fill:#0052B4;" points="89.043,89.043 0,0 0,25.18 63.863,89.043  "/>
	<polygon style="fill:#0052B4;" points="23.718,0 89.043,65.331 89.043,0  "/>
</g>
<polygon style="fill:#F0F0F0;" points="89.043,89.043 0,0 0,25.18 63.863,89.043 "/>
<polygon style="fill:#D80027;" points="89.043,89.043 0,0 0,25.18 63.863,89.043 "/>
<g>
	<polygon style="fill:#0052B4;" points="215.849,89.043 256,48.893 256,89.043  "/>
	<polygon style="fill:#0052B4;" points="166.959,77.72 166.959,0.002 244.67,0.002  "/>
</g>
<polygon style="fill:#D80027;" points="192.138,89.041 256,25.179 256,0 256,0 166.959,89.041 "/>
<g>
</g>
<g>
</g>
<g>
</g>
<g>
</g>
<g>
</g>
<g>
</g>
<g>
</g>
<g>
</g>
<g>
</g>
<g>
</g>
<g>
</g>
<g>
</g>
<g>
</g>
<g>
</g>
<g>
</g>
</svg>
