<?xml version="1.0" encoding="iso-8859-1"?>
<!-- Generator: Adobe Illustrator 19.0.0, SVG Export Plug-In . SVG Version: 6.00 Build 0)  -->
<svg xmlns="http://www.w3.org/2000/svg" xmlns:xlink="http://www.w3.org/1999/xlink" version="1.1" id="Capa_1" x="0px" y="0px" viewBox="0 0 512 512" style="enable-background:new 0 0 512 512;" xml:space="preserve">
<rect style="fill:#338AF3;" width="512" height="512"/>
<rect x="142.225" y="278.049" style="fill:#818085;" width="227.551" height="28.445"/>
<polygon style="fill:#FFDA44;" points="180.148,192.721 256,202.203 331.852,192.721 331.852,147.21 301.511,162.381 256,116.87   210.489,162.381 180.148,147.21 "/>
<g>
	<polygon style="fill:#F0F0F0;" points="161.185,334.945 132.74,334.945 132.74,282.797 142.222,268.573 132.74,254.352    132.74,221.167 161.185,221.167  "/>
	<polygon style="fill:#F0F0F0;" points="379.26,334.945 350.815,334.945 350.815,221.167 379.26,221.167 379.26,254.35    369.777,268.811 379.26,282.799  "/>
</g>
<rect x="132.742" y="254.353" style="fill:#ACABB1;" width="246.517" height="28.445"/>
<path style="fill:#F0F0F0;" d="M256,372.87c-41.825,0-75.852-34.027-75.852-75.852V192.722h151.703v104.296  C331.852,338.843,297.825,372.87,256,372.87z"/>
<path style="fill:#0052B4;" d="M256,344.425c-26.141,0-47.408-21.267-47.408-47.408v-75.851h94.815v75.851  C303.408,323.159,282.141,344.425,256,344.425z"/>
<g>
	<rect x="180.146" y="192.723" style="fill:#D80027;" width="28.445" height="28.445"/>
	<rect x="303.405" y="192.723" style="fill:#D80027;" width="28.445" height="28.445"/>
	<rect x="303.405" y="254.353" style="fill:#D80027;" width="28.445" height="28.445"/>
	<rect x="180.146" y="254.353" style="fill:#D80027;" width="28.445" height="28.445"/>
	<rect x="241.775" y="192.723" style="fill:#D80027;" width="28.445" height="28.445"/>
	<path style="fill:#D80027;" d="M256,344.425c-4.954,0-9.73-0.767-14.222-2.183v29.271c4.61,0.878,9.361,1.357,14.222,1.357   s9.612-0.477,14.222-1.357v-29.271C265.73,343.659,260.954,344.425,256,344.425z"/>
	<path style="fill:#D80027;" d="M209.227,304.715l-22.701,22.701c3.936,8.961,9.551,17.018,16.452,23.773l20.104-20.104   C215.908,324.152,210.911,314.986,209.227,304.715z"/>
	<path style="fill:#D80027;" d="M325.474,327.416l-22.701-22.701c-1.685,10.271-6.682,19.437-13.855,26.37l20.104,20.104   C315.922,344.434,321.538,336.376,325.474,327.416z"/>
</g>
<g>
</g>
<g>
</g>
<g>
</g>
<g>
</g>
<g>
</g>
<g>
</g>
<g>
</g>
<g>
</g>
<g>
</g>
<g>
</g>
<g>
</g>
<g>
</g>
<g>
</g>
<g>
</g>
<g>
</g>
</svg>
