<?xml version="1.0" encoding="iso-8859-1"?>
<!-- Generator: Adobe Illustrator 19.0.0, SVG Export Plug-In . SVG Version: 6.00 Build 0)  -->
<svg xmlns="http://www.w3.org/2000/svg" xmlns:xlink="http://www.w3.org/1999/xlink" version="1.1" id="Capa_1" x="0px" y="0px" viewBox="0 0 512 512" style="enable-background:new 0 0 512 512;" xml:space="preserve">
<rect x="0.007" style="fill:#FFDA44;" width="511.989" height="512"/>
<g>
	<rect x="0.001" style="fill:#0052B4;" width="170.663" height="512"/>
	<rect x="341.336" style="fill:#0052B4;" width="170.663" height="512"/>
</g>
<polygon style="fill:#D80027;" points="314.782,274.087 328.347,292.174 328.347,219.826 314.782,237.913 274.086,237.913   274.086,197.218 292.173,183.652 219.825,183.652 237.912,197.218 237.912,237.913 197.217,237.913 183.651,219.826   183.651,292.174 197.217,274.087 237.912,274.087 237.912,314.783 219.825,328.348 292.173,328.348 274.086,314.783   274.086,274.087 "/>
<polygon style="fill:#F0F0F0;" points="310.26,246.957 265.042,246.957 265.042,201.739 246.955,201.739 246.955,246.957   201.738,246.957 201.738,265.043 246.955,265.043 246.955,310.261 265.042,310.261 265.042,265.043 310.26,265.043 "/>
<g>
</g>
<g>
</g>
<g>
</g>
<g>
</g>
<g>
</g>
<g>
</g>
<g>
</g>
<g>
</g>
<g>
</g>
<g>
</g>
<g>
</g>
<g>
</g>
<g>
</g>
<g>
</g>
<g>
</g>
</svg>
