<?xml version="1.0" encoding="iso-8859-1"?>
<!-- Generator: Adobe Illustrator 19.0.0, SVG Export Plug-In . SVG Version: 6.00 Build 0)  -->
<svg xmlns="http://www.w3.org/2000/svg" xmlns:xlink="http://www.w3.org/1999/xlink" version="1.1" id="Capa_1" x="0px" y="0px" viewBox="0 0 512 512" style="enable-background:new 0 0 512 512;" xml:space="preserve">
<rect x="0" style="fill:#0052B4;" width="512" height="512"/>
<path style="fill:#F0F0F0;" d="M329.244,267.904c0.628-3.878,0.959-7.855,0.959-11.906  C330.203,260.05,329.87,264.027,329.244,267.904l30.64-11.906l-30.641-11.906l-16.829-6.54l-27.343-10.625l-10.625-27.343  c17.916,5.872,32.095,20.05,37.967,37.967l16.829,6.54c-5.087-31.398-29.94-56.252-61.336-61.338L256,152.114l-11.906,30.641  c-31.397,5.087-56.251,29.94-61.336,61.338l-30.641,11.905l30.641,11.906c5.085,31.397,29.94,56.251,61.336,61.336L256,359.881  l11.906-30.641C299.304,324.155,324.157,299.302,329.244,267.904z M273.605,238.394L256,255.998h62.91l-45.305,17.605L256,255.998  v62.911l-17.605-45.305L256,255.998h-62.91l45.305-17.604L256,255.998v-62.91L273.605,238.394z M237.554,199.584l-10.625,27.343  l-27.342,10.625C205.459,219.636,219.637,205.458,237.554,199.584z M199.587,274.444l27.342,10.625l10.625,27.342  C219.637,306.538,205.46,292.36,199.587,274.444z M274.446,312.411l10.625-27.342l27.342-10.625  C306.54,292.36,292.362,306.538,274.446,312.411z"/>
<g>
	<polygon style="fill:#0052B4;" points="318.91,255.998 256,255.998 273.605,273.603  "/>
	<polygon style="fill:#0052B4;" points="193.09,255.998 256,255.998 238.395,238.394  "/>
	<polygon style="fill:#0052B4;" points="256,318.909 256,255.998 238.395,273.603  "/>
	<polygon style="fill:#0052B4;" points="256,255.998 273.605,238.394 256,193.087  "/>
</g>
<g>
	<rect x="248.576" y="107.596" style="fill:#F0F0F0;" width="14.84" height="29.682"/>
	<rect x="107.598" y="248.574" style="fill:#F0F0F0;" width="29.682" height="14.84"/>
	<rect x="248.576" y="374.726" style="fill:#F0F0F0;" width="14.84" height="29.682"/>
	<rect x="374.728" y="248.574" style="fill:#F0F0F0;" width="29.682" height="14.84"/>
</g>
<g>
</g>
<g>
</g>
<g>
</g>
<g>
</g>
<g>
</g>
<g>
</g>
<g>
</g>
<g>
</g>
<g>
</g>
<g>
</g>
<g>
</g>
<g>
</g>
<g>
</g>
<g>
</g>
<g>
</g>
</svg>
