<?xml version="1.0" encoding="iso-8859-1"?>
<!-- Generator: Adobe Illustrator 19.0.0, SVG Export Plug-In . SVG Version: 6.00 Build 0)  -->
<svg xmlns="http://www.w3.org/2000/svg" xmlns:xlink="http://www.w3.org/1999/xlink" version="1.1" id="Capa_1" x="0px" y="0px" viewBox="0 0 512 512" style="enable-background:new 0 0 512 512;" xml:space="preserve">
<rect style="fill:#F0F0F0;" width="512" height="512"/>
<g>
	<rect y="83.478" style="fill:#D80027;" width="512" height="33.391"/>
	<rect y="384" style="fill:#D80027;" width="512" height="33.391"/>
	<polygon style="fill:#D80027;" points="234.16,224.791 248.163,244.088 270.84,236.734 256.816,256.013 270.818,275.31    248.147,267.928 234.122,287.209 234.136,263.368 211.467,255.987 234.145,248.634  "/>
	<path style="fill:#D80027;" d="M195.943,304.232c-26.637,0-48.232-21.594-48.232-48.232s21.594-48.232,48.232-48.232   c8.306,0,16.12,2.1,22.943,5.797c-10.704-10.467-25.342-16.927-41.494-16.927c-32.785,0-59.362,26.577-59.362,59.362   s26.577,59.362,59.362,59.362c16.152,0,30.79-6.461,41.494-16.927C212.064,302.132,204.249,304.232,195.943,304.232z"/>
</g>
<g>
</g>
<g>
</g>
<g>
</g>
<g>
</g>
<g>
</g>
<g>
</g>
<g>
</g>
<g>
</g>
<g>
</g>
<g>
</g>
<g>
</g>
<g>
</g>
<g>
</g>
<g>
</g>
<g>
</g>
</svg>
