<?xml version="1.0" encoding="iso-8859-1"?>
<!-- Generator: Adobe Illustrator 19.0.0, SVG Export Plug-In . SVG Version: 6.00 Build 0)  -->
<svg xmlns="http://www.w3.org/2000/svg" xmlns:xlink="http://www.w3.org/1999/xlink" version="1.1" id="Capa_1" x="0px" y="0px" viewBox="0 0 512 512" style="enable-background:new 0 0 512 512;" xml:space="preserve">
<rect style="fill:#F0F0F0;" width="512" height="512"/>
<g>
	<rect x="224" style="fill:#D80027;" width="64" height="512"/>
	<rect y="224" style="fill:#D80027;" width="512" height="64"/>
</g>
<path d="M404.946,62.532c-18.441,0-33.936,12.613-38.329,29.682l38.329,9.894l38.329-9.894  C438.882,75.144,423.387,62.532,404.946,62.532z"/>
<path d="M365.372,151.575l49.469,9.894v-21.034c13.906-3.581,24.852-14.529,28.432-28.435l-38.325-9.894h-49.468l9.894,29.682  v19.788H365.372z"/>
<path style="fill:#ACABB1;" d="M443.275,92.212h-87.797V112v19.788h9.894V112h77.901c0.815-3.162,1.249-6.477,1.249-9.894  C444.522,98.69,444.089,95.374,443.275,92.212z"/>
<path d="M116.946,62.532c-18.441,0-33.936,12.613-38.329,29.682l38.329,9.894l38.329-9.894  C150.882,75.144,135.387,62.532,116.946,62.532z"/>
<path d="M77.372,151.575l49.468,9.894v-21.034c13.906-3.581,24.852-14.529,28.432-28.435l-38.325-9.894H67.478l9.894,29.682V151.575  z"/>
<path style="fill:#ACABB1;" d="M155.275,92.212H67.478V112v19.788h9.894V112h77.901c0.815-3.162,1.249-6.477,1.249-9.894  C156.522,98.69,156.089,95.374,155.275,92.212z"/>
<path d="M404.946,350.532c-18.441,0-33.936,12.612-38.329,29.682l38.329,9.894l38.329-9.894  C438.882,363.144,423.387,350.532,404.946,350.532z"/>
<path d="M365.372,439.575l49.469,9.894v-21.034c13.906-3.581,24.852-14.529,28.432-28.435l-38.325-9.894h-49.468l9.894,29.682  v19.788H365.372z"/>
<path style="fill:#ACABB1;" d="M443.275,380.212h-87.797V400v19.788h9.894V400h77.901c0.815-3.162,1.249-6.477,1.249-9.894  C444.522,386.69,444.089,383.374,443.275,380.212z"/>
<path d="M116.946,350.532c-18.441,0-33.936,12.612-38.329,29.682l38.329,9.894l38.329-9.894  C150.882,363.144,135.387,350.532,116.946,350.532z"/>
<path d="M77.372,439.575l49.468,9.894v-21.034c13.906-3.581,24.852-14.529,28.432-28.435l-38.325-9.894H67.478l9.894,29.682V439.575  z"/>
<path style="fill:#ACABB1;" d="M155.275,380.212H67.478V400v19.788h9.894V400h77.901c0.815-3.162,1.249-6.477,1.249-9.894  C156.522,386.69,156.089,383.374,155.275,380.212z"/>
<g>
</g>
<g>
</g>
<g>
</g>
<g>
</g>
<g>
</g>
<g>
</g>
<g>
</g>
<g>
</g>
<g>
</g>
<g>
</g>
<g>
</g>
<g>
</g>
<g>
</g>
<g>
</g>
<g>
</g>
</svg>
