<?xml version="1.0" encoding="iso-8859-1"?>
<!-- Generator: Adobe Illustrator 19.0.0, SVG Export Plug-In . SVG Version: 6.00 Build 0)  -->
<svg xmlns="http://www.w3.org/2000/svg" xmlns:xlink="http://www.w3.org/1999/xlink" version="1.1" id="Capa_1" x="0px" y="0px" viewBox="0 0 512 512" style="enable-background:new 0 0 512 512;" xml:space="preserve">
<rect style="fill:#FFDA44;" width="512" height="512"/>
<polyline style="fill:#D80027;" points="0,0 512,0 512,512 "/>
<path style="fill:#FF9811;" d="M311.826,307.93c-8.922,3.505-19.289,3.133-28.282-1.916c-15.891-8.919-21.564-29.107-12.643-45  l-2.708-1.518c27.211-6.561,47.341-31.259,46.988-60.404c-0.219-18.119-8.316-34.331-20.981-45.423l-19.83,20.316  c7.497,5.975,12.358,15.14,12.483,25.45c0.22,18.224-14.425,33.23-32.649,33.45l0.038,3.103  c-19.287-20.282-50.74-25.367-75.805-10.489c-15.581,9.252-25.571,24.367-28.848,40.881l27.51,7.017  c1.426-9.48,6.932-18.272,15.799-23.536c15.672-9.303,35.99-4.122,45.293,11.55l2.67-1.584c-7.923,26.843,3.4,56.626,28.818,70.893  c15.802,8.869,33.888,9.963,49.829,4.542L311.826,307.93z M254.432,251.769L254.432,251.769l-0.001,0.001L254.432,251.769z"/>
<path style="fill:#FFEACF;" d="M335.474,181.04l-15.351,54.784l-46.062-8.506l-29.649-61.117l-80.099,28.424l-6.318-17.8  l-20.956-2.582l15.791,44.499l55.122-14.097l15.665,44.143l-38.105,56.234l64.664,55.154l-12.257,14.371l8.242,19.442l30.643-35.926  l-39.769-40.688l30.396-35.637l67.754,4.882l15.432-83.58l18.573,3.429l12.718-16.859L335.474,181.04z M255.036,252.614v0.002  V252.614L255.036,252.614z"/>
<g>
</g>
<g>
</g>
<g>
</g>
<g>
</g>
<g>
</g>
<g>
</g>
<g>
</g>
<g>
</g>
<g>
</g>
<g>
</g>
<g>
</g>
<g>
</g>
<g>
</g>
<g>
</g>
<g>
</g>
</svg>
