<?xml version="1.0" encoding="iso-8859-1"?>
<!-- Generator: Adobe Illustrator 19.0.0, SVG Export Plug-In . SVG Version: 6.00 Build 0)  -->
<svg xmlns="http://www.w3.org/2000/svg" xmlns:xlink="http://www.w3.org/1999/xlink" version="1.1" id="Capa_1" x="0px" y="0px" viewBox="0 0 512 512" style="enable-background:new 0 0 512 512;" xml:space="preserve">
<rect x="0.086" style="fill:#D80027;" width="511.828" height="511.828"/>
<rect x="11.216" y="11.127" style="fill:#0052B4;" width="489.574" height="489.574"/>
<g>
	<rect x="250.44" y="0.172" style="fill:#D80027;" width="11.127" height="511.828"/>
	<rect x="0.086" y="250.528" style="fill:#D80027;" width="511.828" height="11.127"/>
	<polygon style="fill:#D80027;" points="128.043,255.914 256,175.488 383.957,255.914 256,336.341  "/>
</g>
<polygon style="fill:#F0F0F0;" points="149.489,255.914 256,188.967 362.512,255.914 256,322.861 "/>
<polygon style="fill:#6DA544;" points="326.766,278.372 314.088,286.35 195.14,286.35 195.802,285.026 210.353,255.914   225.565,271.126 256,271.126 271.212,248.302 286.436,255.914 301.648,240.701 "/>
<polygon style="fill:#FFDA44;" points="256,210.265 259.777,221.889 271.999,221.889 262.112,229.073 265.888,240.698 256,233.514   246.113,240.698 249.889,229.073 240.002,221.889 252.224,221.889 "/>
<g>
</g>
<g>
</g>
<g>
</g>
<g>
</g>
<g>
</g>
<g>
</g>
<g>
</g>
<g>
</g>
<g>
</g>
<g>
</g>
<g>
</g>
<g>
</g>
<g>
</g>
<g>
</g>
<g>
</g>
</svg>
