<?xml version="1.0" encoding="iso-8859-1"?>
<!-- Generator: Adobe Illustrator 19.0.0, SVG Export Plug-In . SVG Version: 6.00 Build 0)  -->
<svg xmlns="http://www.w3.org/2000/svg" xmlns:xlink="http://www.w3.org/1999/xlink" version="1.1" id="Capa_1" x="0px" y="0px" viewBox="0 0 512 512" style="enable-background:new 0 0 512 512;" xml:space="preserve">
<rect y="0.006" style="fill:#F0F0F0;" width="512" height="511.989"/>
<rect style="fill:#496E2D;" width="512" height="170.663"/>
<rect y="341.337" style="fill:#D80027;" width="512" height="170.663"/>
<polygon points="256,195.132 271.107,241.629 320,241.629 280.446,270.369 295.555,316.868 256,288.131 216.445,316.868   231.554,270.369 192,241.629 240.893,241.629 "/>
<g>
	<path style="fill:#F0F0F0;" d="M305.509,56.352v33.811c0,5.328-4.333,9.661-9.66,9.661v14.491   c13.318,0,24.151-10.833,24.151-24.152V56.352H305.509z"/>
	<path style="fill:#F0F0F0;" d="M201.66,90.163c0,5.328-4.333,9.661-9.66,9.661v14.491c13.318,0,24.151-10.833,24.151-24.152V56.352   H201.66V90.163z"/>
	<rect x="283.77" y="56.352" style="fill:#F0F0F0;" width="14.492" height="33.811"/>
	<path style="fill:#F0F0F0;" d="M262.038,75.672c0,1.331-1.083,2.415-2.415,2.415c-1.331,0-2.415-1.084-2.415-2.415v-19.32h-14.491   v19.32c0,1.331-1.083,2.415-2.415,2.415c-1.331,0-2.415-1.084-2.415-2.415v-19.32h-14.491v19.32   c0,9.323,7.584,16.906,16.906,16.906c3.591,0,6.92-1.128,9.66-3.044c2.74,1.917,6.071,3.044,9.66,3.044   c0.722,0,1.434-0.051,2.133-0.14c-1.027,4.231-4.837,7.385-9.378,7.385v14.491c13.318,0,24.151-10.833,24.151-24.152v-14.49v-19.32   h-14.491v19.32H262.038z"/>
	<rect x="223.399" y="99.829" style="fill:#F0F0F0;" width="21.736" height="14.492"/>
</g>
<g>
</g>
<g>
</g>
<g>
</g>
<g>
</g>
<g>
</g>
<g>
</g>
<g>
</g>
<g>
</g>
<g>
</g>
<g>
</g>
<g>
</g>
<g>
</g>
<g>
</g>
<g>
</g>
<g>
</g>
</svg>
