<?xml version="1.0" encoding="iso-8859-1"?>
<!-- Generator: Adobe Illustrator 19.0.0, SVG Export Plug-In . SVG Version: 6.00 Build 0)  -->
<svg xmlns="http://www.w3.org/2000/svg" xmlns:xlink="http://www.w3.org/1999/xlink" version="1.1" id="Capa_1" x="0px" y="0px" viewBox="0 0 512 512" style="enable-background:new 0 0 512 512;" xml:space="preserve">
<rect style="fill:#FFDA44;" width="512" height="512"/>
<rect x="23.496" y="22.261" style="fill:#D80027;" width="465.018" height="467.478"/>
<g>
	<polygon style="fill:#0052B4;" points="474.06,489.739 488.518,489.739 488.518,359.868 256,263.519 309.426,350.816  "/>
	<polygon style="fill:#0052B4;" points="488.518,167.168 256,263.519 488.518,263.519  "/>
	<polygon style="fill:#0052B4;" points="488.518,22.261 355.971,22.261 256,263.519 488.518,31.002  "/>
	<polygon style="fill:#0052B4;" points="156.029,22.261 256,263.519 256,22.261  "/>
	<polygon style="fill:#0052B4;" points="23.495,167.174 256,263.519 23.495,31.014  "/>
	<polygon style="fill:#0052B4;" points="23.495,359.864 256,263.519 23.495,263.519  "/>
</g>
<circle style="fill:#FFDA44;" cx="255.933" cy="256" r="62.342"/>
<polygon style="fill:#F0F0F0;" points="490.973,489.579 25.951,489.579 258.462,272.201 "/>
<path style="fill:#FFDA44;" d="M283.208,356.51c0,15.061-12.21,19.478-27.27,19.478s-27.27-4.418-27.27-19.478  s12.21-27.27,27.27-27.27S283.208,341.449,283.208,356.51z"/>
<path style="fill:#0052B4;" d="M283.208,356.51c0,15.061-12.21,27.27-27.27,27.27s-27.27-12.209-27.27-27.27"/>
<g>
</g>
<g>
</g>
<g>
</g>
<g>
</g>
<g>
</g>
<g>
</g>
<g>
</g>
<g>
</g>
<g>
</g>
<g>
</g>
<g>
</g>
<g>
</g>
<g>
</g>
<g>
</g>
<g>
</g>
</svg>
